<?xml version="1.0" encoding="utf-8"?>
<!-- Generator: Adobe Illustrator 14.0.0, SVG Export Plug-In . SVG Version: 6.00 Build 43363)  -->
<!DOCTYPE svg PUBLIC "-//W3C//DTD SVG 1.1//EN" "http://www.w3.org/Graphics/SVG/1.1/DTD/svg11.dtd">
<svg version="1.1" id="Calque_1" xmlns="http://www.w3.org/2000/svg" xmlns:xlink="http://www.w3.org/1999/xlink" x="0px" y="0px"
	 width="90px" height="210px" viewBox="0 0 90 210" enable-background="new 0 0 90 210" xml:space="preserve">
<g>
	<linearGradient id="SVGID_1_" gradientUnits="userSpaceOnUse" x1="34.0337" y1="56.2344" x2="69.168" y2="56.2344">
		<stop  offset="0" style="stop-color:#FFF2DD"/>
		<stop  offset="0.4275" style="stop-color:#FBEDD5"/>
		<stop  offset="0.998" style="stop-color:#F2E0C0"/>
		<stop  offset="1" style="stop-color:#F2E0C0"/>
	</linearGradient>
	<path fill="url(#SVGID_1_)" d="M34.034,12.812c13.388,26.046,8.727,60.617,9.577,88.813c22.555,3.887,21.896-75.826,25.557-88.862
		C58.193,8.106,34.034,12.812,34.034,12.812z"/>
	<linearGradient id="SVGID_2_" gradientUnits="userSpaceOnUse" x1="23.835" y1="149.3369" x2="61.4814" y2="149.3369">
		<stop  offset="0" style="stop-color:#FFF2DD"/>
		<stop  offset="0.4275" style="stop-color:#FBEDD5"/>
		<stop  offset="0.998" style="stop-color:#F2E0C0"/>
		<stop  offset="1" style="stop-color:#F2E0C0"/>
	</linearGradient>
	<path fill="url(#SVGID_2_)" d="M48.602,104.532c-11.432-2.77-24.911,51.74-24.766,80.349c0.072,14.264,23.896,10.18,35.334,1.334
		C68.02,179.369,48.602,104.532,48.602,104.532z"/>
	<path d="M21.623,9.495c-0.61,0.35-1.283,0.774-1.48,1.203c-0.318,0.694,0.318,1.794,0.461,2.5c0.451,2.221,0.786,4.198,2.025,6.106
		c1.195,1.841,2.584,3.56,4.196,5.054c1.784,1.654,3.291,2.787,4.347,5.005c1.25,2.625,2.288,3.576,5.177,3.016
		c2.32-0.45,2.011,0.56,3.71,1.773c0.902,0.644,2.684-1.799,3.774-1.484c1.203,0.348,2.753-1.283,4-1.167
		c2.971,0.277,4.515-1.639,7.193-2.661c1.558-0.594,2.139-0.784,3.639-0.172c0.441,0.18,0.861,0.495,1.376,0.538
		c0.863,0.072,1.46-0.664,2.201-0.648c0.45,0.009,1.946,2.262,2.415,2.442c0.813,0.312,0.854,3.903,1.716,4.049
		c2.509,0.426,4.878-0.393,7.26-0.77c0.552-0.087,1.04,0.039,1.566-0.021c1.945-0.22,4.25-1.117,5.885-2.179
		c2.99-1.942,4.481-5.457,5.44-8.758c0.505-1.736,0.838-3.519,0.956-5.323c0.06-0.913,0.063-1.827,0.038-2.741
		c-0.021-0.755,0.152-2.092-0.149-2.781c-0.227-0.515-0.798-0.894-1.122-1.357c-0.68-0.974-1.467-1.347-2.617-1.806
		c-0.917-0.366-1.892-0.364-2.856-0.492c-1.19-0.157-2.293-0.555-3.417-0.96c-2.324-0.836-4.426-1.781-6.867-2.258
		c-1.734-0.339-3.402-0.801-5.109-1.242c-2.385-0.617-4.963-0.448-7.395-0.273c-2.113,0.151-4.141,0.441-6.178,1.008
		c-2.289,0.637-4.717,0.785-7.063,1.108c-2.425,0.333-4.869,0.956-7.313,1.107c-2.543,0.157-5.106-0.227-7.653-0.188
		c-0.824,0.013-2.154-0.102-2.889,0.381c-0.349,0.229-0.351,0.508-0.604,0.767c-0.688,0.706-1.475,0.629-2.438,0.477
		c-0.827-0.13-0.732-0.157-1.386,0.263C22.255,9.143,21.948,9.309,21.623,9.495z"/>
	<path fill="#FFFFFF" d="M39.919,119.464c0.223-3.62,2.167-6.587,4.157-9.519c1.121,4.422-1.77,10.378-4.573,13.519L39.919,119.464z
		"/>
	<path d="M71.086,174.814c-0.501-0.521-0.928-1.016-1.16-1.473c-1.402-2.756-2.521-5.549-5.672-6.863
		c-1.967-0.818-3.809,6.477-5.889,6.227c-2.617-0.313-5.699,1.131-8.199,0.295c-3.194-1.07-2.266-1.647-5.566-0.833
		c-0.941-0.854-1.3,1.855-2.554,1.76c-1.728-0.131-0.877-2.48-2.819-1.533c-1.93,0.939-3.889,1.343-4.097,3.187
		c-2.474,0.514-5.417-5.961-7.827-5.158c-0.374-1.309-0.047-1.951-1.629-2.646c-1.519-0.666-3.559-0.789-5.191-1.115
		c-1.433,2.588-7.282,2.957-3.98,7.037l-0.5-0.334c-0.684,1.004-0.605,1.691-0.145,2.166c-3.134,1.797-6.167,3.878-9.183,5.845
		c-2.783,1.814-4.348,4.505-2.877,7.766c0.74,1.64,2.085,1.954,3.541,3.063c1.438,1.098,2.149,1.786,4.315,1.493
		c0.448,1.569,2.438,2.1,3.78,2.603c3.248,1.215,6.618,2.079,9.924,3.115c7.498,2.351,15.953,5.771,23.907,4.134
		c5.682-1.17,9.902-4.705,15.279-6.343c3.97-1.209,7.977-2.924,10.314-6.533c1.357-2.093,3.578-6.061,2.676-8.564
		C76.564,179.415,73.25,176.565,71.086,174.814z"/>
</g>
</svg>
