<?xml version="1.0" encoding="utf-8"?>
<!-- Generator: Adobe Illustrator 14.0.0, SVG Export Plug-In . SVG Version: 6.00 Build 43363)  -->
<!DOCTYPE svg PUBLIC "-//W3C//DTD SVG 1.1//EN" "http://www.w3.org/Graphics/SVG/1.1/DTD/svg11.dtd">
<svg version="1.1" id="Calque_1" xmlns="http://www.w3.org/2000/svg" xmlns:xlink="http://www.w3.org/1999/xlink" x="0px" y="0px"
	 width="210px" height="90px" viewBox="0 0 210 90" enable-background="new 0 0 210 90" xml:space="preserve">
<g>
	
		<linearGradient id="SVGID_1_" gradientUnits="userSpaceOnUse" x1="94.0332" y1="-3.7656" x2="129.168" y2="-3.7656" gradientTransform="matrix(4.489659e-011 1 1 -4.489659e-011 61.4414 -61.4414)">
		<stop  offset="0" style="stop-color:#FFF2DD"/>
		<stop  offset="0.4275" style="stop-color:#FBEDD5"/>
		<stop  offset="0.998" style="stop-color:#F2E0C0"/>
		<stop  offset="1" style="stop-color:#F2E0C0"/>
	</linearGradient>
	<path fill="url(#SVGID_1_)" d="M14.253,32.592c26.046,13.389,60.617,8.728,88.813,9.578c3.888,22.555-75.826,21.896-88.862,25.557
		C9.547,56.752,14.253,32.592,14.253,32.592z"/>
	
		<linearGradient id="SVGID_2_" gradientUnits="userSpaceOnUse" x1="83.835" y1="89.3369" x2="121.4814" y2="89.3369" gradientTransform="matrix(4.489659e-011 1 1 -4.489659e-011 61.4414 -61.4414)">
		<stop  offset="0" style="stop-color:#FFF2DD"/>
		<stop  offset="0.4275" style="stop-color:#FBEDD5"/>
		<stop  offset="0.998" style="stop-color:#F2E0C0"/>
		<stop  offset="1" style="stop-color:#F2E0C0"/>
	</linearGradient>
	<path fill="url(#SVGID_2_)" d="M105.973,47.16c-2.77-11.433,51.74-24.911,80.349-24.766c14.264,0.072,10.18,23.896,1.334,35.334
		C180.811,66.578,105.973,47.16,105.973,47.16z"/>
	<path d="M10.937,20.181c0.35-0.61,0.774-1.283,1.203-1.48c0.694-0.318,1.794,0.318,2.5,0.462c2.221,0.451,4.198,0.786,6.106,2.024
		c1.841,1.195,3.56,2.584,5.054,4.196c1.654,1.784,2.787,3.291,5.005,4.347c2.625,1.25,3.576,2.288,3.016,5.178
		c-0.45,2.32,0.56,2.011,1.773,3.71c0.644,0.902-1.799,2.685-1.484,3.775c0.348,1.203-1.283,2.753-1.167,4
		c0.277,2.971-1.639,4.515-2.661,7.193c-0.594,1.558-0.784,2.139-0.172,3.639c0.18,0.441,0.495,0.861,0.538,1.376
		c0.072,0.863-0.664,1.46-0.648,2.201c0.009,0.45,2.262,1.946,2.442,2.415c0.312,0.813,3.903,0.854,4.049,1.716
		c0.426,2.509-0.393,4.878-0.77,7.26c-0.087,0.552,0.039,1.04-0.021,1.566c-0.22,1.945-1.117,4.25-2.179,5.885
		c-1.942,2.99-5.457,4.481-8.758,5.44c-1.736,0.505-3.519,0.838-5.323,0.956c-0.913,0.06-1.827,0.063-2.741,0.038
		c-0.755-0.021-2.092,0.152-2.781-0.149c-0.515-0.227-0.894-0.798-1.357-1.122c-0.974-0.68-1.347-1.467-1.806-2.617
		c-0.366-0.917-0.364-1.892-0.492-2.856c-0.157-1.19-0.555-2.293-0.96-3.417c-0.836-2.324-1.781-4.426-2.258-6.867
		c-0.339-1.734-0.801-3.402-1.242-5.109c-0.617-2.385-0.448-4.963-0.273-7.395c0.151-2.113,0.441-4.141,1.008-6.178
		c0.637-2.289,0.785-4.717,1.108-7.063c0.333-2.425,0.956-4.869,1.107-7.313c0.157-2.543-0.227-5.106-0.188-7.653
		c0.013-0.823-0.102-2.153,0.381-2.889c0.229-0.349,0.508-0.351,0.767-0.604c0.706-0.688,0.629-1.475,0.477-2.438
		c-0.13-0.827-0.157-0.732,0.263-1.386C10.584,20.813,10.75,20.506,10.937,20.181z"/>
	<path fill="#FFFFFF" d="M120.905,38.478c-3.62,0.223-6.587,2.167-9.519,4.157c4.422,1.121,10.378-1.77,13.519-4.573L120.905,38.478
		z"/>
	<path d="M176.256,69.645c-0.521-0.501-1.016-0.928-1.473-1.16c-2.756-1.402-5.549-2.521-6.863-5.672
		c-0.818-1.967,6.477-3.809,6.227-5.889c-0.313-2.617,1.131-5.699,0.295-8.199c-1.07-3.194-1.647-2.266-0.833-5.566
		c-0.854-0.941,1.855-1.3,1.76-2.554c-0.131-1.728-2.48-0.878-1.533-2.819c0.939-1.93,1.343-3.889,3.187-4.098
		c0.514-2.474-5.961-5.416-5.158-7.826c-1.309-0.374-1.951-0.048-2.646-1.629c-0.666-1.519-0.789-3.559-1.115-5.191
		c2.588-1.433,2.957-7.282,7.037-3.98l-0.334-0.5c1.004-0.684,1.691-0.605,2.166-0.145c1.797-3.135,3.878-6.168,5.845-9.183
		c1.814-2.783,4.505-4.349,7.766-2.878c1.64,0.74,1.954,2.085,3.063,3.541c1.098,1.438,1.786,2.148,1.493,4.314
		c1.569,0.448,2.1,2.438,2.603,3.78c1.215,3.248,2.079,6.618,3.115,9.924c2.351,7.498,5.771,15.953,4.134,23.907
		c-1.17,5.682-4.705,9.902-6.343,15.279c-1.209,3.97-2.924,7.977-6.533,10.314c-2.093,1.357-6.061,3.578-8.564,2.676
		C180.856,75.123,178.007,71.809,176.256,69.645z"/>
</g>
</svg>
