<?xml version="1.0" encoding="utf-8"?>
<!-- Generator: Adobe Illustrator 14.0.0, SVG Export Plug-In . SVG Version: 6.00 Build 43363)  -->
<!DOCTYPE svg PUBLIC "-//W3C//DTD SVG 1.1//EN" "http://www.w3.org/Graphics/SVG/1.1/DTD/svg11.dtd">
<svg version="1.1" xmlns="http://www.w3.org/2000/svg" xmlns:xlink="http://www.w3.org/1999/xlink" x="0px" y="0px" width="2000px"
	 height="1000px" viewBox="0 0 2000 1000" enable-background="new 0 0 2000 1000" xml:space="preserve">
<g id="Calque_1">
	<path fill="#41281B" d="M2000,0h-289c23.35,48.735,74.61,55.48,115.794,86.793c21.081,16.029,39.065,25.615,64.937,34.487
		c19.313,6.623,59.682,14.079,70.02,32.97c0,0,27.917,0,38.25-12.583V0z"/>
	<path fill="#41281B" d="M0,301c21.081,16.029,1703.129,82.896,1729,91.768c19.313,6.623,222.412-257.409,232.75-238.518
		l-7.835,0.535c-18.033-3.572-26.944-16.875-47.915-18.785c-49.1-4.472-49.251,21.025-96.827-13.673
		c-32.396-23.626-43.513-73.602-76.598-87.467c-36.151-15.15-55.846-7.998-87.694-34.86H0V301z"/>
	<linearGradient id="SVGID_1_" gradientUnits="userSpaceOnUse" x1="867.4482" y1="644.7363" x2="867.4482" y2="43.3516">
		<stop  offset="0" style="stop-color:#41281B"/>
		<stop  offset="1" style="stop-color:#7C4D25"/>
	</linearGradient>
	<path fill="url(#SVGID_1_)" d="M1265.832,232.825c45.086,22.063,84.677,47.555,111.938,90.607
		c12.829,20.259,12.825,44.529,15.138,67.596c2.004,20.003,8.01,34.105,15.501,52.269c11.082,26.873,20.218,77.533-6.739,97.066
		c-26.576,19.257-61.785,32.081-90.634,47.811c-34.553,18.839-69.925,38.662-108.827,46.803
		c-83.432,17.46-189.33,11.863-268.088-19.771c-51.856-20.829-97.753-45.066-153.88-53.888
		c-80.256-12.614-161.917-13.368-242.245-25.954c-25.378-3.977-294.75-56.869-203.703-130.071
		c23.014-18.503,32.261-33.151,34.398-61.805c2.266-30.387,7.032-63.506,22.291-90.409c15.807-27.87,58.839-34.84,86.732-46.808
		c32.346-13.876,53.502-47.338,86.156-57.592c41.373-12.992,38.649,41.692,75.547,47.393c24.214,3.741,55.377-38.38,78.423-48.831
		c24.339-11.037,49.837-8.446,76.859-13.076c30.269-5.185,55.917-25.103,85.236-33.035c15.405-4.167,33.583,1.244,47.931-3.284
		c7.137-2.252,11.17-9.838,18.979-13.784c23.576-11.912,54.172-24.07,74.083-40.711c27.312,9.524,58.158,28.774,84.722,43.115
		c22.327,12.053,39.022,20.526,47.31,42.006c8.402,21.78-1.855,37.938,16.541,54.677
		C1195.046,206.394,1235.059,217.766,1265.832,232.825z"/>
	<linearGradient id="SVGID_2_" gradientUnits="userSpaceOnUse" x1="1482.3057" y1="980.6328" x2="1482.3057" y2="359.9727">
		<stop  offset="0" style="stop-color:#41281B"/>
		<stop  offset="1" style="stop-color:#7C4D25"/>
	</linearGradient>
	<path fill="url(#SVGID_2_)" d="M964.611,593.972c14.625-5.548,31.971-25.9,42.031-37.147c15.85,21.746,55.068-12.985,79.548-14.521
		c32.101-2.013,68.983,13.896,101.577,5.575c42.289-10.796,50.32-69.526,89.858-86.893c-4.01,1.761,29.85-0.793,24.759-2.842
		c14.72,5.923,3.535,13.676,15.125,23.248c12.247,10.115,30.314,9.275,46.719,4.696c14.503-4.048,22.884-6.7,37.034-14.533
		c15.448-8.551,30.428-19.085,45.976-1.968c16.695-8.629,37.37-14.063,50.167-28.248c0.821,15.727,6.571,32.86,11.808,47.035
		c29.566-2.279,37.554-11.761,65.181-4.809c22.509,5.664,16.555,12.344,38.601,0.151c20.288-11.22,26.569-26.436,42.024-41.554
		c14.751-14.428,33.254-20.789,49.338-34.303c4.849,2.404,16.292,13.416,19.573,13.791c21.951,2.51,34.42-8.86,55.755-11.527
		c3.188,15.752,83.181,11.922,96.447-6.828c-0.406-0.625,3.928,6.541,3.288,6.001c37.883-1.997,90.355-28.304,120.58-49.326v378.606
		c-19.91,13.822-187.677,274.405-227.448,233.297c-22.155,33.471-669.038-41.509-697.466-17.308L964.611,593.972z"/>
	<linearGradient id="SVGID_3_" gradientUnits="userSpaceOnUse" x1="1824.4043" y1="1000.002" x2="1824.4043" y2="802.7461">
		<stop  offset="0" style="stop-color:#41281B"/>
		<stop  offset="1" style="stop-color:#7C4D25"/>
	</linearGradient>
	<path fill="url(#SVGID_3_)" d="M1657.156,1000.002l-8.348-28.141c23.657,0.733,65.892-27.853,89.428-35.432
		c24.593-7.918,55.767-12.521,78.487-26.702c51.411,31.401,151.447-66.082,183.276-106.981V1000L1657.156,1000.002z"/>
	<linearGradient id="SVGID_4_" gradientUnits="userSpaceOnUse" x1="325.5" y1="749" x2="325.5" y2="308.9536">
		<stop  offset="0" style="stop-color:#41281B"/>
		<stop  offset="1" style="stop-color:#7C4D25"/>
	</linearGradient>
	<path fill="url(#SVGID_4_)" d="M602.529,436.931c-16.43-12.036-34.736-16.35-50.014-24.327
		c-18.282-9.547-18.324-17.443-30.5-35.156c-14.723-21.419-17.647-24.566-47.811-22.258c-47.102,3.604-55.958,11.401-86.585-31.011
		c-14.374,17.351-36.866,27.589-56.376,40.666c-4.412-10.756-9.708-24.17-14.669-32.802c-23.837,52.644-56.058,39.136-94.292,26.906
		c-5.466,13.486-21.001,11.935-31.154,2.156c-12.437-11.977-6.986-37.358-7.844-52.152c-19.342,20.551-23.6,17.125-44.058,18.988
		c-4.389,0.4-8.658-8.896-12.536-8.509c-10.491,1.05-23.791,18.64-35.25,22.634c-36.962,12.884-41.983,0.361-64.74,37.885
		C13.807,401.21,8.792,336.573,0,359.973V749c31.193-23.813,633.512-295.801,651-268L602.529,436.931z"/>
	<path fill="#ECEDED" d="M1645.037,1000.002c-21.201-9.888-99.363-26.01-124.455-33.811c-29.23-9.087-59.74-6.076-90.118-7.849
		c9.339-5.868,17.828-11.861,25.103-19.802c-2.319-2.687-1.987-2.634-3.07-6.155c-24.389,0.216-30.815-7.482-52.078-15.358
		c-27.363-10.135-37.271,3.346-54.801,9.112c-22.771,82.535-142.716-41.976-148.301-84.362
		c-15.82,1.291-29.485,19.707-44.439,27.112c-44.221-34.518-53.052-65.313-54.57-119.971c-9.611-6.264-9.905-19.583-20.229-26.597
		c-22.771-15.471-56.694-1.375-79.627-22.595c-10.609-9.817-11.878-20.989-22.719-29.204c-1.73-1.312-18.009-5.115-20.2-6.185
		c-7.024-3.43-14.843-0.603-20.247-8.087c-5.662-7.84-1.921-24.887-9.271-31.219c-11.671-10.056-40.13,2.323-54.58-2.465
		c-17.698-5.865-20.844-13.603-31.261-27.418c-15.192,8.948-61.652,34.049-79.925,30.452c-0.946-19.658,0.434-39.764-0.982-59.404
		c-15.921,39.412-44.222,79.816-67.88,113.604c-27.116-40.916-24.072-102.66-20.921-149.015
		c-29.524,16.894-117.013,90.206-121.182,18.644c-23.227,37.785-56.09,70.497-74.634,111.13
		c-23.102-0.37-70.177,64.914-93.079,80.069c-9.94-16.454-5.072-40.356-13.933-58.231c-8.248,16.457-24.521,35.377-39.512,42.198
		c-4.963-22.896-3.638-46.348-7.516-69.17c-27.706,31.176-70.178,83.04-111.236,93.91c-18.87,4.996-25.544,0.299-48.189,8.473
		C101.911,779.203,62.644,825.065,0,802.746v-72.413c12.282-9.982,24.644-6.7,45.725-29.494
		c12.875-13.921,81.863-17.679,105.892-29.604c43.407-21.542,85.576-45.836,130.651-65.715
		c46.497-20.507,80.161-57.131,125.119-76.043c45.928-19.32,87.646-46.375,135.342-64.541c23.089-8.794,49.296-21.128,70.356-34.291
		c14.82-9.263,42.09-25.55,52.5-37.876c30.203,21.145,70.346,33.183,103.284,49.975c41.649,21.233,63.163,56.75,98.948,83.531
		c31.026,23.22,71.095,30.853,92.88,62.418c10.683,15.479,25.378,26.677,36.673,41.583c13.797,18.207,28.075,39.981,50.827,49.804
		c11.923,5.146,27.113,3.105,39.527,8.526c11.281,4.927,19.836,13.003,32.488,17.189c17.467,5.779,36.359,8.488,54.552,10.627
		c17.592,2.069,48.061-3.606,64.21,2.538c17.074,6.496,11.233,15.075,20.214,33.602c10.104,20.843,31.492,32.763,41.446,51.516
		c23.864,44.962,39.908,71.117,95.496,84.552c36.729,8.877,68.494,24.692,106.432,30.783c19.985,3.209,42.918,8.758,60.861,14.972
		c19.227,6.657,47.586,13.175,67.091,23.806c9.871,5.38,19.939,15.364,28.529,22.658c13.868,11.776,37.938,8.917,52.112,19.155
		H1645.037z"/>
	<path fill="#ECEDED" d="M1953.915,154.785c-18.033-3.572-26.944-16.875-47.915-18.785c-49.1-4.472-49.251,21.025-96.827-13.673
		c-32.396-23.626-43.513-73.602-76.598-87.467c-36.151-15.15-55.846-7.998-87.694-34.86H1711
		c23.35,48.735,74.61,55.48,115.794,86.793c21.081,16.029,39.065,25.615,64.937,34.487c19.313,6.623,59.682,14.079,70.02,32.97
		L1953.915,154.785z"/>
	<path fill="#ECEDED" d="M2000,730.333c-22.84,17.705-41.566,26.74-63.803,42.832c-15.701,11.361-25.466,31.562-38.094,43.881
		c-28.923,28.215-73.396,43.978-113.783,48.477c-2.07,39.968-35.281,33.566-64.538,44.302c-27.661,10.15-57.663,37.637-81.31,53.554
		l10.336,8.483c23.657,0.733,65.892-27.853,89.428-35.432c24.593-7.918,55.767-12.521,78.487-26.702
		c51.411,31.401,151.447-66.082,183.276-106.981V730.333z"/>
	<path fill="#ECEDED" d="M602.53,436.931c-16.43-12.037-34.736-16.35-50.014-24.327c-18.283-9.547-18.325-17.444-30.501-35.157
		c-14.723-21.418-17.647-24.566-47.811-22.257c-47.102,3.604-55.958,11.401-86.585-31.011
		c-14.374,17.35-36.866,27.588-56.376,40.666c-4.412-10.756-9.708-24.17-14.669-32.802c-23.837,52.644-56.058,39.136-94.292,26.906
		c-5.466,13.486-21.001,11.935-31.154,2.157c-12.437-11.977-6.986-37.359-7.844-52.153c-19.342,20.551-23.6,17.125-44.058,18.989
		c-4.389,0.4-8.658-8.896-12.536-8.509c-10.491,1.049-23.791,18.64-35.25,22.634c-36.962,12.883-41.983,0.361-64.74,37.884
		C13.807,401.21,8.792,336.573,0,359.972V110.979c31.193-23.813,68.75-49.543,105.535-57.06
		c23.202-4.741,25.757,5.321,41.682,20.714c21.429,20.713,36.107,23.367,68.028,28.085c-0.193,19.818-23.917,47.297-19.715,64.046
		c1.39,5.54,15.605,13.75,19.138,20.474c16.842,32.053,1.945,54.737,44.471,65.2c15.342,3.775,42.687,10.903,59.124,5.74
		c8.182-2.57,11.157-10.047,18.248-13.351c8.688-4.049,18.752-4.132,27.9-7.018c39.155-12.35,73.375-10.232,114.83-10.075
		c40.699,0.155,77.121,18.839,116.035,29.878c-1.811,1.281-3.34,1.969-5.04,3.287c8.763,17.92-0.583,26.326-2.848,43.732
		c-1.789,13.756,0.99,31.165,3.968,44.951C598.885,384.432,623.512,386.199,641,414L602.53,436.931z"/>
	<path fill="#ECEDED" d="M964.611,593.972c14.625-5.548,31.971-25.9,42.031-37.147c15.85,21.746,55.068-12.985,79.548-14.521
		c32.101-2.013,68.983,13.896,101.577,5.575c42.289-10.796,50.32-69.526,89.858-86.893c-4.01,1.761,29.85-0.793,24.759-2.841
		c14.72,5.923,3.535,13.675,15.125,23.249c12.247,10.115,30.314,9.275,46.719,4.696c14.503-4.048,22.884-6.7,37.034-14.533
		c15.448-8.551,30.428-19.085,45.976-1.968c16.695-8.628,37.37-14.063,50.167-28.248c0.821,15.727,6.571,32.86,11.808,47.035
		c29.566-2.278,37.554-11.76,65.181-4.808c22.509,5.664,16.555,12.344,38.601,0.151c20.288-11.22,26.569-26.436,42.024-41.553
		c14.751-14.429,33.254-20.79,49.338-34.303c4.849,2.404,16.292,13.416,19.573,13.791c21.951,2.51,34.42-8.86,55.755-11.527
		c3.188,15.751,83.181,11.922,96.447-6.828c-0.406-0.625,3.928,6.542,3.288,6.001c37.883-1.998,90.355-28.304,120.58-49.326V111
		c-19.91,13.823-12.679,23.15-31.872,37.735c-8.308,6.313-15.125,13.49-23.692,19.713c-12.359,8.976-31.233,30.037-45.41,34.496
		c-12.053,3.792-30.293-5.961-41.899-0.399c-7.692,3.687-29.264,36.26-25.219,0.247c-23.017,22.389-66.328,27.013-95.93,34.56
		c-11.946,3.046-36.476,4.826-44.462,16.004c-2.999,4.197,3.613,10.141,1,14.722c-13.351,23.402-38.276,20.745-51.902,40.915
		c-10.483,15.517-40.646,92.521-62.884,43.692c-30.946,17.316-112.231,19.595-127.878-10.886
		c-7.871-15.333-3.242-38.082-22.048-48.03c-7.198-3.808-14.401,1.113-21.305-1.953c-8.61-3.825-14.568-14.393-23.704-18.782
		c-24.765-11.898-44.905-3.228-66.938,8.874c-42.521,23.356-55.514,79.869-98.938,96.195c-18.202,6.843-28.251,6.518-43.292,17.83
		c-23.458,17.641-46.154,36.994-69.605,54.872c-28.057,21.389-71.481,94.904-111.253,53.795
		c-22.155,33.471-52.675,23.531-81.102,47.732L964.611,593.972z"/>
	<path fill="#F6F6F6" d="M1119.831,241.793c-14.31,5.993-24.536,14.524-39.979,10.179c-17.005-4.785-16.941-22.771-28.509-27.435
		c-24.54-9.894-65.217,12.233-94.845,1.493c-35.93-13.024-24.754-22.788-63.698-3.62c-52.871,26.022-127.671,55.296-181.01,10.383
		c-15.52-13.068-72.373-36.721-72.373-36.721c24.214,3.741,55.377-38.38,78.423-48.831c24.339-11.037,49.837-8.446,76.859-13.076
		c30.269-5.185,55.917-25.103,85.236-33.035c15.405-4.167,33.583,1.244,47.931-3.284c7.136-2.252,11.17-9.838,18.978-13.784
		c23.577-11.912,54.172-24.07,74.083-40.711c27.312,9.524,58.158,28.774,84.722,43.115c22.327,12.053,39.022,20.526,47.31,42.006
		c8.402,21.78-1.855,37.938,16.541,54.677c25.545,23.245,65.558,34.616,96.331,49.675
		C1265.832,232.825,1153.562,227.667,1119.831,241.793z"/>
	<linearGradient id="SVGID_5_" gradientUnits="userSpaceOnUse" x1="823.0161" y1="1000.002" x2="823.0161" y2="530.7871">
		<stop  offset="0" style="stop-color:#41281B"/>
		<stop  offset="1" style="stop-color:#7C4D25"/>
	</linearGradient>
	<path fill="url(#SVGID_5_)" d="M1646.031,1000.002c-21.201-9.888-100.357-26.01-125.449-33.811
		c-29.23-9.087-59.74-6.076-90.118-7.849c9.339-5.868,17.828-11.861,25.103-19.802c-2.319-2.687-1.987-2.634-3.07-6.155
		c-24.389,0.216-30.815-7.482-52.078-15.358c-27.363-10.135-37.271,3.346-54.801,9.112
		c-22.771,82.535-142.716-41.976-148.301-84.362c-15.82,1.291-29.485,19.707-44.439,27.112
		c-44.221-34.518-53.052-65.313-54.57-119.971c-9.611-6.264-9.905-19.583-20.229-26.597c-22.771-15.471-56.694-1.375-79.627-22.595
		c-10.609-9.817-11.879-20.989-22.719-29.204c-1.73-1.312-18.01-5.115-20.2-6.185c-7.024-3.43-14.843-0.603-20.247-8.087
		c-5.662-7.84-1.922-24.887-9.271-31.219c-11.671-10.056-40.13,2.323-54.579-2.465c-17.699-5.865-20.844-13.603-31.262-27.418
		c-15.192,8.948-61.652,34.049-79.925,30.452c-0.946-19.658,0.434-39.764-0.982-59.404c-15.921,39.412-44.222,79.816-67.88,113.604
		c-27.116-40.916-24.072-102.66-20.921-149.015c-29.524,16.894-117.013,90.206-121.182,18.644
		c-23.227,37.785-56.09,70.497-74.634,111.13c-23.102-0.37-70.177,64.914-93.079,80.069c-9.94-16.454-5.072-40.356-13.933-58.231
		c-8.248,16.457-24.521,35.377-39.512,42.198c-4.963-22.896-3.638-46.348-7.516-69.17c-27.706,31.176-70.178,83.04-111.236,93.91
		c-18.87,4.996-25.544,0.299-48.189,8.473C101.911,779.203,62.644,825.065,0,802.746V1000L1646.031,1000.002z"/>
</g>
<g id="Calque_2">
	<rect opacity="0.5" width="2000" height="1000"/>
</g>
</svg>
