<?xml version="1.0" encoding="utf-8"?>
<!-- Generator: Adobe Illustrator 14.0.0, SVG Export Plug-In . SVG Version: 6.00 Build 43363)  -->
<!DOCTYPE svg PUBLIC "-//W3C//DTD SVG 1.1//EN" "http://www.w3.org/Graphics/SVG/1.1/DTD/svg11.dtd">
<svg version="1.1" xmlns="http://www.w3.org/2000/svg" xmlns:xlink="http://www.w3.org/1999/xlink" x="0px" y="0px"
	 width="1872.1px" height="1323.719px" viewBox="0 0 1872.1 1323.719" enable-background="new 0 0 1872.1 1323.719"
	 xml:space="preserve">
<g id="Calque_1">
	<rect fill="#87888A" width="1872.1" height="1323.719"/>
	<g>
		<radialGradient id="SVGID_1_" cx="1398.1436" cy="937.5986" r="200.1318" gradientUnits="userSpaceOnUse">
			<stop  offset="0" style="stop-color:#87888A"/>
			<stop  offset="0.6727" style="stop-color:#87888A"/>
			<stop  offset="0.7146" style="stop-color:#8D8E90"/>
			<stop  offset="0.7782" style="stop-color:#9FA0A2"/>
			<stop  offset="0.8303" style="stop-color:#B1B3B4"/>
			<stop  offset="0.8393" style="stop-color:#ADAFB1"/>
			<stop  offset="0.9119" style="stop-color:#929395"/>
			<stop  offset="0.9515" style="stop-color:#87888A"/>
		</radialGradient>
		<circle fill="url(#SVGID_1_)" cx="1398.144" cy="937.598" r="200.132"/>
		<radialGradient id="SVGID_2_" cx="160.1055" cy="449.186" r="142.3333" gradientUnits="userSpaceOnUse">
			<stop  offset="0" style="stop-color:#87888A"/>
			<stop  offset="0.6727" style="stop-color:#87888A"/>
			<stop  offset="0.7146" style="stop-color:#8D8E90"/>
			<stop  offset="0.7782" style="stop-color:#9FA0A2"/>
			<stop  offset="0.8303" style="stop-color:#B1B3B4"/>
			<stop  offset="0.8393" style="stop-color:#ADAFB1"/>
			<stop  offset="0.9119" style="stop-color:#929395"/>
			<stop  offset="0.9515" style="stop-color:#87888A"/>
		</radialGradient>
		<ellipse fill="url(#SVGID_2_)" cx="160.105" cy="449.186" rx="144.54" ry="140.092"/>
		<radialGradient id="SVGID_3_" cx="48.9209" cy="1034.0156" r="34.4852" gradientUnits="userSpaceOnUse">
			<stop  offset="0" style="stop-color:#87888A"/>
			<stop  offset="0.6727" style="stop-color:#87888A"/>
			<stop  offset="0.7146" style="stop-color:#8D8E90"/>
			<stop  offset="0.7782" style="stop-color:#9FA0A2"/>
			<stop  offset="0.8303" style="stop-color:#B1B3B4"/>
			<stop  offset="0.8393" style="stop-color:#ADAFB1"/>
			<stop  offset="0.9119" style="stop-color:#929395"/>
			<stop  offset="0.9515" style="stop-color:#87888A"/>
		</radialGradient>
		<ellipse fill="url(#SVGID_3_)" cx="48.921" cy="1034.016" rx="33.355" ry="35.579"/>
		<radialGradient id="SVGID_4_" cx="584.8301" cy="904.2427" r="191.2371" gradientUnits="userSpaceOnUse">
			<stop  offset="0" style="stop-color:#87888A"/>
			<stop  offset="0.6727" style="stop-color:#87888A"/>
			<stop  offset="0.7146" style="stop-color:#8D8E90"/>
			<stop  offset="0.7782" style="stop-color:#9FA0A2"/>
			<stop  offset="0.8303" style="stop-color:#B1B3B4"/>
			<stop  offset="0.8393" style="stop-color:#ADAFB1"/>
			<stop  offset="0.9119" style="stop-color:#929395"/>
			<stop  offset="0.9515" style="stop-color:#87888A"/>
		</radialGradient>
		<circle fill="url(#SVGID_4_)" cx="584.83" cy="904.243" r="191.237"/>
		<radialGradient id="SVGID_5_" cx="1071.3506" cy="1283.0684" r="25.5728" gradientUnits="userSpaceOnUse">
			<stop  offset="0" style="stop-color:#87888A"/>
			<stop  offset="0.6727" style="stop-color:#87888A"/>
			<stop  offset="0.7146" style="stop-color:#8D8E90"/>
			<stop  offset="0.7782" style="stop-color:#9FA0A2"/>
			<stop  offset="0.8303" style="stop-color:#B1B3B4"/>
			<stop  offset="0.8393" style="stop-color:#ADAFB1"/>
			<stop  offset="0.9119" style="stop-color:#929395"/>
			<stop  offset="0.9515" style="stop-color:#87888A"/>
		</radialGradient>
		<circle fill="url(#SVGID_5_)" cx="1071.351" cy="1283.069" r="25.572"/>
		<radialGradient id="SVGID_6_" cx="1598.2754" cy="291.3037" r="65.5994" gradientUnits="userSpaceOnUse">
			<stop  offset="0" style="stop-color:#87888A"/>
			<stop  offset="0.6727" style="stop-color:#87888A"/>
			<stop  offset="0.7146" style="stop-color:#8D8E90"/>
			<stop  offset="0.7782" style="stop-color:#9FA0A2"/>
			<stop  offset="0.8303" style="stop-color:#B1B3B4"/>
			<stop  offset="0.8393" style="stop-color:#ADAFB1"/>
			<stop  offset="0.9119" style="stop-color:#929395"/>
			<stop  offset="0.9515" style="stop-color:#87888A"/>
		</radialGradient>
		<circle fill="url(#SVGID_6_)" cx="1598.276" cy="291.304" r="65.599"/>
		<radialGradient id="SVGID_7_" cx="1016.1641" cy="356.9033" r="111.1843" gradientUnits="userSpaceOnUse">
			<stop  offset="0" style="stop-color:#87888A"/>
			<stop  offset="0.6727" style="stop-color:#87888A"/>
			<stop  offset="0.7146" style="stop-color:#8D8E90"/>
			<stop  offset="0.7782" style="stop-color:#9FA0A2"/>
			<stop  offset="0.8303" style="stop-color:#B1B3B4"/>
			<stop  offset="0.8393" style="stop-color:#ADAFB1"/>
			<stop  offset="0.9119" style="stop-color:#929395"/>
			<stop  offset="0.9515" style="stop-color:#87888A"/>
		</radialGradient>
		<circle fill="url(#SVGID_7_)" cx="1016.165" cy="356.903" r="111.184"/>
		<radialGradient id="SVGID_8_" cx="232.9316" cy="1210.7988" r="46.6973" gradientUnits="userSpaceOnUse">
			<stop  offset="0" style="stop-color:#87888A"/>
			<stop  offset="0.6727" style="stop-color:#87888A"/>
			<stop  offset="0.7146" style="stop-color:#8D8E90"/>
			<stop  offset="0.7782" style="stop-color:#9FA0A2"/>
			<stop  offset="0.8303" style="stop-color:#B1B3B4"/>
			<stop  offset="0.8393" style="stop-color:#ADAFB1"/>
			<stop  offset="0.9119" style="stop-color:#929395"/>
			<stop  offset="0.9515" style="stop-color:#87888A"/>
		</radialGradient>
		<circle fill="url(#SVGID_8_)" cx="232.931" cy="1210.799" r="46.698"/>
		<radialGradient id="SVGID_9_" cx="1648.8643" cy="1244.1543" r="61.1514" gradientUnits="userSpaceOnUse">
			<stop  offset="0" style="stop-color:#87888A"/>
			<stop  offset="0.6727" style="stop-color:#87888A"/>
			<stop  offset="0.7146" style="stop-color:#8D8E90"/>
			<stop  offset="0.7782" style="stop-color:#9FA0A2"/>
			<stop  offset="0.8303" style="stop-color:#B1B3B4"/>
			<stop  offset="0.8393" style="stop-color:#ADAFB1"/>
			<stop  offset="0.9119" style="stop-color:#929395"/>
			<stop  offset="0.9515" style="stop-color:#87888A"/>
		</radialGradient>
		<circle fill="url(#SVGID_9_)" cx="1648.864" cy="1244.154" r="61.151"/>
		<radialGradient id="SVGID_10_" cx="499.7734" cy="582.4858" r="68.3787" gradientUnits="userSpaceOnUse">
			<stop  offset="0" style="stop-color:#87888A"/>
			<stop  offset="0.6727" style="stop-color:#87888A"/>
			<stop  offset="0.7146" style="stop-color:#8D8E90"/>
			<stop  offset="0.7782" style="stop-color:#9FA0A2"/>
			<stop  offset="0.8303" style="stop-color:#B1B3B4"/>
			<stop  offset="0.8393" style="stop-color:#ADAFB1"/>
			<stop  offset="0.9119" style="stop-color:#929395"/>
			<stop  offset="0.9515" style="stop-color:#87888A"/>
		</radialGradient>
		<circle fill="url(#SVGID_10_)" cx="499.774" cy="582.485" r="68.378"/>
		<radialGradient id="SVGID_11_" cx="1533.2324" cy="531.4619" r="135.0896" gradientUnits="userSpaceOnUse">
			<stop  offset="0" style="stop-color:#87888A"/>
			<stop  offset="0.6727" style="stop-color:#87888A"/>
			<stop  offset="0.7146" style="stop-color:#8D8E90"/>
			<stop  offset="0.7782" style="stop-color:#9FA0A2"/>
			<stop  offset="0.8303" style="stop-color:#B1B3B4"/>
			<stop  offset="0.8393" style="stop-color:#ADAFB1"/>
			<stop  offset="0.9119" style="stop-color:#929395"/>
			<stop  offset="0.9515" style="stop-color:#87888A"/>
		</radialGradient>
		<circle fill="url(#SVGID_11_)" cx="1533.233" cy="531.462" r="135.089"/>
		<radialGradient id="SVGID_12_" cx="873.9102" cy="681.9346" r="31.0708" gradientUnits="userSpaceOnUse">
			<stop  offset="0" style="stop-color:#87888A"/>
			<stop  offset="0.6727" style="stop-color:#87888A"/>
			<stop  offset="0.7146" style="stop-color:#8D8E90"/>
			<stop  offset="0.7782" style="stop-color:#9FA0A2"/>
			<stop  offset="0.8303" style="stop-color:#B1B3B4"/>
			<stop  offset="0.8393" style="stop-color:#ADAFB1"/>
			<stop  offset="0.9119" style="stop-color:#929395"/>
			<stop  offset="0.9515" style="stop-color:#87888A"/>
		</radialGradient>
		<circle fill="url(#SVGID_12_)" cx="873.91" cy="681.935" r="31.07"/>
		<radialGradient id="SVGID_13_" cx="776.0674" cy="185.6787" r="40.0264" gradientUnits="userSpaceOnUse">
			<stop  offset="0" style="stop-color:#87888A"/>
			<stop  offset="0.6727" style="stop-color:#87888A"/>
			<stop  offset="0.7146" style="stop-color:#8D8E90"/>
			<stop  offset="0.7782" style="stop-color:#9FA0A2"/>
			<stop  offset="0.8303" style="stop-color:#B1B3B4"/>
			<stop  offset="0.8393" style="stop-color:#ADAFB1"/>
			<stop  offset="0.9119" style="stop-color:#929395"/>
			<stop  offset="0.9515" style="stop-color:#87888A"/>
		</radialGradient>
		<circle fill="url(#SVGID_13_)" cx="776.067" cy="185.679" r="40.026"/>
		<radialGradient id="SVGID_14_" cx="1002.8828" cy="46.6982" r="32.2439" gradientUnits="userSpaceOnUse">
			<stop  offset="0" style="stop-color:#87888A"/>
			<stop  offset="0.6727" style="stop-color:#87888A"/>
			<stop  offset="0.7146" style="stop-color:#8D8E90"/>
			<stop  offset="0.7782" style="stop-color:#9FA0A2"/>
			<stop  offset="0.8303" style="stop-color:#B1B3B4"/>
			<stop  offset="0.8393" style="stop-color:#ADAFB1"/>
			<stop  offset="0.9119" style="stop-color:#929395"/>
			<stop  offset="0.9515" style="stop-color:#87888A"/>
		</radialGradient>
		<circle fill="url(#SVGID_14_)" cx="1002.883" cy="46.698" r="32.244"/>
		<radialGradient id="SVGID_15_" cx="1233.752" cy="589.2783" r="21.4478" gradientUnits="userSpaceOnUse">
			<stop  offset="0" style="stop-color:#87888A"/>
			<stop  offset="0.6727" style="stop-color:#87888A"/>
			<stop  offset="0.7146" style="stop-color:#8D8E90"/>
			<stop  offset="0.7782" style="stop-color:#9FA0A2"/>
			<stop  offset="0.8303" style="stop-color:#B1B3B4"/>
			<stop  offset="0.8393" style="stop-color:#ADAFB1"/>
			<stop  offset="0.9119" style="stop-color:#929395"/>
			<stop  offset="0.9515" style="stop-color:#87888A"/>
		</radialGradient>
		<circle fill="url(#SVGID_15_)" cx="1233.752" cy="589.278" r="21.448"/>
		<radialGradient id="SVGID_16_" cx="1607.3311" cy="737.4658" r="19.6182" gradientUnits="userSpaceOnUse">
			<stop  offset="0" style="stop-color:#87888A"/>
			<stop  offset="0.6727" style="stop-color:#87888A"/>
			<stop  offset="0.7146" style="stop-color:#8D8E90"/>
			<stop  offset="0.7782" style="stop-color:#9FA0A2"/>
			<stop  offset="0.8303" style="stop-color:#B1B3B4"/>
			<stop  offset="0.8393" style="stop-color:#ADAFB1"/>
			<stop  offset="0.9119" style="stop-color:#929395"/>
			<stop  offset="0.9515" style="stop-color:#87888A"/>
		</radialGradient>
		<circle fill="url(#SVGID_16_)" cx="1607.331" cy="737.466" r="19.618"/>
		<radialGradient id="SVGID_17_" cx="1752.2656" cy="842.7783" r="8.8953" gradientUnits="userSpaceOnUse">
			<stop  offset="0" style="stop-color:#87888A"/>
			<stop  offset="0.6727" style="stop-color:#87888A"/>
			<stop  offset="0.7146" style="stop-color:#8D8E90"/>
			<stop  offset="0.7782" style="stop-color:#9FA0A2"/>
			<stop  offset="0.8303" style="stop-color:#B1B3B4"/>
			<stop  offset="0.8393" style="stop-color:#ADAFB1"/>
			<stop  offset="0.9119" style="stop-color:#929395"/>
			<stop  offset="0.9515" style="stop-color:#87888A"/>
		</radialGradient>
		<circle fill="url(#SVGID_17_)" cx="1752.266" cy="842.779" r="8.895"/>
		<radialGradient id="SVGID_18_" cx="1795.7822" cy="54.9424" r="52.4106" gradientUnits="userSpaceOnUse">
			<stop  offset="0" style="stop-color:#87888A"/>
			<stop  offset="0.6727" style="stop-color:#87888A"/>
			<stop  offset="0.7146" style="stop-color:#8D8E90"/>
			<stop  offset="0.7782" style="stop-color:#9FA0A2"/>
			<stop  offset="0.8303" style="stop-color:#B1B3B4"/>
			<stop  offset="0.8393" style="stop-color:#ADAFB1"/>
			<stop  offset="0.9119" style="stop-color:#929395"/>
			<stop  offset="0.9515" style="stop-color:#87888A"/>
		</radialGradient>
		<circle fill="url(#SVGID_18_)" cx="1795.782" cy="54.943" r="52.411"/>
		<radialGradient id="SVGID_19_" cx="479.2051" cy="225.7051" r="20.5688" gradientUnits="userSpaceOnUse">
			<stop  offset="0" style="stop-color:#87888A"/>
			<stop  offset="0.6727" style="stop-color:#87888A"/>
			<stop  offset="0.7146" style="stop-color:#8D8E90"/>
			<stop  offset="0.7782" style="stop-color:#9FA0A2"/>
			<stop  offset="0.8303" style="stop-color:#B1B3B4"/>
			<stop  offset="0.8393" style="stop-color:#ADAFB1"/>
			<stop  offset="0.9119" style="stop-color:#929395"/>
			<stop  offset="0.9515" style="stop-color:#87888A"/>
		</radialGradient>
		<circle fill="url(#SVGID_19_)" cx="479.205" cy="225.705" r="20.569"/>
		<radialGradient id="SVGID_20_" cx="97.8423" cy="77.8301" r="31.1318" gradientUnits="userSpaceOnUse">
			<stop  offset="0" style="stop-color:#87888A"/>
			<stop  offset="0.6727" style="stop-color:#87888A"/>
			<stop  offset="0.7146" style="stop-color:#8D8E90"/>
			<stop  offset="0.7782" style="stop-color:#9FA0A2"/>
			<stop  offset="0.8303" style="stop-color:#B1B3B4"/>
			<stop  offset="0.8393" style="stop-color:#ADAFB1"/>
			<stop  offset="0.9119" style="stop-color:#929395"/>
			<stop  offset="0.9515" style="stop-color:#87888A"/>
		</radialGradient>
		<circle fill="url(#SVGID_20_)" cx="97.842" cy="77.83" r="31.132"/>
	</g>
	<g>
		<g>
			<g>
				<polygon fill="#B1B3B4" points="337.792,259.283 313.822,265.712 338.362,275.385 315.388,279.077 333.083,290.667 
					315.725,293.158 304.539,295.979 300.141,300.796 298.143,306.728 295.198,312.229 292.671,318.152 304.117,336.621 
					290.334,333.684 287.177,340.522 276.784,338.598 274.338,346.703 276.52,364.201 257.948,344.506 261.57,369.448 
					255.44,375.663 242.206,357.301 237.729,368.841 230.993,373.683 222.419,358.025 215.936,367.297 209.748,353.451 
					201.75,367.009 192.215,378.58 190.67,353.541 178.926,368.308 171.076,367.575 159.508,373.678 158.243,359.201 
					145.912,364.055 139.131,359.356 140.32,345.502 133.254,341.963 123.771,340.112 139.056,318.26 139.027,310.649 
					124.408,312.119 104.5,314.246 110.127,303.111 95.719,300.091 124.648,283.755 91.453,284.029 97.19,274.906 99.727,266.895 
					94.507,259.283 120.839,253.036 118.169,246.395 104.088,237.038 110.56,231.046 107.579,222.501 119.043,219.151 
					102.265,203.215 116.595,201.925 134.184,204.674 129.816,193.204 138.554,191.426 126.052,169.398 131.95,163.524 
					153.533,177.946 163.36,180.57 166.953,174.416 168.539,163.163 174.936,160.295 181.27,157.163 189.272,159.8 196.063,159.438 
					200.483,141.849 208.021,138.386 215.936,135.805 222.868,153.6 228.719,162.323 236.099,157.963 246.682,144.524 
					252.771,150.771 261.165,150.1 269.702,150.276 278.889,150.272 271.78,175.689 274.527,182.906 298.469,165.182 
					291.024,184.196 309.541,177.188 300.401,194.477 295.551,206.104 321.237,198.479 321.137,207.401 314.222,218.575 
					321.657,223.396 313.256,233.199 336.247,235.362 320.562,245.5 319.562,252.484 				"/>
			</g>
			<g>
				<polygon fill="#B1B3B4" points="1208.94,129.204 1204.083,135.248 1210.212,143.894 1207.607,151.006 1200.557,154.969 
					1197.924,162.657 1186.688,158.378 1183.063,165.503 1177.33,171.639 1169.851,172.716 1162.703,169.739 1157.39,163.438 
					1148.228,166.65 1141.552,162.925 1137.891,156.021 1138.955,147.034 1131.015,143.339 1130.159,136.203 1135.774,129.204 
					1135.386,123.121 1132.799,115.718 1129.698,106.016 1136.354,101.093 1142.546,96.664 1151.133,96.778 1156.373,92.174 
					1163.803,94.942 1169.851,86.803 1176.314,92.566 1184.901,87.855 1186.711,99.987 1193.359,101.184 1201.895,102.316 
					1205.719,108.495 1213.152,113.443 1209.814,122.157 				"/>
			</g>
			<g>
				<polygon fill="#B1B3B4" points="1400.756,89.179 1398.596,95.697 1404.003,104.067 1402.813,111.796 1394.501,115.66 
					1387.818,119.093 1389.911,131.434 1380.854,132.062 1375.169,137.076 1365.679,131.347 1359.241,130.471 1353.294,142.373 
					1346.433,136.892 1338.826,138.453 1330.732,138.573 1327.698,129.01 1316.698,131.409 1317.006,120.621 1307.062,118.897 
					1312.326,107.886 1305.963,103.077 1306.1,95.966 1300.011,89.179 1305.739,82.34 1303.36,74.518 1303.736,66.542 
					1306.915,59.366 1320.592,60.845 1319.153,49.778 1330.345,53.457 1333.1,44.958 1338.244,37.918 1345.759,36.737 
					1353.294,40.096 1361.204,34.107 1365.881,46.32 1371.369,49.594 1379.579,48.278 1387.503,49.703 1385.053,61.664 
					1396.539,61.385 1401.221,67.29 1399.55,75.596 1405.101,81.734 				"/>
			</g>
			<g>
				<polygon fill="#B1B3B4" points="1655.781,424.633 1653,430.945 1655.96,438.258 1648.075,442.427 1651.07,451.166 
					1643.535,454.11 1646.15,465.671 1635.462,464.192 1632.255,471.647 1627.793,479.384 1620.878,483.491 1613.097,485.352 
					1605.111,482.776 1598.103,477.87 1589.323,483.569 1587.468,467.238 1578.365,470.958 1568.863,471.865 1567.172,462.571 
					1568.692,452.571 1566.157,447.113 1549.908,447.501 1554.476,438.203 1554.789,431.263 1557.975,424.633 1556.018,418.164 
					1550.248,409.933 1548.525,401.191 1553.789,394.996 1563.666,392.83 1565.771,385.29 1568.501,376.925 1581.544,383.798 
					1582.751,370.652 1593.397,380.937 1598.509,374.514 1605.111,372.62 1611.425,376.738 1617.984,376.603 1625.013,376.587 
					1635.029,372.827 1632.761,388.592 1643.983,385.762 1650.489,389.812 1655.657,395.447 1655.138,403.912 1651.846,412.106 
					1650.862,418.599 				"/>
			</g>
			<g>
				<polygon fill="#B1B3B4" points="1334.879,287.634 1335.32,295.774 1326.371,300.008 1322.915,305.618 1320.337,314.313 
					1311.484,312.083 1304.932,319.174 1297.145,316.7 1290.084,313.349 1284.552,308.013 1282.7,300.466 1278.354,294.757 
					1278.633,287.634 1277.071,280.169 1283.979,275.542 1283.545,266.247 1288.852,259.79 1298.702,264.402 1304.932,262.825 
					1313.262,256.541 1319.305,262.741 1326.48,266.086 1329.127,273.665 1329.777,280.974 				"/>
			</g>
			<g>
				<polygon fill="#B1B3B4" points="1574.896,232.6 1581.126,239.325 1574.916,244.622 1586.357,255.921 1573.562,257.708 
					1575.436,267.416 1569.263,271.797 1566.143,279.611 1553.642,273.446 1551.613,284.614 1545.547,290.386 1537.609,289.923 
					1530.066,277.931 1522.416,290.751 1516.971,281.464 1511.938,276.37 1501.765,281.614 1498.079,274.289 1486.558,276.108 
					1483.247,268.53 1478.529,262.36 1488.469,249.827 1481.499,245.617 1477.926,239.467 1484.409,232.6 1473.331,225.135 
					1475.52,217.985 1477.377,210.772 1490.523,209.776 1492.193,203.545 1486.529,189.063 1492.453,183.59 1500.78,181.883 
					1510.044,184.26 1514.884,175.931 1522.939,178.465 1530.066,176.458 1536.855,181.046 1542.137,187.577 1547.706,190.007 
					1556.971,186.002 1558.076,196.09 1563.785,198.883 1569.47,202.37 1582.826,202.133 1572.71,214.94 1579.028,219.479 
					1574.771,226.703 				"/>
			</g>
			<g>
				<polygon fill="#B1B3B4" points="1106.511,483.191 1115.12,491.55 1111.922,499.491 1103.979,505.846 1085.843,507.36 
					1101.554,521.49 1082.577,519.633 1090.153,532.712 1089.769,542.216 1086.989,550.748 1072.823,546.82 1071.132,557.017 
					1065.414,562.818 1050.742,550.347 1050.874,569.565 1043.187,571.852 1032.079,554.82 1027.198,571.986 1019.435,555.687 
					1011.38,575.356 1006.534,556.271 994.89,574.814 991.998,558.57 987.542,551.595 973.554,562.645 967.95,556.708 
					967.785,544.746 969.214,533.409 947.964,543.165 952.028,530.385 937.029,530.777 936.228,521.997 952.826,507.436 
					942.778,503.735 944.104,496.483 945.475,489.674 945.874,483.191 937.443,476.015 947.621,470.514 937.233,461.164 
					947.401,456.972 939.83,446.066 957.969,447.719 957.226,439.639 952.627,427.129 964.52,428.274 968.83,422.876 
					971.063,414.105 982.324,418.894 987.687,415.094 994.645,415.08 997.48,401.257 1007.236,414.102 1011.43,391.606 
					1019.435,402.992 1027.664,389.014 1034.224,399.329 1037.613,415.39 1045.691,411.057 1055.002,406.922 1056.777,418.497 
					1074.849,404.075 1064.938,428.954 1079.319,423.31 1081.827,430.843 1090.213,433.633 1093.099,440.663 1105.423,443.088 
					1087.18,458.536 1111.174,458.618 1108.077,467.567 1091.707,476.854 				"/>
			</g>
			<g>
				<polygon fill="#B1B3B4" points="1833.664,682.875 1836.805,690.606 1832.434,697.448 1828.504,703.772 1823.795,709.28 
					1826.174,719.805 1814.967,719.792 1808.097,722.042 1802.514,725.262 1797.67,730.247 1790.32,728.637 1785.003,735.644 
					1778.051,733.76 1771.346,733.742 1762.927,739.323 1756.495,734.917 1749.404,732.492 1744.511,726.588 1738.605,722.32 
					1728.669,720.771 1728.04,711.749 1729.542,702.966 1731.173,695.441 1729.507,689.277 1721.682,682.875 1715.999,674.712 
					1730.869,670.227 1733.795,664.547 1736.36,658.814 1729.582,645.679 1732.161,636.983 1749.252,645.331 1754.343,641.792 
					1758.32,635.235 1761.423,620.801 1769.636,618.882 1778.051,621.152 1785.065,629.628 1792.71,628.17 1799.835,630.285 
					1805.857,634.711 1815.5,634.076 1819.442,641.484 1819.49,651.082 1821.151,657.999 1824.192,663.766 1828.844,669.262 
					1838.234,674.956 				"/>
			</g>
			<g>
				<polygon fill="#B1B3B4" points="909.387,300.976 919.802,309.127 917.653,317.018 898.066,319.147 898.777,326.185 
					909.598,339.929 891.933,337.139 900.753,353.75 891.52,355.805 878.261,350.691 878.294,363.576 868.879,361.017 
					861.561,360.712 855.034,361.556 848.546,361.736 842.15,373.591 835.601,363.224 826.906,372.708 820.169,368.626 
					817.621,356.079 811.944,353.308 803.234,354.541 800.858,346.836 788.832,348.983 784.186,343.09 790.132,330.998 
					784.387,326.689 772.736,323.529 773.679,315.529 767.45,308.82 776.126,300.976 766.902,293.075 784.82,288.778 
					784.862,282.359 781.79,274.103 777.391,263.582 781.538,256.933 783.464,248.13 798.869,252.905 802.767,246.765 
					810.019,245.311 816.568,243.51 819.517,231.312 826.146,225.647 834.688,229.961 842.15,230.515 849.814,228.003 
					855.345,238.93 864.569,231.979 873.225,231.192 877.611,239.559 882.928,244.852 890.263,247.544 898.93,249.851 
					893.225,263.875 905.806,264.221 906.062,272.521 896.93,283.175 919.398,284.565 901.275,294.75 				"/>
			</g>
			<g>
				<polygon fill="#B1B3B4" points="1367.701,624.503 1354.315,631.803 1354.392,639.204 1345.658,644.698 1338.193,649.403 
					1354.893,663.162 1338.216,663.551 1333.145,668.355 1332.638,676.133 1330.505,683.379 1325.506,688.44 1330.143,704.783 
					1321.332,706.75 1304.053,693.852 1297.117,694.293 1299.855,716.926 1285.541,698.266 1284.308,719.224 1276.5,718.772 
					1269.2,721.501 1261.571,710.862 1254.63,712.635 1246.019,722.74 1238.595,720.217 1229.701,722.588 1224.319,714.428 
					1214.384,717.09 1209.348,709.709 1212.975,691.403 1204.73,691.058 1194.817,691.255 1199.102,677.848 1189.55,676.823 
					1188.132,669.498 1192.587,659.637 1171.35,661.876 1183.473,649.881 1180.911,643.877 1183.555,636.878 1178.895,631.021 
					1163.925,624.503 1182.775,618.288 1160.768,608.549 1176.025,603.96 1165.272,593.213 1164.002,584.083 1177.746,581.79 
					1171.381,569.217 1176.846,562.935 1201.945,573.586 1204.701,567.631 1209.857,563.943 1207.962,550.711 1208.365,537.69 
					1213.959,531.075 1226.37,539.515 1230.284,528.206 1240.812,538.048 1245.578,523.462 1255.326,545.336 1261.571,539.109 
					1269.757,520.34 1274.075,545.663 1286.273,521.575 1286.788,546.911 1296.938,539.125 1300.191,548.697 1312.368,541.621 
					1312.562,554.315 1326.321,548.699 1334.251,551.826 1337.291,559.831 1337.748,569.158 1346.814,572.262 1344.641,582.179 
					1336.928,593.296 1361.927,591.896 1347.023,603.983 1338.27,612.335 1339.4,618.363 				"/>
			</g>
			<g>
				<polygon fill="#B1B3B4" points="1633.321,949.703 1634.058,956.284 1637.905,964.673 1630.96,969.435 1634.543,981.397 
					1621.034,978.617 1621.804,993.042 1610.877,988.448 1603.497,987.79 1596.775,995.151 1588.242,998.129 1582.854,987.952 
					1571.811,992.931 1565.713,986.716 1558.962,981.434 1562.625,969.414 1559.34,963.328 1556.528,956.803 1558.086,949.703 
					1551.057,941.644 1560.216,936.396 1558.661,927.697 1565.574,923.524 1570.337,918.19 1572.06,906.902 1583.629,913.58 
					1589.079,906.053 1596.775,906.367 1603.866,909.512 1610.327,912.468 1620.354,908.87 1628.299,912.139 1634.606,917.957 
					1639.752,924.885 1637.809,934.767 1639.061,942.245 				"/>
			</g>
			<g>
				<polygon fill="#B1B3B4" points="1674.542,1170.671 1670.139,1176.645 1667.725,1182.098 1673.284,1192.826 1663.131,1193.666 
					1657.93,1197.31 1653.643,1203.282 1646.392,1202.109 1640.135,1209.297 1632.984,1206.627 1628.827,1197.976 
					1623.701,1195.275 1611.888,1198.916 1610.591,1190.41 1611.563,1182.504 1611.021,1176.469 1601.665,1170.671 
					1602.104,1163.109 1608.016,1157.366 1613.6,1152.943 1611.658,1142.194 1619.585,1139.917 1627.488,1140.137 
					1634.024,1139.975 1640.135,1140.181 1647.195,1135.169 1651.732,1142.667 1661.688,1138.423 1665.023,1145.783 
					1670.325,1150.498 1673.99,1156.647 1675.152,1163.706 				"/>
			</g>
			<g>
				<polygon fill="#B1B3B4" points="1857.953,1269.063 1861.246,1276.295 1857.143,1282.278 1850.745,1285.557 1848.555,1293.832 
					1840.562,1292.604 1834.252,1293.116 1826.311,1298.705 1819.538,1294.543 1812.763,1290.552 1812.633,1281.542 
					1805.376,1276.798 1803.646,1269.063 1808.021,1262.033 1814.08,1257.42 1812.617,1247.427 1822.698,1249.042 
					1828.096,1246.097 1834.252,1239.914 1842.07,1239.877 1849.419,1242.799 1855.192,1248.123 1853.822,1257.769 
					1859.862,1262.199 				"/>
			</g>
			<g>
				<polygon fill="#B1B3B4" points="888.114,1219.867 896.447,1227.669 891.859,1234.463 885.354,1239.596 879.234,1243.694 
					877.576,1250.563 871.025,1253.196 865.032,1255.487 863.169,1265.892 855.536,1265.454 849.405,1270.342 842.149,1272.463 
					834.628,1272.203 828.691,1265.695 818.679,1271.25 815.632,1261.13 806.71,1260.762 810.726,1247.092 800.479,1246.646 
					800.511,1238.881 800.838,1232.001 789.243,1227.47 789.402,1219.867 794.656,1213.035 791.087,1204.874 803.587,1202.262 
					802.531,1194.409 809.066,1191.203 807.741,1180.157 818.889,1183.66 818.593,1168.293 830.239,1179.318 836.215,1178.662 
					842.149,1173.487 849.544,1168.416 854.109,1179.146 864.578,1170.765 865.789,1183.074 871.879,1185.556 876.64,1189.985 
					878.563,1196.474 888.879,1198.525 893.621,1204.755 884.638,1213.75 				"/>
			</g>
			<g>
				<polygon fill="#B1B3B4" points="413.553,1104.796 416.17,1111.946 415.615,1119.282 415.226,1127.319 411.395,1134.127 
					407.149,1140.917 400.006,1144.677 392.476,1146.884 383.999,1144.708 378.466,1151.766 371.029,1147.267 364.747,1144.416 
					358.524,1143.275 349.178,1147.677 344.047,1141.933 341.427,1134.398 330.868,1133.979 324.631,1128.442 332.843,1117.205 
					326.477,1111.854 323.354,1104.796 325.308,1097.555 322.197,1088.931 334.384,1086.129 332.02,1076.452 339.99,1073.757 
					341.885,1064.688 348.278,1060.152 359.196,1068.385 364.209,1061.756 371.029,1057.787 378.662,1056.579 387.12,1055.271 
					391.472,1064.674 394.226,1072.862 406.503,1069.322 405.569,1079.705 413.184,1083.315 416.583,1089.995 419.183,1097.173 				
					"/>
			</g>
			<g>
				<polygon fill="#B1B3B4" points="704.173,1036.422 701.727,1042.992 701.518,1050.012 698.021,1056.005 695.075,1062.786 
					691.27,1070.178 684.147,1073.686 675.797,1072.043 668.711,1072.954 661.953,1070.383 656.015,1067.073 647.231,1068.563 
					639.463,1065.669 642.183,1054.142 630.676,1052.178 638.526,1042.432 638.582,1036.422 635.522,1029.817 631.93,1021.185 
					638.403,1016.17 642.151,1009.861 647.196,1004.225 654.435,1001.957 661.622,1000.785 668.711,994.833 675.41,1002.756 
					680.471,1008.029 686.859,1009.257 693.866,1011.269 701.248,1014.68 703.906,1021.843 708.965,1028.419 				"/>
			</g>
			<g>
				<polygon fill="#B1B3B4" points="1786.655,77.252 1785.044,84.443 1781.008,90.48 1777.311,96.209 1774.607,103.67 
					1765.27,101.621 1760.352,107.094 1753.539,105.648 1747.041,105.714 1739.798,105.785 1732.43,103.72 1727.314,98.167 
					1726.413,90.314 1720.649,84.758 1723.203,77.252 1721.707,69.988 1722.192,62.154 1729.818,58.338 1736.707,56.14 
					1738.449,45.922 1747.099,49.049 1753.539,48.847 1760.567,46.461 1767.696,47.857 1775.578,49.62 1780.679,55.607 
					1780.602,64.221 1781.474,70.873 				"/>
			</g>
			<g>
				<polygon fill="#B1B3B4" points="1260.05,1169.179 1256.118,1175.592 1261.964,1185.518 1251.215,1187.655 1247.064,1193.036 
					1242.458,1199.114 1236.521,1206.342 1228.043,1203.831 1221.552,1197.6 1211.95,1202.591 1205.713,1197.178 1205.78,1186.928 
					1194.318,1185.422 1192.036,1177.395 1189.504,1169.179 1194.841,1161.601 1202.511,1156.888 1201.109,1147.698 
					1206.039,1141.585 1212.007,1135.885 1221.439,1140.264 1228.043,1138.707 1236.189,1133.477 1244.354,1135.314 
					1246.503,1146.027 1252.51,1149.67 1258.079,1154.714 1264.02,1160.97 				"/>
			</g>
			<g>
				<polygon fill="#B1B3B4" points="125.023,949.703 137.047,958.121 132.532,965.522 122.9,969.601 125.159,979.725 
					112.147,978.007 107.538,982.326 104.89,991.014 96.752,989.429 90.653,992.67 83.842,991.887 75.446,1002.769 68.836,995.888 
					61.206,994.125 56.42,987.447 51.622,981.922 45.819,977.327 37.859,973.136 44.43,962.51 31.723,957.951 43.703,949.703 
					39.445,942.668 32.493,933.02 42.711,928.747 52.028,926.596 48.355,914.215 57.291,913.154 63.227,909.239 68.065,901.143 
					76.033,900.374 83.842,909.735 91.165,903.473 96.398,911.067 104.426,909.301 113.84,908.42 118.35,915.196 119.956,923.468 
					128.067,927.167 127.613,935.48 126.483,942.943 				"/>
			</g>
			<g>
				<polygon fill="#B1B3B4" points="878.5,739.078 882.391,747.397 877.8,754.795 870.69,760.433 867.746,767.142 864.17,773.634 
					858.915,778.859 851.58,781.365 845.629,784.973 842.943,796.55 832.42,788.644 825.404,786.608 819.136,800.757 
					812.408,790.126 802.586,800.859 797.618,791.024 794.895,781.079 782.415,786.928 783.214,775 769.546,777.133 
					770.922,766.912 770.886,759.061 756.431,755.875 764.551,746.266 756.986,739.078 754.981,730.641 772.155,726.484 
					764.365,716.389 766.591,708.736 770.852,702.024 784.494,704.436 780.531,688.774 787.108,683.616 799.58,691.862 
					805.896,689.683 810.789,675.61 819.136,688.79 825.905,687.712 833.473,685.579 839.914,688.913 850.602,684.59 
					849.685,699.259 862.584,695.63 864.379,704.362 872.977,707.987 877.599,714.859 880.537,722.63 879.661,731.114 				"/>
			</g>
			<g>
				<polygon fill="#B1B3B4" points="588.002,77.254 588.524,84.488 589.219,92.225 578.883,95.813 583.559,106.383 580.637,113.998 
					576.745,121.692 570.318,127.167 562.766,130.961 555.114,134.745 544.478,120.585 538.235,131.5 531.755,122.259 
					524.615,123.632 514.18,129.921 509.649,121.733 500.207,121.137 502.582,108.145 500.776,101.318 491.631,98.537 
					494.977,89.959 493.473,83.7 488.449,77.254 488.807,70.144 483.811,61.274 496.219,58.07 495.047,49.5 496.532,41.115 
					501.316,34.648 507.553,29.517 513.489,23.078 521.438,20.036 530.928,26.448 538.235,18.347 546.132,22.312 553.901,23.897 
					556.793,36.606 568.787,29.723 572.786,37.382 582.422,38.963 580.57,50.05 578.903,58.687 583.149,64.063 597.039,68.807 				
					"/>
			</g>
			<g>
				<polygon fill="#B1B3B4" points="478.35,566.576 504.906,574.98 496.662,582.436 499.744,591.118 484.98,595.835 
					476.397,600.814 486.366,612.243 464.263,610.438 462.953,617.101 467.324,627.684 468.976,637.742 446.806,629.251 
					445.17,636.195 451.214,651.967 455.198,668.312 441.942,664.18 437.956,672.026 431.053,675.751 427.218,685.966 
					407.635,659.047 407.898,680.048 398.228,672.479 393.526,684.521 386.799,691.485 377.446,668.333 371.029,668.763 
					362.826,697.195 358.25,667.57 349.153,681.246 338.19,694.513 337.22,670.624 330.63,668.615 323.326,667.955 319.699,659.965 
					313.117,657.844 303.4,659.661 285.552,669.884 293.307,649.34 277.949,653.985 277.166,644.226 266.368,642.625 
					272.635,629.015 254.612,630.59 280.702,609.065 259.083,610.898 257.274,603.537 251.747,597.2 274.661,584.981 
					248.613,582.034 261.214,573.492 249.918,566.576 248.305,558.86 246.46,550.849 262.803,545.921 268.06,540.127 
					256.208,529.268 257.025,521.435 253.481,511.25 258.177,504.522 263.663,498.426 269.844,493.052 271.991,484.635 
					290.213,490.684 298.496,489.33 285.222,462.863 304.954,475.62 302.216,458.157 307.154,450.411 324.359,467.381 
					332.632,469.582 333.42,450.826 343.428,459.096 350.799,460.588 357.052,455.999 363.138,441.026 371.029,439.431 
					377.628,461.872 386.83,441.417 393.33,449.67 397.173,464.798 408.559,451.075 407.491,474.472 427.32,446.977 
					433.261,453.398 436.421,463.544 433.02,481.238 452.336,468.304 439.422,493.742 467.638,475.852 466.823,487.327 
					455.004,505.581 475.45,500.304 469.179,512.625 491.275,509.981 483.826,521.916 481.664,530.627 469.326,541.324 
					492.45,543.419 479.845,552.818 505.249,558.149 				"/>
			</g>
			<g>
				<polygon fill="#B1B3B4" points="490.916,259.283 486.73,266.334 476.047,270.973 476.482,277.419 484.294,288.489 
					469.015,287.13 471.528,297.263 468.328,304.063 464.755,311.572 453.191,306.04 446.587,306.562 440.533,307.434 
					435.871,318.702 428.658,313.024 421.497,318.273 414.854,315.283 407.11,316.096 399.673,314.501 394.609,308.607 
					393.029,299.5 383.824,299.001 376.938,294.987 374.445,287.738 379.99,277.739 368.8,274.035 379.972,265.206 365.829,259.283 
					376.937,252.995 378.492,246.912 368.63,236.516 381.936,234.766 379.586,225.409 390.272,225.278 389.87,215.498 
					394.305,209.514 400.057,204.792 409.835,209.648 416.326,209.271 422.74,210.64 428.658,199.945 434.742,209.258 
					443.636,198.508 452.073,197.548 453.386,212.162 457.563,217.398 466.454,216.621 466.582,225.69 480.024,223.825 
					486.416,228.965 478.333,240.446 493.334,243.349 484.416,252.51 				"/>
			</g>
		</g>
	</g>
</g>
<g id="Calque_2">
	<g>
		<path fill="#596663" d="M287.042,1323.387c40.639-24.802,26.003-58.251,45.108-91.367c8.353-14.482,31.61-23.395,42.876-36.715
			c12.849-15.192,12.033-34.667,23.611-49.34c15.883-20.126,48.011-17.136,61.105-41.836c6.932-13.077,3.179-23.598,14.634-34.79
			c12.358-12.076,32.229-13.727,43.85-27.898c12.957-15.803,6.422-23.818,26.697-30.784c24.727-8.495,105.454-14.024,87.669-63.028
			c-29.92-1.101-48.981,11.134-77.217,16.897c-43.979,8.978-70.166,23.073-94.281,59.314c-17.146,25.77-42.781,31.762-68.37,45.896
			c-27.96,15.448-35.598,48.424-70.618,60.339c-15.388-45.574,23.344-99.958,56.085-127.549
			c26.528-22.356,24.252-32.927,28.552-66.521c3.642-28.457,16.82-59.76,11.422-88.509c-5.256-28-20.886-54.817-22.378-84.652
			c-0.936-18.73,3.503-37.955,4.345-56.659c0.545-12.089-3.493-25.453-3.045-36.208c0.997-24.028,17.629-28.482,31.683-47.315
			c31.063-41.623-38.667-34.259-28.512-72.583c2.224-8.395,17.609-29.276,24.53-36.441c8.727-9.035,38.498-15.509,38.49-30.514
			c-0.002-6.622-44.231-55.77-51.998-62.456c3.737-17.921,32.458-36.072,49.643-40.786c-11.313-24.066-42.203-29.679-56.035-52.491
			c-6.996-11.54-6.066-18.419-10.455-30.611c-2.329-6.471-8.945-12.961-10.19-19.312c-2.435-12.401,2.866-22.302,2.633-34.774
			c-0.633-33.771-5.794-71.826,16.713-102.863c-78.782-40.054-2.148-41.763-78.93-86.46c17.341-13.06-16.67-23.853,2.224-31.132
			c18.166-6.999-27.982-17.3-39.841-22.118h-93.761c13.055,36.511,14.302,58.053,34.102,91.919
			c25.035,42.822,66.56,76.913,81.616,125.369c10.842,34.892,12.82,72.368,23.339,107.758
			c10.622,35.735,23.99,80.387-15.154,104.409c-44.502,27.31-64.178-27.15-87.266-54.241c-37.15-43.59-49.226,6.523-29.354,40.423
			c22.138,37.763,70.917,53.604,88.039,94.076c13.249,31.317,8.966,77.409-10.831,105.137
			c-30.188,42.279-65.726,11.418-93.657-15.979C138.218,553.973,60.769,524.479,0,502.03v81.828
			c19.014,20.411,75.534,11.488,97.952,22.114c29.923,14.184,45.117,52.873,70.701,73.229
			c29.479,23.455,72.669,32.634,94.271,65.601c17.429,26.598,2.28,48.17,1.378,76.177c-1.647,51.119,31.191,111.275,14.165,160.394
			c-12.483,36.011-52.182,42.478-70.069,72.909c-20.72,35.251,0.493,82.278-6.943,120.683
			c-11.052,57.077,34.539,100.111-8.174,148.423H287.042z"/>
		<path fill="#596663" d="M1872.1,583.858c9.184,1.71-44.074,22.744-83.701,7.673c-5.485-2.086-19.722-2.548-23.475-5.848
			c-9.939-8.739-2.341-21.469-9.553-31.768c-8.05-11.494-20.527-11.8-31.828-15.827c-5.562-1.983-21.275-6.288-25.061-8.523
			c-3.798-2.244-9.429-11.903-12.829-12.971c-32.974-10.347-60.984,10.913-96.145-9.237c-14.569-8.349-26.139-18.735-34.891-32.075
			c-8.389-12.785-7.461-31.45-16.33-41.195c19.881-11.098,36.722,2.104,54.897,8.219c24.305,8.175,24.332-2.354,42.58-14.739
			c35.519-24.105,52.665,13.427,74.359,38.094c18.162,20.653,47.638,20.889,71.283,30.248c8.191,3.242,37.295,7.155,49.206,9.868
			c4.838,1.101,14.41,0.136,18.504,1.839c11.177,4.651,11.407-2.893,22.981-4.098V583.858z"/>
		<path fill="#596663" d="M1551.954,1323.386c-0.882-44.469-35.583-71.562-14.571-112.663
			c13.778-26.951,39.015-49.861,58.408-72.897c33.508-39.796,82.546-41.008,114.636-81.503
			c14.501-18.302,108.661-77.347,43.031-94.585c-26.178-6.877-42.174,18.825-59.703,32.845
			c-18.786,15.023-47.164,21.44-60.937,41.957c-13.854,20.637-4.355,41.944-30.669,51.914
			c-28.584,10.829-48.682,4.334-62.063,38.385c-26.071-11.653-37.885-42.954-21.45-68.386
			c16.608-25.696,57.787-32.456,67.505-64.276c8.521-27.898,5.238-50.659-10.653-73.875c-7.97-11.642-15.861-25.881-26.2-35.451
			c-13.865-12.834-30.508-13.585-45.79-24.73c-4.291,34.554,28.654,60.222,10.106,95.039
			c-12.545,23.553-38.738,37.069-62.806,44.806c-3.759-34.04-20.563-62.036-18.908-98.868c1.141-25.403,6.428-37.551-15.528-56.081
			c-19.327-16.311-27.338-31.883-43.464-52.923c-16.433-21.44-17.76-15.277-44.88-18.026c-13.558-1.373-24.17-6.489-38.163-4.482
			c-1.483,20.721,9.439,40.647,11.159,61.039c1.294,15.346-3.448,27.792,5.689,40.556c10.825,15.121,32.085,18.421,44.474,34.009
			c5.755,7.242,20.999,22.717,23.405,30.196c6.799,21.134-17.865,38.754-18.259,59.87c-0.306,16.389,13.069,27.507,17.864,40.009
			c11.835,30.843,7.426,53.071,6.66,84.91c-46.107-0.423-77.197-24.871-110.785-50.2c-41.141,35.195,55.538,83.006,79.506,91.905
			c24.953,9.264,27.826,20.441,35.739,45.527c8.53,27.042,20.569,46.215,33.987,70.239c14.823,26.539,85.973,21.888,65.948,45.739
			H1551.954z"/>
		<g>
			<path fill="#596663" d="M1157.84,338.002c0,14.125-6.432,37.558-15.008,54.469c-9.427,18.584-28.593,30.355-37.57,49.498
				c-5.207,11.102-2.914,27.919-18.141,30.218c-17.121,2.586-25.386-21.21-27.269-33.781
				c-11.642,15.951-58.811,113.494-74.759,125.3c-15.941-34.667-6.749-122.854-33.698-148.987
				c-18.685-18.117-30.237-35.337-49.034-51.786c-14.66-12.83-8.809-34.175-23.033-44.753c-17.863-13.287-45.466,3.87-65.021-8.602
				c-19.114-12.19-25.704-31.854-48.251-4.192c-7.756,9.515-8.062,21.94-13.984,32.062c-4.227,7.224,54.817-6.592,51.791,0.555
				c-17.568,41.482,73.938,64.336,100.065,83.387c27.797,20.269-25.295,74.856-24.252,108.338
				c1.728,55.418,51.908,23.156,35.371,67.333c-7.452,19.908-15.668,42.804-10.007,60.04
				c8.031,24.454-108.864,65.484-122.367,85.716c-16.484,24.7-119.188-0.202-128.042,28.181
				c-11.484,36.813,28.377,52.443,55.588,64.647c25.003,11.216,47.802,24.487,69.614,41.301
				c13.207,10.18,31.035,38.534,47.378,36.99c38.006-3.596,31.528-53.036,22.177-74.452c-19.557-44.78,17.725-55.553,23.409-104.555
				c3.475-29.957,61.909-32.671,72.832-60.252c8.612-21.752,6.319-40.458,8.302-62.925c42.891,16.027,59.818,25.796,47.64,72.965
				c-5.585,21.633-9.005,49.696-19.516,69.294c-24.048,44.839-37.323,52.435-13.64,104.138
				c13.173,28.758,31.286,51.379,32.183,82.309c1.164,40.198-17.833,67.445-31.974,104.253
				c-18.189,47.355-17.234,94.012-11.314,144.279c4.517,38.346,11.212,96.521,18.344,134.396c3.344,17.771-3.258-16.439-0.076,0
				h149.428c-19.42-26.73-116.744-64.127-104.333-102.581c5.737-17.774-17.019-38.337-9.262-57.542
				c17.064-42.257,4.736-95.769,14.499-140.849c9.288-42.875,36.7-69.772,37.46-114.896c1.001-59.471-0.369-119.314,1.837-178.701
				c1.508-40.554-1.668-82.553,30.752-112.265c28.206-25.85,48.007-11.743,61.881-53.96c6.804-20.701,22.009-28.036,27.203-48.634
				c5.853-23.206,29.462-36.355,37.187-58.876c8.028-23.402-2.337-46.777,22.082-61.508c12.897-7.78,31.469-7.006,45.599-11.718
				c22.046-7.35,38.225-19.885,52.385-38.256c38.205-49.566,57.334-108.553,105.041-151.522
				c28.242-25.435,67.174-46.332,83.365-82.599c9.576-21.45,1.239-41.02,6.384-62.725c5.338-22.515,22.324-22.065,14.869-46.635
				h-66.711c-7.624,5.377-8.554,14.04-15.386,19.894c-10.484,8.985-28.877-14.621-39.331-6.534
				c-26.003,20.119-38.893,56.058-63.774,78.498c-28.6,25.796-51.399,34.745-56.359,73.312c-4.44,34.528-9.164,64.889-35.188,90.813
				c-24.596-15.612-76.368-17.193-97.598-36.978c-12.886-12.01-19.088-18.597-11.622-37.146
				c10.724-26.644,25.312-40.355,12.639-71.5c-10.085-24.781-37.132-40.615-42.411-66.838c-4.756-23.62-1.438-20.422-11.207-43.521
				H975.654c-0.268,17.022-6.472,21.771-10.415,38.305c-5.164,21.656-30.964,38.621-22.255,64.416
				c10.392,30.777,62.305,21.023,87.352,41.354c14.521,11.787,28.567,25.883,28.124,45.697
				c-0.517,23.061-24.784,34.511-26.667,55.843c25.538,7.813,53.558,15.468,78.316,26.901
				C1131.279,282.412,1157.84,317.768,1157.84,338.002z"/>
		</g>
	</g>
	<g>
		<g>
			<g>
				<linearGradient id="SVGID_21_" gradientUnits="userSpaceOnUse" x1="746.8965" y1="226.9414" x2="746.8965" y2="415.0781">
					<stop  offset="0" style="stop-color:#678483"/>
					<stop  offset="1" style="stop-color:#36494A"/>
				</linearGradient>
				<polyline fill="url(#SVGID_21_)" points="850.89,242.874 835.901,230.275 817.961,237.916 801.763,226.941 785.899,238.159 
					766.829,233.971 764.141,248.085 750.116,251.142 755.723,264.737 742.726,270.967 745.473,285.22 709.218,294.926 
					673.635,307.353 637.223,295.743 601.771,308.237 567.244,321.691 567.485,345.305 554.71,365.348 571.75,381.145 
					582.897,401.636 606.662,400.177 625.797,415.078 648.588,407.178 671.943,413.635 685.413,393.953 705.042,380.393 
					697.726,368.595 708.702,360.255 699.967,349.349 712.289,343.313 709.565,329.842 723.195,331.141 725.487,317.729 
					738.81,321.162 739.795,307.608 751.147,308.551 757.502,305.712 752.144,316.266 763.737,318.543 755.571,327.112 
					759.195,327.958 774.442,325.044 775.918,307.648 792.619,306.629 805.921,296.974 813.639,312.62 825.933,310.294 
					823.66,322.769 836.057,321.265 837.386,333.768 846.366,325.175 855.412,332.57 855.86,320.481 867.332,324.126 
					865.937,312.111 874.19,316.584 881.631,312.257 877.159,322.589 888.088,320.052 884.423,330.687 891.146,325.412 
					898.731,328.844 892.717,319.44 903.831,320.295 897.926,310.821 900.328,311.399 913.359,318.567 923.731,316.509 
					919.251,299.866 932.753,289.322 927.504,271.906 929.604,279.126 937.06,272.498 929.208,278.616 938.95,276.517 
					939.084,278.947 929.332,267.104 935.201,252.833 920.108,252.581 911.065,240.431 898.985,250.165 890.317,239.229 
					878.468,246.351 871.698,234.094 861.146,242.856 849.416,235.698 				"/>
			</g>
			<g>
				<linearGradient id="SVGID_22_" gradientUnits="userSpaceOnUse" x1="633.8047" y1="648.7554" x2="633.8047" y2="880.9351">
					<stop  offset="0" style="stop-color:#678483"/>
					<stop  offset="1" style="stop-color:#36494A"/>
				</linearGradient>
				<polyline fill="url(#SVGID_22_)" points="770.421,671.961 739.153,653.75 703.383,657.337 668.316,648.755 641.848,672.634 
					615.047,691.507 596.025,687.971 576.971,671.952 554.893,683.254 530.11,683.319 518.564,705.462 506.341,703.657 
					509.465,715.46 497.416,717.666 506.308,726.202 496.762,733.89 508.366,739.611 501.993,750.669 513.058,757.487 
					500.78,760.769 502.631,767.014 517.215,781.865 538.643,771.754 559.385,781.486 581.244,786.098 577.429,806.875 
					568.612,821.54 548.061,824.649 539.339,843.79 518.758,842.958 500.924,853.297 495.464,840.662 482.424,844.628 
					478.652,831.293 467.211,838.58 453.573,832.642 467.988,836.721 470.168,850.04 482.77,845.013 487.559,857.648 
					499.68,851.541 502.985,864.154 515.152,859.659 517.096,872.546 529.19,867.882 533.073,880.34 543.46,872.381 
					553.397,880.935 555.24,867.849 568.367,867.894 565.326,854.97 580.358,849.836 577.882,834.055 592.841,828.718 
					592.257,812.781 608.048,811.091 611.147,796.978 624.18,803.003 633.428,792.117 644.417,801.599 653.373,790.312 
					667.156,796.541 673.205,782.559 688.079,785.467 692.986,771.025 707.537,775.141 715.334,762.683 727.623,771.054 
					737.492,760.042 749.653,768.594 757.849,756.385 778.222,756.222 782.306,736.136 799.271,724.856 796.895,704.394 
					814.036,690.072 798.642,689.566 795.393,676.351 782.879,681.608 777.519,669.139 766.025,676.421 				"/>
			</g>
			<g>
				<linearGradient id="SVGID_23_" gradientUnits="userSpaceOnUse" x1="1276.3623" y1="714.1416" x2="1276.3623" y2="817.3628">
					<stop  offset="0" style="stop-color:#678483"/>
					<stop  offset="1" style="stop-color:#36494A"/>
				</linearGradient>
				<polyline fill="url(#SVGID_23_)" points="1379.54,731.546 1366.447,722.914 1354.672,733.313 1343.006,722.734 
					1330.294,731.905 1318.555,721.479 1302.511,732.045 1285.376,723.559 1269.941,734.973 1253.309,725.573 1236.088,734.073 
					1233.386,722.666 1223.199,728.333 1222.707,716.518 1213.819,723.937 1207.645,714.142 1202.893,727.04 1189.233,726.308 
					1191.118,740.069 1177.45,741.867 1178.823,755.741 1163.748,755.482 1161.353,770.175 1146.313,771.82 1153.287,783.992 
					1150.248,798.036 1167.653,797.839 1178.067,811.529 1193.362,803.506 1207.985,812.794 1223.759,799.436 1233.523,817.363 
					1246.849,802.025 1266.792,800.896 1274.388,782.28 1288.555,779.463 1305.759,782.239 1321.691,794.08 1336.912,780.494 
					1357.146,782.383 1368.566,763.333 1367.709,776.614 1378.875,782.24 1369.276,790.412 1379.151,798.162 1376.422,810.018 
					1379.622,787.217 1397.216,775.206 1394.503,754.208 1406.411,736.468 1390.117,725.209 1388.824,717.526 1391.901,727.197 
					1385.824,719.049 1388.95,728.703 1382.086,721.223 				"/>
			</g>
			<g>
				<linearGradient id="SVGID_24_" gradientUnits="userSpaceOnUse" x1="1569.1348" y1="805.9556" x2="1569.1348" y2="912.6123">
					<stop  offset="0" style="stop-color:#678483"/>
					<stop  offset="1" style="stop-color:#36494A"/>
				</linearGradient>
				<polyline fill="url(#SVGID_24_)" points="1562.038,836.282 1534.805,825.441 1507.559,835.114 1479.761,826.86 
					1456.108,842.795 1434.855,859.501 1455.232,872.918 1473.601,889.605 1497.797,882.044 1520.928,892.146 1544.22,881.791 
					1563.917,893.484 1585.785,886.819 1604.059,900.643 1626.236,895.074 1644.608,908.759 1656.315,900.92 1664.396,912.612 
					1675.095,903.488 1686.721,911.593 1689.104,898.034 1703.414,891.357 1693.301,879.58 1695.214,864.148 1679.475,864.984 
					1670.214,852.225 1663.137,862.332 1654.782,853.378 1648.537,864.072 1642.426,853.571 1631.919,859.693 1634.367,848.096 
					1622.629,846.547 1629.953,836.96 1618.314,834.623 1622.131,823.323 1608.644,826.884 1601.983,814.754 1589.377,821.28 
					1587.432,807.604 1576.119,806.819 1569.535,805.956 1577.42,815.432 1567.146,822.039 1576.775,829.88 1565.552,832.73 				"/>
			</g>
			<g>
				<linearGradient id="SVGID_25_" gradientUnits="userSpaceOnUse" x1="1523.1855" y1="314.978" x2="1523.1855" y2="476.167">
					<stop  offset="0" style="stop-color:#678483"/>
					<stop  offset="1" style="stop-color:#36494A"/>
				</linearGradient>
				<polygon fill="url(#SVGID_25_)" points="1641.029,330.786 1599.173,329.851 1563.38,349.832 1522.473,352.797 1489.611,377.253 
					1449.957,387.774 1443.716,404.542 1425.924,406.353 1422.358,423.844 1405.257,429.197 1406.109,448.992 1400.505,437.085 
					1388.189,438.205 1391.551,426.159 1379.236,427.178 1373.735,415.25 1370.835,442.918 1378.593,467.085 1406.926,464.261 
					1432.543,476.167 1458.966,465.892 1478.281,474.005 1494.336,460.473 1514.801,464.979 1529.118,449.607 1544.224,451.277 
					1560.798,464.435 1582.834,473.34 1599.767,453.841 1624.879,448.52 1636.8,425.722 1654.657,419.156 1653.715,399.768 
					1669.196,388.105 1664.091,369.454 1675.537,353.637 1663.86,344.219 1669.335,330.232 1655.027,326.975 1647.19,314.978 				
					"/>
			</g>
			<g>
				<linearGradient id="SVGID_26_" gradientUnits="userSpaceOnUse" x1="663.7549" y1="900.6597" x2="663.7549" y2="1129.3433">
					<stop  offset="0" style="stop-color:#678483"/>
					<stop  offset="1" style="stop-color:#36494A"/>
				</linearGradient>
				<polyline fill="url(#SVGID_26_)" points="692.632,921.746 677.976,900.66 648.718,908.195 619.509,900.939 594.767,917.821 
					567.394,930.46 588.528,949.165 605.508,971.697 633.914,973.606 655.565,992.039 683.58,989.261 699.189,1007.348 
					716.047,1024.41 708.044,1048.336 721.524,1069.101 723.288,1093.9 745.803,1105.346 754.931,1129.343 757.285,1111.651 
					760.116,1086.606 743.012,1067.958 747.724,1049.63 735.249,1035.262 744.658,1017.968 729.131,1006.715 728.494,987.82 
					704.805,978.579 696.57,955.407 674.697,943.885 678.097,925.431 698.796,916.883 				"/>
			</g>
			<g>
				<linearGradient id="SVGID_27_" gradientUnits="userSpaceOnUse" x1="1241.3564" y1="1041.4141" x2="1241.3564" y2="1236.3457">
					<stop  offset="0" style="stop-color:#678483"/>
					<stop  offset="1" style="stop-color:#36494A"/>
				</linearGradient>
				<polyline fill="url(#SVGID_27_)" points="1319.249,1053.256 1305.269,1042.324 1290.176,1051.415 1275.583,1041.414 
					1262.526,1053.112 1245.141,1049.858 1244.799,1064.427 1230.8,1068.016 1234.375,1082.213 1220.294,1085.549 
					1219.962,1100.102 1205.749,1097.309 1200.445,1110.693 1186.708,1105.848 1183.118,1119.759 1168.724,1120.179 
					1171.577,1134.111 1158.235,1138.97 1164.946,1151.372 1154.998,1161.533 1169.891,1166.642 1157.282,1171.205 
					1158.556,1183.531 1146.221,1181.018 1149.717,1192.656 1139.177,1198.517 1157.973,1208.175 1170.037,1225.386 
					1191.039,1221.893 1206.573,1236.346 1223.436,1231.698 1230.866,1223.79 1220.376,1212.103 1230.157,1199.912 
					1220.966,1187.186 1231.609,1179.988 1236.143,1179.663 1229.682,1189.75 1241.395,1192.107 1234.604,1201.98 
					1241.645,1201.001 1254.895,1203.206 1257.17,1187.828 1272.374,1184.458 1268.825,1169.267 1281.934,1160.882 
					1273.901,1147.201 1284.554,1135.655 1275.803,1122.411 1288.71,1113.679 1288.106,1098.073 1300.053,1102.099 
					1304.401,1090.308 1314.377,1098.389 1318.333,1086.441 1330.384,1090.174 1327.396,1079.035 1338.903,1080.18 
					1332.298,1070.678 1343.536,1068.129 1335.368,1062.123 1338.976,1054.229 1329.415,1059.952 1330.55,1048.868 1321.2,1054.917 
					1321.434,1043.684 				"/>
			</g>
			<g>
				<linearGradient id="SVGID_28_" gradientUnits="userSpaceOnUse" x1="157.0493" y1="332.5298" x2="157.0493" y2="460.7085">
					<stop  offset="0" style="stop-color:#678483"/>
					<stop  offset="1" style="stop-color:#36494A"/>
				</linearGradient>
				<polyline fill="url(#SVGID_28_)" points="242.738,342.989 224.67,336.237 211.63,350.789 192.692,346.499 178.834,360.281 
					161.97,351.131 149.76,357.759 146.21,344.073 132.398,346.404 129.637,332.53 120.353,337.273 103.57,345.012 106.262,365.198 
					92.603,380.163 99.136,399.544 84.661,413.637 89.854,425.092 77.108,426.102 82.005,437.668 70.378,442.542 78.655,447.105 
					88.662,458.472 103.317,449.373 117.382,459.26 131.139,448.839 145.178,458.751 148.742,448.635 153.066,458.387 
					156.082,448.148 160.573,457.831 163.34,447.552 164.83,457.727 171.563,449.852 170.295,460.215 175.334,451.237 
					179.231,460.708 187.449,440.913 205.899,431.23 206.045,410.271 223.116,398.159 221.403,377.315 232.98,373.261 
					224.542,364.069 236.056,360.078 232.743,348.36 243.721,353.938 				"/>
			</g>
			<g>
				<linearGradient id="SVGID_29_" gradientUnits="userSpaceOnUse" x1="1732.3584" y1="924.7954" x2="1732.3584" y2="1157.478">
					<stop  offset="0" style="stop-color:#678483"/>
					<stop  offset="1" style="stop-color:#36494A"/>
				</linearGradient>
				<polyline fill="url(#SVGID_29_)" points="1792.715,940.376 1775.662,934.075 1763.119,947.116 1745.75,941.736 1735.95,956.937 
					1717.852,956.895 1720.401,968.685 1708.428,968.849 1713.729,979.708 1701.775,979.853 1703.531,991.789 1687.003,986.008 
					1671.979,994.687 1657.35,984.25 1651.545,999.813 1638.598,1011.077 1650.113,1029.291 1653.493,1050.514 1675.559,1051.718 
					1690.365,1067.806 1712.368,1065.538 1721.509,1082.974 1740.383,1088.496 1741.243,1108.313 1758.025,1118.669 
					1759.65,1140.575 1767.023,1125.263 1781.954,1124.937 1780.412,1110.263 1793.583,1103.582 1794.257,1088.695 
					1785.092,1104.18 1795.128,1116.825 1785.158,1129.512 1795.113,1142.22 1794.169,1157.478 1794.547,1123.107 
					1810.657,1093.778 1804.479,1060.848 1816.426,1029.585 1807.49,997.287 1819.684,983.642 1813.886,966.544 1826.119,952.873 
					1812.969,941.398 1807.194,924.795 				"/>
			</g>
			<g>
				<linearGradient id="SVGID_30_" gradientUnits="userSpaceOnUse" x1="430.9121" y1="102.6943" x2="430.9121" y2="234.7012">
					<stop  offset="0" style="stop-color:#678483"/>
					<stop  offset="1" style="stop-color:#36494A"/>
				</linearGradient>
				<polygon fill="url(#SVGID_30_)" points="489.928,114.846 472.887,107.573 463.809,123.214 446.078,122.838 434.772,136.772 
					421.086,125.05 408.029,130.755 403.213,117.265 389.447,121.087 385.526,107.312 376.835,110.896 354.574,124.83 
					348.938,152.081 330.732,173.411 344.931,196.452 357.587,220.649 377.953,217.101 394.961,228.56 413.077,218.521 
					430.967,228.657 450.282,221.132 464.665,234.701 482.242,226.374 501.241,230.869 505.525,211.726 521.171,200.069 
					514.96,181.421 526.396,165.565 517.854,147.771 531.091,133.396 528.129,116.132 526.881,107.703 514.977,114.158 
					507.733,102.694 498.639,112.655 				"/>
			</g>
		</g>
	</g>
	<g display="none">
		<path display="inline" fill="#A48A77" d="M383,835.021c-10.897-1.728-26.714-5.195-37.118,0.212
			c-9.18,4.772-6.558,12.659-12.366,19.61c-17.653,21.125-63.592-4.164-76.46,18.937c-10.826,19.435-5.284,30.236,15.116,36.355
			c15.408,4.622,36.049,6.942,42.771-11.81c2.694-7.515,0.001-14.182,5.801-20.446c4.916-5.31,11.956-6.494,16.154-13.165
			c3.549,2.972,5.217,8.615,5.433,12.843c9.367-9.722,12.333-20.062,24.903-10.757c5.016,3.713,7.141,10.16,13.542,9.696
			c4.075-0.295,9.295-6.011,12.45-8.353c2.667,2.87,4.684,6.16,7.818,8.446c2.057-3.011,3.988-6.88,5.911-9.397
			c4.172,19.234,10.777-12.539,12.041-15.683c0.726,0.341,1.085,0.909,1.078,1.703c1.419-13.477-5.616-15.223-15.86-14.938
			c-7.198,0.2-14.612-5.593-21.214-2.252"/>
		<path display="inline" fill="#A48A77" d="M347,1028.021c-25.851-6.387-53.307-16.501-69.39,12.976
			c-15.062-12.515-31.729-11.634-46.002,2.686c-5.153,5.17-6.772,6.868-5.977,14.126c0.767,6.99,6.973,10.369-1.576,16.206
			c14.513,10.748,35.194-8.711,37.674,17.769c-12.793,4.398-21.855,20.888-35.977,17.772c-7.079-1.562-10.924-8.486-19.689-6.261
			c4.993,5.475,11.175,7.167,17.829,9.762c5.434,2.118,11.377,7.117,16.501,8.709c7.703,2.393,10.375-0.278,15.688-7.985
			c5.251-7.617,8.299-16.315,15.912-22.729c7.649-6.443,12.685-3.521,22.269-5.419c8.772-1.736,15.424-8.124,23.104-11.123
			c7.021-2.742,17.072-1.779,24.172-4.213c14.116-4.838,15.845-20.024,22.29-31.953c-7.219-4.544-11.396-6.572-18.826-8.322"/>
		<path display="inline" fill="#A48A77" d="M620.084,1054.771c-12.396,1.668-14.695,0.173-27.166-0.051
			c-11.251-0.202-25.665,3.227-36.638,1.204c-4.661-0.858-7.426-5.522-12.794-4.54c-6.464,1.183-10.63,10.657-14.941,14.892
			c-6.241,6.13-17.363,10.455-9.6,19.124c5.281,5.898,22.985,8.573,29.86,3.784c3.539,12.978,25.58-7.821,31.754-12.602
			c6.859,12.467,26.5,4.036,35.333-3.084c2.859,4.795,2.014,11.313,1.993,16.826c5.188-7.812,19.26-30.061,8.446-38.082
			c-1.066,0.734-2.463,1.207-3.498,1.945"/>
		<path display="inline" fill="#A48A77" d="M702.333,1101.854c-7.356,0.396-57.238-5.236-54.846,12.385
			c2.226,16.391,36.329,12.196,46.873,12.573c14.903,0.532,30.723,5.124,45.604,7.664c6.729,1.148,16.775,4.671,21.4-1.218
			c7.443-9.478-1.565-19.034-10.443-19.748c-5.569-0.448-10.713,2.619-15.798-0.756c-4.238-2.813-3.595-9.758-7.11-12.777
			c-6.13-5.266-13.818-1.085-18.126-11.088c-4.897,3.461-1.373,11.734-4.122,15.049"/>
		<path display="inline" fill="#A48A77" d="M737.144,874.688c-26.321,5.231-61.193,14.708-83.858,29.596
			c-7.521,4.941-19.87,15.146-22.43,23.955c-5.063-3.059-6.784-8.89-11.628-11.763c-19.264,24.441,22.148,23.865,36.959,23.306
			c14.059-0.53,26.946-5.654,40.032-10.199c2.517,24.586,33.564-1.562,41.344-8.427c6.585-5.812,14.365-24.614,13.689-33.94
			C750.562,877.691,744.206,866.307,737.144,874.688z"/>
		<path display="inline" fill="#A48A77" d="M313.728,1142.533c0-14.122-54.954-8.719-56.333,4.158
			c-1.465,13.675,41.419,27.104,49.658,28.424c21.164,3.392,7.081,27.802,19.947,43.406c15.321,18.582,23.764,29.188,9.25-11
			c-8.015-22.191,2.527-15.961-10.467-33.958C324.899,1172.339,283.033,1135.188,313.728,1142.533"/>
		<path display="inline" fill="#A48A77" d="M593.346,1199.427c-8.267-0.276-24.586-2.97-32.07,2.531
			c-5.956,4.376-7.495,13.915-14.036,19.009c-6.712,5.228-14.354,5.011-19.88,12.176c-3.843,4.981-9.24,16.577-3.313,20.429
			c-2.756,5.335-10.354,7.182-9.528,13.117c1.407,10.124,27.942,14.683,36.796,17.175c0.286-8.616-1.591-18.725,1.154-26.965
			c2.585,4.237,3.834,9.104,6.042,13.461c8.824-5.448,13.298-10.849,15.798-20.832c2.177-8.691-0.808-19.535,6.455-26.022
			c5.032-4.495,10.627-2.006,16.002-6.893c4.175-3.795,4.407-5.856,5.961-11.383
			C600.113,1203.374,594.709,1200.028,593.346,1199.427"/>
		<path display="inline" fill="#A48A77" d="M109,880.021c-11.198,0.799-25.513,9.527-36.446,8.135
			c-7.37-0.939-12.317-8.355-19.451-10.466c-10.412,11.651-8.339,25.742-12.945,37.185c-2.196,5.456-7.274,8.277-6.228,15.937
			c10.003,2.693,21.101,1.029,31.408,1.264c1.318,0.03,7.427-0.452,8.36-0.553c1.602-0.174,3.805,2.286,6.238,1.533
			c7.344-2.271,18.446-26.614,21.707-34.494c2.21-5.341,0.497-11.633,7.356-13.54"/>
		<path display="inline" fill="#A48A77" d="M805.632,1148.733c-12.063,3.091-21.583,3.482-31.727,11.381
			c-3.666,2.854-5.57,9.993-8.958,11.978c-9.961,5.836-23.973-7.688-25.827,10.838c-1.933,19.291,17.218,20.422,29.997,26.31
			c12.795,5.895,16.352,17.899,23.105,29.643c7.58-5.946,12.431-9.952,12.801-20.007c-0.064,9.492,0.128,18.994-0.091,28.483
			c8.68-23.307,9.476-46.394,10.149-70.792c0.313-11.297,10.443-24.248-3.325-30.621"/>
		<path display="inline" fill="#CBBB9D" d="M220,777.442c-14.942,0.204-16.815,13.434-31.299,8.963
			c-6.816-2.104-13.999-6.995-20.467-10.396c-10.403,14.518-29.894,35.794-6.309,49.287c10.426,5.964,28.108,1.358,40.021,4.35
			c13.916,3.495,24.715,5.899,30.276-12.31c4.02-13.162,0.126-24.041,7.524-36.951C233.66,776.772,225.796,775.051,220,777.442z"/>
	</g>
</g>
<g id="Calque_4">
	<g id="Calque_4_1_" opacity="0.5">
		<rect opacity="0.5" enable-background="new    " width="1872.1" height="1323.719"/>
	</g>
</g>
</svg>
