<?xml version="1.0" encoding="utf-8"?>
<!-- Generator: Adobe Illustrator 14.0.0, SVG Export Plug-In . SVG Version: 6.00 Build 43363)  -->
<!DOCTYPE svg PUBLIC "-//W3C//DTD SVG 1.1//EN" "http://www.w3.org/Graphics/SVG/1.1/DTD/svg11.dtd">
<svg version="1.1" xmlns="http://www.w3.org/2000/svg" xmlns:xlink="http://www.w3.org/1999/xlink" x="0px" y="0px"
	 width="841.89px" height="595.28px" viewBox="0 0 841.89 595.28" enable-background="new 0 0 841.89 595.28" xml:space="preserve">
<g id="Calque_1">
	<rect y="0" fill="#87888A" width="841.89" height="595.281"/>
	<g>
		<radialGradient id="SVGID_1_" cx="628.75" cy="421.6406" r="90" gradientUnits="userSpaceOnUse">
			<stop  offset="0" style="stop-color:#87888A"/>
			<stop  offset="0.6727" style="stop-color:#87888A"/>
			<stop  offset="0.7146" style="stop-color:#8D8E90"/>
			<stop  offset="0.7782" style="stop-color:#9FA0A2"/>
			<stop  offset="0.8303" style="stop-color:#B1B3B4"/>
			<stop  offset="0.8393" style="stop-color:#ADAFB1"/>
			<stop  offset="0.9119" style="stop-color:#929395"/>
			<stop  offset="0.9515" style="stop-color:#87888A"/>
		</radialGradient>
		<circle fill="url(#SVGID_1_)" cx="628.75" cy="421.641" r="90"/>
		<radialGradient id="SVGID_2_" cx="72" cy="202" r="64.0078" gradientUnits="userSpaceOnUse">
			<stop  offset="0" style="stop-color:#87888A"/>
			<stop  offset="0.6727" style="stop-color:#87888A"/>
			<stop  offset="0.7146" style="stop-color:#8D8E90"/>
			<stop  offset="0.7782" style="stop-color:#9FA0A2"/>
			<stop  offset="0.8303" style="stop-color:#B1B3B4"/>
			<stop  offset="0.8393" style="stop-color:#ADAFB1"/>
			<stop  offset="0.9119" style="stop-color:#929395"/>
			<stop  offset="0.9515" style="stop-color:#87888A"/>
		</radialGradient>
		<ellipse fill="url(#SVGID_2_)" cx="72" cy="202" rx="65" ry="63"/>
		<radialGradient id="SVGID_3_" cx="22" cy="465" r="15.5081" gradientUnits="userSpaceOnUse">
			<stop  offset="0" style="stop-color:#87888A"/>
			<stop  offset="0.6727" style="stop-color:#87888A"/>
			<stop  offset="0.7146" style="stop-color:#8D8E90"/>
			<stop  offset="0.7782" style="stop-color:#9FA0A2"/>
			<stop  offset="0.8303" style="stop-color:#B1B3B4"/>
			<stop  offset="0.8393" style="stop-color:#ADAFB1"/>
			<stop  offset="0.9119" style="stop-color:#929395"/>
			<stop  offset="0.9515" style="stop-color:#87888A"/>
		</radialGradient>
		<ellipse fill="url(#SVGID_3_)" cx="22" cy="465" rx="15" ry="16"/>
		<radialGradient id="SVGID_4_" cx="263" cy="406.6406" r="86" gradientUnits="userSpaceOnUse">
			<stop  offset="0" style="stop-color:#87888A"/>
			<stop  offset="0.6727" style="stop-color:#87888A"/>
			<stop  offset="0.7146" style="stop-color:#8D8E90"/>
			<stop  offset="0.7782" style="stop-color:#9FA0A2"/>
			<stop  offset="0.8303" style="stop-color:#B1B3B4"/>
			<stop  offset="0.8393" style="stop-color:#ADAFB1"/>
			<stop  offset="0.9119" style="stop-color:#929395"/>
			<stop  offset="0.9515" style="stop-color:#87888A"/>
		</radialGradient>
		<circle fill="url(#SVGID_4_)" cx="263" cy="406.641" r="86"/>
		<radialGradient id="SVGID_5_" cx="481.79" cy="577" r="11.5" gradientUnits="userSpaceOnUse">
			<stop  offset="0" style="stop-color:#87888A"/>
			<stop  offset="0.6727" style="stop-color:#87888A"/>
			<stop  offset="0.7146" style="stop-color:#8D8E90"/>
			<stop  offset="0.7782" style="stop-color:#9FA0A2"/>
			<stop  offset="0.8303" style="stop-color:#B1B3B4"/>
			<stop  offset="0.8393" style="stop-color:#ADAFB1"/>
			<stop  offset="0.9119" style="stop-color:#929395"/>
			<stop  offset="0.9515" style="stop-color:#87888A"/>
		</radialGradient>
		<circle fill="url(#SVGID_5_)" cx="481.79" cy="577" r="11.5"/>
		<radialGradient id="SVGID_6_" cx="718.75" cy="131" r="29.5" gradientUnits="userSpaceOnUse">
			<stop  offset="0" style="stop-color:#87888A"/>
			<stop  offset="0.6727" style="stop-color:#87888A"/>
			<stop  offset="0.7146" style="stop-color:#8D8E90"/>
			<stop  offset="0.7782" style="stop-color:#9FA0A2"/>
			<stop  offset="0.8303" style="stop-color:#B1B3B4"/>
			<stop  offset="0.8393" style="stop-color:#ADAFB1"/>
			<stop  offset="0.9119" style="stop-color:#929395"/>
			<stop  offset="0.9515" style="stop-color:#87888A"/>
		</radialGradient>
		<circle fill="url(#SVGID_6_)" cx="718.75" cy="131" r="29.5"/>
		<radialGradient id="SVGID_7_" cx="456.9727" cy="160.5" r="50" gradientUnits="userSpaceOnUse">
			<stop  offset="0" style="stop-color:#87888A"/>
			<stop  offset="0.6727" style="stop-color:#87888A"/>
			<stop  offset="0.7146" style="stop-color:#8D8E90"/>
			<stop  offset="0.7782" style="stop-color:#9FA0A2"/>
			<stop  offset="0.8303" style="stop-color:#B1B3B4"/>
			<stop  offset="0.8393" style="stop-color:#ADAFB1"/>
			<stop  offset="0.9119" style="stop-color:#929395"/>
			<stop  offset="0.9515" style="stop-color:#87888A"/>
		</radialGradient>
		<circle fill="url(#SVGID_7_)" cx="456.973" cy="160.5" r="50"/>
		<radialGradient id="SVGID_8_" cx="104.75" cy="544.5" r="21" gradientUnits="userSpaceOnUse">
			<stop  offset="0" style="stop-color:#87888A"/>
			<stop  offset="0.6727" style="stop-color:#87888A"/>
			<stop  offset="0.7146" style="stop-color:#8D8E90"/>
			<stop  offset="0.7782" style="stop-color:#9FA0A2"/>
			<stop  offset="0.8303" style="stop-color:#B1B3B4"/>
			<stop  offset="0.8393" style="stop-color:#ADAFB1"/>
			<stop  offset="0.9119" style="stop-color:#929395"/>
			<stop  offset="0.9515" style="stop-color:#87888A"/>
		</radialGradient>
		<circle fill="url(#SVGID_8_)" cx="104.75" cy="544.5" r="21"/>
		<radialGradient id="SVGID_9_" cx="741.5" cy="559.5" r="27.5" gradientUnits="userSpaceOnUse">
			<stop  offset="0" style="stop-color:#87888A"/>
			<stop  offset="0.6727" style="stop-color:#87888A"/>
			<stop  offset="0.7146" style="stop-color:#8D8E90"/>
			<stop  offset="0.7782" style="stop-color:#9FA0A2"/>
			<stop  offset="0.8303" style="stop-color:#B1B3B4"/>
			<stop  offset="0.8393" style="stop-color:#ADAFB1"/>
			<stop  offset="0.9119" style="stop-color:#929395"/>
			<stop  offset="0.9515" style="stop-color:#87888A"/>
		</radialGradient>
		<circle fill="url(#SVGID_9_)" cx="741.5" cy="559.5" r="27.5"/>
		<radialGradient id="SVGID_10_" cx="224.75" cy="261.9453" r="30.75" gradientUnits="userSpaceOnUse">
			<stop  offset="0" style="stop-color:#87888A"/>
			<stop  offset="0.6727" style="stop-color:#87888A"/>
			<stop  offset="0.7146" style="stop-color:#8D8E90"/>
			<stop  offset="0.7782" style="stop-color:#9FA0A2"/>
			<stop  offset="0.8303" style="stop-color:#B1B3B4"/>
			<stop  offset="0.8393" style="stop-color:#ADAFB1"/>
			<stop  offset="0.9119" style="stop-color:#929395"/>
			<stop  offset="0.9515" style="stop-color:#87888A"/>
		</radialGradient>
		<circle fill="url(#SVGID_10_)" cx="224.75" cy="261.945" r="30.75"/>
		<radialGradient id="SVGID_11_" cx="689.5" cy="239" r="60.75" gradientUnits="userSpaceOnUse">
			<stop  offset="0" style="stop-color:#87888A"/>
			<stop  offset="0.6727" style="stop-color:#87888A"/>
			<stop  offset="0.7146" style="stop-color:#8D8E90"/>
			<stop  offset="0.7782" style="stop-color:#9FA0A2"/>
			<stop  offset="0.8303" style="stop-color:#B1B3B4"/>
			<stop  offset="0.8393" style="stop-color:#ADAFB1"/>
			<stop  offset="0.9119" style="stop-color:#929395"/>
			<stop  offset="0.9515" style="stop-color:#87888A"/>
		</radialGradient>
		<circle fill="url(#SVGID_11_)" cx="689.5" cy="239" r="60.75"/>
		<radialGradient id="SVGID_12_" cx="393" cy="306.668" r="13.9727" gradientUnits="userSpaceOnUse">
			<stop  offset="0" style="stop-color:#87888A"/>
			<stop  offset="0.6727" style="stop-color:#87888A"/>
			<stop  offset="0.7146" style="stop-color:#8D8E90"/>
			<stop  offset="0.7782" style="stop-color:#9FA0A2"/>
			<stop  offset="0.8303" style="stop-color:#B1B3B4"/>
			<stop  offset="0.8393" style="stop-color:#ADAFB1"/>
			<stop  offset="0.9119" style="stop-color:#929395"/>
			<stop  offset="0.9515" style="stop-color:#87888A"/>
		</radialGradient>
		<circle fill="url(#SVGID_12_)" cx="393" cy="306.668" r="13.972"/>
		<radialGradient id="SVGID_13_" cx="349" cy="83.5" r="18" gradientUnits="userSpaceOnUse">
			<stop  offset="0" style="stop-color:#87888A"/>
			<stop  offset="0.6727" style="stop-color:#87888A"/>
			<stop  offset="0.7146" style="stop-color:#8D8E90"/>
			<stop  offset="0.7782" style="stop-color:#9FA0A2"/>
			<stop  offset="0.8303" style="stop-color:#B1B3B4"/>
			<stop  offset="0.8393" style="stop-color:#ADAFB1"/>
			<stop  offset="0.9119" style="stop-color:#929395"/>
			<stop  offset="0.9515" style="stop-color:#87888A"/>
		</radialGradient>
		<circle fill="url(#SVGID_13_)" cx="349" cy="83.5" r="18"/>
		<radialGradient id="SVGID_14_" cx="451" cy="21" r="14.5" gradientUnits="userSpaceOnUse">
			<stop  offset="0" style="stop-color:#87888A"/>
			<stop  offset="0.6727" style="stop-color:#87888A"/>
			<stop  offset="0.7146" style="stop-color:#8D8E90"/>
			<stop  offset="0.7782" style="stop-color:#9FA0A2"/>
			<stop  offset="0.8303" style="stop-color:#B1B3B4"/>
			<stop  offset="0.8393" style="stop-color:#ADAFB1"/>
			<stop  offset="0.9119" style="stop-color:#929395"/>
			<stop  offset="0.9515" style="stop-color:#87888A"/>
		</radialGradient>
		<circle fill="url(#SVGID_14_)" cx="451" cy="21" r="14.5"/>
		<radialGradient id="SVGID_15_" cx="554.8223" cy="265" r="9.6453" gradientUnits="userSpaceOnUse">
			<stop  offset="0" style="stop-color:#87888A"/>
			<stop  offset="0.6727" style="stop-color:#87888A"/>
			<stop  offset="0.7146" style="stop-color:#8D8E90"/>
			<stop  offset="0.7782" style="stop-color:#9FA0A2"/>
			<stop  offset="0.8303" style="stop-color:#B1B3B4"/>
			<stop  offset="0.8393" style="stop-color:#ADAFB1"/>
			<stop  offset="0.9119" style="stop-color:#929395"/>
			<stop  offset="0.9515" style="stop-color:#87888A"/>
		</radialGradient>
		<circle fill="url(#SVGID_15_)" cx="554.823" cy="265" r="9.645"/>
		<radialGradient id="SVGID_16_" cx="722.8223" cy="331.6406" r="8.8223" gradientUnits="userSpaceOnUse">
			<stop  offset="0" style="stop-color:#87888A"/>
			<stop  offset="0.6727" style="stop-color:#87888A"/>
			<stop  offset="0.7146" style="stop-color:#8D8E90"/>
			<stop  offset="0.7782" style="stop-color:#9FA0A2"/>
			<stop  offset="0.8303" style="stop-color:#B1B3B4"/>
			<stop  offset="0.8393" style="stop-color:#ADAFB1"/>
			<stop  offset="0.9119" style="stop-color:#929395"/>
			<stop  offset="0.9515" style="stop-color:#87888A"/>
		</radialGradient>
		<circle fill="url(#SVGID_16_)" cx="722.822" cy="331.641" r="8.822"/>
		<radialGradient id="SVGID_17_" cx="788" cy="379" r="4" gradientUnits="userSpaceOnUse">
			<stop  offset="0" style="stop-color:#87888A"/>
			<stop  offset="0.6727" style="stop-color:#87888A"/>
			<stop  offset="0.7146" style="stop-color:#8D8E90"/>
			<stop  offset="0.7782" style="stop-color:#9FA0A2"/>
			<stop  offset="0.8303" style="stop-color:#B1B3B4"/>
			<stop  offset="0.8393" style="stop-color:#ADAFB1"/>
			<stop  offset="0.9119" style="stop-color:#929395"/>
			<stop  offset="0.9515" style="stop-color:#87888A"/>
		</radialGradient>
		<circle fill="url(#SVGID_17_)" cx="788" cy="379" r="4"/>
		<radialGradient id="SVGID_18_" cx="807.5693" cy="24.707" r="23.5693" gradientUnits="userSpaceOnUse">
			<stop  offset="0" style="stop-color:#87888A"/>
			<stop  offset="0.6727" style="stop-color:#87888A"/>
			<stop  offset="0.7146" style="stop-color:#8D8E90"/>
			<stop  offset="0.7782" style="stop-color:#9FA0A2"/>
			<stop  offset="0.8303" style="stop-color:#B1B3B4"/>
			<stop  offset="0.8393" style="stop-color:#ADAFB1"/>
			<stop  offset="0.9119" style="stop-color:#929395"/>
			<stop  offset="0.9515" style="stop-color:#87888A"/>
		</radialGradient>
		<circle fill="url(#SVGID_18_)" cx="807.569" cy="24.708" r="23.569"/>
		<radialGradient id="SVGID_19_" cx="215.5" cy="101.5" r="9.25" gradientUnits="userSpaceOnUse">
			<stop  offset="0" style="stop-color:#87888A"/>
			<stop  offset="0.6727" style="stop-color:#87888A"/>
			<stop  offset="0.7146" style="stop-color:#8D8E90"/>
			<stop  offset="0.7782" style="stop-color:#9FA0A2"/>
			<stop  offset="0.8303" style="stop-color:#B1B3B4"/>
			<stop  offset="0.8393" style="stop-color:#ADAFB1"/>
			<stop  offset="0.9119" style="stop-color:#929395"/>
			<stop  offset="0.9515" style="stop-color:#87888A"/>
		</radialGradient>
		<circle fill="url(#SVGID_19_)" cx="215.5" cy="101.5" r="9.25"/>
		<radialGradient id="SVGID_20_" cx="44" cy="35" r="14" gradientUnits="userSpaceOnUse">
			<stop  offset="0" style="stop-color:#87888A"/>
			<stop  offset="0.6727" style="stop-color:#87888A"/>
			<stop  offset="0.7146" style="stop-color:#8D8E90"/>
			<stop  offset="0.7782" style="stop-color:#9FA0A2"/>
			<stop  offset="0.8303" style="stop-color:#B1B3B4"/>
			<stop  offset="0.8393" style="stop-color:#ADAFB1"/>
			<stop  offset="0.9119" style="stop-color:#929395"/>
			<stop  offset="0.9515" style="stop-color:#87888A"/>
		</radialGradient>
		<circle fill="url(#SVGID_20_)" cx="44" cy="35" r="14"/>
	</g>
	<g>
		<g>
			<g>
				<polygon fill="#B1B3B4" points="138.948,116.6 142.308,123.105 147.516,131.401 143.456,137.769 138.846,143.424 
					134.849,149.305 125.269,149.107 121.498,154.563 119.184,164.939 112.901,170.399 103.81,163.196 97.107,169.24 
					90.233,164.387 83.986,161.277 73.578,168.11 66.622,164.023 60.812,158.481 64.573,144.785 61.279,139.615 58.074,134.421 
					45.958,131.617 53.44,122.886 44.589,116.6 51.829,110.084 49.657,102.667 53.699,96.778 53.234,88.402 56.631,81.525 
					69.395,84.613 72.357,78.081 78.094,74.961 81.564,63.659 90.021,67.314 97.107,71.585 104.57,64.673 113.284,61.495 
					119.511,67.548 123.545,75.46 126.868,82.251 132.554,85.888 141.53,88.05 147.15,93.744 144.276,102.75 144.845,109.734 				
					"/>
			</g>
			<g>
				<polygon fill="#B1B3B4" points="541.878,58.103 542.841,65.043 540.267,72.283 533.195,75.266 526.086,75.633 518.354,76.767 
					515.131,69.058 511.537,64.128 506.835,58.103 507,50.195 511.463,43.48 518.98,40.949 526.086,38.146 533.036,41.324 
					539.713,44.476 541.201,51.844 				"/>
			</g>
			<g>
				<polygon fill="#B1B3B4" points="629.452,40.104 627.243,46.168 626.695,53.265 621.783,58.274 614.705,58.95 608.581,60.366 
					600.941,63.615 594.106,60.021 592.561,51.741 590.993,45.818 589.637,40.104 586.625,32.969 592.622,28.511 593.913,19.917 
					602.686,21.96 608.581,19.415 614.727,21.195 621.555,22.246 624.186,28.769 627.516,33.951 				"/>
			</g>
			<g>
				<polygon fill="#B1B3B4" points="743.13,190.958 743.171,197.895 740.236,204.334 737.859,213.026 729.876,215.742 
					721.824,217.631 715.357,210.859 708.3,209.576 704.707,203.391 696.003,199.347 699.97,190.958 699.448,183.688 
					699.674,174.861 707.015,170.575 714.629,168.814 721.824,170.747 728.694,169.818 736.471,170.801 740.654,177.279 
					746.534,182.931 				"/>
			</g>
			<g>
				<polygon fill="#B1B3B4" points="599.605,129.35 599.01,136.381 592.71,139.533 586.832,141.771 580.932,139.571 577.232,134.89 
					572.482,129.35 575.568,122.847 579.91,117.363 586.832,115.874 593.867,117.167 598.667,122.516 				"/>
			</g>
			<g>
				<polygon fill="#B1B3B4" points="712.714,104.601 711.943,112.355 709.672,120.293 702.866,124.958 694.676,124.91 
					688.076,130.366 681.66,124.344 672.52,126.01 668.272,118.988 667.123,111.409 661.806,104.601 665.063,97.123 666.051,88.594 
					673.333,84.31 680.27,80.575 688.076,80.432 694.709,84.192 701.625,85.951 705.521,91.929 711.801,96.893 				"/>
			</g>
			<g>
				<polygon fill="#B1B3B4" points="496.841,217.292 490.744,223.723 496.094,232.889 488.561,237.414 481.12,239.968 
					480.003,249.558 471.104,247.864 465.103,250.746 458.443,249.944 450.146,259.032 444.074,251.984 437.983,247.914 
					431.89,243.845 423.25,240.812 423.04,231.958 423.148,224.316 421.365,217.292 419.86,209.619 420.768,201.685 
					429.886,198.214 430.869,189.717 435.113,182.381 442.371,178.494 451.772,183.779 458.443,181.959 466.611,176.206 
					472.196,184.088 481.248,183.169 485.203,190.533 485.441,199.259 494.285,202.446 494.807,210.058 				"/>
			</g>
			<g>
				<polygon fill="#B1B3B4" points="824.416,307.091 825.94,314.149 821.811,319.917 817.082,324.578 811.709,328.074 
					805.954,330.817 799.596,333.413 793.184,331.014 788.018,327.148 783.008,323.678 774.668,321.486 776.736,313.217 
					773.109,307.091 773.446,300.084 778.505,294.915 780.456,287.952 786.65,284.67 793.658,284.938 799.596,282.462 
					806.186,282.503 811.898,285.78 818.933,287.754 821.985,294.164 821.735,301.156 				"/>
			</g>
			<g>
				<polygon fill="#B1B3B4" points="411.696,135.35 404.347,141.204 403.257,147.164 404.631,156.017 398.496,160.151 
					391.967,162.863 386.008,167.293 378.718,162.846 372.894,160.846 364.773,164.303 359.457,159.5 352.475,156.278 
					353.101,147.684 352.268,141.39 349.065,135.35 350.56,128.92 347.682,120.4 357.516,118.444 358.829,110.41 365.754,108.429 
					372.485,108.054 378.718,106.979 385.551,105.413 392.832,106.043 398.69,110.306 405.12,114.293 402.831,123.74 
					407.258,128.833 				"/>
			</g>
			<g>
				<polygon fill="#B1B3B4" points="609.747,280.841 602.581,287.063 610.52,296.56 607.174,303.848 597.047,305.771 
					594.612,313.352 585.84,312.906 581.365,319.394 574.93,323.937 567.333,327.356 560.385,320.228 551.612,324.032 
					545.025,319.473 538.165,315.598 533.073,309.59 532.293,301.068 526.784,295.6 532.649,286.965 520.819,280.841 
					528.239,273.945 523.882,265.025 531.215,259.988 536.469,254.944 539.276,247.405 545.752,243.461 550.982,235.919 
					559.703,237.56 567.333,236.995 574.771,238.649 581.689,241.398 588.472,244.229 591,252.633 597.412,255.603 607.971,257.375 
					604.972,267.141 606.503,273.932 				"/>
			</g>
			<g>
				<polygon fill="#B1B3B4" points="734.487,427.084 737.609,435.176 733.439,442.448 725.822,445.786 718.075,449.261 
					711.319,443.396 704.431,440.729 698.399,435.234 701.65,427.084 699.051,419.203 704.912,413.921 711.128,410.312 
					718.075,409.053 726.7,406.264 733.963,411.196 737.618,418.988 				"/>
			</g>
			<g>
				<polygon fill="#B1B3B4" points="752.829,526.454 752.236,534.92 745.693,540.517 737.574,544.712 729.233,540.899 
					723.563,534.544 721.141,526.454 725.983,519.765 730.13,513.56 737.574,511.578 745.242,513.172 752.798,517.663 				"/>
			</g>
			<g>
				<polygon fill="#B1B3B4" points="836.857,570.701 833.742,575.822 831.254,581.76 824.869,584.382 819.17,580.574 
					815.659,576.018 813.005,570.701 814.784,564.88 817.973,558.757 824.869,559.707 831.705,558.862 833.791,565.553 				"/>
			</g>
			<g>
				<polygon fill="#B1B3B4" points="402.928,548.578 396.892,554.484 393.926,559.624 392.931,568.14 386.184,571.557 
					378.717,574.147 372.358,568.146 367.732,563.701 359.095,562.836 359.84,554.713 356.288,548.578 358.399,541.976 
					359.837,534.859 365.643,530.581 371.985,527.861 378.717,526.064 384.611,530.443 390.818,531.92 399.382,533.561 
					400.775,541.411 				"/>
			</g>
			<g>
				<polygon fill="#B1B3B4" points="189.438,496.83 187.489,505.379 178.885,508.862 174.229,514.64 166.853,516.007 
					159.708,514.08 153.674,510.01 146.275,505.354 148.771,496.83 145.292,487.897 154.819,484.797 159.083,478.069 
					166.853,477.738 175.385,476.234 183.338,480.346 187.622,488.227 				"/>
			</g>
			<g>
				<polygon fill="#B1B3B4" points="318.525,466.082 313.772,471.487 313.572,478.933 306.927,481.063 300.722,480.836 
					293.634,483.191 289.31,477.493 284.426,472.833 283.325,466.082 286.931,460.37 287.541,452.9 294.51,451.087 300.722,447.403 
					307.756,449.101 310.84,455.963 315.068,460.14 				"/>
			</g>
			<g>
				<polygon fill="#B1B3B4" points="804.058,34.74 802.393,42.722 796.424,48.338 788.572,49.971 781.278,47.374 776.874,41.493 
					775.126,34.74 775.684,27.299 781.395,22.309 788.572,19.808 795.88,22.083 801.858,27.068 				"/>
			</g>
			<g>
				<polygon fill="#B1B3B4" points="566.236,525.783 564.905,533.086 559.505,538.342 552.255,542.773 545.051,538.263 
					541.033,532.26 536.215,525.783 537.304,517.148 544.938,513.108 552.255,509.381 559.384,513.433 563.726,519.163 				"/>
			</g>
			<g>
				<polygon fill="#B1B3B4" points="55.948,427.084 60.026,434.337 54.611,439.367 48.52,441.974 45.109,449.874 37.704,451.352 
					30.277,449.941 25.263,444.208 20.879,439.308 14.628,434.582 15.728,427.084 15.038,419.72 21.48,415.298 26.318,411.409 
					31.425,407.762 37.704,402.784 43.767,408.427 51.151,408.578 56.039,413.762 54.49,421.629 				"/>
			</g>
			<g>
				<polygon fill="#B1B3B4" points="390.358,332.365 392.528,338.84 389.15,344.362 384.642,348.64 382.188,356.299 
					375.593,359.335 368.368,357.729 362.488,354.3 356.688,352.599 352.76,347.973 344.791,345.979 340.57,339.812 
					346.992,332.365 345.547,326.248 349.071,321.228 351.492,315.488 357.007,312.682 362.178,309.269 368.368,310.042 
					375.47,305.858 380.356,311.599 383.406,317.327 390.675,319.486 391.632,326.131 				"/>
			</g>
			<g>
				<polygon fill="#B1B3B4" points="262.808,34.741 264.756,42.121 260.51,48.155 256.973,55.283 250.222,59.902 242.046,58.85 
					234.207,58.868 226.168,56.591 221.226,49.87 221.388,41.454 221.974,34.741 219.145,27.299 222.508,20.545 227.845,15.194 
					234.55,11.67 242.046,14.155 248.504,14.869 256.183,15.286 259.032,22.403 261.078,28.557 				"/>
			</g>
			<g>
				<polygon fill="#B1B3B4" points="215.092,254.791 218.499,262.217 220.555,270.559 218.838,278.535 212.208,283.94 
					200.368,283.828 200.063,293.12 193.99,297.023 187.083,299.096 183.935,312.977 173.792,303.01 166.853,305.819 
					159.701,304.507 150.955,308.937 146.885,298.521 139.934,296.682 137.814,288.309 132.087,284.91 127.206,280.263 
					120.309,276.045 116.089,269.697 118.806,261.705 106.448,254.791 114.208,247.221 114.046,239.285 113.577,230.455 
					117.658,223.168 126.834,220.114 130.455,212.785 136.53,207.61 147.889,213.254 153.257,208.497 159.742,205.357 
					166.853,208.356 173.404,209.292 179.844,210.562 185.461,214.035 190.961,217.265 206.581,208.948 202.788,223.657 
					210.479,226.756 207.074,236.429 216.896,240.096 219.263,247.255 				"/>
			</g>
			<g>
				<polygon fill="#B1B3B4" points="215.279,116.6 221.319,124.248 216.621,130.373 213.16,136.992 207.479,142.073 
					198.967,139.726 192.769,141.193 186.411,140.323 181.764,135.668 174.066,135.302 171.913,128.639 167.154,123.463 
					165.051,116.6 167.162,109.738 172.007,104.615 176.883,100.714 179.234,93.158 185.3,88.719 192.769,93.472 200.075,89.331 
					205.676,94.244 213.251,96.119 215.735,103.341 216.518,110.235 				"/>
			</g>
		</g>
	</g>
</g>
<g id="Calque_2">
	<g>
		<path fill="#1C2927" d="M129.083,595.131c18.275-11.153,11.694-26.195,20.285-41.088c3.756-6.513,14.215-10.521,19.282-16.511
			c5.778-6.832,5.411-15.59,10.618-22.188c7.143-9.051,21.591-7.706,27.479-18.813c3.117-5.881,1.43-10.612,6.581-15.646
			c5.558-5.431,14.494-6.173,19.719-12.546c5.827-7.106,2.888-10.711,12.006-13.844c11.12-3.82,47.423-6.307,39.425-28.344
			c-13.455-0.495-22.027,5.007-34.725,7.599c-19.777,4.037-31.554,10.376-42.398,26.674c-7.711,11.589-19.239,14.283-30.746,20.64
			c-12.574,6.947-16.008,21.776-31.757,27.135c-6.92-20.495,10.498-44.951,25.222-57.359c11.93-10.054,10.906-14.808,12.84-29.915
			c1.638-12.797,7.564-26.874,5.137-39.803c-2.364-12.592-9.393-24.651-10.063-38.068c-0.421-8.423,1.575-17.068,1.954-25.479
			c0.245-5.437-1.571-11.446-1.37-16.283c0.448-10.806,7.928-12.809,14.248-21.278c13.969-18.718-17.389-15.406-12.822-32.641
			c1-3.775,7.919-13.166,11.031-16.388c3.924-4.063,17.313-6.975,17.309-13.722c-0.001-2.978-19.891-25.08-23.384-28.086
			c1.681-8.059,14.597-16.222,22.325-18.342c-5.088-10.823-18.979-13.347-25.199-23.605c-3.146-5.189-2.728-8.283-4.702-13.766
			c-1.047-2.91-4.022-5.829-4.583-8.685c-1.095-5.577,1.289-10.029,1.184-15.638c-0.285-15.187-2.605-32.3,7.516-46.258
			C146.066,44.869,180.529,44.101,146,24c7.798-5.873-7.497-10.727,1-14c8.169-3.147-12.583-7.78-17.917-9.946H86.919
			c5.871,16.419,6.432,26.106,15.336,41.336c11.258,19.257,29.932,34.588,36.703,56.379c4.875,15.691,5.765,32.544,10.496,48.459
			c4.777,16.07,10.789,36.15-6.815,46.953c-20.013,12.281-28.861-12.209-39.244-24.392c-16.707-19.603-22.137,2.934-13.2,18.178
			c9.956,16.982,31.892,24.106,39.591,42.306c5.958,14.083,4.032,34.811-4.871,47.28c-13.576,19.013-29.557,5.135-42.118-7.186
			C62.157,249.123,27.328,235.86,0,225.764v36.798c8.551,9.179,33.968,5.166,44.049,9.945c13.457,6.378,20.29,23.777,31.794,32.931
			c13.257,10.548,32.68,14.676,42.394,29.501c7.838,11.961,1.025,21.662,0.62,34.257c-0.741,22.988,14.027,50.041,6.37,72.13
			c-5.614,16.194-23.466,19.103-31.51,32.787c-9.318,15.853,0.222,37.001-3.123,54.271c-4.97,25.668,15.532,45.021-3.676,66.746
			H129.083z"/>
		<path fill="#1C2927" d="M841.89,262.563c4.13,0.769-19.82,10.228-37.641,3.451c-2.467-0.938-8.869-1.146-10.557-2.63
			c-4.47-3.93-1.053-9.655-4.296-14.286c-3.62-5.169-9.231-5.307-14.313-7.118c-2.501-0.892-9.567-2.828-11.27-3.833
			c-1.708-1.009-4.24-5.353-5.77-5.833c-14.828-4.653-27.425,4.908-43.236-4.154c-6.552-3.754-11.755-8.425-15.69-14.424
			c-3.772-5.75-3.355-14.143-7.344-18.525c8.94-4.991,16.514,0.946,24.688,3.696c10.93,3.676,10.942-1.059,19.148-6.628
			c15.973-10.84,23.684,6.038,33.439,17.131c8.168,9.288,21.423,9.394,32.057,13.603c3.684,1.458,16.771,3.218,22.128,4.438
			c2.176,0.495,6.48,0.061,8.321,0.827c5.026,2.092,5.13-1.301,10.335-1.843V262.563z"/>
		<path fill="#1C2927" d="M697.919,595.131c-0.396-19.998-16.002-32.182-6.553-50.665c6.196-12.12,17.545-22.423,26.267-32.782
			c15.068-17.896,37.121-18.441,51.552-36.652c6.521-8.23,48.865-34.783,19.352-42.535c-11.772-3.093-18.966,8.466-26.849,14.771
			c-8.448,6.756-21.21,9.642-27.403,18.868c-6.23,9.28-1.959,18.862-13.792,23.346c-12.854,4.87-21.893,1.949-27.91,17.262
			c-11.725-5.24-17.037-19.316-9.646-30.753c7.469-11.556,25.987-14.596,30.357-28.905c3.832-12.546,2.355-22.781-4.791-33.222
			c-3.584-5.235-7.133-11.639-11.782-15.942c-6.235-5.771-13.72-6.109-20.592-11.121c-1.93,15.539,12.886,27.082,4.545,42.739
			c-5.642,10.592-17.421,16.67-28.244,20.149c-1.69-15.308-9.247-27.897-8.503-44.461c0.513-11.424,2.891-16.887-6.983-25.22
			c-8.691-7.335-12.294-14.338-19.546-23.8c-7.39-9.642-7.986-6.87-20.183-8.106c-6.097-0.617-10.869-2.918-17.162-2.016
			c-0.667,9.318,4.245,18.279,5.019,27.449c0.582,6.901-1.551,12.498,2.559,18.238c4.868,6.8,14.429,8.284,20,15.294
			c2.588,3.257,9.443,10.216,10.525,13.579c3.058,9.504-8.034,17.428-8.211,26.924c-0.138,7.37,5.877,12.37,8.033,17.992
			c5.322,13.87,3.34,23.866,2.995,38.185c-20.734-0.19-34.716-11.185-49.82-22.575c-18.501,15.827,24.976,37.328,35.754,41.33
			c11.222,4.166,12.514,9.192,16.072,20.474c3.836,12.161,9.25,20.783,15.284,31.587c6.666,11.935,38.662,9.843,29.657,20.569
			H697.919z"/>
		<g>
			<path fill="#1C2927" d="M520.685,152c0,6.352-2.893,16.89-6.749,24.495c-4.239,8.357-12.858,13.651-16.896,22.259
				c-2.342,4.993-1.311,12.555-8.158,13.589c-7.699,1.163-11.416-9.539-12.263-15.191c-5.235,7.173-26.447,51.039-33.619,56.348
				c-7.169-15.59-3.035-55.248-15.154-67c-8.402-8.147-13.598-15.891-22.051-23.288c-6.593-5.77-3.961-15.369-10.358-20.126
				c-8.033-5.975-20.446,1.74-29.24-3.868c-8.596-5.482-11.559-14.325-21.699-1.885c-3.488,4.279-3.625,9.867-6.289,14.418
				c-1.901,3.249,24.651-2.964,23.291,0.25c-7.9,18.655,33.25,28.932,45,37.5c12.5,9.115-11.375,33.663-10.906,48.72
				c0.777,24.922,23.343,10.414,15.906,30.28c-3.351,8.953-7.046,19.249-4.5,27c3.612,10.997-48.957,29.448-55.029,38.547
				c-7.413,11.107-53.599-0.091-57.581,12.673c-5.165,16.555,12.761,23.584,24.998,29.072c11.244,5.044,21.497,11.012,31.306,18.573
				C356.633,398.943,364.65,411.694,372,411c17.091-1.617,14.178-23.851,9.973-33.481c-8.795-20.138,7.971-24.982,10.527-47.019
				c1.563-13.472,27.841-14.692,32.753-27.096c3.873-9.782,2.842-18.194,3.733-28.298c19.288,7.208,26.9,11.601,21.424,32.813
				c-2.512,9.729-4.05,22.349-8.776,31.162c-10.814,20.164-16.784,23.58-6.134,46.831c5.924,12.933,14.069,23.105,14.473,37.015
				c0.523,18.077-8.02,30.33-14.379,46.883c-8.18,21.296-7.75,42.277-5.088,64.883c2.031,17.244,5.042,43.406,8.249,60.438
				c1.504,7.992-1.465-7.393-0.034,0h67.198C497.186,583.11,453.419,566.293,459,549c2.58-7.993-7.653-17.24-4.165-25.877
				c7.674-19.003,2.13-43.067,6.521-63.34c4.177-19.281,16.504-31.377,16.846-51.669c0.45-26.744-0.166-53.656,0.826-80.362
				c0.678-18.237-0.75-37.125,13.829-50.486c12.685-11.625,21.589-5.281,27.828-24.266c3.06-9.31,9.897-12.608,12.233-21.871
				c2.632-10.436,13.249-16.349,16.723-26.477c3.61-10.524-1.051-21.036,9.931-27.66c5.8-3.499,14.151-3.151,20.506-5.27
				c9.914-3.305,17.189-8.942,23.558-17.204c17.181-22.29,25.783-48.816,47.237-68.14c12.7-11.438,30.208-20.835,37.489-37.145
				c4.307-9.646,0.558-18.447,2.871-28.208c2.4-10.125,10.039-9.923,6.687-20.972h-30C664.49,2.472,664.072,6.367,661,9
				c-4.715,4.041-12.986-6.575-17.688-2.938c-11.693,9.047-17.49,25.209-28.68,35.301c-12.861,11.601-23.114,15.625-25.345,32.968
				c-1.997,15.527-4.121,29.181-15.824,40.839c-11.061-7.021-34.343-7.732-43.89-16.629c-5.795-5.401-8.584-8.363-5.227-16.705
				c4.822-11.982,11.383-18.148,5.684-32.154c-4.535-11.144-16.698-18.265-19.072-30.057c-2.139-10.622-0.646-9.184-5.04-19.571
				h-67.164c-0.12,7.655-2.91,9.79-4.684,17.226c-2.322,9.739-13.924,17.368-10.008,28.968c4.673,13.84,28.019,9.454,39.282,18.597
				c6.53,5.301,12.847,11.64,12.647,20.55c-0.232,10.371-11.146,15.52-11.992,25.113c11.484,3.514,24.085,6.956,35.219,12.098
				C508.74,127.001,520.685,142.901,520.685,152z"/>
		</g>
	</g>
	<g>
		<g>
			<g>
				<linearGradient id="SVGID_21_" gradientUnits="userSpaceOnUse" x1="335.8779" y1="99.3042" x2="335.8779" y2="189.3711">
					<stop  offset="0" style="stop-color:#006560"/>
					<stop  offset="1" style="stop-color:#000000"/>
				</linearGradient>
				<polyline fill="url(#SVGID_21_)" points="382.216,111.938 376.338,100.837 367.548,109.728 360.564,99.304 353.9,109.81 
					343.576,102.776 345.593,113.499 334.838,111.772 342.467,119.905 331.513,120.69 337.353,130.028 318.341,129.943 
					302.867,140.968 286.644,130.246 271.281,141.286 252.688,143.326 257.812,156.149 246.713,164.535 259.199,169.601 
					260.883,183.069 273.608,177.325 280.942,189.371 291.652,180.357 303.044,188.623 306.264,175.24 319.649,171.992 
					311.052,165.325 321.447,162.244 312.074,156.592 322.795,155.587 317.075,146.461 326.842,151.14 324.824,140.533 
					333.792,146.702 330.771,136.358 338.89,141.28 342.882,135.869 335.757,143.407 346.081,142.427 337.077,147.6 
					340.289,144.972 350.397,147.918 346.888,136.509 357.599,140.389 363.313,130.946 364.259,142.798 373.418,137.644 
					368.336,146.966 377.805,142.416 375.588,152.665 380.415,143.488 385.942,152.003 383.256,141.902 391.819,147.86 
					387.609,138.28 393.004,145.117 398.588,138.664 392.329,146.808 401.441,142.11 395.829,150.702 400.391,143.611 
					406.505,149.325 399.089,142.252 408.816,145.45 401.487,138.286 402.341,141.096 412.581,141.214 417.912,143.471 
					410.769,134.016 422.116,130.834 414.786,120.792 416.427,127.748 423.504,120.77 415.366,126.437 424.954,123.847 
					425.043,125.752 415.185,120.385 422.911,112.265 412.697,116.117 409.954,105.381 404.353,115.25 400.967,104.894 
					394.253,113.418 392.614,102.589 387.343,111.963 380.742,103.539 				"/>
			</g>
			<g>
				<linearGradient id="SVGID_22_" gradientUnits="userSpaceOnUse" x1="285.1216" y1="289.0601" x2="285.1216" y2="398.7212">
					<stop  offset="0" style="stop-color:#006560"/>
					<stop  offset="1" style="stop-color:#000000"/>
				</linearGradient>
				<polyline fill="url(#SVGID_22_)" points="345.801,304.854 333.038,291.317 316.027,298.343 299.953,289.06 290.425,304.58 
					275.339,308.521 266.837,311.859 259.794,299.447 250.216,309.928 236.93,304.96 235.149,319.191 225.7,314.55 231.364,323.32 
					221.044,321.979 230.44,326.594 220.661,330.332 231.205,331.679 223.172,338.544 233.457,340.964 223.161,340.275 
					228.459,343.626 232.255,354.338 242.014,344.317 251.099,354.149 263.821,352.227 257.154,361.744 257.26,371.72 
					244.742,368.702 244.076,381.739 232.517,376.439 224.673,386.417 224.069,375.602 215.517,382.182 216.322,371.301 
					209.901,379.855 201.417,373.424 212.137,374.097 210.109,384.676 218.181,377.473 218.288,388.262 225.707,380.376 
					224.882,391.03 233.092,384.238 231.129,394.749 239.235,387.842 238.909,398.519 244.629,389.57 249.869,398.721 
					247.778,388.298 257.783,391.964 251.963,382.921 263.363,383.564 257.491,373.702 268.899,374.191 264.246,363.726 
					275.213,366.854 273.581,355.953 281.206,363.817 284.749,353.468 290.013,363.225 293.291,352.706 301.053,360.758 
					301.425,349.504 310.851,355.584 310.317,344.318 319.184,351.146 321.18,340.277 327.505,349.481 331.379,339.055 
					337.567,348.354 339.916,337.545 351.742,342.179 349.477,329.577 361.959,327.063 355.826,315.709 368.826,310.33 
					357.755,312.471 358.938,301.705 351.033,309.072 350.452,298.281 343.855,306.867 				"/>
			</g>
			<g>
				<linearGradient id="SVGID_23_" gradientUnits="userSpaceOnUse" x1="574.1943" y1="318.4453" x2="574.1943" y2="370.3105">
					<stop  offset="0" style="stop-color:#006560"/>
					<stop  offset="1" style="stop-color:#000000"/>
				</linearGradient>
				<polyline fill="url(#SVGID_23_)" points="620.752,331.705 614.281,322.354 609.163,332.524 604.146,322.271 598.087,331.888 
					593.008,321.7 585.949,331.946 577.771,322.648 571.295,333.264 563.646,323.54 555.375,332.82 555.87,322.515 548.63,329.873 
					551.073,319.753 545.387,328.267 542.587,318.445 542.576,329.168 532.727,324.816 537.867,334.441 527.293,331.981 
					532.049,341.822 521.644,337.577 524.051,348.441 513.184,345.607 521.315,351.929 515.221,360.714 526.189,356.266 
					529.199,367.637 536.798,358.592 543.668,368.233 552.191,357.484 554.965,370.311 559.367,358.272 571.305,362.387 
					571.353,349.666 578.129,352.932 588.269,349.237 594.602,359.841 600.313,348.391 611.631,354.255 614.905,340.576 
					612.416,349.996 622.822,351.492 613.017,355.471 622.96,359.017 620.324,366.669 618.04,352.633 630.828,349.771 
					624.462,338.433 635.205,330.905 623.685,328.463 623.221,320.269 627.176,329.482 621.966,320.904 625.97,330.095 
					619.928,322.099 				"/>
			</g>
			<g>
				<linearGradient id="SVGID_24_" gradientUnits="userSpaceOnUse" x1="705.6201" y1="361.3301" x2="705.6201" y2="413.125">
					<stop  offset="0" style="stop-color:#006560"/>
					<stop  offset="1" style="stop-color:#000000"/>
				</linearGradient>
				<polyline fill="url(#SVGID_24_)" points="702.601,378.826 690.301,368.453 678,378.304 665.117,369.11 655.936,381.521 
					642.533,386.891 655.846,390.199 662.188,402.765 673.677,393.909 684.032,403.951 694.538,393.794 702.951,404.532 
					713.629,396.099 720.789,407.716 731.878,399.823 739.123,411.384 745.418,402.454 748.072,413.125 753.274,403.55 
					759.476,412.528 757.432,402.148 768.707,401.486 758.868,396.406 764.322,386.699 754.075,391.467 751.321,380.505 
					748.195,390.53 743.762,381.044 741.45,391.325 739.264,381.183 732.358,388.899 737.303,379.916 727.121,381.648 
					735.606,375.513 725.302,376.564 731.27,368.162 722.453,374.431 721.025,363.714 713.598,371.831 715.958,361.386 
					707.44,365.229 703.309,361.33 712.108,366.98 701.999,369.644 711.811,373.541 701.915,372.727 				"/>
			</g>
			<g>
				<linearGradient id="SVGID_25_" gradientUnits="userSpaceOnUse" x1="686.1162" y1="138.9551" x2="686.1162" y2="216.8843">
					<stop  offset="0" style="stop-color:#006560"/>
					<stop  offset="1" style="stop-color:#000000"/>
				</linearGradient>
				<polygon fill="url(#SVGID_25_)" points="738.995,151.311 718.503,145.662 703.84,159.958 683.713,156.071 671.056,172.141 
					650.54,172.083 650.928,184.1 639.404,180.69 641.661,192.47 629.67,191.469 634.139,203.988 631.735,194.591 622.114,198.767 
					627.955,189.953 618.304,194.051 615.993,184.641 619.217,199.313 618.805,212.547 633.076,206.054 644.157,216.884 
					655.998,206.763 665.217,215.879 671.332,204.409 682.047,211.724 686.741,199.592 692.27,204.628 703.307,206.495 
					712.703,215.463 717.976,201.752 732.39,203.883 734.254,189.385 746.438,189.955 741.184,178.623 753.242,175.435 
					745.654,165.578 756.239,158.833 745.582,155.492 753.176,147.293 742.399,149.058 740.172,138.955 				"/>
			</g>
			<g>
				<linearGradient id="SVGID_26_" gradientUnits="userSpaceOnUse" x1="298.4312" y1="402.3438" x2="298.4312" y2="510.0469">
					<stop  offset="0" style="stop-color:#006560"/>
					<stop  offset="1" style="stop-color:#000000"/>
				</linearGradient>
				<polyline fill="url(#SVGID_26_)" points="308.728,414.512 305.487,402.344 291.786,411.169 278.136,402.442 268.484,415.305 
					252.423,418.138 266.409,424.715 271.03,439.416 286.1,435.28 293.967,448.742 307.844,442.156 312.361,454.822 
					324.733,460.295 315.668,471.665 327.114,480.009 323.142,493.681 337.487,495.296 337.813,510.047 337.889,500.599 
					344.439,487.784 331.547,481.198 338.918,471.334 327.897,465.71 337.579,457.272 325.533,454.139 329.837,442.615 
					315.008,442.017 315.304,427.818 301.117,425.983 306.34,418.539 314.891,409.649 				"/>
			</g>
			<g>
				<linearGradient id="SVGID_27_" gradientUnits="userSpaceOnUse" x1="558.2041" y1="465.5791" x2="558.2041" y2="558.6602">
					<stop  offset="0" style="stop-color:#006560"/>
					<stop  offset="1" style="stop-color:#000000"/>
				</linearGradient>
				<polyline fill="url(#SVGID_27_)" points="593.179,476.402 587.189,465.992 580.087,475.574 573.501,465.579 568.381,476.269 
					558.314,469.907 562.01,480.302 551.09,478.951 557.488,488.045 546.588,486.499 550.312,496.891 540.964,491.02 
					540.908,502.02 532.439,494.841 533.746,505.728 523.4,502.067 529.269,511.347 518.302,511.191 526.585,518.279 
					516.718,522.928 528.622,523.532 518.449,524.789 522.769,534.351 513.54,529.136 519.521,537.515 509.566,539.355 
					522.292,541.045 525.163,553.62 536.383,546.848 541.944,558.66 548.798,551.521 556.274,550.247 546.058,545.192 
					555.957,539.639 546.343,533.532 555.562,532.806 558.377,529.304 550.45,536.089 560.818,535.086 552.674,541.61 
					558.2,537.348 566.003,543.27 563.356,532.276 574.525,534.111 568.034,524.815 579.159,522.72 570.135,515.686 
					580.416,510.854 571.019,504.301 582.025,502 577.433,491.754 585.765,498.127 585.994,487.629 591.739,496.62 591.631,486.114 
					600.131,492.289 594.873,483.423 604.484,487.149 596.547,480.563 606.842,481.086 597.819,478.166 603.659,471.795 
					596.368,478.986 599.794,469.335 592.758,476.773 595.367,466.832 				"/>
			</g>
			<g>
				<linearGradient id="SVGID_28_" gradientUnits="userSpaceOnUse" x1="69.6284" y1="147.1631" x2="69.6284" y2="209.8101">
					<stop  offset="0" style="stop-color:#006560"/>
					<stop  offset="1" style="stop-color:#000000"/>
				</linearGradient>
				<polyline fill="url(#SVGID_28_)" points="109.355,156.987 100.313,148.552 96.048,160.359 85.846,153.191 80.9,164.729 
					73.187,155.175 66.176,163.375 67.313,152.466 57.918,158 59.686,147.163 55.371,154.125 44.142,153.87 50.428,165.001 
					38.939,170.458 47.273,180.25 35.52,184.986 42.725,192.649 32.384,190.097 39.396,197.929 28.918,198.678 37.135,198.952 
					39.559,208.91 46.514,199.333 52.863,209.281 58.903,199.094 65.224,209.052 66.74,199.004 69.015,208.883 69.985,198.79 
					72.432,208.63 73.156,198.53 73.088,208.39 78.363,199.829 75.626,209.54 79.108,200.184 81.415,209.81 82.12,196.597 
					94.958,195.332 90.216,183.235 102.831,180.214 97.023,168.628 107.464,168.425 98.279,163.184 108.67,163.043 102.958,154.5 
					110.338,161.817 				"/>
			</g>
			<g>
				<linearGradient id="SVGID_29_" gradientUnits="userSpaceOnUse" x1="779.0547" y1="413.3867" x2="779.0547" y2="521.9707">
					<stop  offset="0" style="stop-color:#006560"/>
					<stop  offset="1" style="stop-color:#000000"/>
				</linearGradient>
				<polyline fill="url(#SVGID_29_)" points="806.872,425.556 797.938,417.367 793.527,428.596 784.157,420.905 781.975,432.756 
					770.834,428.147 775.891,437.245 765.912,434.302 773.047,441.964 763.086,439.002 767.475,448.385 758.604,440.66 
					751.526,450.04 744.85,439.909 745.163,450.856 734.145,454.41 744.661,461.973 741.84,474.55 754.573,470.425 759.265,482.796 
					771.209,476.677 772.415,489.137 784.853,487.844 780.646,499.761 793.036,501.81 790.216,515.439 792.861,503.932 
					803.373,507.753 798.25,497.956 809.257,496.921 809.137,488.01 800.01,496.558 810.026,502.229 800.04,507.945 810.02,513.683 
					809.183,521.971 804.347,504.39 816.978,492.298 808.738,476.832 819.602,463.126 810.084,448.407 820.99,443.003 
					813.043,433.981 823.964,428.545 813.068,424.961 813.857,413.387 				"/>
			</g>
			<g>
				<linearGradient id="SVGID_30_" gradientUnits="userSpaceOnUse" x1="193.7324" y1="43.4434" x2="193.7324" y2="108.249">
					<stop  offset="0" style="stop-color:#006560"/>
					<stop  offset="1" style="stop-color:#000000"/>
				</linearGradient>
				<polygon fill="url(#SVGID_30_)" points="220.716,54.369 211.782,45.768 210.066,57.723 199.25,52.844 195.729,64.25 
					190.176,53.606 182.375,61.315 182.61,50.3 173.772,56.842 174.733,45.867 170.971,52.172 157.218,54.532 159.339,69.7 
					146.008,77.591 157.433,86.859 159.442,101.614 170.436,94.919 177.552,105.534 185.728,95.518 193.684,105.576 203.164,96.774 
					208.447,108.249 216.75,99.051 226.894,106.14 224.955,93.836 237.003,90.775 228.852,81.219 239.468,74.626 230.151,66.104 
					241.457,60.818 234.755,52.054 238.013,45.9 230.879,53.996 228.596,43.443 224.543,53.396 				"/>
			</g>
		</g>
	</g>
	<g display="none">
		<path display="inline" fill="#A48A77" d="M383,103.863c-10.897-1.728-26.714-5.195-37.118,0.212
			c-9.18,4.772-6.558,12.659-12.366,19.61c-17.653,21.125-63.592-4.164-76.46,18.937c-10.826,19.435-5.284,30.236,15.116,36.355
			c15.408,4.622,36.049,6.942,42.771-11.81c2.694-7.515,0.001-14.182,5.801-20.446c4.916-5.31,11.956-6.494,16.154-13.165
			c3.549,2.972,5.217,8.615,5.433,12.843c9.367-9.722,12.333-20.062,24.903-10.757c5.016,3.713,7.141,10.16,13.542,9.696
			c4.075-0.295,9.295-6.011,12.45-8.353c2.667,2.87,4.684,6.16,7.818,8.446c2.057-3.011,3.988-6.88,5.911-9.397
			c4.172,19.234,10.777-12.539,12.041-15.683c0.726,0.341,1.085,0.909,1.078,1.703c1.419-13.477-5.616-15.223-15.86-14.938
			c-7.198,0.2-14.612-5.593-21.214-2.252"/>
		<path display="inline" fill="#A48A77" d="M347,296.863c-25.851-6.387-53.307-16.501-69.39,12.976
			c-15.062-12.515-31.729-11.634-46.002,2.686c-5.153,5.17-6.772,6.868-5.977,14.126c0.767,6.99,6.973,10.369-1.576,16.206
			c14.513,10.748,35.194-8.711,37.674,17.769c-12.793,4.398-21.855,20.888-35.977,17.772c-7.079-1.562-10.924-8.486-19.689-6.261
			c4.993,5.475,11.175,7.167,17.829,9.762c5.434,2.118,11.377,7.117,16.501,8.709c7.703,2.393,10.375-0.278,15.688-7.985
			c5.251-7.617,8.299-16.315,15.912-22.729c7.649-6.443,12.685-3.521,22.269-5.419c8.772-1.736,15.424-8.124,23.104-11.123
			c7.021-2.742,17.072-1.779,24.172-4.213c14.116-4.838,15.845-20.024,22.29-31.953c-7.219-4.544-11.396-6.572-18.826-8.322"/>
		<path display="inline" fill="#A48A77" d="M620.084,323.613c-12.396,1.668-14.695,0.173-27.166-0.051
			c-11.251-0.202-25.665,3.227-36.638,1.204c-4.661-0.858-7.426-5.522-12.794-4.54c-6.464,1.183-10.63,10.657-14.941,14.892
			c-6.241,6.13-17.363,10.455-9.6,19.124c5.281,5.898,22.985,8.573,29.86,3.784c3.539,12.978,25.58-7.821,31.754-12.602
			c6.859,12.467,26.5,4.036,35.333-3.084c2.859,4.795,2.014,11.313,1.993,16.826c5.188-7.812,19.26-30.061,8.446-38.082
			c-1.066,0.734-2.463,1.207-3.498,1.945"/>
		<path display="inline" fill="#A48A77" d="M702.333,370.696c-7.356,0.396-57.238-5.236-54.846,12.385
			c2.226,16.391,36.329,12.196,46.873,12.573c14.903,0.532,30.723,5.124,45.604,7.664c6.729,1.148,16.775,4.671,21.4-1.218
			c7.443-9.478-1.565-19.034-10.443-19.748c-5.569-0.448-10.713,2.619-15.798-0.756c-4.238-2.813-3.595-9.758-7.11-12.777
			c-6.13-5.266-13.818-1.085-18.126-11.088c-4.897,3.461-1.373,11.734-4.122,15.049"/>
		<path display="inline" fill="#A48A77" d="M737.144,143.53c-26.321,5.231-61.193,14.708-83.858,29.596
			c-7.521,4.941-19.87,15.146-22.43,23.955c-5.063-3.059-6.784-8.89-11.628-11.763c-19.264,24.441,22.148,23.865,36.959,23.306
			c14.059-0.53,26.946-5.654,40.032-10.199c2.517,24.586,33.564-1.562,41.344-8.427c6.585-5.812,14.365-24.614,13.689-33.94
			C750.562,146.533,744.206,135.149,737.144,143.53z"/>
		<path display="inline" fill="#A48A77" d="M313.728,411.375c0-14.122-54.954-8.719-56.333,4.158
			c-1.465,13.675,41.419,27.104,49.658,28.424c21.164,3.392,7.081,27.802,19.947,43.406c15.321,18.582,23.764,29.188,9.25-11
			c-8.015-22.191,2.527-15.961-10.467-33.958C324.899,441.181,283.033,404.03,313.728,411.375"/>
		<path display="inline" fill="#A48A77" d="M593.346,468.269c-8.267-0.276-24.586-2.97-32.07,2.531
			c-5.956,4.376-7.495,13.915-14.036,19.009c-6.712,5.228-14.354,5.011-19.88,12.176c-3.843,4.981-9.24,16.577-3.313,20.429
			c-2.756,5.335-10.354,7.182-9.528,13.117c1.407,10.124,27.942,14.683,36.796,17.175c0.286-8.616-1.591-18.725,1.154-26.965
			c2.585,4.237,3.834,9.104,6.042,13.461c8.824-5.448,13.298-10.849,15.798-20.832c2.177-8.691-0.808-19.535,6.455-26.022
			c5.032-4.495,10.627-2.006,16.002-6.893c4.175-3.795,4.407-5.856,5.961-11.383C600.113,472.216,594.709,468.87,593.346,468.269"/>
		<path display="inline" fill="#A48A77" d="M109,148.863c-11.198,0.799-25.513,9.527-36.446,8.135
			c-7.37-0.939-12.317-8.355-19.451-10.466c-10.412,11.651-8.339,25.742-12.945,37.185c-2.196,5.456-7.274,8.277-6.228,15.937
			c10.003,2.693,21.101,1.029,31.408,1.264c1.318,0.03,7.427-0.452,8.36-0.553c1.602-0.174,3.805,2.286,6.238,1.533
			c7.344-2.271,18.446-26.614,21.707-34.494c2.21-5.341,0.497-11.633,7.356-13.54"/>
		<path display="inline" fill="#A48A77" d="M805.632,417.575c-12.063,3.091-21.583,3.482-31.727,11.381
			c-3.666,2.854-5.57,9.993-8.958,11.978c-9.961,5.836-23.973-7.688-25.827,10.838c-1.933,19.291,17.218,20.422,29.997,26.31
			c12.795,5.895,16.352,17.899,23.105,29.643c7.58-5.946,12.431-9.952,12.801-20.007c-0.064,9.492,0.128,18.994-0.091,28.483
			c8.68-23.307,9.476-46.394,10.149-70.792c0.313-11.297,10.443-24.248-3.325-30.621"/>
		<path display="inline" fill="#CBBB9D" d="M220,46.284c-14.942,0.204-16.815,13.434-31.299,8.963
			c-6.816-2.104-13.999-6.995-20.467-10.396c-10.403,14.518-29.894,35.794-6.309,49.287c10.426,5.964,28.108,1.358,40.021,4.35
			c13.916,3.495,24.715,5.899,30.276-12.31c4.02-13.162,0.126-24.041,7.524-36.951C233.66,45.614,225.796,43.893,220,46.284z"/>
	</g>
</g>
<g id="Calque_4">
	<rect y="0" opacity="0.5" fill="#1C2927" width="841.89" height="595.281"/>
</g>
</svg>
