<?xml version="1.0" encoding="utf-8"?>
<!-- Generator: Adobe Illustrator 14.0.0, SVG Export Plug-In . SVG Version: 6.00 Build 43363)  -->
<!DOCTYPE svg PUBLIC "-//W3C//DTD SVG 1.1//EN" "http://www.w3.org/Graphics/SVG/1.1/DTD/svg11.dtd">
<svg version="1.1" id="Calque_1" xmlns="http://www.w3.org/2000/svg" xmlns:xlink="http://www.w3.org/1999/xlink" x="0px" y="0px"
	 width="841.89px" height="595.28px" viewBox="0 0 841.89 595.28" enable-background="new 0 0 841.89 595.28" xml:space="preserve">
<path d="M129.083,595.131c18.275-11.153,11.694-26.195,20.285-41.088c3.756-6.513,14.215-10.521,19.282-16.511
	c5.778-6.832,5.411-15.59,10.618-22.188c7.143-9.051,21.591-7.706,27.479-18.813c3.117-5.881,1.43-10.612,6.581-15.646
	c5.558-5.431,14.494-6.173,19.719-12.546c5.827-7.106,2.888-10.711,12.006-13.844c11.12-3.82,47.423-6.307,39.425-28.344
	c-13.455-0.495-22.027,5.007-34.725,7.599c-19.777,4.037-31.554,10.376-42.398,26.674c-7.711,11.589-19.239,14.283-30.746,20.64
	c-12.574,6.947-16.008,21.776-31.757,27.135c-6.92-20.495,10.498-44.951,25.222-57.359c11.93-10.054,10.906-14.808,12.84-29.915
	c1.638-12.797,7.564-26.874,5.137-39.803c-2.364-12.592-9.393-24.651-10.063-38.068c-0.421-8.423,1.575-17.068,1.954-25.479
	c0.245-5.437-1.571-11.446-1.37-16.283c0.448-10.806,7.928-12.809,14.248-21.278c13.969-18.718-17.389-15.406-12.822-32.641
	c1-3.775,7.919-13.166,11.031-16.388c3.924-4.063,17.313-6.975,17.309-13.722c-0.001-2.978-19.891-25.08-23.384-28.086
	c1.681-8.059,14.597-16.222,22.325-18.342c-5.088-10.823-18.979-13.347-25.199-23.605c-3.146-5.189-2.728-8.283-4.702-13.766
	c-1.047-2.91-4.022-5.829-4.583-8.685c-1.095-5.577,1.289-10.029,1.184-15.638c-0.285-15.187-2.605-32.3,7.516-46.258
	C146.066,44.869,180.529,44.101,146,24c7.798-5.873-7.497-10.727,1-14c8.169-3.147-12.583-7.78-17.917-9.946H86.919
	c5.871,16.419,6.432,26.106,15.336,41.336c11.258,19.257,29.932,34.588,36.703,56.379c4.875,15.691,5.765,32.544,10.496,48.459
	c4.777,16.07,10.789,36.15-6.815,46.953c-20.013,12.281-28.861-12.209-39.244-24.392c-16.707-19.603-22.137,2.934-13.2,18.178
	c9.956,16.982,31.892,24.106,39.591,42.306c5.958,14.083,4.032,34.811-4.871,47.28c-13.576,19.013-29.557,5.135-42.118-7.186
	C62.157,249.123,27.328,235.86,0,225.764v36.798c8.551,9.179,33.968,5.166,44.049,9.945c13.457,6.378,20.29,23.777,31.794,32.931
	c13.257,10.548,32.68,14.676,42.394,29.501c7.838,11.961,1.025,21.662,0.62,34.257c-0.741,22.988,14.027,50.041,6.37,72.13
	c-5.614,16.194-23.466,19.103-31.51,32.787c-9.318,15.853,0.222,37.001-3.123,54.271c-4.97,25.668,15.532,45.021-3.676,66.746
	H129.083z"/>
<path d="M841.89,262.563c4.13,0.769-19.82,10.228-37.641,3.451c-2.467-0.938-8.869-1.146-10.557-2.63
	c-4.47-3.93-1.053-9.655-4.296-14.286c-3.62-5.169-9.231-5.307-14.313-7.118c-2.501-0.892-9.567-2.828-11.27-3.833
	c-1.708-1.009-4.24-5.353-5.77-5.833c-14.828-4.653-27.425,4.908-43.236-4.154c-6.552-3.754-11.755-8.425-15.69-14.424
	c-3.772-5.75-3.355-14.143-7.344-18.525c8.94-4.991,16.514,0.946,24.688,3.696c10.93,3.676,10.942-1.059,19.148-6.628
	c15.973-10.84,23.684,6.038,33.439,17.131c8.168,9.288,21.423,9.394,32.057,13.603c3.684,1.458,16.771,3.218,22.128,4.438
	c2.176,0.495,6.48,0.061,8.321,0.827c5.026,2.092,5.13-1.301,10.335-1.843V262.563z"/>
<path d="M697.919,595.131c-0.396-19.998-16.002-32.182-6.553-50.665c6.196-12.12,17.545-22.423,26.267-32.782
	c15.068-17.896,37.121-18.441,51.552-36.652c6.521-8.23,48.865-34.783,19.352-42.535c-11.772-3.093-18.966,8.466-26.849,14.771
	c-8.448,6.756-21.21,9.642-27.403,18.868c-6.23,9.28-1.959,18.862-13.792,23.346c-12.854,4.87-21.893,1.949-27.91,17.262
	c-11.725-5.24-17.037-19.316-9.646-30.753c7.469-11.556,25.987-14.596,30.357-28.905c3.832-12.546,2.355-22.781-4.791-33.222
	c-3.584-5.235-7.133-11.639-11.782-15.942c-6.235-5.771-13.72-6.109-20.592-11.121c-1.93,15.539,12.886,27.082,4.545,42.739
	c-5.642,10.592-17.421,16.67-28.244,20.149c-1.69-15.308-9.247-27.897-8.503-44.461c0.513-11.424,2.891-16.887-6.983-25.22
	c-8.691-7.335-12.294-14.338-19.546-23.8c-7.39-9.642-7.986-6.87-20.183-8.106c-6.097-0.617-10.869-2.918-17.162-2.016
	c-0.667,9.318,4.245,18.279,5.019,27.449c0.582,6.901-1.551,12.498,2.559,18.238c4.868,6.8,14.429,8.284,20,15.294
	c2.588,3.257,9.443,10.216,10.525,13.579c3.058,9.504-8.034,17.428-8.211,26.924c-0.138,7.37,5.877,12.37,8.033,17.992
	c5.322,13.87,3.34,23.866,2.995,38.185c-20.734-0.19-34.716-11.185-49.82-22.575c-18.501,15.827,24.976,37.328,35.754,41.33
	c11.222,4.166,12.514,9.192,16.072,20.474c3.836,12.161,9.25,20.783,15.284,31.587c6.666,11.935,38.662,9.843,29.657,20.569H697.919
	z"/>
<path d="M520.685,152"/>
<path d="M573.464,115.169"/>
<path d="M520.685,152c0,6.352-2.893,16.89-6.749,24.495c-4.239,8.357-12.858,13.651-16.896,22.259
	c-2.342,4.993-1.311,12.555-8.158,13.589c-7.699,1.163-11.416-9.539-12.263-15.191c-5.235,7.173-26.447,51.039-33.619,56.348
	c-7.169-15.59-3.035-55.248-15.154-67c-8.402-8.147-13.598-15.891-22.051-23.288c-6.593-5.77-3.961-15.369-10.358-20.126
	c-8.033-5.975-20.446,1.74-29.24-3.868c-8.596-5.482-11.559-14.325-21.699-1.885c-3.488,4.279-3.625,9.867-6.289,14.418
	c-1.901,3.249,24.651-2.964,23.291,0.25c-7.9,18.655,33.25,28.932,45,37.5c12.5,9.115-11.375,33.663-10.906,48.72
	c0.777,24.922,23.343,10.414,15.906,30.28c-3.351,8.953-7.046,19.249-4.5,27c3.612,10.997-48.957,29.448-55.029,38.547
	c-7.413,11.107-53.599-0.091-57.581,12.673c-5.165,16.555,12.761,23.584,24.998,29.072c11.244,5.044,21.497,11.012,31.306,18.573
	C356.633,398.943,364.65,411.694,372,411c17.091-1.617,14.178-23.851,9.973-33.481c-8.795-20.138,7.971-24.982,10.527-47.019
	c1.563-13.472,27.841-14.692,32.753-27.096c3.873-9.782,2.842-18.194,3.733-28.298c19.288,7.208,26.9,11.601,21.424,32.813
	c-2.512,9.729-4.05,22.349-8.776,31.162c-10.814,20.164-16.784,23.58-6.134,46.831c5.924,12.933,14.069,23.105,14.473,37.015
	c0.523,18.077-8.02,30.33-14.379,46.883c-8.18,21.296-7.75,42.277-5.088,64.883c2.031,17.244,5.042,43.406,8.249,60.438
	c1.504,7.992-1.465-7.393-0.034,0h67.198C497.186,583.11,453.419,566.293,459,549c2.58-7.993-7.653-17.24-4.165-25.877
	c7.674-19.003,2.13-43.067,6.521-63.34c4.177-19.281,16.504-31.377,16.846-51.669c0.45-26.744-0.166-53.656,0.826-80.362
	c0.678-18.237-0.75-37.125,13.829-50.486c12.685-11.625,21.589-5.281,27.828-24.266c3.06-9.31,9.897-12.608,12.233-21.871
	c2.632-10.436,13.249-16.349,16.723-26.477c3.61-10.524-1.051-21.036,9.931-27.66c5.8-3.499,14.151-3.151,20.506-5.27
	c9.914-3.305,17.189-8.942,23.558-17.204c17.181-22.29,25.783-48.816,47.237-68.14c12.7-11.438,30.208-20.835,37.489-37.145
	c4.307-9.646,0.558-18.447,2.871-28.208c2.4-10.125,10.039-9.923,6.687-20.972h-30C664.49,2.472,664.072,6.367,661,9
	c-4.715,4.041-12.986-6.575-17.688-2.938c-11.693,9.047-17.49,25.209-28.68,35.301c-12.861,11.601-23.114,15.625-25.345,32.968
	c-1.997,15.527-4.121,29.181-15.824,40.839"/>
<path d="M573.464,115.169c-11.061-7.021-34.343-7.732-43.89-16.629c-5.795-5.401-8.584-8.363-5.227-16.705
	c4.822-11.982,11.383-18.148,5.684-32.154c-4.535-11.144-16.698-18.265-19.072-30.057c-2.139-10.622-0.646-9.184-5.04-19.571
	h-67.164c-0.12,7.655-2.91,9.79-4.684,17.226c-2.322,9.739-13.924,17.368-10.008,28.968c4.673,13.84,28.019,9.454,39.282,18.597
	c6.53,5.301,12.847,11.64,12.647,20.55c-0.232,10.371-11.146,15.52-11.992,25.113c11.484,3.514,24.085,6.956,35.219,12.098
	c9.521,4.396,21.465,20.296,21.465,29.396"/>
</svg>
