<?xml version="1.0" encoding="utf-8"?>
<!-- Generator: Adobe Illustrator 14.0.0, SVG Export Plug-In . SVG Version: 6.00 Build 43363)  -->
<!DOCTYPE svg PUBLIC "-//W3C//DTD SVG 1.1//EN" "http://www.w3.org/Graphics/SVG/1.1/DTD/svg11.dtd">
<svg version="1.1" id="Calque_1" xmlns="http://www.w3.org/2000/svg" xmlns:xlink="http://www.w3.org/1999/xlink" x="0px" y="0px"
	 width="200px" height="400px" viewBox="0 0 200 400" enable-background="new 0 0 200 400" xml:space="preserve">
<path fill="#3E3D40" d="M114.833,277.125H85.167l-17.878,46.911c0,0-3.877,26.12-0.349,35.217
	c4.406,11.357,21.923,13.497,32.228,13.497s29.821-2.14,34.228-13.497c3.529-9.097-0.65-34.617-0.65-34.617L114.833,277.125z"/>
<g>
	<linearGradient id="SVGID_1_" gradientUnits="userSpaceOnUse" x1="31.2017" y1="154.7314" x2="168.6299" y2="154.7314">
		<stop  offset="0" style="stop-color:#73C7D3"/>
		<stop  offset="1" style="stop-color:#3B9CA3"/>
	</linearGradient>
	<path fill="url(#SVGID_1_)" d="M99.916,9.794c0,0,52.795,50.209,60.897,72.437c17.588,48.252,0,205.429,0,205.429
		c-1.596-0.028-39.862,12.037-46.064,12c-3.074-0.019-26.685,0.026-29.666,0c-10.491-0.092-46.04-11.781-46.064-12
		c-0.002-0.021-17.586-157.18,0-205.429C47.121,60.003,99.916,9.794,99.916,9.794"/>
</g>
<linearGradient id="SVGID_2_" gradientUnits="userSpaceOnUse" x1="33.4209" y1="60.3975" x2="166.5791" y2="60.3975">
	<stop  offset="0" style="stop-color:#009EE0"/>
	<stop  offset="1" style="stop-color:#006794"/>
</linearGradient>
<path fill="url(#SVGID_2_)" d="M100,112c22.971,0,45.271-1.02,66.579-2.93c-1.233-11.102-3.069-20.672-5.682-27.839
	C152.795,59.003,100,8.794,100,8.794S47.205,59.003,39.103,81.231c-2.612,7.167-4.449,16.737-5.682,27.839
	C54.729,110.98,77.029,112,100,112z"/>
<path fill="#58585A" d="M85.167,299.66c0,0-14.686,16.505-17.878,24.376c-6.662,16.423,0,41.169,0,58.892
	c0,6.052-11.527,14.804-17.119,17.119c-6.315,2.616-22.511,4.834-27.345,0c-0.015-0.015,0.008-0.064,0-0.083
	c-2.305-5.564-14.731-11.472-17.036-17.036c-6.782-16.374-8.601-55.396,0-70.892c5.59-10.072,33.314-24.376,33.314-24.376"/>
<path fill="#58585A" d="M114.833,299.66c0,0,14.72,17.104,17.912,24.976c6.661,16.423,0,41.169,0,58.892
	c0,6.052,11.528,14.803,17.119,17.119c6.315,2.616,22.511,4.834,27.345,0c0.015-0.015-0.008-0.064,0-0.083
	c2.305-5.564,14.731-11.472,17.036-17.036c6.782-16.374,8.515-55.349,0-70.892c-5.573-10.173-33.348-24.976-33.348-24.976"/>
<g>
	<circle fill="#009036" cx="100.135" cy="112" r="26.392"/>
	<circle fill="#39A9DC" cx="99.664" cy="112" r="20.103"/>
</g>
<path fill="#00632E" d="M136.7,282.697c-1.889,2.303-70.2,2.303-71.568,0c-12.77-21.492-17.677-82.322,0-100
	c12.652-12.652,58.917-12.651,71.568,0C154.378,200.375,152.554,263.367,136.7,282.697z"/>
<path fill="#41281B" d="M132.177,278.31c-1.7,2.072-63.181,2.072-64.412,0c-11.493-19.344-15.91-74.091,0-90
	c11.387-11.387,53.025-11.386,64.412,0C148.087,204.219,146.444,260.912,132.177,278.31z"/>
<path fill="#786855" d="M124.812,183.79v95.521c1.568-0.092,2.936-0.196,4.056-0.312v-93.202
	C127.65,185.064,126.301,184.39,124.812,183.79z"/>
<path fill="#786855" d="M98.145,179.794v100.067c1.277,0.003,2.557,0.003,3.833-0.001V179.797
	C100.701,179.769,99.422,179.769,98.145,179.794z"/>
<path fill="#786855" d="M71.145,185.756v93.267c1.149,0.116,2.555,0.221,4.167,0.313v-95.613
	C73.783,184.329,72.392,185.01,71.145,185.756z"/>
<path fill="#5F4C3F" d="M75.312,183.722v95.613c5.792,0.331,14.222,0.507,22.833,0.526V179.794
	C89.749,179.96,81.5,181.268,75.312,183.722z"/>
<path fill="#5F4C3F" d="M67.765,188.31c-15.91,15.909-11.493,70.656,0,90c0.163,0.274,1.387,0.512,3.379,0.713v-93.267
	C69.844,186.534,68.695,187.38,67.765,188.31z"/>
<path fill="#5F4C3F" d="M101.978,179.797V279.86c8.634-0.026,17.074-0.209,22.834-0.549V183.79
	C118.648,181.308,110.391,179.979,101.978,179.797z"/>
<path fill="#5F4C3F" d="M132.177,188.31c-0.913-0.913-2.039-1.745-3.31-2.511V279c1.905-0.197,3.093-0.427,3.31-0.69
	C146.444,260.912,148.087,204.219,132.177,188.31z"/>
<circle cx="71.145" cy="229.828" r="6.25"/>
</svg>
