<?xml version="1.0" encoding="utf-8"?>
<!-- Generator: Adobe Illustrator 14.0.0, SVG Export Plug-In . SVG Version: 6.00 Build 43363)  -->
<!DOCTYPE svg PUBLIC "-//W3C//DTD SVG 1.1//EN" "http://www.w3.org/Graphics/SVG/1.1/DTD/svg11.dtd">
<svg version="1.1" id="Calque_1" xmlns="http://www.w3.org/2000/svg" xmlns:xlink="http://www.w3.org/1999/xlink" x="0px" y="0px"
	 width="200px" height="400px" viewBox="0 0 200 400" enable-background="new 0 0 200 400" xml:space="preserve">
<path fill="#606C65" d="M114.615,277.125H84.949l-17.878,46.911c0,0-3.878,26.12-0.35,35.217
	c4.406,11.357,21.924,13.497,32.229,13.497s29.821-2.14,34.228-13.497c3.529-9.097-0.65-34.617-0.65-34.617L114.615,277.125z"/>
<linearGradient id="SVGID_1_" gradientUnits="userSpaceOnUse" x1="100.4624" y1="277.125" x2="100.4624" y2="372.75">
	<stop  offset="0" style="stop-color:#0D1313"/>
	<stop  offset="1" style="stop-color:#37433F;stop-opacity:0"/>
</linearGradient>
<path fill="url(#SVGID_1_)" d="M115.161,277.125H85.495l-17.878,46.911c0,0-3.877,26.12-0.349,35.217
	c4.406,11.357,21.923,13.497,32.228,13.497s29.821-2.14,34.228-13.497c3.529-9.097-0.65-34.617-0.65-34.617L115.161,277.125z"/>
<g>
	<linearGradient id="SVGID_2_" gradientUnits="userSpaceOnUse" x1="31.6606" y1="152.0693" x2="169.0889" y2="152.0693">
		<stop  offset="0" style="stop-color:#8D938D"/>
		<stop  offset="0.1563" style="stop-color:#8B918C"/>
		<stop  offset="0.3113" style="stop-color:#868C87"/>
		<stop  offset="0.4659" style="stop-color:#7D837F"/>
		<stop  offset="0.6202" style="stop-color:#717773"/>
		<stop  offset="0.7744" style="stop-color:#616663"/>
		<stop  offset="0.9265" style="stop-color:#4C504E"/>
		<stop  offset="1" style="stop-color:#3F4342"/>
	</linearGradient>
	<path fill="url(#SVGID_2_)" d="M100.375,7.132c0,0,52.795,50.209,60.897,72.437c17.588,48.252,0,205.429,0,205.429
		c-1.596-0.028-39.862,12.037-46.064,12c-3.074-0.019-26.685,0.026-29.666,0c-10.491-0.092-46.04-11.781-46.064-12
		c-0.002-0.021-17.586-157.18,0-205.429C47.58,57.341,100.375,7.132,100.375,7.132"/>
</g>
<linearGradient id="SVGID_3_" gradientUnits="userSpaceOnUse" x1="33.4209" y1="60.3975" x2="166.5791" y2="60.3975">
	<stop  offset="0" style="stop-color:#252B29"/>
	<stop  offset="1" style="stop-color:#141918"/>
</linearGradient>
<path fill="url(#SVGID_3_)" d="M100,112c22.971,0,45.271-1.02,66.579-2.93c-1.233-11.102-3.069-20.672-5.682-27.839
	C152.795,59.003,100,8.794,100,8.794S47.205,59.003,39.103,81.231c-2.612,7.167-4.449,16.737-5.682,27.839
	C54.729,110.98,77.029,112,100,112z"/>
<path fill="#495651" d="M85.167,296.16c0,0-14.686,16.505-17.878,24.376c-6.662,16.423,0,41.169,0,58.892
	c0,6.052-11.527,14.804-17.119,17.119c-6.315,2.616-22.511,4.834-27.345,0c-0.015-0.015,0.008-0.064,0-0.083
	c-2.305-5.564-14.731-11.472-17.036-17.036c-6.782-16.374-8.601-55.396,0-70.892c5.59-10.072,33.314-24.376,33.314-24.376"/>
<g id="XMLID_1_">
	<g>
		<path fill="#495651" d="M177.21,397.06c-0.01,0.021,0.01,0.07,0,0.091c-4.83,4.83-21.03,2.609-27.35,0
			c-5.591-2.32-17.11-11.07-17.11-17.12c0-17.73,6.66-42.471,0-58.891c-3.2-7.88-17.92-24.979-17.92-24.979l46.07-12
			c0,0,27.77,14.8,33.35,24.979c8.51,15.54,6.78,54.511,0,70.891C191.94,385.59,179.51,391.5,177.21,397.06z"/>
	</g>
	<g>
	</g>
</g>
<g>
	<circle opacity="0.46" cx="100.978" cy="108.75" r="26.392"/>
	<circle fill="#495651" cx="100.135" cy="107" r="26.392"/>
	<linearGradient id="SVGID_4_" gradientUnits="userSpaceOnUse" x1="79.5615" y1="107" x2="119.7666" y2="107">
		<stop  offset="0" style="stop-color:#9BCBE0"/>
		<stop  offset="1" style="stop-color:#78C1E0"/>
	</linearGradient>
	<circle fill="url(#SVGID_4_)" cx="99.664" cy="107" r="20.103"/>
	<path opacity="0.5" fill="#FFFFFF" d="M86.851,110.946c0-9.081,7.362-16.442,16.442-16.442c1.878,0,3.68,0.319,5.359,0.898
		c-2.494-2.38-5.869-3.845-9.59-3.845c-7.674,0-13.896,6.221-13.896,13.895c0,2.439,0.631,4.731,1.735,6.724
		C86.872,111.769,86.851,111.36,86.851,110.946z"/>
	<linearGradient id="SVGID_5_" gradientUnits="userSpaceOnUse" x1="88.752" y1="112.1758" x2="119.7666" y2="112.1758">
		<stop  offset="0" style="stop-color:#6A8D9C"/>
		<stop  offset="1" style="stop-color:#4C7E93"/>
	</linearGradient>
	<path opacity="0.3" fill="url(#SVGID_5_)" d="M116.991,97.046c-0.154,14.963-12.326,27.047-27.325,27.047
		c-0.307,0-0.61-0.013-0.914-0.023c3.145,2.038,6.886,3.234,10.912,3.234c11.103,0,20.103-8.999,20.103-20.102
		C119.767,103.493,118.744,100.029,116.991,97.046z"/>
</g>
<g>
	<path fill="#495651" d="M148.17,110.718c0.482-0.24,7.938-0.812,8.425-0.749c0.728,0.094,2.841,19.466,3.91,39.611
		c1.829,34.465,3.325,82.665-6.298,136.086c-3.561,1.348-4.824,2.021-8.843,2.877c9.136-59.397,8.341-97.544,6.969-138.794
		c-0.733-22.061-4.27-38.56-4.243-38.992C148.116,110.745,148.144,110.731,148.17,110.718z"/>
	<path fill="#7B807B" d="M147.166,110.718c0.482-0.24,7.938-0.812,8.425-0.749c0.728,0.094,2.841,19.466,3.91,39.611
		c1.829,34.465,3.325,82.665-6.298,136.086c-3.561,1.348-4.824,2.021-8.843,2.877c9.136-59.397,8.341-97.544,6.969-138.794
		c-0.733-22.061-4.27-38.56-4.243-38.992C147.112,110.745,147.14,110.731,147.166,110.718z"/>
</g>
<g>
	<g>
		<polygon opacity="0.46" points="122.006,108.069 120.569,105.581 122.006,103.092 124.88,103.092 126.316,105.581 124.88,108.069 
					"/>
		<polygon fill="#252B29" points="121.586,107.649 120.148,105.16 121.586,102.671 124.459,102.671 125.896,105.16 124.459,107.649 
					"/>
		<circle fill="#495651" cx="123.022" cy="105.16" r="1.419"/>
	</g>
	<g>
		<polygon opacity="0.46" points="118.067,122.038 116.631,119.549 118.067,117.061 120.941,117.061 122.378,119.549 
			120.941,122.038 		"/>
		<polygon fill="#252B29" points="117.647,121.618 116.21,119.129 117.647,116.64 120.521,116.64 121.957,119.129 120.521,121.618 
					"/>
		<circle fill="#495651" cx="119.083" cy="119.129" r="1.419"/>
	</g>
	<g>
		<polygon opacity="0.46" points="107.654,131.243 106.218,128.754 107.654,126.265 110.528,126.265 111.965,128.754 
			110.528,131.243 		"/>
		<polygon fill="#252B29" points="107.234,130.822 105.797,128.333 107.234,125.845 110.107,125.845 111.544,128.333 
			110.107,130.822 		"/>
		<circle fill="#495651" cx="108.67" cy="128.333" r="1.419"/>
	</g>
	<g>
		<polygon opacity="0.46" points="92.984,132.452 91.548,129.963 92.984,127.475 95.858,127.475 97.295,129.963 95.858,132.452 		
			"/>
		<polygon fill="#252B29" points="92.564,132.032 91.127,129.543 92.564,127.054 95.438,127.054 96.874,129.543 95.438,132.032 		
			"/>
		<circle fill="#495651" cx="94" cy="129.543" r="1.419"/>
	</g>
	<g>
		<polygon opacity="0.46" points="80.856,124.317 79.42,121.828 80.856,119.339 83.73,119.339 85.167,121.828 83.73,124.317 		"/>
		<polygon fill="#252B29" points="80.437,123.896 78.999,121.408 80.437,118.919 83.31,118.919 84.746,121.408 83.31,123.896 		"/>
		<circle fill="#495651" cx="81.873" cy="121.408" r="1.419"/>
	</g>
	<g>
		<polygon opacity="0.46" points="75.601,111.978 74.164,109.489 75.601,107 78.475,107 79.911,109.489 78.475,111.978 		"/>
		<polygon fill="#252B29" points="75.181,111.557 73.743,109.068 75.181,106.58 78.054,106.58 79.49,109.068 78.054,111.557 		"/>
		<circle fill="#495651" cx="76.617" cy="109.068" r="1.419"/>
	</g>
	<g>
		<polygon opacity="0.46" points="78.685,98.063 77.248,95.574 78.685,93.085 81.559,93.085 82.995,95.574 81.559,98.063 		"/>
		<polygon fill="#252B29" points="78.265,97.642 76.827,95.153 78.265,92.665 81.138,92.665 82.574,95.153 81.138,97.642 		"/>
		<circle fill="#495651" cx="79.701" cy="95.153" r="1.419"/>
	</g>
	<g>
		<polygon opacity="0.46" points="88.271,88.538 86.834,86.049 88.271,83.561 91.145,83.561 92.581,86.049 91.145,88.538 		"/>
		<polygon fill="#252B29" points="87.851,88.118 86.413,85.629 87.851,83.14 90.724,83.14 92.16,85.629 90.724,88.118 		"/>
		<circle fill="#495651" cx="89.287" cy="85.629" r="1.419"/>
	</g>
	<g>
		<polygon opacity="0.46" points="103.032,86.469 101.596,83.98 103.032,81.492 105.906,81.492 107.343,83.98 105.906,86.469 		"/>
		<polygon fill="#252B29" points="102.612,86.049 101.175,83.56 102.612,81.071 105.485,81.071 106.922,83.56 105.485,86.049 		"/>
		<circle fill="#495651" cx="104.048" cy="83.56" r="1.419"/>
	</g>
	<g>
		<polygon opacity="0.46" points="116.064,94.599 114.628,92.11 116.064,89.622 118.938,89.622 120.375,92.11 118.938,94.599 		"/>
		<polygon fill="#252B29" points="115.645,94.179 114.207,91.69 115.645,89.201 118.518,89.201 119.954,91.69 118.518,94.179 		"/>
		<circle fill="#495651" cx="117.081" cy="91.69" r="1.419"/>
	</g>
	<g>
		<polygon opacity="0.46" points="136.484,110.348 135.048,107.859 136.484,105.371 139.358,105.371 140.795,107.859 
			139.358,110.348 		"/>
		<polygon fill="#252B29" points="136.064,109.928 134.627,107.439 136.064,104.95 138.938,104.95 140.374,107.439 138.938,109.928 
					"/>
		<circle fill="#495651" cx="137.5" cy="107.439" r="1.419"/>
	</g>
	<g>
		<polygon opacity="0.46" points="152.263,109.649 150.794,107.305 151.725,104.701 154.126,104.44 155.595,106.783 
			154.664,109.388 		"/>
		<polygon fill="#252B29" points="151.867,109.27 150.397,106.926 151.329,104.321 153.729,104.06 155.197,106.404 154.267,109.008 
					"/>
		
			<ellipse transform="matrix(0.9941 -0.1081 0.1081 0.9941 -10.6346 17.1416)" fill="#495651" cx="152.798" cy="106.665" rx="1.193" ry="1.418"/>
	</g>
	<g>
		<polygon opacity="0.46" points="163.059,108.751 162.147,106.294 162.872,103.777 164.507,103.715 165.418,106.171 
			164.694,108.689 		"/>
		<polygon fill="#252B29" points="162.805,108.339 161.893,105.884 162.617,103.366 164.252,103.304 165.163,105.76 
			164.438,108.278 		"/>
		
			<ellipse transform="matrix(0.9993 -0.0374 0.0374 0.9993 -3.8469 6.196)" fill="#495651" cx="163.528" cy="105.822" rx="0.809" ry="1.419"/>
	</g>
	<g>
		<polygon opacity="0.46" points="35.414,108.866 34.714,106.312 35.818,103.905 37.621,104.052 38.32,106.606 37.217,109.013 		"/>
		<polygon fill="#252B29" points="35.184,108.426 34.484,105.872 35.588,103.465 37.391,103.611 38.09,106.166 36.986,108.572 		"/>
		
			<ellipse transform="matrix(0.9967 0.0812 -0.0812 0.9967 8.7275 -2.5961)" fill="#495651" cx="36.287" cy="106.019" rx="0.893" ry="1.419"/>
	</g>
	<g>
		<polygon opacity="0.46" points="46.929,109.699 45.664,107.21 46.929,104.722 49.461,104.722 50.727,107.21 49.461,109.699 		"/>
		<polygon fill="#252B29" points="46.56,109.279 45.293,106.79 46.56,104.301 49.091,104.301 50.356,106.79 49.091,109.279 		"/>
		<ellipse fill="#495651" cx="47.825" cy="106.79" rx="1.25" ry="1.419"/>
	</g>
	<g>
		<polygon opacity="0.46" points="60.151,110.348 58.714,107.859 60.151,105.371 63.025,105.371 64.461,107.859 63.025,110.348 		
			"/>
		<polygon fill="#252B29" points="59.731,109.928 58.293,107.439 59.731,104.95 62.604,104.95 64.041,107.439 62.604,109.928 		"/>
		<circle fill="#495651" cx="61.167" cy="107.439" r="1.419"/>
	</g>
	<g>
		<polygon opacity="0.46" points="155.194,206.398 153.758,203.909 155.194,201.42 158.068,201.42 159.505,203.909 158.068,206.398 
					"/>
		<polygon fill="#252B29" points="154.774,205.978 153.337,203.488 154.774,201 157.647,201 159.084,203.488 157.647,205.978 		"/>
		<circle fill="#495651" cx="156.21" cy="203.488" r="1.419"/>
	</g>
	<g>
		<polygon opacity="0.46" points="155.405,188.245 153.969,185.756 155.405,183.268 158.279,183.268 159.716,185.756 
			158.279,188.245 		"/>
		<polygon fill="#252B29" points="154.985,187.825 153.548,185.336 154.985,182.847 157.858,182.847 159.295,185.336 
			157.858,187.825 		"/>
		<circle fill="#495651" cx="156.421" cy="185.336" r="1.419"/>
	</g>
	<g>
		<polygon opacity="0.46" points="154.775,170.142 153.339,167.653 154.775,165.165 157.649,165.165 159.086,167.653 
			157.649,170.142 		"/>
		<polygon fill="#252B29" points="154.355,169.722 152.918,167.233 154.355,164.744 157.229,164.744 158.665,167.233 
			157.229,169.722 		"/>
		<circle fill="#495651" cx="155.792" cy="167.233" r="1.419"/>
	</g>
	<g>
		<polygon opacity="0.46" points="154.354,152.49 152.917,150.001 154.354,147.512 157.228,147.512 158.664,150.001 157.228,152.49 
					"/>
		<polygon fill="#252B29" points="153.934,152.069 152.496,149.581 153.934,147.092 156.807,147.092 158.243,149.581 
			156.807,152.069 		"/>
		<circle fill="#495651" cx="155.37" cy="149.581" r="1.419"/>
	</g>
	<g>
		<polygon opacity="0.46" points="152.934,134.312 151.497,131.823 152.934,129.334 155.808,129.334 157.244,131.823 
			155.808,134.312 		"/>
		<polygon fill="#252B29" points="152.514,133.891 151.076,131.402 152.514,128.914 155.387,128.914 156.823,131.402 
			155.387,133.891 		"/>
		<circle fill="#495651" cx="153.95" cy="131.402" r="1.419"/>
	</g>
	<g>
		<polygon opacity="0.46" points="151.27,119.339 149.833,116.85 151.27,114.361 154.144,114.361 155.58,116.85 154.144,119.339 		
			"/>
		<polygon fill="#252B29" points="150.85,118.918 149.412,116.43 150.85,113.941 153.723,113.941 155.159,116.43 153.723,118.918 		
			"/>
		<circle fill="#495651" cx="152.286" cy="116.43" r="1.419"/>
	</g>
	<g>
		<polygon opacity="0.46" points="154.564,223.788 153.128,221.299 154.564,218.81 157.438,218.81 158.875,221.299 157.438,223.788 
					"/>
		<polygon fill="#252B29" points="154.145,223.367 152.707,220.878 154.145,218.39 157.018,218.39 158.454,220.878 157.018,223.367 
					"/>
		<circle fill="#495651" cx="155.581" cy="220.878" r="1.419"/>
	</g>
	<g>
		<polygon opacity="0.46" points="153.773,240.056 152.337,237.566 153.773,235.077 156.647,235.077 158.084,237.566 
			156.647,240.056 		"/>
		<polygon fill="#252B29" points="153.354,239.635 151.916,237.146 153.354,234.657 156.227,234.657 157.663,237.146 
			156.227,239.635 		"/>
		<circle fill="#495651" cx="154.79" cy="237.146" r="1.419"/>
	</g>
	<g>
		<polygon opacity="0.46" points="152.144,257.367 150.707,254.878 152.144,252.389 155.018,252.389 156.454,254.878 
			155.018,257.367 		"/>
		<polygon fill="#252B29" points="151.724,256.946 150.286,254.457 151.724,251.969 154.597,251.969 156.033,254.457 
			154.597,256.946 		"/>
		<circle fill="#495651" cx="153.16" cy="254.457" r="1.419"/>
	</g>
	<g>
		<polygon opacity="0.46" points="150.27,273.577 148.833,271.088 150.27,268.599 153.144,268.599 154.58,271.088 153.144,273.577 
					"/>
		<polygon fill="#252B29" points="149.85,273.156 148.412,270.667 149.85,268.179 152.723,268.179 154.159,270.667 152.723,273.156 
					"/>
		<circle fill="#495651" cx="151.286" cy="270.667" r="1.419"/>
	</g>
</g>
<g>
	<g>
		<path fill="#495651" d="M126.11,277.064c-8.964,5.683-45.428,5.631-53.2,0c-12.626-9.148-19.674-68.623-0.617-88.199
			c11.546-11.86,42.845-11.877,54.416-0.001C145.341,207.986,140.578,267.893,126.11,277.064z"/>
		<g>
			<path fill="#495651" d="M117.719,189.824c1.253,28.142,1.167,56.137-0.268,84.27c1.184-0.08,2.217-0.173,3.065-0.273
				c1.634-27.464,1.762-54.752,0.402-82.23C119.948,190.945,118.883,190.352,117.719,189.824z"/>
			<path fill="#495651" d="M97.415,186.315c-0.204,29.422-0.198,58.84,0.013,88.262c0.958,0.002,1.917,0.002,2.875,0
				c0.037-29.42,0.032-58.839,0.003-88.259C99.342,186.294,98.378,186.293,97.415,186.315z"/>
			<path fill="#495651" d="M76.684,191.554c-1.511,27.512-1.366,54.792,0.442,82.286c0.872,0.103,1.935,0.192,3.15,0.274
				c-1.603-28.172-1.702-56.167-0.296-84.349C78.784,190.299,77.682,190.899,76.684,191.554z"/>
			<path fill="#252B29" d="M79.98,189.765c-1.406,28.182-1.307,56.177,0.296,84.349c4.369,0.29,10.694,0.446,17.151,0.463
				c-0.211-29.422-0.217-58.84-0.013-88.262C91.081,186.461,84.825,187.608,79.98,189.765z"/>
			<path fill="#252B29" d="M73.937,193.8c-16.812,18.611-11.058,59.214,0.596,79.416c0.139,0.241,1.083,0.449,2.593,0.624
				c-1.809-27.494-1.953-54.773-0.442-82.286C75.643,192.239,74.674,192.983,73.937,193.8z"/>
			<path fill="#252B29" d="M100.306,186.318c0.029,29.42,0.034,58.839-0.003,88.259c6.474-0.023,12.805-0.187,17.149-0.483
				c1.435-28.133,1.521-56.128,0.268-84.27C112.905,187.643,106.651,186.479,100.306,186.318z"/>
			<path fill="#252B29" d="M123.596,193.801c-0.723-0.802-1.664-1.537-2.677-2.21c1.359,27.478,1.231,54.766-0.402,82.23
				c1.444-0.173,2.362-0.374,2.536-0.604C137.207,254.449,139.966,211.97,123.596,193.801z"/>
		</g>
	</g>
	<g>
		<circle opacity="0.7" cx="74.198" cy="231.949" r="5.51"/>
		<circle cx="73.191" cy="230.451" r="5.51"/>
		<path opacity="0.5" fill="#FFFFFF" d="M73.684,227.139c-0.342-0.117-0.707-0.188-1.089-0.188c-1.833,0-3.318,1.486-3.318,3.318
			c0,0.705,0.221,1.359,0.596,1.895C69.961,229.809,71.533,227.83,73.684,227.139z"/>
	</g>
</g>
</svg>
