<?xml version="1.0" encoding="utf-8"?>
<!-- Generator: Adobe Illustrator 14.0.0, SVG Export Plug-In . SVG Version: 6.00 Build 43363)  -->
<!DOCTYPE svg PUBLIC "-//W3C//DTD SVG 1.1//EN" "http://www.w3.org/Graphics/SVG/1.1/DTD/svg11.dtd">
<svg version="1.1" id="Calque_1" xmlns="http://www.w3.org/2000/svg" xmlns:xlink="http://www.w3.org/1999/xlink" x="0px" y="0px"
	 width="135.75px" height="137.5px" viewBox="0 0 135.75 137.5" enable-background="new 0 0 135.75 137.5" xml:space="preserve">
<g>
	<path opacity="0.1" fill="#008A2E" d="M51.912,45.65c0,4.996-4.484,9.047-10.01,9.047c-5.531,0-10.014-4.051-10.014-9.047
		c0-5.004,4.482-9.055,10.014-9.055C47.428,36.595,51.912,40.646,51.912,45.65z"/>
	<path opacity="0.1" fill="#008A2E" d="M53.281,39.474c0,5.074,5.648,9.188,12.619,9.188c6.967,0,12.616-4.113,12.616-9.188
		c0-5.07-5.649-9.188-12.616-9.188C58.93,30.287,53.281,34.404,53.281,39.474z"/>
	<path opacity="0.1" fill="#008A2E" d="M47.799,58.541c0-8.332,5.342-15.09,11.93-15.09c6.59,0,11.932,6.758,11.932,15.09
		c0,8.328-5.342,15.077-11.932,15.077C53.141,73.617,47.799,66.869,47.799,58.541z"/>
	<path opacity="0.1" fill="#008A2E" d="M39.98,76.09c0-5.456,4.42-9.874,9.873-9.874s9.875,4.418,9.875,9.874
		c0,5.457-4.422,9.879-9.875,9.879S39.98,81.547,39.98,76.09z"/>
	<path opacity="0.1" fill="#008A2E" d="M45.574,56.068c0-9.16,7.43-16.594,16.59-16.594c9.166,0,16.599,7.434,16.599,16.594
		c0,9.164-7.433,16.596-16.599,16.596C53.004,72.664,45.574,65.232,45.574,56.068z"/>
	<path opacity="0.1" fill="#008A2E" d="M70.561,75.816c0-3.788,3.073-6.854,6.858-6.854c3.789,0,6.859,3.066,6.859,6.854
		c0,3.785-3.07,6.855-6.859,6.855C73.634,82.672,70.561,79.602,70.561,75.816z"/>
	<path opacity="0.1" fill="#008A2E" d="M64.115,85.41c0-2.266,1.844-4.105,4.117-4.105c2.27,0,4.111,1.84,4.111,4.105
		c0,2.273-1.842,4.117-4.111,4.117C65.959,89.527,64.115,87.684,64.115,85.41z"/>
	<path opacity="0.1" fill="#008A2E" d="M43.682,90.766c0-2.652,2.152-4.797,4.803-4.797s4.797,2.145,4.797,4.797
		c0,2.648-2.146,4.797-4.797,4.797S43.682,93.414,43.682,90.766z"/>
	<path opacity="0.1" fill="#008A2E" d="M49.717,90.215c0-4.922-3.99-8.91-8.914-8.91s-8.914,3.988-8.914,8.91
		c0,4.926,3.99,8.914,8.914,8.914S49.717,95.141,49.717,90.215z"/>
	<path opacity="0.1" fill="#008A2E" d="M33.674,47.087c0,4.203-3.41,7.609-7.611,7.609c-4.205,0-7.615-3.406-7.615-7.609
		c0-4.207,3.41-7.613,7.615-7.613C30.264,39.474,33.674,42.88,33.674,47.087z"/>
	<path opacity="0.1" fill="#008A2E" d="M22.291,70.06c0,2.117-1.723,3.838-3.844,3.838c-2.117,0-3.838-1.721-3.838-3.838
		c0-2.125,1.721-3.844,3.838-3.844C20.568,66.216,22.291,67.935,22.291,70.06z"/>
	<circle opacity="0.1" fill="#008A2E" cx="10.051" cy="51.58" r="4.492"/>
	<circle opacity="0.1" fill="#008A2E" cx="32.163" cy="30.287" r="3.839"/>
	<path opacity="0.1" fill="#008A2E" d="M62.883,23.017c0,2.652-2.15,4.805-4.801,4.805s-4.801-2.152-4.801-4.805
		c0-2.648,2.15-4.797,4.801-4.797S62.883,20.369,62.883,23.017z"/>
	<path opacity="0.1" fill="#008A2E" d="M62.977,47.087c0,4.641,3.76,8.402,8.398,8.402c4.638,0,8.399-3.762,8.399-8.402
		c0-4.637-3.762-8.398-8.399-8.398C66.736,38.689,62.977,42.451,62.977,47.087z"/>
	<path opacity="0.1" fill="#008A2E" d="M75.981,73.656c0,6.078,4.926,11.008,11.004,11.008s11.004-4.93,11.004-11.008
		c0-6.077-4.926-11.002-11.004-11.002S75.981,67.58,75.981,73.656z"/>
	<path opacity="0.1" fill="#008A2E" d="M51.09,96.93c0-4.086,3.313-7.402,7.402-7.402c4.092,0,7.408,3.316,7.408,7.402
		c0,4.098-3.316,7.414-7.408,7.414C54.402,104.344,51.09,101.027,51.09,96.93z"/>
	<path opacity="0.1" fill="#008A2E" d="M45.33,62.787c0-3.707-3.01-6.719-6.723-6.719c-3.709,0-6.719,3.012-6.719,6.719
		c0,3.711,3.01,6.723,6.719,6.723C42.32,69.509,45.33,66.498,45.33,62.787z"/>
	<circle opacity="0.1" fill="#008A2E" cx="28.804" cy="64.091" r="4.87"/>
	<path opacity="0.1" fill="#008A2E" d="M40.666,77.355c0-4.027-3.27-7.295-7.305-7.295c-4.031,0-7.299,3.268-7.299,7.295
		c0,4.035,3.268,7.309,7.299,7.309C37.396,84.664,40.666,81.391,40.666,77.355z"/>
	<path opacity="0.1" fill="#008A2E" d="M40.547,79.719c0-6.109-4.945-11.053-11.049-11.053c-6.102,0-11.051,4.944-11.051,11.053
		c0,6.102,4.949,11.047,11.051,11.047C35.602,90.766,40.547,85.82,40.547,79.719z"/>
	<path opacity="0.1" fill="#008A2E" d="M29.498,54.111c0-2.441-1.98-4.426-4.428-4.426c-2.443,0-4.428,1.984-4.428,4.426
		c0,2.445,1.984,4.43,4.428,4.43C27.518,58.541,29.498,56.556,29.498,54.111z"/>
	<path opacity="0.1" fill="#008A2E" d="M49.717,32.685c0-2.152-1.748-3.906-3.91-3.906c-2.158,0-3.904,1.754-3.904,3.906
		c0,2.164,1.746,3.91,3.904,3.91C47.969,36.595,49.717,34.849,49.717,32.685z"/>
	<path opacity="0.1" fill="#008A2E" d="M60.473,43.689c0-3.309-2.684-5.996-5.996-5.996c-3.309,0-5.992,2.688-5.992,5.996
		s2.684,5.996,5.992,5.996C57.789,49.685,60.473,46.998,60.473,43.689z"/>
	<path opacity="0.1" fill="#008A2E" d="M49.068,58.591c0-3.613-2.928-6.531-6.533-6.531c-3.609,0-6.533,2.918-6.533,6.531
		c0,3.605,2.924,6.527,6.533,6.527C46.141,65.119,49.068,62.197,49.068,58.591z"/>
	<circle opacity="0.1" fill="#008A2E" cx="46.785" cy="62.841" r="10.783"/>
	<path opacity="0.1" fill="#008A2E" d="M68.643,64.845c0-4.848-3.932-8.777-8.777-8.777c-4.848,0-8.775,3.93-8.775,8.777
		c0,4.852,3.928,8.772,8.775,8.772C64.711,73.617,68.643,69.697,68.643,64.845z"/>
	<path opacity="0.1" fill="#008A2E" d="M76.392,67.947c0-5.195-4.216-9.406-9.411-9.406c-5.201,0-9.412,4.211-9.412,9.406
		c0,5.198,4.211,9.409,9.412,9.409C72.176,77.355,76.392,73.145,76.392,67.947z"/>
	<path opacity="0.1" fill="#008A2E" d="M71.375,77.684c0-5.381-4.357-9.737-9.732-9.737s-9.73,4.356-9.73,9.737
		c0,5.375,4.355,9.727,9.73,9.727S71.375,83.059,71.375,77.684z"/>
	<path opacity="0.1" fill="#008A2E" d="M57.482,67.341c0-4.836-3.916-8.75-8.75-8.75c-4.836,0-8.752,3.914-8.752,8.75
		s3.916,8.749,8.752,8.749C53.566,76.09,57.482,72.177,57.482,67.341z"/>
	<path opacity="0.1" fill="#008A2E" d="M41.672,58.263c0-2.293-1.861-4.152-4.156-4.152c-2.291,0-4.154,1.859-4.154,4.152
		c0,2.297,1.863,4.156,4.154,4.156C39.811,62.419,41.672,60.56,41.672,58.263z"/>
	<path opacity="0.1" fill="#008A2E" d="M40.666,50.744c0-4.309-3.492-7.805-7.797-7.805c-4.309,0-7.799,3.496-7.799,7.805
		c0,4.301,3.49,7.797,7.799,7.797C37.174,58.541,40.666,55.044,40.666,50.744z"/>
	<path opacity="0.1" fill="#008A2E" d="M36.002,52.142c0-5.906-4.787-10.699-10.695-10.699s-10.697,4.793-10.697,10.699
		c0,5.91,4.789,10.699,10.697,10.699S36.002,58.052,36.002,52.142z"/>
	<path opacity="0.1" fill="#008A2E" d="M31.889,53.173c0-6.027-4.891-10.922-10.92-10.922s-10.92,4.895-10.92,10.922
		c0,6.031,4.891,10.918,10.92,10.918S31.889,59.205,31.889,53.173z"/>
	<path opacity="0.1" fill="#008A2E" d="M28.324,75.27c0-5.604-4.545-10.151-10.15-10.151c-5.604,0-10.146,4.547-10.146,10.151
		c0,5.605,4.543,10.141,10.146,10.141C23.779,85.41,28.324,80.875,28.324,75.27z"/>
	<path opacity="0.1" fill="#008A2E" d="M45.219,75.129c0-6.788-5.5-12.288-12.289-12.288c-6.785,0-12.287,5.5-12.287,12.288
		c0,6.781,5.502,12.281,12.287,12.281C39.719,87.41,45.219,81.91,45.219,75.129z"/>
	<path opacity="0.1" fill="#008A2E" d="M54.791,75.402c0-5.831-4.727-10.557-10.561-10.557c-5.83,0-10.557,4.727-10.557,10.557
		c0,5.832,4.727,10.566,10.557,10.566C50.064,85.969,54.791,81.234,54.791,75.402z"/>
	<path opacity="0.1" fill="#008A2E" d="M65.764,78.008c0-4.391-3.563-7.948-7.955-7.948c-4.395,0-7.955,3.557-7.955,7.948
		c0,4.398,3.561,7.961,7.955,7.961C62.201,85.969,65.764,82.406,65.764,78.008z"/>
	<path opacity="0.1" fill="#008A2E" d="M73.255,81.309c0-4.832-3.919-8.748-8.751-8.748c-4.834,0-8.754,3.916-8.754,8.748
		c0,4.836,3.92,8.754,8.754,8.754C69.336,90.063,73.255,86.145,73.255,81.309z"/>
	<circle opacity="0.1" fill="#008A2E" cx="70.522" cy="76.305" r="8.358"/>
	<path opacity="0.1" fill="#008A2E" d="M75.091,65.943c0-4.242-3.442-7.68-7.685-7.68s-7.678,3.438-7.678,7.68
		s3.436,7.674,7.678,7.674S75.091,70.185,75.091,65.943z"/>
	<path opacity="0.1" fill="#008A2E" d="M62.898,59.693c0-3.598-2.922-6.52-6.523-6.52s-6.521,2.922-6.521,6.52
		c0,3.605,2.92,6.523,6.521,6.523S62.898,63.298,62.898,59.693z"/>
	<path opacity="0.1" fill="#008A2E" d="M62.336,50.861c0-2.879-2.336-5.211-5.213-5.211c-2.879,0-5.211,2.332-5.211,5.211
		c0,2.875,2.332,5.207,5.211,5.207C60,56.068,62.336,53.736,62.336,50.861z"/>
	<path opacity="0.1" fill="#008A2E" d="M53.754,47.662c0-1.109-0.902-2.012-2.02-2.012c-1.115,0-2.018,0.902-2.018,2.012
		c0,1.121,0.902,2.023,2.018,2.023C52.852,49.685,53.754,48.783,53.754,47.662z"/>
	<path opacity="0.1" fill="#008A2E" d="M58.492,42.267c0-1.867-1.51-3.375-3.379-3.375c-1.865,0-3.379,1.508-3.379,3.375
		c0,1.863,1.514,3.383,3.379,3.383C56.982,45.65,58.492,44.13,58.492,42.267z"/>
	<path opacity="0.1" fill="#008A2E" d="M57.809,35.685c0-2.102-1.699-3.797-3.795-3.797c-2.1,0-3.797,1.695-3.797,3.797
		c0,2.094,1.697,3.789,3.797,3.789C56.109,39.474,57.809,37.779,57.809,35.685z"/>
	<path opacity="0.1" fill="#008A2E" d="M51.145,34.361c0-0.926-0.752-1.676-1.672-1.676c-0.926,0-1.674,0.75-1.674,1.676
		s0.748,1.672,1.674,1.672C50.393,36.033,51.145,35.287,51.145,34.361z"/>
	<circle opacity="0.1" fill="#008A2E" cx="46.181" cy="25.111" r="7.573"/>
	<circle opacity="0.1" fill="#008A2E" cx="37.922" cy="33.716" r="5.76"/>
	<path opacity="0.1" fill="#008A2E" d="M37.922,39.341c0-3.488-2.824-6.316-6.307-6.316c-3.484,0-6.309,2.828-6.309,6.316
		c0,3.48,2.824,6.309,6.309,6.309C35.098,45.65,37.922,42.822,37.922,39.341z"/>
	<path opacity="0.1" fill="#008A2E" d="M33.361,40.728c0-3.512-2.846-6.359-6.359-6.359c-3.512,0-6.359,2.848-6.359,6.359
		c0,3.508,2.848,6.359,6.359,6.359C30.516,47.087,33.361,44.236,33.361,40.728z"/>
	<path opacity="0.1" fill="#008A2E" d="M47.799,42.474c0-3.422-2.777-6.195-6.193-6.195c-3.42,0-6.193,2.773-6.193,6.195
		c0,3.418,2.773,6.188,6.193,6.188C45.021,48.662,47.799,45.892,47.799,42.474z"/>
	<path opacity="0.1" fill="#008A2E" d="M62.336,36.966c0-2.926-2.373-5.293-5.301-5.293c-2.93,0-5.301,2.367-5.301,5.293
		c0,2.93,2.371,5.301,5.301,5.301C59.963,42.267,62.336,39.896,62.336,36.966z"/>
	<path opacity="0.1" fill="#008A2E" d="M64.818,36.876c0-2.125-1.721-3.852-3.85-3.852c-2.125,0-3.846,1.727-3.846,3.852
		s1.721,3.852,3.846,3.852C63.098,40.728,64.818,39.001,64.818,36.876z"/>
	<path opacity="0.1" fill="#008A2E" d="M68.738,32.462c0-2.484-2.016-4.508-4.504-4.508s-4.506,2.023-4.506,4.508
		c0,2.488,2.018,4.504,4.506,4.504S68.738,34.951,68.738,32.462z"/>
	<path opacity="0.1" fill="#008A2E" d="M71.66,28.748c0-2.043-1.662-3.707-3.713-3.707s-3.713,1.664-3.713,3.707
		c0,2.051,1.662,3.715,3.713,3.715S71.66,30.798,71.66,28.748z"/>
	<circle opacity="0.1" fill="#008A2E" cx="62.491" cy="26.216" r="5.456"/>
	<path opacity="0.1" fill="#008A2E" d="M70.523,20.759c0-4.434-3.59-8.023-8.021-8.023s-8.025,3.59-8.025,8.023
		c0,4.426,3.594,8.02,8.025,8.02S70.523,25.185,70.523,20.759z"/>
	<circle opacity="0.1" fill="#008A2E" cx="75.396" cy="30.888" r="2.141"/>
	<path opacity="0.1" fill="#008A2E" d="M70.723,56.259c0-3.629-2.941-6.574-6.578-6.574c-3.631,0-6.576,2.945-6.576,6.574
		c0,3.633,2.945,6.582,6.576,6.582C67.781,62.841,70.723,59.892,70.723,56.259z"/>
	<path opacity="0.1" fill="#008A2E" d="M72.344,62.595c0-2.953-2.395-5.344-5.348-5.344c-2.959,0-5.354,2.391-5.354,5.344
		s2.395,5.352,5.354,5.352C69.949,67.947,72.344,65.548,72.344,62.595z"/>
	<path opacity="0.1" fill="#008A2E" d="M74.271,76.988c0-3.141-2.548-5.686-5.687-5.686s-5.686,2.545-5.686,5.686
		c0,3.137,2.547,5.684,5.686,5.684S74.271,80.125,74.271,76.988z"/>
	<path opacity="0.1" fill="#008A2E" d="M78.88,84.203c0-2.938-2.383-5.32-5.324-5.32c-2.94,0-5.323,2.383-5.323,5.32
		c0,2.941,2.383,5.324,5.323,5.324C76.497,89.527,78.88,87.145,78.88,84.203z"/>
	<path opacity="0.1" fill="#008A2E" d="M86.985,89.129c0-4.309-3.496-7.805-7.801-7.805c-4.313,0-7.81,3.496-7.81,7.805
		s3.497,7.801,7.81,7.801C83.489,96.93,86.985,93.438,86.985,89.129z"/>
	<circle opacity="0.1" fill="#008A2E" cx="72.471" cy="94.066" r="5.065"/>
	<path opacity="0.1" fill="#008A2E" d="M75.396,84.555c0-5.25-4.257-9.508-9.511-9.508c-5.252,0-9.51,4.258-9.51,9.508
		c0,5.254,4.258,9.512,9.51,9.512C71.139,94.066,75.396,89.809,75.396,84.555z"/>
	<path opacity="0.1" fill="#008A2E" d="M73.556,75.566c0-6.553-5.306-11.854-11.851-11.854c-6.543,0-11.852,5.301-11.852,11.854
		c0,6.543,5.309,11.844,11.852,11.844C68.25,87.41,73.556,82.109,73.556,75.566z"/>
	<path opacity="0.1" fill="#008A2E" d="M68.232,73.965c0-6.624-5.375-11.999-12.002-11.999c-6.625,0-12,5.375-12,11.999
		c0,6.629,5.375,12.004,12,12.004C62.857,85.969,68.232,80.594,68.232,73.965z"/>
	<path opacity="0.1" fill="#008A2E" d="M60.596,89.23c0-5.461-4.432-9.891-9.898-9.891c-5.465,0-9.895,4.43-9.895,9.891
		c0,5.465,4.43,9.898,9.895,9.898C56.164,99.129,60.596,94.695,60.596,89.23z"/>
	<path opacity="0.1" fill="#008A2E" d="M58.492,91.215c0-8.008-6.488-14.504-14.496-14.504c-8.006,0-14.498,6.496-14.498,14.504
		c0,8.004,6.492,14.496,14.498,14.496C52.004,105.711,58.492,99.219,58.492,91.215z"/>
	<path opacity="0.1" fill="#008A2E" d="M54.014,93.141c0-6.18-5.016-11.195-11.201-11.195c-6.182,0-11.197,5.016-11.197,11.195
		c0,6.191,5.016,11.203,11.197,11.203C48.998,104.344,54.014,99.332,54.014,93.141z"/>
	<path opacity="0.1" fill="#008A2E" d="M46.785,76.668c0-2.563-2.074-4.631-4.631-4.631c-2.563,0-4.635,2.069-4.635,4.631
		s2.072,4.637,4.635,4.637C44.711,81.305,46.785,79.23,46.785,76.668z"/>
	<path opacity="0.1" fill="#008A2E" d="M55.113,59.056c0-8.223-6.67-14.895-14.902-14.895s-14.904,6.672-14.904,14.895
		c0,8.234,6.672,14.909,14.904,14.909S55.113,67.291,55.113,59.056z"/>
	<circle opacity="0.1" fill="#008A2E" cx="37.786" cy="56.541" r="15.495"/>
	<path opacity="0.1" fill="#008A2E" d="M54.791,50.197c0-8.848-7.174-16.023-16.021-16.023c-8.85,0-16.02,7.176-16.02,16.023
		c0,8.844,7.17,16.02,16.02,16.02C47.617,66.216,54.791,59.041,54.791,50.197z"/>
	<circle opacity="0.1" fill="#008A2E" cx="37.361" cy="49.13" r="16.393"/>
	<circle opacity="0.1" fill="#008A2E" cx="35.426" cy="47.65" r="19.688"/>
	<path opacity="0.1" fill="#008A2E" d="M57.396,47.751c0-12.008-9.742-21.75-21.754-21.75c-12.016,0-21.756,9.742-21.756,21.75
		c0,12.016,9.74,21.758,21.756,21.758C47.654,69.509,57.396,59.767,57.396,47.751z"/>
	<path opacity="0.1" fill="#008A2E" d="M48.484,60.388c0-9.371-7.6-16.969-16.973-16.969s-16.969,7.598-16.969,16.969
		c0,9.375,7.596,16.967,16.969,16.967S48.484,69.763,48.484,60.388z"/>
	<path opacity="0.1" fill="#008A2E" d="M51.734,72.906c0-8.881-7.205-16.092-16.092-16.092c-8.889,0-16.096,7.211-16.096,16.092
		c0,8.895,7.207,16.098,16.096,16.098C44.529,89.004,51.734,81.801,51.734,72.906z"/>
	<path opacity="0.1" fill="#008A2E" d="M72.344,70.146c0-7.758-6.293-14.051-14.055-14.051c-7.766,0-14.059,6.293-14.059,14.051
		c0,7.768,6.293,14.057,14.059,14.057C66.051,84.203,72.344,77.914,72.344,70.146z"/>
	<circle opacity="0.1" fill="#008A2E" cx="59.223" cy="85.887" r="12.438"/>
	<circle opacity="0.1" fill="#008A2E" cx="60.222" cy="47.435" r="11.153"/>
	<path opacity="0.1" fill="#008A2E" d="M78.216,37.462c0-5.637-4.566-10.211-10.202-10.211c-5.639,0-10.205,4.574-10.205,10.211
		c0,5.633,4.566,10.199,10.205,10.199C73.649,47.662,78.216,43.095,78.216,37.462z"/>
	<path opacity="0.1" fill="#008A2E" d="M78.216,26.541c0-6.031-4.883-10.918-10.921-10.918c-6.029,0-10.92,4.887-10.92,10.918
		c0,6.035,4.891,10.922,10.92,10.922C73.333,37.462,78.216,32.576,78.216,26.541z"/>
	<path opacity="0.1" fill="#008A2E" d="M64.359,32.462c0-8.445-6.848-15.293-15.295-15.293c-8.443,0-15.291,6.848-15.291,15.293
		c0,8.449,6.848,15.289,15.291,15.289C57.512,47.751,64.359,40.912,64.359,32.462z"/>
	<path opacity="0.1" fill="#008A2E" d="M69.342,44.466c0-8.469-6.861-15.332-15.328-15.332c-8.469,0-15.332,6.863-15.332,15.332
		c0,8.461,6.863,15.324,15.332,15.324C62.48,59.791,69.342,52.927,69.342,44.466z"/>
	<path opacity="0.1" fill="#008A2E" d="M62.883,38.025c0-5.871-4.764-10.641-10.639-10.641c-5.879,0-10.639,4.77-10.639,10.641
		c0,5.879,4.76,10.637,10.639,10.637C58.119,48.662,62.883,43.904,62.883,38.025z"/>
	<path opacity="0.1" fill="#008A2E" d="M58.492,50.626c0-8.613-6.977-15.594-15.592-15.594c-8.609,0-15.586,6.98-15.586,15.594
		c0,8.609,6.977,15.59,15.586,15.59C51.516,66.216,58.492,59.236,58.492,50.626z"/>
	<path opacity="0.1" fill="#008A2E" d="M69.531,60.244c0-12.004-9.732-21.738-21.732-21.738c-12.004,0-21.736,9.734-21.736,21.738
		c0,12,9.732,21.733,21.736,21.733C59.799,81.977,69.531,72.244,69.531,60.244z"/>
	<path opacity="0.1" fill="#008A2E" d="M70.523,70.564c0-5.813-4.713-10.531-10.527-10.531c-5.813,0-10.523,4.719-10.523,10.531
		c0,5.807,4.711,10.526,10.523,10.526C65.811,81.09,70.523,76.371,70.523,70.564z"/>
	<path opacity="0.1" fill="#008A2E" d="M76.392,70.755c0-6.672-5.405-12.074-12.075-12.074c-6.668,0-12.072,5.402-12.072,12.074
		c0,6.663,5.404,12.073,12.072,12.073C70.986,82.828,76.392,77.418,76.392,70.755z"/>
	<path opacity="0.1" fill="#008A2E" d="M73.255,67.607c0-5.383-4.364-9.75-9.749-9.75c-5.387,0-9.752,4.367-9.752,9.75
		c0,5.389,4.365,9.749,9.752,9.749C68.891,77.355,73.255,72.996,73.255,67.607z"/>
	<circle opacity="0.1" fill="#008A2E" cx="56.438" cy="60.244" r="7.706"/>
	<path opacity="0.1" fill="#008A2E" d="M59.207,83.563c4.764,1.516,7.268,7.008,5.598,12.281c-1.674,5.27-6.889,8.313-11.654,6.805
		c-4.768-1.512-7.273-7.012-5.6-12.285C49.221,85.102,54.436,82.051,59.207,83.563z"/>
	<path opacity="0.1" fill="#008A2E" d="M53.736,80.391c4.834,1.535,10.465-2.605,12.57-9.252c2.111-6.633-0.107-13.266-4.941-14.797
		c-4.834-1.535-10.465,2.605-12.57,9.246C46.684,72.228,48.902,78.859,53.736,80.391z"/>
	<path opacity="0.1" fill="#008A2E" d="M70.25,91.379c-7.941-2.516-12.768-9.652-10.775-15.934
		c1.994-6.276,10.049-9.327,17.991-6.807c7.938,2.516,12.758,9.651,10.766,15.928C86.239,90.852,78.192,93.902,70.25,91.379z"/>
	<path opacity="0.1" fill="#008A2E" d="M84.614,104.141c-5.199-1.648-8.074-7.203-6.422-12.398
		c1.645-5.199,7.195-8.078,12.395-6.426c5.199,1.648,8.078,7.203,6.43,12.398C95.364,102.914,89.817,105.793,84.614,104.141z"/>
	<path opacity="0.1" fill="#008A2E" d="M67.217,92.758c-8.729-2.77-13.566-12.098-10.793-20.834
		c2.77-8.734,12.102-13.57,20.831-10.801C85.989,63.9,90.833,73.227,88.06,81.961C85.286,90.691,75.958,95.523,67.217,92.758z"/>
	<path opacity="0.1" fill="#008A2E" d="M93.606,74.914c-3.617-1.148-5.609-5.002-4.461-8.616c1.141-3.605,4.992-5.605,8.605-4.457
		c3.605,1.141,5.605,4.996,4.457,8.602C101.067,74.055,97.208,76.055,93.606,74.914z"/>
	<path opacity="0.1" fill="#008A2E" d="M100.802,83.953c-2.16-0.68-3.363-3-2.672-5.168c0.688-2.16,3-3.359,5.156-2.672
		c2.168,0.688,3.367,3,2.68,5.16C105.278,83.441,102.966,84.641,100.802,83.953z"/>
	<path opacity="0.1" fill="#008A2E" d="M99.724,105.055c-2.523-0.809-3.922-3.504-3.121-6.027c0.801-2.531,3.496-3.926,6.023-3.125
		s3.926,3.496,3.121,6.02C104.946,104.453,102.251,105.852,99.724,105.055z"/>
	<path opacity="0.1" fill="#008A2E" d="M101.028,99.129c-4.695-1.488-9.703,1.113-11.191,5.805
		c-1.492,4.695,1.105,9.707,5.801,11.195c4.688,1.488,9.703-1.109,11.188-5.805C108.317,105.629,105.72,100.617,101.028,99.129z"/>
	<path opacity="0.1" fill="#008A2E" d="M55.061,101.383c4.01,1.273,6.223,5.551,4.953,9.555c-1.273,4.008-5.549,6.227-9.557,4.961
		c-4.01-1.273-6.223-5.551-4.953-9.566C46.777,102.328,51.053,100.113,55.061,101.383z"/>
	<path opacity="0.1" fill="#008A2E" d="M73.521,119.18c2.016,0.645,3.137,2.805,2.5,4.824c-0.641,2.016-2.809,3.141-4.827,2.496
		c-2.025-0.645-3.143-2.805-2.502-4.82C69.336,119.66,71.49,118.535,73.521,119.18z"/>
	<path opacity="0.1" fill="#008A2E" d="M53.559,120.977c2.365,0.75,3.668,3.273,2.916,5.641c-0.746,2.363-3.268,3.676-5.633,2.926
		c-2.361-0.754-3.676-3.277-2.924-5.641C48.668,121.539,51.197,120.23,53.559,120.977z"/>
	<path opacity="0.1" fill="#008A2E" d="M39.752,94.082c2.027,0.645,3.146,2.797,2.502,4.824c-0.641,2.023-2.799,3.141-4.824,2.496
		c-2.023-0.645-3.143-2.797-2.498-4.82C35.572,94.563,37.727,93.445,39.752,94.082z"/>
	<path opacity="0.1" fill="#008A2E" d="M40.951,66.259c2.527,0.809,3.93,3.512,3.127,6.036c-0.799,2.521-3.506,3.924-6.029,3.123
		c-2.529-0.809-3.924-3.502-3.121-6.026C35.727,66.861,38.426,65.462,40.951,66.259z"/>
	<path opacity="0.1" fill="#008A2E" d="M63.924,73.457c4.424,1.398,9.144-1.045,10.546-5.471c1.402-4.422-1.043-9.145-5.468-10.543
		c-4.42-1.406-9.139,1.043-10.543,5.465C57.057,67.326,59.504,72.048,63.924,73.457z"/>
	<path opacity="0.1" fill="#008A2E" d="M93.185,69.095c5.789,1.836,11.98-1.367,13.82-7.164c1.836-5.789-1.375-11.98-7.164-13.816
		c-5.797-1.844-11.98,1.371-13.82,7.16C84.185,61.072,87.388,67.251,93.185,69.095z"/>
	<path opacity="0.1" fill="#008A2E" d="M107.841,99.855c-3.895-1.234-6.055-5.398-4.816-9.297c1.238-3.895,5.402-6.059,9.293-4.82
		c3.906,1.234,6.063,5.402,4.828,9.297C115.907,98.938,111.743,101.094,107.841,99.855z"/>
	<path opacity="0.1" fill="#008A2E" d="M73.552,95.02c-3.536-1.125-7.315,0.84-8.44,4.379c-1.121,3.531,0.84,7.313,4.379,8.43
		c3.538,1.125,7.315-0.836,8.437-4.367C79.052,99.922,77.091,96.141,73.552,95.02z"/>
	<path opacity="0.1" fill="#008A2E" d="M71.271,106.527c-2.563-0.816-5.305,0.605-6.115,3.168c-0.814,2.563,0.607,5.301,3.168,6.113
		c2.563,0.816,5.306-0.605,6.118-3.168S73.833,107.34,71.271,106.527z"/>
	<path opacity="0.1" fill="#008A2E" d="M86.028,103.867c-3.836-1.211-7.941,0.91-9.164,4.762c-1.219,3.844,0.914,7.945,4.75,9.164
		c3.844,1.215,7.953-0.91,9.172-4.75C92.009,109.199,89.876,105.09,86.028,103.867z"/>
	<path opacity="0.1" fill="#008A2E" d="M88.247,104.699c-5.82-1.844-12.031,1.367-13.875,7.188
		c-1.845,5.82,1.371,12.031,7.191,13.875c5.816,1.848,12.027-1.379,13.871-7.191C97.278,112.754,94.063,106.543,88.247,104.699z"/>
	<path opacity="0.1" fill="#008A2E" d="M60.496,107.488c-2.328-0.738-4.82,0.547-5.561,2.879c-0.736,2.332,0.555,4.82,2.883,5.563
		c2.33,0.738,4.82-0.555,5.557-2.883C64.115,110.715,62.824,108.23,60.496,107.488z"/>
	<path opacity="0.1" fill="#008A2E" d="M46.186,81.738c-2.051-0.648-4.254,0.484-4.906,2.539c-0.654,2.059,0.49,4.258,2.543,4.91
		c2.063,0.652,4.254-0.488,4.91-2.539C49.383,84.582,48.246,82.391,46.186,81.738z"/>
	<path opacity="0.1" fill="#008A2E" d="M59.926,74.809c-3.154-0.996-6.527,0.75-7.529,3.902c-1,3.156,0.752,6.523,3.904,7.531
		c3.154,1,6.527-0.75,7.525-3.902C64.83,79.18,63.08,75.809,59.926,74.809z"/>
	<path opacity="0.1" fill="#008A2E" d="M70.682,90.188C67.24,89.09,63.572,91,62.482,94.445c-1.092,3.434,0.805,7.105,4.25,8.195
		c3.436,1.094,7.108-0.809,8.202-4.25C76.021,94.953,74.118,91.273,70.682,90.188z"/>
	<path opacity="0.1" fill="#008A2E" d="M77.302,83.367c-5.671-1.797-11.731,1.348-13.534,7.02c-1.799,5.68,1.34,11.742,7.016,13.543
		c5.675,1.797,11.737-1.348,13.534-7.02C86.122,91.23,82.978,85.168,77.302,83.367z"/>
	<path opacity="0.1" fill="#008A2E" d="M82.567,73.418c-4.625-1.463-9.559,1.098-11.026,5.715
		c-1.465,4.621,1.092,9.551,5.714,11.016c4.625,1.469,9.555-1.086,11.02-5.707S87.188,74.883,82.567,73.418z"/>
	<path opacity="0.1" fill="#008A2E" d="M87.864,66.978c-4.953-1.574-10.242,1.172-11.813,6.124
		c-1.574,4.953,1.172,10.246,6.121,11.813c4.953,1.57,10.246-1.168,11.816-6.129C95.56,73.832,92.817,68.548,87.864,66.978z"/>
	<path opacity="0.1" fill="#008A2E" d="M95.63,74.699c-5.133-1.629-10.598,1.207-12.227,6.328
		c-1.625,5.125,1.211,10.598,6.34,12.227c5.121,1.621,10.59-1.215,12.215-6.34C103.583,81.793,100.755,76.32,95.63,74.699z"/>
	<path opacity="0.1" fill="#008A2E" d="M81.567,84.813c-4.605-1.457-9.524,1.09-10.989,5.691c-1.457,4.613,1.09,9.531,5.7,10.988
		c4.609,1.465,9.523-1.082,10.984-5.695C88.724,91.195,86.177,86.277,81.567,84.813z"/>
	<path opacity="0.1" fill="#008A2E" d="M68.137,97.141c-2.189-0.699-4.525,0.516-5.217,2.707c-0.691,2.184,0.516,4.516,2.703,5.211
		c2.188,0.699,4.523-0.516,5.215-2.699C71.529,100.168,70.324,97.836,68.137,97.141z"/>
	<path opacity="0.1" fill="#008A2E" d="M60.662,95.82c-4.109-1.301-8.496,0.969-9.795,5.07c-1.303,4.109,0.971,8.492,5.078,9.797
		c4.098,1.301,8.484-0.969,9.787-5.078C67.037,101.508,64.76,97.125,60.662,95.82z"/>
	<path opacity="0.1" fill="#008A2E" d="M60.584,100.691c-5.631-1.785-11.645,1.328-13.43,6.961
		c-1.787,5.633,1.33,11.645,6.963,13.43c5.631,1.789,11.646-1.332,13.43-6.961C69.336,108.488,66.215,102.477,60.584,100.691z"/>
	<path opacity="0.1" fill="#008A2E" d="M60.322,104.926c-5.746-1.828-11.887,1.355-13.711,7.109
		c-1.822,5.746,1.361,11.883,7.105,13.703c5.754,1.828,11.887-1.355,13.713-7.102C69.254,112.887,66.074,106.75,60.322,104.926z"/>
	<path opacity="0.1" fill="#008A2E" d="M80.31,115.004c-5.344-1.695-11.048,1.266-12.743,6.602
		c-1.695,5.348,1.262,11.047,6.61,12.742c5.34,1.695,11.035-1.258,12.73-6.602C88.603,122.406,85.653,116.699,80.31,115.004z"/>
	<path opacity="0.1" fill="#008A2E" d="M85.282,98.855c-6.473-2.051-13.38,1.527-15.429,8.004
		c-2.051,6.465,1.529,13.371,8.003,15.422c6.461,2.051,13.367-1.527,15.418-7.996C95.329,107.816,91.747,100.906,85.282,98.855z"/>
	<path opacity="0.1" fill="#008A2E" d="M88.442,89.816c-5.563-1.762-11.496,1.313-13.258,6.871
		c-1.766,5.559,1.313,11.496,6.871,13.258s11.496-1.309,13.262-6.867C97.083,97.516,94.001,91.578,88.442,89.816z"/>
	<path opacity="0.1" fill="#008A2E" d="M94.239,80.148c-4.18-1.332-8.652,0.984-9.984,5.176c-1.328,4.188,0.992,8.66,5.172,9.984
		c4.195,1.336,8.668-0.984,9.996-5.172C100.755,85.945,98.435,81.473,94.239,80.148z"/>
	<path opacity="0.1" fill="#008A2E" d="M99.653,74.004c-4.605-1.459-9.523,1.086-10.984,5.691
		c-1.465,4.613,1.086,9.527,5.691,10.996c4.605,1.457,9.527-1.09,10.988-5.703C106.81,80.387,104.263,75.461,99.653,74.004z"/>
	<path opacity="0.1" fill="#008A2E" d="M96.583,67.126c-4.398-1.398-9.098,1.043-10.492,5.442c-1.398,4.396,1.035,9.096,5.441,10.49
		c4.395,1.398,9.098-1.039,10.496-5.434C103.419,73.219,100.981,68.525,96.583,67.126z"/>
	<path opacity="0.1" fill="#008A2E" d="M85.56,67.607c-4.047-1.281-8.359,0.965-9.641,5.004c-1.281,4.041,0.953,8.35,4.996,9.639
		c4.043,1.281,8.355-0.953,9.637-4.996S89.603,68.896,85.56,67.607z"/>
	<path opacity="0.1" fill="#008A2E" d="M75.919,77.344c-3.435-1.09-7.103,0.805-8.194,4.242c-1.088,3.434,0.818,7.098,4.248,8.188
		c3.438,1.086,7.099-0.816,8.188-4.242C81.251,82.094,79.353,78.43,75.919,77.344z"/>
	<path opacity="0.1" fill="#008A2E" d="M67.324,75.203c-2.742-0.867-5.67,0.652-6.539,3.391c-0.875,2.746,0.643,5.68,3.391,6.543
		c2.738,0.875,5.666-0.645,6.537-3.391C71.582,79.008,70.064,76.078,67.324,75.203z"/>
	<path opacity="0.1" fill="#008A2E" d="M61.684,82.414c-1.059-0.332-2.191,0.25-2.531,1.316c-0.338,1.066,0.252,2.199,1.311,2.531
		c1.064,0.344,2.197-0.242,2.535-1.309C63.338,83.887,62.75,82.754,61.684,82.414z"/>
	<path opacity="0.1" fill="#008A2E" d="M57.971,76.27c-1.777-0.563-3.672,0.414-4.238,2.199c-0.566,1.777,0.418,3.68,2.195,4.242
		c1.781,0.563,3.684-0.422,4.246-2.199C60.74,78.734,59.752,76.832,57.971,76.27z"/>
	<path opacity="0.1" fill="#008A2E" d="M51.492,74.93c-2.006-0.637-4.135,0.473-4.768,2.473c-0.637,1.996,0.467,4.129,2.469,4.766
		c2,0.629,4.129-0.473,4.766-2.473C54.592,77.699,53.488,75.566,51.492,74.93z"/>
	<circle opacity="0.1" fill="#008A2E" cx="47.708" cy="82.477" r="1.672"/>
	<path opacity="0.1" fill="#008A2E" d="M40.188,75.594c-3.986-1.266-8.244,0.949-9.51,4.934c-1.262,3.988,0.945,8.246,4.932,9.512
		c3.986,1.258,8.244-0.949,9.51-4.93C46.381,81.117,44.174,76.859,40.188,75.594z"/>
	<path opacity="0.1" fill="#008A2E" d="M45.344,87.797c-3.035-0.965-6.27,0.719-7.232,3.754c-0.963,3.027,0.715,6.27,3.75,7.23
		c3.031,0.965,6.268-0.719,7.229-3.754C50.053,92,48.377,88.758,45.344,87.797z"/>
	<path opacity="0.1" fill="#008A2E" d="M48.965,94.992c-3.324-1.059-6.875,0.785-7.926,4.102c-1.055,3.324,0.789,6.871,4.109,7.922
		c3.316,1.051,6.867-0.785,7.922-4.102C54.121,99.59,52.281,96.043,48.965,94.992z"/>
	<path opacity="0.1" fill="#008A2E" d="M48.906,99.758c-3.348-1.063-6.924,0.785-7.984,4.141c-1.063,3.348,0.791,6.922,4.137,7.98
		c3.348,1.059,6.924-0.793,7.986-4.137C54.105,104.395,52.248,100.816,48.906,99.758z"/>
	<path opacity="0.1" fill="#008A2E" d="M54.936,86.523c-3.262-1.031-6.744,0.777-7.777,4.027c-1.037,3.266,0.773,6.742,4.031,7.781
		c3.262,1.035,6.74-0.77,7.773-4.035C59.996,91.039,58.197,87.559,54.936,86.523z"/>
	<path opacity="0.1" fill="#008A2E" d="M54.08,71.005c-2.787-0.887-5.764,0.66-6.648,3.448c-0.885,2.793,0.656,5.77,3.443,6.656
		c2.795,0.883,5.771-0.656,6.656-3.449C58.416,74.871,56.875,71.888,54.08,71.005z"/>
	<path opacity="0.1" fill="#008A2E" d="M54.746,68.607c-2.023-0.645-4.189,0.48-4.834,2.512c-0.641,2.018,0.48,4.178,2.51,4.823
		c2.025,0.645,4.188-0.473,4.83-2.5C57.896,71.412,56.771,69.251,54.746,68.607z"/>
	<path opacity="0.1" fill="#008A2E" d="M51.727,63.537c-2.369-0.75-4.908,0.563-5.66,2.93c-0.752,2.371,0.566,4.91,2.936,5.656
		c2.373,0.756,4.9-0.563,5.652-2.93C55.41,66.822,54.1,64.291,51.727,63.537z"/>
	<path opacity="0.1" fill="#008A2E" d="M49.068,59.626c-1.947-0.613-4.039,0.469-4.66,2.422c-0.619,1.953,0.467,4.043,2.414,4.664
		c1.953,0.613,4.045-0.465,4.668-2.422C52.107,62.337,51.023,60.248,49.068,59.626z"/>
	<path opacity="0.1" fill="#008A2E" d="M45.533,62.404c-2.873-0.91-5.941,0.68-6.852,3.555c-0.91,2.871,0.678,5.938,3.549,6.846
		c2.873,0.91,5.941-0.682,6.854-3.553C49.994,66.388,48.402,63.314,45.533,62.404z"/>
	<path opacity="0.1" fill="#008A2E" d="M41.109,58.302c-4.227-1.348-8.736,0.992-10.076,5.219c-1.34,4.219,0.996,8.731,5.223,10.077
		c4.221,1.332,8.73-1.006,10.07-5.225C47.666,64.142,45.33,59.634,41.109,58.302z"/>
	<path opacity="0.1" fill="#008A2E" d="M52.885,54.681c-1.121-0.363-2.332,0.266-2.688,1.391c-0.359,1.129,0.27,2.328,1.393,2.684
		c1.129,0.359,2.328-0.262,2.688-1.395C54.633,56.236,54.014,55.037,52.885,54.681z"/>
	<path opacity="0.1" fill="#008A2E" d="M75.005,68.845c-3.456-1.098-7.153,0.813-8.253,4.276c-1.096,3.465,0.82,7.16,4.279,8.262
		c3.466,1.098,7.161-0.82,8.263-4.285S78.474,69.939,75.005,68.845z"/>
	<path opacity="0.1" fill="#008A2E" d="M81.54,69.216c-2.816-0.898-5.816,0.664-6.715,3.475c-0.891,2.82,0.664,5.828,3.48,6.723
		c2.813,0.891,5.824-0.664,6.719-3.484C85.915,73.113,84.356,70.103,81.54,69.216z"/>
	<path opacity="0.1" fill="#008A2E" d="M95.841,71.732c-2.992-0.949-6.188,0.704-7.141,3.702c-0.945,2.988,0.711,6.188,3.703,7.137
		c2.988,0.945,6.188-0.711,7.141-3.703C100.489,75.875,98.833,72.68,95.841,71.732z"/>
	<path opacity="0.1" fill="#008A2E" d="M104.114,69.517c-2.797-0.887-5.793,0.66-6.68,3.463c-0.891,2.809,0.66,5.797,3.461,6.688
		c2.797,0.887,5.797-0.668,6.684-3.465C108.466,73.395,106.915,70.408,104.114,69.517z"/>
	<path opacity="0.1" fill="#008A2E" d="M111.255,63.283c-4.102-1.301-8.492,0.973-9.797,5.082c-1.301,4.106,0.969,8.487,5.078,9.792
		s8.5-0.969,9.801-5.078C117.638,68.97,115.364,64.587,111.255,63.283z"/>
	<path opacity="0.1" fill="#008A2E" d="M113.106,73.781c-2.664-0.844-5.508,0.629-6.359,3.293c-0.844,2.668,0.633,5.516,3.297,6.359
		c2.668,0.844,5.516-0.629,6.359-3.293C117.251,77.477,115.774,74.625,113.106,73.781z"/>
	<path opacity="0.1" fill="#008A2E" d="M103.392,72.945c-5-1.584-10.348,1.184-11.934,6.188c-1.594,5.004,1.18,10.352,6.188,11.941
		c5.008,1.586,10.352-1.184,11.938-6.188C111.173,79.883,108.403,74.535,103.392,72.945z"/>
	<path opacity="0.1" fill="#008A2E" d="M94.271,71.982c-6.25-1.984-12.906,1.475-14.883,7.706
		c-1.977,6.242,1.469,12.906,7.711,14.883c6.242,1.984,12.898-1.473,14.879-7.715C103.954,80.613,100.509,73.957,94.271,71.982z"/>
	<path opacity="0.1" fill="#008A2E" d="M91.138,76.57c-6.32-2.004-13.066,1.496-15.07,7.813s1.492,13.059,7.809,15.066
		c6.316,2.004,13.066-1.496,15.07-7.813C100.95,85.324,97.45,78.57,91.138,76.57z"/>
	<path opacity="0.1" fill="#008A2E" d="M103.376,88.461c-5.207-1.648-10.77,1.238-12.418,6.449
		c-1.656,5.203,1.227,10.773,6.434,12.422c5.207,1.652,10.777-1.227,12.426-6.441C111.474,95.68,108.583,90.121,103.376,88.461z"/>
	<path opacity="0.1" fill="#008A2E" d="M104.63,91.066c-7.633-2.418-15.781,1.801-18.203,9.434s1.805,15.785,9.438,18.203
		c7.625,2.422,15.781-1.797,18.203-9.43S112.263,93.488,104.63,91.066z"/>
	<path opacity="0.1" fill="#008A2E" d="M105.114,95.926c-5.895-1.875-12.188,1.391-14.055,7.285
		c-1.871,5.891,1.387,12.191,7.281,14.059c5.898,1.871,12.191-1.395,14.063-7.285C114.274,104.09,111.013,97.789,105.114,95.926z"/>
	<path opacity="0.1" fill="#008A2E" d="M87.224,97.836c-2.438-0.777-5.043,0.57-5.816,3.004c-0.773,2.445,0.574,5.051,3.02,5.82
		c2.441,0.777,5.043-0.57,5.816-3.016C91.017,101.211,89.665,98.605,87.224,97.836z"/>
	<path opacity="0.1" fill="#008A2E" d="M72.958,84.566c-7.843-2.484-16.22,1.852-18.708,9.699
		c-2.49,7.848,1.852,16.223,9.691,18.711c7.848,2.492,16.228-1.844,18.72-9.691C85.149,95.438,80.802,87.055,72.958,84.566z"/>
	<circle opacity="0.1" fill="#008A2E" cx="65.315" cy="100.322" r="15.497"/>
	<path opacity="0.1" fill="#008A2E" d="M64.412,82.191c-8.434-2.672-17.443,2-20.115,10.43c-2.676,8.434,1.992,17.438,10.424,20.117
		c8.432,2.672,17.439-1.992,20.116-10.434C77.513,93.875,72.844,84.871,64.412,82.191z"/>
	<path opacity="0.1" fill="#008A2E" d="M63.08,82.859c-8.629-2.742-17.844,2.043-20.582,10.676
		c-2.736,8.625,2.039,17.84,10.668,20.57c8.633,2.742,17.846-2.035,20.581-10.66C76.489,94.813,71.711,85.598,63.08,82.859z"/>
	<path opacity="0.1" fill="#008A2E" d="M62.08,81.117c-10.357-3.285-21.43,2.453-24.717,12.816s2.451,21.426,12.813,24.711
		c10.363,3.297,21.436-2.441,24.724-12.809C78.185,95.473,72.449,84.406,62.08,81.117z"/>
	<path opacity="0.1" fill="#008A2E" d="M62.869,78.973c-11.447-3.629-23.678,2.707-27.313,14.16
		c-3.631,11.453,2.711,23.676,14.156,27.313c11.453,3.633,23.69-2.703,27.319-14.156S74.325,82.605,62.869,78.973z"/>
	<path opacity="0.1" fill="#008A2E" d="M72.219,91.289c-8.932-2.836-18.471,2.109-21.303,11.047
		c-2.836,8.938,2.105,18.473,11.041,21.309c8.934,2.832,18.474-2.113,21.306-11.047C86.099,103.66,81.153,94.125,72.219,91.289z"/>
	<path opacity="0.1" fill="#008A2E" d="M85.138,91.98c-8.469-2.688-17.521,1.996-20.208,10.465
		c-2.688,8.473,2.006,17.527,10.474,20.215c8.477,2.684,17.523-2.008,20.211-10.477S93.614,94.668,85.138,91.98z"/>
	<path opacity="0.1" fill="#008A2E" d="M88.739,71.494c-7.398-2.344-15.297,1.756-17.646,9.151
		c-2.352,7.402,1.746,15.301,9.146,17.648c7.398,2.348,15.301-1.746,17.648-9.148C100.231,81.746,96.138,73.84,88.739,71.494z"/>
	<path opacity="0.1" fill="#008A2E" d="M103.532,76.906c-6.551-2.074-13.535,1.547-15.617,8.098
		c-2.074,6.547,1.547,13.535,8.098,15.613c6.547,2.082,13.539-1.547,15.617-8.09C113.704,85.973,110.083,78.984,103.532,76.906z"/>
	<path opacity="0.1" fill="#008A2E" d="M66.793,65.548c-5.871-1.855-12.139,1.395-14,7.264c-1.863,5.871,1.383,12.141,7.254,14
		c5.871,1.863,12.145-1.387,14.009-7.258C75.919,73.684,72.66,67.416,66.793,65.548z"/>
	<path opacity="0.1" fill="#008A2E" d="M59.355,56.013c-5.371-1.703-11.113,1.266-12.814,6.641
		c-1.707,5.375,1.273,11.112,6.645,12.815s11.104-1.273,12.811-6.639C67.699,63.455,64.727,57.716,59.355,56.013z"/>
	<path opacity="0.1" fill="#008A2E" d="M48.945,52.712c-5.748-1.82-11.885,1.355-13.711,7.105
		c-1.82,5.754,1.355,11.891,7.107,13.713c5.754,1.828,11.891-1.354,13.711-7.108C57.879,60.669,54.699,54.541,48.945,52.712z"/>
	<path opacity="0.1" fill="#008A2E" d="M50.404,67.712c-8.055-2.555-16.65,1.902-19.203,9.956
		c-2.555,8.047,1.902,16.645,9.953,19.195c8.051,2.555,16.643-1.902,19.197-9.949C62.906,78.859,58.455,70.267,50.404,67.712z"/>
	<path opacity="0.1" fill="#008A2E" d="M63.35,66.595c-8.074-2.563-16.691,1.902-19.252,9.971
		c-2.559,8.074,1.906,16.691,9.979,19.246c8.066,2.563,16.684-1.902,19.249-9.98C75.88,77.766,71.416,69.15,63.35,66.595z"/>
	<path opacity="0.1" fill="#008A2E" d="M55.258,70.798c-5.598-1.77-11.582,1.324-13.359,6.928
		c-1.777,5.598,1.328,11.578,6.922,13.355c5.604,1.777,11.582-1.324,13.359-6.922C63.957,78.555,60.857,72.576,55.258,70.798z"/>
	<path opacity="0.1" fill="#008A2E" d="M65.941,78.793c-8.211-2.598-16.973,1.941-19.578,10.148
		c-2.604,8.203,1.939,16.969,10.148,19.578c8.207,2.598,16.97-1.941,19.579-10.152C78.692,90.156,74.146,81.398,65.941,78.793z"/>
	<path opacity="0.1" fill="#008A2E" d="M78.446,71.185c-11.442-3.629-23.663,2.698-27.294,14.139
		c-3.627,11.445,2.709,23.66,14.148,27.289c11.438,3.633,23.661-2.703,27.29-14.141C96.224,87.031,89.884,74.809,78.446,71.185z"/>
	<path opacity="0.1" fill="#008A2E" d="M88.583,73.359c-5.539-1.76-11.461,1.305-13.219,6.848
		c-1.758,5.539,1.313,11.461,6.852,13.215s11.461-1.309,13.219-6.848C97.192,81.027,94.122,75.113,88.583,73.359z"/>
	<path opacity="0.1" fill="#008A2E" d="M90.54,67.822c-6.359-2.012-13.145,1.504-15.16,7.862c-2.016,6.352,1.5,13.133,7.859,15.156
		c6.352,2.012,13.141-1.504,15.156-7.855C100.415,76.625,96.892,69.837,90.54,67.822z"/>
	<path opacity="0.1" fill="#008A2E" d="M86.591,69.857c-5.129-1.625-10.613,1.215-12.238,6.346
		c-1.63,5.137,1.215,10.617,6.344,12.242c5.137,1.629,10.613-1.211,12.242-6.344C94.567,76.965,91.731,71.486,86.591,69.857z"/>
	<path opacity="0.1" fill="#008A2E" d="M76.817,76.313c-4.056-1.289-8.394,0.965-9.677,5.02c-1.289,4.059,0.955,8.387,5.016,9.676
		c4.06,1.289,8.388-0.961,9.677-5.02C83.118,81.934,80.872,77.602,76.817,76.313z"/>
	<path opacity="0.1" fill="#008A2E" d="M91.583,69.341c-1.383-4.797,1.805-9.938,7.109-11.461c5.32-1.531,10.75,1.117,12.129,5.914
		c1.387,4.813-1.801,9.944-7.113,11.475S92.966,74.152,91.583,69.341z"/>
	<path opacity="0.1" fill="#008A2E" d="M91.974,75.652c-1.398-4.87-7.969-7.26-14.668-5.327c-6.694,1.926-10.979,7.448-9.577,12.319
		s7.972,7.262,14.667,5.336C89.091,86.047,93.38,80.527,91.974,75.652z"/>
	<path opacity="0.1" fill="#008A2E" d="M91.966,55.822c2.305,8.004-0.957,15.977-7.289,17.795
		c-6.328,1.828-13.335-3.19-15.642-11.19c-2.307-8.004,0.959-15.969,7.29-17.793C82.653,42.806,89.661,47.818,91.966,55.822z"/>
	<path opacity="0.1" fill="#008A2E" d="M94.614,36.787c1.516,5.242-1.508,10.715-6.75,12.223c-5.238,1.512-10.711-1.508-12.227-6.75
		c-1.508-5.242,1.516-10.719,6.758-12.23C87.634,28.517,93.106,31.544,94.614,36.787z"/>
	<path opacity="0.1" fill="#008A2E" d="M94.786,57.576c2.539,8.805-2.543,18.006-11.344,20.538
		c-8.809,2.539-18.005-2.547-20.544-11.342c-2.537-8.809,2.543-18.004,11.349-20.543C83.052,43.689,92.247,48.775,94.786,57.576z"/>
	<path opacity="0.1" fill="#008A2E" d="M65.309,45.517c1.051,3.641-1.057,7.441-4.695,8.492c-3.639,1.043-7.436-1.051-8.484-4.695
		c-1.047-3.633,1.053-7.434,4.691-8.484C60.459,39.787,64.26,41.88,65.309,45.517z"/>
	<path opacity="0.1" fill="#008A2E" d="M68.844,34.513c0.629,2.18-0.635,4.457-2.818,5.09c-2.18,0.629-4.463-0.633-5.09-2.809
		c-0.629-2.184,0.633-4.465,2.814-5.094C65.934,31.072,68.213,32.33,68.844,34.513z"/>
	<path opacity="0.1" fill="#008A2E" d="M86.997,23.712c0.734,2.547-0.742,5.207-3.289,5.938c-2.547,0.734-5.203-0.73-5.938-3.277
		c-0.73-2.547,0.734-5.207,3.281-5.938C83.599,19.701,86.263,21.166,86.997,23.712z"/>
	<path opacity="0.1" fill="#008A2E" d="M81.349,25.912c1.367,4.73,6.305,7.457,11.035,6.094s7.457-6.301,6.098-11.031
		c-1.363-4.73-6.305-7.461-11.039-6.102C82.716,16.244,79.985,21.181,81.349,25.912z"/>
	<path opacity="0.1" fill="#008A2E" d="M108.712,62.916c-1.168-4.043,1.168-8.262,5.203-9.426c4.043-1.164,8.262,1.164,9.426,5.203
		c1.164,4.043-1.172,8.266-5.211,9.426C114.091,69.283,109.872,66.958,108.712,62.916z"/>
	<path opacity="0.1" fill="#008A2E" d="M113.286,37.685c-0.586-2.039,0.586-4.168,2.629-4.754c2.031-0.586,4.164,0.59,4.754,2.629
		c0.586,2.043-0.594,4.168-2.625,4.75C116.005,40.904,113.872,39.728,113.286,37.685z"/>
	<path opacity="0.1" fill="#008A2E" d="M125.849,53.298c-0.688-2.387,0.695-4.871,3.074-5.563c2.383-0.68,4.871,0.691,5.559,3.074
		s-0.688,4.871-3.07,5.559C129.028,57.06,126.536,55.681,125.849,53.298z"/>
	<path opacity="0.1" fill="#008A2E" d="M111.122,79.695c-0.586-2.043,0.594-4.168,2.625-4.75c2.039-0.594,4.164,0.582,4.758,2.625
		c0.586,2.043-0.586,4.168-2.625,4.754C113.841,82.918,111.716,81.738,111.122,79.695z"/>
	<path opacity="0.1" fill="#008A2E" d="M87.31,94.125c-0.734-2.547,0.734-5.211,3.281-5.945c2.547-0.73,5.211,0.742,5.945,3.289
		s-0.742,5.203-3.289,5.938C90.7,98.137,88.04,96.672,87.31,94.125z"/>
	<path opacity="0.1" fill="#008A2E" d="M80.552,71.029c-1.281-4.465-5.938-7.035-10.396-5.754
		c-4.457,1.289-7.029,5.945-5.744,10.401c1.285,4.457,5.938,7.027,10.397,5.746C79.263,80.133,81.837,75.477,80.552,71.029z"/>
	<path opacity="0.1" fill="#008A2E" d="M60.699,49.099c-1.684-5.84-7.785-9.215-13.623-7.527c-5.84,1.68-9.209,7.781-7.525,13.621
		c1.682,5.84,7.781,9.211,13.619,7.523C59.012,61.033,62.383,54.939,60.699,49.099z"/>
	<path opacity="0.1" fill="#008A2E" d="M78.173,19.841c1.129,3.926-1.137,8.027-5.066,9.156c-3.931,1.133-8.036-1.129-9.169-5.055
		c-1.133-3.938,1.137-8.039,5.064-9.172C72.935,13.638,77.036,15.904,78.173,19.841z"/>
	<path opacity="0.1" fill="#008A2E" d="M93.161,51.052c1.027,3.563,4.75,5.629,8.32,4.598c3.563-1.027,5.625-4.758,4.594-8.32
		c-1.023-3.559-4.75-5.625-8.32-4.598C94.188,43.763,92.138,47.486,93.161,51.052z"/>
	<path opacity="0.1" fill="#008A2E" d="M104.005,46.576c0.742,2.574,3.438,4.07,6.023,3.332c2.586-0.75,4.078-3.449,3.332-6.035
		c-0.746-2.582-3.445-4.07-6.027-3.332C104.747,41.291,103.255,43.99,104.005,46.576z"/>
	<path opacity="0.1" fill="#008A2E" d="M93.606,35.759c1.117,3.871,5.164,6.105,9.039,4.988c3.875-1.109,6.109-5.16,4.996-9.031
		c-1.121-3.879-5.168-6.113-9.039-4.996C94.724,27.837,92.489,31.888,93.606,35.759z"/>
	<path opacity="0.1" fill="#008A2E" d="M93.067,33.455c1.691,5.871,7.813,9.258,13.68,7.566c5.859-1.695,9.246-7.816,7.555-13.68
		c-1.688-5.863-7.813-9.246-13.676-7.559C94.759,21.478,91.38,27.599,93.067,33.455z"/>
	<path opacity="0.1" fill="#008A2E" d="M110.778,55.009c0.676,2.344,3.125,3.699,5.48,3.027c2.348-0.684,3.699-3.133,3.027-5.488
		c-0.68-2.344-3.133-3.699-5.484-3.027C111.454,50.205,110.099,52.662,110.778,55.009z"/>
	<path opacity="0.1" fill="#008A2E" d="M97.286,81.191c0.594,2.066,2.758,3.273,4.836,2.672c2.07-0.598,3.266-2.77,2.668-4.84
		c-0.598-2.074-2.762-3.273-4.832-2.672C97.88,76.949,96.685,79.113,97.286,81.191z"/>
	<path opacity="0.1" fill="#008A2E" d="M83.899,73.598c0.918,3.184,4.242,5.02,7.426,4.102c3.18-0.914,5.012-4.242,4.098-7.417
		c-0.918-3.184-4.242-5.023-7.422-4.102C84.817,67.099,82.981,70.423,83.899,73.598z"/>
	<path opacity="0.1" fill="#008A2E" d="M90.731,56.119c1,3.473,4.621,5.465,8.086,4.473c3.469-1.008,5.469-4.613,4.469-8.086
		c-1-3.465-4.617-5.465-8.086-4.465C91.735,49.033,89.731,52.654,90.731,56.119z"/>
	<path opacity="0.1" fill="#008A2E" d="M81.388,54.392c1.648,5.715,7.625,9.02,13.344,7.367c5.719-1.645,9.027-7.617,7.379-13.34
		c-1.652-5.715-7.629-9.02-13.348-7.375C83.04,42.697,79.739,48.669,81.388,54.392z"/>
	<path opacity="0.1" fill="#008A2E" d="M70.189,55.533c1.34,4.656,6.21,7.344,10.866,6.004s7.344-6.211,6-10.867
		s-6.203-7.344-10.863-5.996C71.537,46.013,68.846,50.869,70.189,55.533z"/>
	<path opacity="0.1" fill="#008A2E" d="M61.883,54.697c1.441,4.988,6.656,7.879,11.653,6.434c4.992-1.438,7.875-6.656,6.438-11.645
		c-1.438-5-6.656-7.879-11.653-6.434C63.328,44.486,60.447,49.701,61.883,54.697z"/>
	<path opacity="0.1" fill="#008A2E" d="M64.008,43.955c1.492,5.168,6.883,8.145,12.052,6.656c5.164-1.488,8.141-6.879,6.648-12.047
		c-1.484-5.168-6.875-8.145-12.044-6.656C65.5,33.396,62.52,38.787,64.008,43.955z"/>
	<path opacity="0.1" fill="#008A2E" d="M80.224,50.041c1.34,4.648,6.188,7.328,10.828,5.988c4.648-1.34,7.328-6.188,5.988-10.832
		c-1.34-4.648-6.184-7.328-10.832-5.988C81.563,40.548,78.88,45.4,80.224,50.041z"/>
	<path opacity="0.1" fill="#008A2E" d="M97.927,54.384c0.641,2.207,2.938,3.473,5.148,2.844c2.203-0.637,3.477-2.938,2.836-5.145
		c-0.633-2.207-2.938-3.473-5.141-2.844C98.567,49.876,97.294,52.181,97.927,54.384z"/>
	<path opacity="0.1" fill="#008A2E" d="M100.978,61.337c1.191,4.137,5.516,6.531,9.652,5.336c4.141-1.191,6.531-5.52,5.332-9.66
		c-1.191-4.129-5.512-6.523-9.652-5.328C102.177,52.876,99.786,57.201,100.978,61.337z"/>
	<path opacity="0.1" fill="#008A2E" d="M105.075,58.701c1.633,5.672,7.563,8.953,13.234,7.316c5.68-1.637,8.953-7.566,7.32-13.246
		c-1.641-5.672-7.57-8.949-13.242-7.313C106.708,47.095,103.435,53.025,105.075,58.701z"/>
	<path opacity="0.1" fill="#008A2E" d="M108.739,56.568c1.672,5.793,7.723,9.145,13.516,7.473c5.797-1.676,9.141-7.73,7.469-13.52
		c-1.672-5.797-7.719-9.137-13.516-7.469C110.411,44.724,107.067,50.771,108.739,56.568z"/>
	<path opacity="0.1" fill="#008A2E" d="M106.044,34.353c1.555,5.383,7.18,8.492,12.563,6.938c5.391-1.547,8.492-7.176,6.938-12.566
		c-1.547-5.379-7.172-8.484-12.555-6.938C107.606,23.345,104.489,28.962,106.044,34.353z"/>
	<path opacity="0.1" fill="#008A2E" d="M89.849,39.166c1.883,6.52,8.688,10.281,15.211,8.402c6.523-1.883,10.285-8.684,8.406-15.215
		c-1.879-6.516-8.688-10.277-15.211-8.395C91.735,25.837,87.97,32.65,89.849,39.166z"/>
	<path opacity="0.1" fill="#008A2E" d="M80.575,41.548c1.617,5.613,7.465,8.84,13.074,7.219c5.598-1.613,8.836-7.457,7.215-13.066
		c-1.609-5.605-7.461-8.84-13.07-7.227C82.192,30.087,78.958,35.943,80.575,41.548z"/>
	<path opacity="0.1" fill="#008A2E" d="M69.309,42.087c1.219,4.215,5.626,6.648,9.849,5.434c4.223-1.211,6.66-5.625,5.441-9.844
		c-1.219-4.223-5.625-6.656-9.848-5.441C70.527,33.451,68.092,37.861,69.309,42.087z"/>
	<path opacity="0.1" fill="#008A2E" d="M61.195,40.986c1.34,4.648,6.193,7.32,10.832,5.988c4.649-1.34,7.329-6.188,5.989-10.836
		c-1.336-4.645-6.192-7.324-10.835-5.984S59.859,36.345,61.195,40.986z"/>
	<path opacity="0.1" fill="#008A2E" d="M57.176,47.353c1.279,4.441,5.91,6.996,10.346,5.715c4.436-1.273,6.999-5.902,5.718-10.344
		c-1.274-4.434-5.911-6.996-10.345-5.715C58.455,38.283,55.898,42.923,57.176,47.353z"/>
	<path opacity="0.1" fill="#008A2E" d="M63.693,56.267c1.174,4.07,5.432,6.418,9.507,5.25c4.078-1.18,6.426-5.43,5.25-9.508
		c-1.172-4.078-5.43-6.426-9.503-5.25C64.871,47.931,62.518,52.185,63.693,56.267z"/>
	<path opacity="0.1" fill="#008A2E" d="M77.138,58.896c1,3.457,4.609,5.453,8.07,4.457c3.461-1,5.461-4.613,4.465-8.07
		c-1-3.465-4.613-5.465-8.074-4.465S76.138,55.431,77.138,58.896z"/>
	<path opacity="0.1" fill="#008A2E" d="M80.122,67.224c0.801,2.77,3.688,4.359,6.453,3.559c2.77-0.789,4.363-3.68,3.563-6.445
		c-0.793-2.762-3.68-4.355-6.445-3.563C80.927,61.576,79.325,64.462,80.122,67.224z"/>
	<path opacity="0.1" fill="#008A2E" d="M89.255,67.919c0.305,1.066,1.426,1.688,2.5,1.375c1.07-0.309,1.688-1.426,1.379-2.492
		c-0.309-1.074-1.426-1.695-2.496-1.387C89.56,65.728,88.942,66.845,89.255,67.919z"/>
	<path opacity="0.1" fill="#008A2E" d="M86.2,74.418c0.512,1.793,2.383,2.82,4.18,2.301c1.789-0.508,2.828-2.383,2.313-4.174
		c-0.516-1.79-2.395-2.833-4.188-2.317C86.712,70.748,85.677,72.627,86.2,74.418z"/>
	<path opacity="0.1" fill="#008A2E" d="M88.677,80.547c0.582,2.023,2.684,3.184,4.695,2.598c2.02-0.574,3.18-2.68,2.602-4.699
		c-0.582-2.016-2.684-3.168-4.703-2.59C89.259,76.438,88.099,78.535,88.677,80.547z"/>
	<path opacity="0.1" fill="#008A2E" d="M95.45,79.977c0.254,0.891,1.18,1.398,2.066,1.148c0.887-0.258,1.402-1.184,1.145-2.074
		c-0.258-0.887-1.18-1.398-2.07-1.145C95.704,78.164,95.188,79.09,95.45,79.977z"/>
	<path opacity="0.1" fill="#008A2E" d="M95.497,89.586c1.164,4.02,5.359,6.34,9.379,5.184c4.016-1.164,6.34-5.359,5.18-9.379
		s-5.355-6.34-9.379-5.176C96.661,81.371,94.341,85.566,95.497,89.586z"/>
	<path opacity="0.1" fill="#008A2E" d="M102.794,78.535c0.883,3.055,4.078,4.82,7.133,3.938s4.82-4.07,3.938-7.129
		c-0.883-3.064-4.07-4.819-7.133-3.944C103.681,72.279,101.915,75.469,102.794,78.535z"/>
	<path opacity="0.1" fill="#008A2E" d="M106.771,71.533c0.969,3.342,4.465,5.284,7.813,4.315c3.344-0.965,5.277-4.463,4.313-7.811
		c-0.969-3.344-4.461-5.277-7.809-4.316C107.739,64.685,105.81,68.185,106.771,71.533z"/>
	<path opacity="0.1" fill="#008A2E" d="M110.771,68.939c0.973,3.372,4.496,5.315,7.875,4.346c3.375-0.967,5.316-4.499,4.344-7.87
		c-0.969-3.375-4.492-5.32-7.871-4.352C111.743,62.041,109.802,65.564,110.771,68.939z"/>
	<path opacity="0.1" fill="#008A2E" d="M96.411,71.259c0.953,3.284,4.383,5.178,7.672,4.233c3.285-0.949,5.18-4.381,4.234-7.67
		c-0.949-3.277-4.375-5.176-7.664-4.227C97.368,64.544,95.466,67.97,96.411,71.259z"/>
	<path opacity="0.1" fill="#008A2E" d="M83.974,80.57c0.813,2.813,3.742,4.434,6.559,3.621c2.813-0.809,4.438-3.746,3.629-6.555
		c-0.816-2.82-3.75-4.434-6.563-3.625C84.786,74.824,83.161,77.758,83.974,80.57z"/>
	<path opacity="0.1" fill="#008A2E" d="M81.61,81.348c0.59,2.043,2.723,3.219,4.766,2.637c2.043-0.594,3.215-2.727,2.629-4.77
		c-0.59-2.043-2.719-3.219-4.762-2.637C82.2,77.172,81.021,79.305,81.61,81.348z"/>
	<path opacity="0.1" fill="#008A2E" d="M79.063,86.672c0.691,2.391,3.188,3.773,5.582,3.086c2.391-0.688,3.766-3.191,3.078-5.582
		s-3.188-3.77-5.578-3.082C79.755,81.793,78.376,84.277,79.063,86.672z"/>
	<path opacity="0.1" fill="#008A2E" d="M77.286,91.055c0.57,1.961,2.625,3.102,4.594,2.531c1.977-0.563,3.109-2.629,2.547-4.59
		c-0.57-1.969-2.633-3.109-4.602-2.539C77.856,87.02,76.724,89.082,77.286,91.055z"/>
	<path opacity="0.1" fill="#008A2E" d="M81.556,92.461c0.836,2.895,3.863,4.559,6.754,3.73c2.898-0.836,4.57-3.863,3.734-6.758
		s-3.859-4.563-6.754-3.734C82.392,86.539,80.724,89.566,81.556,92.461z"/>
	<path opacity="0.1" fill="#008A2E" d="M80.591,98.414c1.23,4.262,5.672,6.715,9.93,5.492c4.262-1.23,6.719-5.68,5.492-9.938
		c-1.227-4.254-5.68-6.707-9.934-5.484C81.821,89.715,79.368,94.164,80.591,98.414z"/>
	<path opacity="0.1" fill="#008A2E" d="M71.049,90.625c0.326,1.133,1.514,1.789,2.651,1.465c1.137-0.332,1.789-1.52,1.461-2.652
		c-0.328-1.137-1.508-1.789-2.646-1.465C71.379,88.301,70.723,89.484,71.049,90.625z"/>
	<path opacity="0.1" fill="#008A2E" d="M70.568,64.357c1.002,3.488,4.647,5.5,8.14,4.496c3.492-1,5.508-4.652,4.5-8.137
		c-1.004-3.496-4.648-5.508-8.141-4.504C71.574,57.22,69.561,60.865,70.568,64.357z"/>
	<path opacity="0.1" fill="#008A2E" d="M67.254,58.716c0.818,2.844,3.783,4.473,6.618,3.656c2.844-0.82,4.484-3.781,3.664-6.617
		c-0.813-2.836-3.781-4.48-6.624-3.664C68.072,52.912,66.438,55.88,67.254,58.716z"/>
	<path opacity="0.1" fill="#008A2E" d="M61.42,45.419c0.867,3.02,4.021,4.762,7.037,3.895c3.018-0.875,4.759-4.027,3.887-7.039
		c-0.865-3.016-4.02-4.762-7.035-3.887C62.291,39.251,60.551,42.408,61.42,45.419z"/>
	<path opacity="0.1" fill="#008A2E" d="M54.988,39.763c0.813,2.82,3.764,4.457,6.592,3.645c2.824-0.816,4.457-3.77,3.643-6.59
		c-0.814-2.828-3.766-4.457-6.59-3.645C55.805,33.99,54.174,36.943,54.988,39.763z"/>
	<path opacity="0.1" fill="#008A2E" d="M45.84,37.275c1.193,4.141,5.516,6.531,9.658,5.34s6.533-5.523,5.342-9.66
		c-1.195-4.141-5.52-6.531-9.666-5.34C47.035,28.814,44.645,33.138,45.84,37.275z"/>
	<path opacity="0.1" fill="#008A2E" d="M53.551,29.916c0.777,2.688,3.58,4.238,6.271,3.465c2.684-0.777,4.238-3.582,3.461-6.27
		c-0.773-2.688-3.584-4.242-6.268-3.465C54.328,24.423,52.777,27.224,53.551,29.916z"/>
	<path opacity="0.1" fill="#008A2E" d="M58.24,38.462c1.455,5.047,6.727,7.957,11.771,6.5c5.052-1.453,7.962-6.723,6.505-11.766
		c-1.453-5.047-6.722-7.965-11.772-6.508C59.699,28.142,56.787,33.412,58.24,38.462z"/>
	<path opacity="0.1" fill="#008A2E" d="M62.498,46.591c1.818,6.293,8.381,9.918,14.671,8.105c6.289-1.813,9.922-8.375,8.109-14.672
		c-1.816-6.289-8.383-9.906-14.673-8.102C64.316,33.736,60.688,40.306,62.498,46.591z"/>
	<path opacity="0.1" fill="#008A2E" d="M68.059,46.658c1.836,6.367,8.489,10.039,14.853,8.203
		c6.367-1.836,10.047-8.484,8.211-14.852s-8.492-10.047-14.855-8.211C69.898,33.634,66.223,40.291,68.059,46.658z"/>
	<path opacity="0.1" fill="#008A2E" d="M71.168,29.873c1.516,5.25,6.997,8.27,12.251,6.762c5.25-1.512,8.281-7,6.77-12.246
		c-1.516-5.25-7-8.285-12.25-6.77C72.684,19.13,69.654,24.615,71.168,29.873z"/>
	<path opacity="0.1" fill="#008A2E" d="M72.637,27.376c2.22,7.703,10.255,12.145,17.946,9.922
		c7.695-2.215,12.133-10.254,9.918-17.945S90.247,7.22,82.556,9.439C74.856,11.654,70.424,19.693,72.637,27.376z"/>
	<path opacity="0.1" fill="#008A2E" d="M76.411,24.291c1.711,5.938,7.914,9.367,13.859,7.656s9.375-7.922,7.664-13.859
		c-1.719-5.945-7.922-9.375-13.859-7.664C78.13,12.142,74.696,18.345,76.411,24.291z"/>
	<path opacity="0.1" fill="#008A2E" d="M87.919,38.115c0.711,2.465,3.273,3.879,5.734,3.176c2.461-0.711,3.879-3.281,3.168-5.738
		c-0.711-2.465-3.277-3.879-5.738-3.168C88.626,33.087,87.208,35.654,87.919,38.115z"/>
	<path opacity="0.1" fill="#008A2E" d="M84.794,57.345c2.277,7.91,10.535,12.469,18.445,10.188
		c7.914-2.277,12.473-10.535,10.195-18.441c-2.281-7.906-10.539-12.48-18.449-10.199C87.075,41.169,82.513,49.439,84.794,57.345z"/>
	<path opacity="0.1" fill="#008A2E" d="M87.255,59.255c2.367,8.227,10.953,12.973,19.176,10.602
		c8.223-2.367,12.973-10.957,10.598-19.18c-2.367-8.227-10.957-12.973-19.18-10.602C89.626,42.451,84.88,51.033,87.255,59.255z"/>
	<path opacity="0.1" fill="#008A2E" d="M87.556,65.771c2.449,8.499,11.332,13.409,19.832,10.956
		c8.504-2.449,13.41-11.323,10.961-19.823c-2.453-8.508-11.328-13.414-19.836-10.965C90.013,48.388,85.106,57.275,87.556,65.771z"/>
	<path opacity="0.1" fill="#008A2E" d="M88.849,66.513c2.508,8.698,11.594,13.717,20.289,11.206
		c8.703-2.508,13.719-11.592,11.215-20.292c-2.512-8.699-11.594-13.719-20.289-11.207C91.36,48.728,86.341,57.814,88.849,66.513z"/>
	<path opacity="0.1" fill="#008A2E" d="M87.95,68.31c3.012,10.44,13.922,16.471,24.375,13.459
		c10.445-3.012,16.469-13.924,13.461-24.362c-3.008-10.453-13.922-16.48-24.367-13.477C90.97,46.947,84.942,57.857,87.95,68.31z"/>
	<path opacity="0.1" fill="#008A2E" d="M85.731,68.845c3.324,11.534,15.383,18.194,26.926,14.87s18.207-15.381,14.879-26.924
		c-3.328-11.539-15.383-18.211-26.93-14.879C89.067,45.236,82.403,57.294,85.731,68.845z"/>
	<path opacity="0.1" fill="#008A2E" d="M90.794,54.232c2.594,9.008,12,14.199,21.008,11.598c9.008-2.59,14.203-11.992,11.605-21
		c-2.598-9.004-11.996-14.203-21.004-11.602C93.396,35.818,88.2,45.228,90.794,54.232z"/>
	<path opacity="0.1" fill="#008A2E" d="M84.208,43.103c2.453,8.535,11.375,13.465,19.914,11.008
		c8.543-2.465,13.469-11.387,11.012-19.922c-2.465-8.543-11.383-13.473-19.922-11.008C86.669,25.638,81.739,34.56,84.208,43.103z"/>
	<path opacity="0.1" fill="#008A2E" d="M65.164,51.462c2.15,7.453,9.938,11.762,17.396,9.609c7.465-2.148,11.77-9.945,9.617-17.398
		c-2.148-7.457-9.938-11.766-17.398-9.609C67.318,36.208,63.012,43.998,65.164,51.462z"/>
	<path opacity="0.1" fill="#008A2E" d="M61.461,36.15c1.904,6.598,8.797,10.41,15.396,8.508c6.605-1.902,10.41-8.797,8.508-15.398
		c-1.902-6.605-8.789-10.41-15.396-8.508C63.367,22.654,59.559,29.548,61.461,36.15z"/>
	<path opacity="0.1" fill="#008A2E" d="M72.387,73.02c1.704,5.914,7.888,9.328,13.806,7.625c5.914-1.711,9.336-7.887,7.625-13.807
		c-1.703-5.914-7.883-9.336-13.805-7.625C74.099,60.916,70.68,67.099,72.387,73.02z"/>
	<path opacity="0.1" fill="#008A2E" d="M68.576,84.492c1.559,5.414,7.218,8.547,12.632,6.992c5.414-1.563,8.535-7.227,6.977-12.641
		c-1.563-5.418-7.215-8.542-12.633-6.979C70.139,73.426,67.014,79.082,68.576,84.492z"/>
	<path opacity="0.1" fill="#008A2E" d="M71.6,94.984c1.671,5.805,7.718,9.145,13.515,7.469c5.797-1.664,9.141-7.715,7.473-13.516
		c-1.676-5.797-7.727-9.137-13.52-7.465C73.271,83.141,69.928,89.188,71.6,94.984z"/>
	<path opacity="0.1" fill="#008A2E" d="M83.271,85.457c2.344,8.121,10.82,12.801,18.938,10.461
		c8.113-2.332,12.797-10.809,10.457-18.93c-2.34-8.116-10.816-12.792-18.926-10.456C85.622,68.873,80.935,77.344,83.271,85.457z"/>
	<path opacity="0.1" fill="#008A2E" d="M75.161,75.305c2.344,8.137,10.84,12.832,18.977,10.492
		c8.137-2.348,12.828-10.848,10.484-18.979c-2.344-8.129-10.836-12.824-18.977-10.477C77.513,58.681,72.816,67.177,75.161,75.305z"
		/>
	<path opacity="0.1" fill="#008A2E" d="M83.153,79.711c1.625,5.641,7.523,8.898,13.168,7.27c5.648-1.629,8.902-7.52,7.277-13.164
		c-1.629-5.647-7.523-8.905-13.172-7.276C84.786,68.169,81.528,74.063,83.153,79.711z"/>
	<path opacity="0.1" fill="#008A2E" d="M83.88,66.388c2.391,8.268,11.023,13.042,19.301,10.659
		c8.273-2.383,13.043-11.022,10.66-19.292c-2.383-8.277-11.023-13.055-19.297-10.668C86.271,49.47,81.497,58.111,83.88,66.388z"/>
	<path opacity="0.1" fill="#008A2E" d="M70.609,60.205c3.325,11.527,15.372,18.19,26.903,14.866
		c11.535-3.323,18.191-15.377,14.867-26.905c-3.324-11.531-15.367-18.195-26.906-14.871C73.942,36.619,67.287,48.669,70.609,60.205z
		"/>
	<path opacity="0.1" fill="#008A2E" d="M66.799,50.556c1.611,5.59,7.448,8.813,13.034,7.207c5.586-1.617,8.805-7.449,7.195-13.031
		c-1.609-5.59-7.441-8.809-13.027-7.203C68.41,39.142,65.189,44.974,66.799,50.556z"/>
	<path opacity="0.1" fill="#008A2E" d="M61.105,52.001c1.848,6.41,8.541,10.105,14.946,8.254c6.41-1.844,10.105-8.535,8.258-14.945
		c-1.844-6.398-8.539-10.105-14.944-8.254C62.957,38.896,59.264,45.599,61.105,52.001z"/>
	<path opacity="0.1" fill="#008A2E" d="M64.992,54.158c1.488,5.164,6.895,8.156,12.067,6.668c5.18-1.496,8.16-6.898,6.672-12.074
		c-1.492-5.176-6.898-8.16-12.071-6.664C66.484,43.576,63.498,48.974,64.992,54.158z"/>
	<path opacity="0.1" fill="#008A2E" d="M75.786,58.708c1.18,4.094,5.453,6.449,9.539,5.273c4.094-1.18,6.453-5.449,5.273-9.535
		c-1.18-4.098-5.449-6.457-9.539-5.273C76.97,50.349,74.606,54.623,75.786,58.708z"/>
</g>
</svg>
