<?xml version="1.0" encoding="utf-8"?>
<!-- Generator: Adobe Illustrator 14.0.0, SVG Export Plug-In . SVG Version: 6.00 Build 43363)  -->
<!DOCTYPE svg PUBLIC "-//W3C//DTD SVG 1.1//EN" "http://www.w3.org/Graphics/SVG/1.1/DTD/svg11.dtd">
<svg version="1.1" id="Calque_1" xmlns="http://www.w3.org/2000/svg" xmlns:xlink="http://www.w3.org/1999/xlink" x="0px" y="0px"
	 width="23px" height="23px" viewBox="0 0 23 23" enable-background="new 0 0 23 23" xml:space="preserve">
<g>
	<linearGradient id="SVGID_1_" gradientUnits="userSpaceOnUse" x1="1.0117" y1="11.5005" x2="22.584" y2="11.5005">
		<stop  offset="0" style="stop-color:#E1001A"/>
		<stop  offset="1" style="stop-color:#220504"/>
	</linearGradient>
	<path fill="url(#SVGID_1_)" stroke="#FFFFFF" d="M11.873,4.191c2.513-2.512,6.802-2.844,9.358-0.287
		c2.558,2.557,0.948,7.072-0.425,9.11c-1.814,2.693-9.145,7.891-9.145,7.891s-7.782-5.107-9.453-7.973
		C0.973,10.81,0.122,6.334,2.634,3.822C5.146,1.31,9.316,1.634,11.873,4.191z"/>
	
		<radialGradient id="SVGID_2_" cx="11.7979" cy="11.5005" r="10.1186" gradientTransform="matrix(-4.371139e-008 -1 1.3 -5.682480e-008 -3.1526 23.2984)" gradientUnits="userSpaceOnUse">
		<stop  offset="0" style="stop-color:#E1001A"/>
		<stop  offset="0.1223" style="stop-color:#C30117"/>
		<stop  offset="0.4204" style="stop-color:#7E030F"/>
		<stop  offset="0.67" style="stop-color:#4C0409"/>
		<stop  offset="0.8583" style="stop-color:#2E0505"/>
		<stop  offset="0.9636" style="stop-color:#220504"/>
	</radialGradient>
	<path opacity="0.6" fill="url(#SVGID_2_)" stroke="#FFFFFF" d="M11.873,4.191c2.513-2.512,6.802-2.844,9.358-0.287
		c2.558,2.557,0.948,7.072-0.425,9.11c-1.814,2.693-9.145,7.891-9.145,7.891s-7.782-5.107-9.453-7.973
		C0.973,10.81,0.122,6.334,2.634,3.822C5.146,1.31,9.316,1.634,11.873,4.191z"/>
	
		<radialGradient id="SVGID_3_" cx="5.7134" cy="8.0811" r="5.9209" gradientTransform="matrix(0.5 -0.866 0.433 0.25 -0.6426 11.0087)" gradientUnits="userSpaceOnUse">
		<stop  offset="0" style="stop-color:#FFFFFF"/>
		<stop  offset="0.1373" style="stop-color:#EBDBDC;stop-opacity:0.8297"/>
		<stop  offset="0.4434" style="stop-color:#B78182;stop-opacity:0.4499"/>
		<stop  offset="0.8061" style="stop-color:#750E10;stop-opacity:0"/>
	</radialGradient>
	<path opacity="0.6" fill="url(#SVGID_3_)" d="M5.011,2.56C5.333,2.535,5.66,2.521,5.983,2.468c0.984-0.164,2.369-0.061,3.198,0.555
		c0.938,0.696,1.448,1.82,1.943,2.821c0.572,1.16,1.293,2.894,0.068,3.899c-1.08,0.886-2.188,1.793-3.341,2.597
		c-1.042,0.727-1.947,1.217-3.204,1.359c-1.225,0.141-3.705,0.158-4.44-1.074c-0.436-0.729-0.667-1.419-0.644-2.26
		c0.057-2.004-0.149-5.243,1.973-6.389C1.923,3.768,2.404,3.661,2.81,3.473c0.541-0.251,1.011-0.725,1.609-0.84
		C4.614,2.596,4.812,2.576,5.011,2.56z"/>
</g>
</svg>
