<?xml version="1.0" encoding="utf-8"?>
<!-- Generator: Adobe Illustrator 14.0.0, SVG Export Plug-In . SVG Version: 6.00 Build 43363)  -->
<!DOCTYPE svg PUBLIC "-//W3C//DTD SVG 1.1//EN" "http://www.w3.org/Graphics/SVG/1.1/DTD/svg11.dtd" [
	<!ENTITY ns_extend "http://ns.adobe.com/Extensibility/1.0/">
	<!ENTITY ns_ai "http://ns.adobe.com/AdobeIllustrator/10.0/">
	<!ENTITY ns_graphs "http://ns.adobe.com/Graphs/1.0/">
	<!ENTITY ns_vars "http://ns.adobe.com/Variables/1.0/">
	<!ENTITY ns_imrep "http://ns.adobe.com/ImageReplacement/1.0/">
	<!ENTITY ns_sfw "http://ns.adobe.com/SaveForWeb/1.0/">
	<!ENTITY ns_custom "http://ns.adobe.com/GenericCustomNamespace/1.0/">
	<!ENTITY ns_adobe_xpath "http://ns.adobe.com/XPath/1.0/">
]>
<svg version="1.1" xmlns:x="&ns_extend;" xmlns:i="&ns_ai;" xmlns:graph="&ns_graphs;"
	 xmlns="http://www.w3.org/2000/svg" xmlns:xlink="http://www.w3.org/1999/xlink" x="0px" y="0px" width="390px" height="220px"
	 viewBox="0 0 390 220" enable-background="new 0 0 390 220" xml:space="preserve">
<metadata>
	<sfw  xmlns="&ns_sfw;">
		<slices></slices>
		<sliceSourceBounds  height="692.008" width="780.258" x="348.32" y="68.942" bottomLeftOrigin="true"></sliceSourceBounds>
	</sfw>
</metadata>
<pattern  x="-750.667" y="304.002" width="72" height="72" patternUnits="userSpaceOnUse" id="USGS_19_Land_Inundation" viewBox="17.32 -73.15 72 72" overflow="visible">
	<g>
		<polygon fill="none" points="17.32,-1.149 17.32,-73.149 89.32,-73.149 89.32,-1.149 		"/>
		<line fill="none" stroke="#272525" stroke-width="0.3" stroke-dasharray="2,2" x1="16.32" y1="-2.149" x2="89.76" y2="-2.149"/>
		<line fill="none" stroke="#272525" stroke-width="0.3" stroke-dasharray="2,2" x1="16.32" y1="-6.149" x2="89.76" y2="-6.149"/>
		<line fill="none" stroke="#272525" stroke-width="0.3" stroke-dasharray="2,2" x1="16.32" y1="-10.149" x2="89.76" y2="-10.149"/>
		<line fill="none" stroke="#272525" stroke-width="0.3" stroke-dasharray="2,2" x1="16.32" y1="-14.149" x2="89.76" y2="-14.149"/>
		<line fill="none" stroke="#272525" stroke-width="0.3" stroke-dasharray="2,2" x1="16.32" y1="-18.149" x2="89.76" y2="-18.149"/>
		<line fill="none" stroke="#272525" stroke-width="0.3" stroke-dasharray="2,2" x1="16.32" y1="-22.149" x2="89.76" y2="-22.149"/>
		<line fill="none" stroke="#272525" stroke-width="0.3" stroke-dasharray="2,2" x1="16.32" y1="-26.149" x2="89.76" y2="-26.149"/>
		<line fill="none" stroke="#272525" stroke-width="0.3" stroke-dasharray="2,2" x1="16.32" y1="-30.149" x2="89.76" y2="-30.149"/>
		<line fill="none" stroke="#272525" stroke-width="0.3" stroke-dasharray="2,2" x1="16.32" y1="-34.149" x2="89.76" y2="-34.149"/>
		<line fill="none" stroke="#272525" stroke-width="0.3" stroke-dasharray="2,2" x1="16.32" y1="-38.149" x2="89.76" y2="-38.149"/>
		<line fill="none" stroke="#272525" stroke-width="0.3" stroke-dasharray="2,2" x1="16.32" y1="-42.149" x2="89.76" y2="-42.149"/>
		<line fill="none" stroke="#272525" stroke-width="0.3" stroke-dasharray="2,2" x1="16.32" y1="-46.149" x2="89.76" y2="-46.149"/>
		<line fill="none" stroke="#272525" stroke-width="0.3" stroke-dasharray="2,2" x1="16.32" y1="-50.149" x2="89.76" y2="-50.149"/>
		<line fill="none" stroke="#272525" stroke-width="0.3" stroke-dasharray="2,2" x1="16.32" y1="-54.149" x2="89.76" y2="-54.149"/>
		<line fill="none" stroke="#272525" stroke-width="0.3" stroke-dasharray="2,2" x1="16.32" y1="-58.149" x2="89.76" y2="-58.149"/>
		<line fill="none" stroke="#272525" stroke-width="0.3" stroke-dasharray="2,2" x1="16.32" y1="-62.149" x2="89.76" y2="-62.149"/>
		<line fill="none" stroke="#272525" stroke-width="0.3" stroke-dasharray="2,2" x1="16.32" y1="-66.149" x2="89.76" y2="-66.149"/>
		<line fill="none" stroke="#272525" stroke-width="0.3" stroke-dasharray="2,2" x1="16.32" y1="-70.149" x2="89.76" y2="-70.149"/>
		<line fill="none" stroke="#272525" stroke-width="0.3" stroke-dasharray="2,2" x1="16.32" y1="-74.149" x2="89.76" y2="-74.149"/>
		<line fill="none" stroke="#272525" stroke-width="0.3" stroke-dasharray="2,2" x1="18.36" y1="-0.149" x2="91.8" y2="-0.149"/>
		<line fill="none" stroke="#272525" stroke-width="0.3" stroke-dasharray="2,2" x1="18.36" y1="-4.149" x2="91.8" y2="-4.149"/>
		<line fill="none" stroke="#272525" stroke-width="0.3" stroke-dasharray="2,2" x1="18.36" y1="-8.149" x2="91.8" y2="-8.149"/>
		<line fill="none" stroke="#272525" stroke-width="0.3" stroke-dasharray="2,2" x1="18.36" y1="-12.149" x2="91.8" y2="-12.149"/>
		<line fill="none" stroke="#272525" stroke-width="0.3" stroke-dasharray="2,2" x1="18.36" y1="-16.149" x2="91.8" y2="-16.149"/>
		<line fill="none" stroke="#272525" stroke-width="0.3" stroke-dasharray="2,2" x1="18.36" y1="-20.149" x2="91.8" y2="-20.149"/>
		<line fill="none" stroke="#272525" stroke-width="0.3" stroke-dasharray="2,2" x1="18.36" y1="-24.149" x2="91.8" y2="-24.149"/>
		<line fill="none" stroke="#272525" stroke-width="0.3" stroke-dasharray="2,2" x1="18.36" y1="-28.149" x2="91.8" y2="-28.149"/>
		<line fill="none" stroke="#272525" stroke-width="0.3" stroke-dasharray="2,2" x1="18.36" y1="-32.149" x2="91.8" y2="-32.149"/>
		<line fill="none" stroke="#272525" stroke-width="0.3" stroke-dasharray="2,2" x1="18.36" y1="-36.149" x2="91.8" y2="-36.149"/>
		<line fill="none" stroke="#272525" stroke-width="0.3" stroke-dasharray="2,2" x1="18.36" y1="-40.149" x2="91.8" y2="-40.149"/>
		<line fill="none" stroke="#272525" stroke-width="0.3" stroke-dasharray="2,2" x1="18.36" y1="-44.149" x2="91.8" y2="-44.149"/>
		<line fill="none" stroke="#272525" stroke-width="0.3" stroke-dasharray="2,2" x1="18.36" y1="-48.149" x2="91.8" y2="-48.149"/>
		<line fill="none" stroke="#272525" stroke-width="0.3" stroke-dasharray="2,2" x1="18.36" y1="-52.149" x2="91.8" y2="-52.149"/>
		<line fill="none" stroke="#272525" stroke-width="0.3" stroke-dasharray="2,2" x1="18.36" y1="-56.149" x2="91.8" y2="-56.149"/>
		<line fill="none" stroke="#272525" stroke-width="0.3" stroke-dasharray="2,2" x1="18.36" y1="-60.149" x2="91.8" y2="-60.149"/>
		<line fill="none" stroke="#272525" stroke-width="0.3" stroke-dasharray="2,2" x1="18.36" y1="-64.149" x2="91.8" y2="-64.149"/>
		<line fill="none" stroke="#272525" stroke-width="0.3" stroke-dasharray="2,2" x1="18.36" y1="-68.149" x2="91.8" y2="-68.149"/>
		<line fill="none" stroke="#272525" stroke-width="0.3" stroke-dasharray="2,2" x1="18.36" y1="-72.149" x2="91.8" y2="-72.149"/>
		<line fill="none" stroke="#272525" stroke-width="0.3" stroke-dasharray="2,2" x1="0" y1="-68.149" x2="10.2" y2="-68.149"/>
	</g>
</pattern>
<g id="Layer_1">
	<path opacity="0.41" d="M-321.371-107.998c15.904-0.979,70.069-7.982,84.119-7.628c9.486,0.239,51.696,18.507,127.214,8.724
		c26.998-3.497,91.693,12.263,93.642,13.237c6,3-170.125,2.751-194.831,1.428c-37.335-2-31.757,8.031-67.5,6.572
		C-312.98-87.063-342.088-106.724-321.371-107.998z"/>
	<path fill="#00341C" d="M-77.964-441.677c0,0,38.451-18.916,57.024-14.643c18.573,4.272,53.598,25.983,53.598,25.983
		s-6.32,9.629-25.984,8.129c-19.664-1.5-50.674-1.451-58.446-7.343C-59.544-435.443-77.964-441.677-77.964-441.677z"/>
	<path fill="#42210B" d="M-253.545-118.942c3.429-0.371,14.115,0.243,14.115,0.243s6.103,6.521,12.37,8.769
		c6.266,2.247,10.101,3.169,10.101,3.169s-2.828,3.375-10.204,2.818c-7.377-0.553-18.896-2.464-18.896-2.464l-2.935-3.474
		l-2.235,5.523l-6.133-0.105c0,0-2.716-6.597-2.637-7.395s0.897-7.372,0.897-7.372L-253.545-118.942z"/>
	<path fill="#FFFFFF" d="M-50.111-450.331c0,0,17.409-3.97,23.777-4c13.667-0.065,59.703,23.539,54.667,24.467
		c-11.335,2.089-12.519,0.467-24.093,0s-28.104-5.726-38.574-9.635S-64-444.629-64-444.629L-50.111-450.331z"/>
	<g>
		<g>
			<g>
				<path fill="#2083C4" d="M-114.499-430.291c-0.475,0.229,0.321,0.039-0.295,0.189
					C-114.754-430.194-114.678-430.281-114.499-430.291z"/>
				<path fill="#2083C4" d="M22.795-434.517c-1.665-0.506-3.438-1.903-5.278-2.329c-0.208-0.066,0.148-0.21-0.326-0.343
					c-1.783-0.373-4.362-1.469-6.378-2.376l0.147-0.027c-0.381-0.183-0.942-0.077-1.356-0.231c0.01-0.046,0.155-0.026,0.075-0.116
					c-0.146,0.107-0.787-0.149-0.996-0.097c-0.153-0.1-0.107-0.204-0.308-0.324l-0.286,0.089c-0.771,0.173-1.637-0.471-2.62-0.488
					c0.054-0.026,0.153-0.033,0.088-0.085c-1.547-0.133-3.402-0.617-5.106-0.842c0.078-0.042,0.161-0.132,0.075-0.214
					c-0.117,0.15-0.644,0.088-1.101,0.032c-0.17-0.212-0.802,0.003-1.312-0.197l0.052-0.029c-0.422,0.099-0.561-0.212-0.918-0.049
					l-0.226-0.176c-0.214,0.214-0.546-0.219-0.893-0.149l0.002,0.052c-0.315,0.009-0.454-0.14-0.745-0.145l-0.022-0.032
					c-0.675-0.046-1.04-0.245-1.054-0.052c-0.209-0.19,0.656,0.037,0.325-0.245c-2.215-0.194-4.478-0.499-6.69-0.793
					c-0.241-0.11-0.398-0.154-0.446-0.235c-0.226,0.01-0.837-0.075-1.05-0.003c0.075,0.007-0.131-0.118-0.248-0.14
					c-0.396-0.113-0.465,0.165-0.899,0.034c0.182-0.033,0.25-0.088,0.198-0.166c-0.396,0.11-0.898,0.035-1.351,0.038
					c0.073-0.025,0.183-0.033,0.173-0.095c-0.508,0.119-0.889-0.127-1.329-0.064l0.171-0.094c-0.677-0.205-0.228,0.21-0.816,0.07
					c0.146-0.021,0.101-0.068,0.131-0.111c-0.577,0.144-1.471-0.015-2.032-0.003l0.029-0.043c-0.607-0.041-1.234-0.164-1.909-0.119
					c-0.239-0.067,0.102-0.264-0.543-0.271c0.005,0.224-1.097,0.01-0.739,0.29c-0.545-0.077-1.406-0.225-1.777-0.177
					c0.253-0.065-0.247-0.291,0.21-0.275l-0.335-0.161c0.058-0.087,0.353,0.057,0.251-0.065c-0.229-0.008-0.902,0.031-1.104-0.021
					c-0.434,0.105-0.839,0.33-1.526,0.308c0.328-0.063-0.167-0.259,0.054-0.28l-0.982,0.354c-0.228-0.005-0.039-0.179-0.372-0.137
					c0.013,0.06-0.133,0.09-0.235,0.133c-0.084-0.03-0.95,0.012-1.038-0.212c-0.097-0.089,0.374-0.028,0.125-0.118
					c-0.421-0.018-0.443,0.057-0.865,0.041l-0.007-0.03c-0.276-0.045-0.823,0.056-0.526,0.191c0.193,0.015-0.068-0.135,0.216-0.059
					c-0.201,0.118-0.69,0.131-1.111,0.114c0.145-0.028,0.129-0.087,0.189-0.147c-0.571,0.14-1.172,0.201-1.804,0.257
					c-0.012,0.104,0.24-0.186,0.332-0.129c-0.808-0.158-1.674,0.177-2.345-0.046c0.111-0.016,0.058,0.149,0.051,0.12
					c-0.39-0.019-0.371-0.172-0.625-0.118c-0.025-0.088-0.32,0.032-0.582,0.062c-0.135,0.065-0.068-0.042,0.16-0.054
					c-0.365,0.078-1.821,0.229-2.664,0.108c0.018,0.059-0.512,0.22-0.706,0.216l0.072-0.138c-0.178-0.083-0.647,0.033-0.683-0.085
					c-0.41,0.17,1.589-0.181,1.032-0.037c-0.147-0.116-0.774,0.229-0.658,0.042c-0.388,0.019-0.76,0.186-1.135,0.071
					c0.108,0.019,0.31-0.201-0.004-0.18c-0.553,0.044-0.155,0.071-0.603,0.132l-0.279,0.066c-0.013,0.134-0.494-0.001-0.283,0.141
					c-0.072-0.108-0.8,0.096-0.752-0.127l0.07-0.177c-0.239,0.021-0.384,0.197-0.567,0.281c-0.032-0.015-0.097-0.048-0.086-0.076
					c-0.026,0.264-0.571,0.01-0.844,0.231c-0.505-0.063-1.271,0.066-1.517-0.085c-0.38,0.103-0.724,0.219-1.166,0.188
					c0.085-0.03,0.205-0.045,0.226-0.104c-0.281-0.062-0.344,0.012-0.593,0.07c0.053-0.047-0.562-0.114-0.875-0.183
					c-0.376,0.11-0.233,0.243-0.266,0.334c-0.369-0.234-1.064,0.257-1.52,0.054c0.129-0.047,0.547-0.174,0.223-0.214
					c-0.372-0.234-0.688,0.25-1.261,0.17l0.157,0.207c-0.263-0.118-0.815,0.2-0.778-0.026c-0.181,0.098-0.67-0.004-0.587,0.202
					c-0.94-0.085-2.229,0.337-2.838,0.015c-0.128,0.048-0.462,0.055-0.382,0.154c0.233,0.092,0.297-0.122,0.388-0.049
					c-0.118,0.018-0.137,0.081-0.146,0.111c-0.292-0.013-0.519-0.001-0.269-0.21c-0.652-0.053-0.615,0.44-1.435,0.456
					c0.026-0.092-0.04-0.117-0.275-0.074l-0.431,0.205c-0.528,0.029-0.323-0.163-0.354-0.31c-0.277,0.06-0.62,0.095-0.733,0.221
					l-0.365-0.143c0.266,0.099-0.218,0.122-0.345,0.176l0.126-0.054c-0.06-0.056-0.378,0.028-0.54,0.07
					c0.052,0.086,0.387,0.077,0.57,0.078c-0.133,0.085-0.358,0.102-0.537,0.205c0.043-0.154-0.47-0.04-0.693-0.023
					c-0.259,0.004-0.269,0.17-0.344,0.176c-0.017-0.075-0.417,0.046-0.233-0.088c0.083-0.037,0.208,0.045,0.343-0.042
					c-0.175-0.032-0.174-0.166-0.51-0.021c-0.252,0.109,0.108,0.277-0.402,0.255c0.125-0.054,0.141-0.116,0.235-0.182l-0.478-0.01
					l-0.001,0.135c-0.068-0.025-0.026-0.042-0.057-0.056c-0.119,0.159-0.706,0.143-0.788,0.315
					c-0.232,0.051-0.508-0.013-0.734,0.007l0.042-0.019c-0.286-0.034-0.642,0.075-0.858,0.2l0.007-0.031
					c-0.151,0.013-0.501,0.09-0.677,0.197c-0.393-0.04-0.207-0.478-0.598-0.246c-0.383,0.065-0.561,0.337-0.393,0.397
					c-0.704,0.018-1.446,0.379-2.118,0.283c-0.09,0.07-0.021,0.093-0.22,0.16c-1.018,0.121-2.1,0.529-2.947,0.43
					c0.281-0.111-0.005-0.135-0.026-0.208c-0.218,0.164-0.313-0.066-0.361,0.151c0.046,0.114,0.034,0.176,0.326,0.17
					c-0.588,0.179-1.5,0.353-1.854,0.306c0.177,0.023,0.055,0.083-0.068,0.145c0.006-0.198-0.443-0.141-0.763-0.003l-0.024,0.125
					l-0.242-0.074c-0.121,0.063-0.092,0.271-0.445,0.229l-0.123-0.103c-0.326,0.166-0.78,0.425-1.174,0.405l-0.342-0.104
					c-0.156,0.052-0.405,0.208-0.113,0.198c-0.662,0.028-1.073,0.113-1.308,0.011c-1.022,0.597-2.612,0.955-3.889,1.236l0.018-0.094
					c-0.361,0-0.143,0.191-0.396,0.188c0.091-0.107-0.302-0.116-0.057-0.279c-0.511,0.025-0.596,0.296-0.905,0.41
					c-0.022,0.124,0.239-0.132,0.211,0.025c-0.045,0.053-0.698,0.071-0.733,0.259c-0.139-0.036-0.074-0.185-0.024-0.27l-0.278,0.156
					c-0.414-0.11,0.747-0.556,0.304-0.707l-0.269,0.092c-0.307-0.114,0.682-0.375-0.026-0.27c-0.28,0.158-0.476,0.468-0.191,0.477
					c-0.613,0.201-0.19,0.476-0.864,0.627c-0.208-0.054,0.53-0.157,0.367-0.264c-0.35-0.058-0.614,0.233-0.907,0.255
					c0.328-0.014,0.106,0.223-0.087,0.304c-0.361,0.004,0.182-0.215-0.306-0.113c-0.055,0.118-0.48,0.301-0.08,0.274
					c-0.119,0.265-0.517,0.063-0.736,0.3c-0.197-0.117,0.405-0.484-0.145-0.429c0.122,0.128-0.6,0.374-0.264,0.522
					c-0.218,0.011-0.27-0.101-0.143-0.232c-0.32-0.016-0.647,0.46-0.821,0.188l-0.062,0.18l-0.421-0.072
					c-0.262,0.065-0.786,0.426-0.823,0.188c-0.077,0.045-0.675,0.192-0.403,0.29c0.396,0,0.395-0.227,0.658-0.065
					c-0.308-0.107-0.528,0.161-0.725,0.278l-0.059-0.08c-0.117,0.069-0.415,0.129-0.468,0.248c0.084-0.077,0.017-0.125-0.09-0.119
					l-0.097,0.172c-0.497,0.208-0.187-0.206-0.677-0.029l0.353-0.209c-0.078,0.045-0.283-0.035-0.512,0.073l-0.248,0.463
					c-0.268,0.131-0.165-0.105-0.408,0.098l0.323-0.249c0.044-0.056-0.302-0.138-0.679-0.031c-0.23,0.107-0.554,0.393-0.155,0.353
					c-0.188,0.055-0.474,0.055-0.35-0.078c-0.416,0.165,0.094,0.117-0.253,0.298c-0.174-0.039-0.679-0.023-0.996-0.062l0.327-0.316
					l-0.257,0.071c0.285-0.26-0.205-0.078-0.066-0.306c-0.184,0.023-0.379,0.143-0.536,0.236c0.593,0.134-0.465,0.545-0.243,0.757
					c-0.682,0.269-0.618-0.493-1.233,0.12c0.139,0.031-0.148,0.326,0.271,0.123c-0.443,0.101-0.221,0.342-0.765,0.388
					c0.349-0.216-0.484-0.137,0.02-0.451c-0.011,0.095,0.326-0.027,0.403-0.075c-0.208-0.045-0.038-0.267-0.484-0.136
					c-0.265,0.104-0.637,0.219-0.543,0.336c0.054,0.142,0.411-0.138,0.28,0.061c-0.527,0.21-0.684,0.016-0.831,0.34
					c0.336-0.122,0.466,0.003,0.489,0.105l-0.378,0.178l0.048-0.119c-0.658,0.12-0.136,0.231-0.759,0.392l-0.347-0.103
					c0.097-0.209,0.918-0.201,0.728-0.435c-0.404,0.112-0.496,0.288-0.894,0.334l0.266-0.14c-0.146,0.035-0.397-0.275-0.905,0.106
					c-0.271,0.171-0.049,0.118-0.025,0.221c-0.634,0.227-0.795,0.387-1.203,0.533c0.024-0.221-0.736,0.211-0.342-0.131
					c0.245,0.046,1.17-0.254,1.341-0.507c-0.306-0.16,0.516-0.122,0.582-0.398c-0.518,0.152-0.562-0.083-0.691-0.207l-0.345,0.188
					c-0.018,0.159,0.17,0.1,0.225,0.241c-0.589,0.136-1.117,0.392-1.391,0.628c-0.214-0.009-0.197-0.167,0.026-0.253
					c-0.67,0.259-1.408,0.466-2.069,0.638c0.493,0.092-0.704,0.288-0.357,0.385c0.363-0.062,0.713,0.004,0.555,0.168
					c-0.221,0.056-0.025-0.102-0.131-0.121c-0.236,0.214-0.494-0.06-0.701,0.224c0.598-0.276,0.03-0.317,0.087-0.532
					c-0.417,0.247-0.022-0.133-0.467,0.011c-0.416,0.243-0.938,0.506-1.421,0.71c-0.681,0.038-1.578,0.53-2.13,0.728
					c-0.321,0.01-0.194-0.258-0.521-0.185c-0.369,0.132,0.349,0.12-0.23,0.22l0.039-0.059c-0.149,0.104-1.051,0.217-1.11,0.561
					l0.092-0.276l-0.262,0.152c-0.029-0.069-0.171-0.091-0.021-0.196c-0.391-0.03-0.699,0.278-1.063,0.416l0.282,0.043
					c-0.59,0.324-1.053,0.353-1.641,0.62l-0.028-0.131l-0.332,0.209c0.043-0.154-0.316-0.108-0.467,0.064l0.82-0.655
					c0.287-0.022-0.229,0.255-0.02,0.318c0.179,0.056,0.725-0.184,0.771-0.337c-0.22,0.065-0.219,0.096-0.369,0.203
					c-0.135-0.147,0.193-0.261,0.312-0.436c-0.11,0.048-0.289,0.054-0.293,0.118c0.19-0.166,0.407-0.262,0.775-0.398
					c-0.225,0.158,0.175,0.059,0.099,0.143c-0.026-0.164,0.309-0.338,0.781-0.459c0.389,0.062,0.817-0.417,1.364-0.554
					c-0.161,0.231-0.391,0.453-0.69,0.629c0.359-0.039,0.368-0.134,0.728-0.173c0.121-0.173,0.172-0.393,0.583-0.612l0.063,0.107
					c0.373-0.194,0.314-0.365,0.828-0.505c0.879-0.238,1.767-0.53,2.429-0.736l0.063,0.107c0.286-0.366,1.192-0.488,1.65-0.759
					c0.876-0.16,1.795-0.689,2.29-0.627c1.461-0.55,2.74-1.038,4.303-1.447l-0.211,0.247c0.241-0.207,0.209,0.044,0.475-0.061
					c-0.353-0.043,0.326-0.287,0.487-0.448c0.729-0.069,1.577-0.463,2.157-0.757l0.057,0.11c0.558-0.399,1.355-0.408,2.14-0.582
					c0.102,0.024,0.272,0.096,0.499,0.021c0.369-0.304,0.592-0.353,1.178-0.636c0.452-0.118,1.198-0.262,1.676-0.307
					c1.63-0.714,3.417-0.969,5.154-1.555l0.161,0.109c1.652-0.712,3.842-0.912,5.285-1.388l-0.091,0.27
					c0.478-0.032,1.043-0.287,0.889-0.433c0.481-0.022,1.138-0.355,1.475-0.22c0.484-0.054,0.56-0.231,0.949-0.345
					c0.971-0.109,1.323-0.185,2.215-0.406l-0.227,0.028c-0.088,0.072-0.078,0.175,0.149,0.148c0.323-0.132,1.249-0.172,0.859-0.395
					c0.991-0.026,2.224-0.547,3.202-0.488c-0.093-0.065,0.142-0.121,0.231-0.192c0.846-0.156,1.764-0.146,2.42-0.382
					c0.141,0.018-0.193,0.168,0.154,0.121c0.2-0.063-0.013-0.104,0.233-0.188c1.353-0.371,2.81-0.289,4.059-0.495
					c2.207-0.479,4.553-0.678,6.696-0.938l-0.018,0.061c0.696-0.296,1.71,0.056,2.251-0.338c0.175,0.038,0.652-0.04,0.537,0.085
					c0.559-0.212,1.619,0.016,2.431-0.254l-0.206,0.048c0.849,0.067,1.573-0.188,2.468-0.117c-0.088,0.03-0.25,0.058-0.273,0.118
					c0.35,0.092,0.795-0.294,1-0.023c0.196-0.014,0.131-0.15,0.012-0.135c1.944-0.022,4.006-0.282,6.028-0.409
					c1.453,0.127,0.099,0.467,1.237,0.239c0.095,0.053,0.066-0.109,0.083-0.05c0.441-0.083,0.693,0.309,0.997,0.158
					c-0.128-0.172,0.203-0.099,0.211-0.205c0.887,0.104,1.064,0.258,1.763,0.119l-0.053,0.092c0.82-0.258,1.769-0.093,2.466-0.382
					c4.537,0.004,8.865,0.23,13.257,0.517c4.33,0.466,8.587,0.808,12.951,1.591c0.988,0.405,1.064,0.411,2.204,0.5
					c-0.052,0.03-0.124,0.028-0.054,0.077c0.087-0.186,0.794,0.111,0.932-0.056c1.613,0.285,3.107,0.5,4.761,0.846
					c-0.266-0.032-0.428,0.1-0.115,0.149l0.349-0.059l0.042,0.065c0.219,0.014,0.47-0.036,0.263-0.141
					c4.201,0.661,8.176,2.048,12.149,3.309c0.924,0.357,2.269,0.797,3.301,1.128c2.912,1.463,5.396,2.674,8.291,4.658
					C24.638-433.966,23.968-433.911,22.795-434.517z"/>
				<path fill="#2083C4" d="M-113.916-430.537c0.14,0.051,0.502-0.029,0.275,0.197C-113.707-430.412-113.92-430.441-113.916-430.537
					z"/>
				<path fill="#2083C4" d="M-104.359-432.822c0.003-0.032,0.145-0.005,0.179,0c-0.112,0.044-0.193,0.158-0.301,0.139
					C-104.367-432.727-104.399-432.766-104.359-432.822z"/>
				<path fill="#2083C4" d="M-101.967-433.53c-0.01,0.095-0.497,0.321-0.793,0.426L-101.967-433.53z"/>
				<path fill="#2083C4" d="M-99.643-433.876c0.213,0.012,0.172,0.067-0.086,0.143C-99.762-433.772-99.684-433.82-99.643-433.876z"
					/>
				<path fill="#2083C4" d="M-99.544-434.115c0.184-0.059,0.291-0.037,0.395-0.017C-99.178-434.202-99.563-433.957-99.544-434.115z"
					/>
				<path fill="#2083C4" d="M-94.64-435.303c0.114-0.04,0.347-0.181,0.481-0.118C-94.299-435.452-94.695-435.154-94.64-435.303z"/>
				<path fill="#2083C4" d="M-92.423-436.067l0.187-0.053c0.145,0.002,0.021,0.102-0.09,0.141L-92.423-436.067z"/>
				<polygon fill="#2083C4" points="-50.633,-444.24 -50.881,-444.176 -50.852,-444.265 				"/>
				<path fill="#2083C4" d="M-31.979-444.83c0.253-0.045,0.172,0.089,0.214,0.104C-31.993-444.727-31.678-444.83-31.979-444.83z"/>
				<polygon fill="#2083C4" points="-21.888,-444.631 -21.965,-444.635 -21.925,-444.812 				"/>
			</g>
		</g>
	</g>
	<g>
		<g>
			<g>
				<path fill="#B94743" d="M6.707-441.646c6.039,5.763,10.648,10.742,10.291,11.116s-5.547-3.997-11.586-9.76"/>
			</g>
		</g>
	</g>
	<g>
		<g>
			<g>
				<path fill="#B94743" d="M-8.326-445.333c7.254,5.624,12.883,10.519,12.566,10.928s-6.46-3.822-13.714-9.447"/>
			</g>
		</g>
	</g>
	<g>
		<g>
			<g>
				<path fill="#B94743" d="M-21.567-446.314c6.311,4.503,11.188,8.499,10.887,8.92s-5.665-2.891-11.976-7.394"/>
			</g>
		</g>
	</g>
	<g>
		<g>
			<g>
				<path fill="#B94743" d="M-36.159-446.41c7.297,3.204,13.048,6.188,12.84,6.662s-6.297-1.741-13.594-4.945"/>
			</g>
		</g>
	</g>
	<g>
		<g>
			<g>
				<path fill="#B94743" d="M-49.901-445.543c5.308,1.221,9.521,2.621,9.405,3.125s-4.517-0.077-9.825-1.298"/>
			</g>
		</g>
	</g>
	<path fill="#42210B" d="M-280.87-121.649c-2.599,6.226-15.237,11.447-21.935,13.861c-4.601,1.66,1.219,7.433,1.219,7.433
		l14.605-2.396l4.847-4.541l7.262,2.556l4.605-0.756l2.495-5.403l-4.954-9.592L-280.87-121.649z"/>
	<g>
		<path fill="#66806C" d="M-282.667-235.998c15.362,3.002,105.673-13.178,110.673,8.822s0.327,101.586-28.673,106.586
			s-99,23.592-130.799-12.408C-346.041-149.498-342.588-247.709-282.667-235.998z"/>
		<path fill="url(#USGS_19_Land_Inundation)" d="M-282.667-235.998c15.362,3.002,105.673-13.178,110.673,8.822
			s0.327,101.586-28.673,106.586s-99,23.592-130.799-12.408C-346.041-149.498-342.588-247.709-282.667-235.998z"/>
	</g>
	<path opacity="0.59" fill="#CC3A00" d="M-315.167-227.998c-6,6.5-31.74,76-10.62,88.5s96.12,17.849,115.12,4.5
		c20.35-14.297,3.393-28.783,17.326-60.783c22.537-51.761-8.826-15.717-28.326-18.717S-315.167-227.998-315.167-227.998z"/>
	<path opacity="0.46" d="M-318.134-210.998c0,0,14.467,20.717,26.467,25.608s59,7.421,67,0.906s31.326-25.608,31.326-25.608
		l-45.139,5.094L-318.134-210.998z"/>
	<radialGradient id="SVGID_1_" cx="-248.0063" cy="-253.3428" r="76.1025" gradientUnits="userSpaceOnUse">
		<stop  offset="0.0056" style="stop-color:#F8E5D0"/>
		<stop  offset="0.5056" style="stop-color:#F5DBBC"/>
		<stop  offset="1" style="stop-color:#EDC292"/>
	</radialGradient>
	<path fill="url(#SVGID_1_)" d="M-252.667-319.998c-8.322,3.57-52,24-57,36s-35,59-15,74s76,31,90,22s83-34.392,68-64.696
		S-230.101-329.678-252.667-319.998z"/>
	<path fill="#FAE58E" d="M-312.764-348.875c16.553-3.428,54.458-21.436,88.777-16.113s71.652,9.323,94.986,21.323
		s22.667,13.333,3.333,16S-157-320.999-147-316.332s32.302,11.213-3.333,6.001c-33.642-4.92-51.267-8-101.279-2.001
		C-297.576-306.818-374.527-336.085-312.764-348.875z"/>
	<path fill="#B94743" d="M-318.134-278.998c-4.412-44.297,50.368-71.391,95.467-117c45.099-45.609,112.445-43.515,112.445-43.515
		l25.406-4.908c0,0-5.755,34.104-31.418,54.753c-26.413,21.251-46.153,44.829-46.91,68.243
		c-1.403,43.427,17.477,68.082,17.477,68.082S-315.433-251.872-318.134-278.998z"/>
	<linearGradient id="SVGID_2_" gradientUnits="userSpaceOnUse" x1="-319.3579" y1="-197.5205" x2="-300.6665" y2="-197.5205">
		<stop  offset="0.0056" style="stop-color:#FFFDE3"/>
		<stop  offset="0.4494" style="stop-color:#FFFAC9"/>
		<stop  offset="1" style="stop-color:#FFF694"/>
	</linearGradient>
	<path fill="url(#SVGID_2_)" d="M-312.764-210.594c0,0-9.621,20.813-5.621,25.204s12.89-7.991,12.89-7.991
		S-290.764-208.594-312.764-210.594z"/>
	<linearGradient id="SVGID_3_" gradientUnits="userSpaceOnUse" x1="-267.4834" y1="-183.8438" x2="-251.6123" y2="-183.8438">
		<stop  offset="0.0056" style="stop-color:#FFFDE3"/>
		<stop  offset="0.4494" style="stop-color:#FFFAC9"/>
		<stop  offset="1" style="stop-color:#FFF694"/>
	</linearGradient>
	<path fill="url(#SVGID_3_)" d="M-266.612-195.781c0,0-2.667,14.305,1.333,22.305s13.667-17.153,13.667-17.153
		S-251.612-193.933-266.612-195.781z"/>
	<path opacity="0.2" fill="#FFFFFF" d="M-293-276.999c-6.667-5.333-12.619-4.667-9.643-21.333s16.65-32.667,26.813-42
		s64.953-34.932,55.664-42.166c-7.659-5.964,9-18,28.438-30.501c33.127-21.304,100.318-24.395,100.318-24.395
		s-8.186,8.395-21.555,21.062s-41.956,1.001-57.29,10.334s-58.057,45.929-73.413,55.257c-19.551,11.877-38.222,31.909-37.5,45.243
		s22.611,33.833,11.722,34.499S-293-276.999-293-276.999z"/>
	<path fill="#CC3A00" d="M-217.714-107.998c-1.661,1.12,0.04,2.75,1.333,2s0.211-2,0.211-2H-217.714z"/>
	<path fill="#CC3A00" d="M-302.99-106.902c-1.661,1.12,0.04,2.75,1.333,2s0.211-2,0.211-2H-302.99z"/>
	<path d="M-252.667-244.998c-6.169,1.714-20.646,21.416-6.823,24.958s37.823,4.542,35.323-7.958S-243.667-247.498-252.667-244.998z"
		/>
	<path d="M-294.667-253.329c-6.977,0.591-12.63-0.675-15.815,7.828s-4.712,13.503,7.051,17.503s24.264,4.5,25.264-6
		S-284.874-254.158-294.667-253.329z"/>
	<path fill="#767F26" d="M-254.692-231.541c3.381-2.5,9-2.209,14-1.104s9.5,10.035,9.5,10.035s-16.114,1.552-23.275-0.448
		S-254.692-231.541-254.692-231.541z"/>
	<path fill="#767F26" d="M-302.351-240.249c0,0,12.67-1.635,16.177,1.308s3.007,7.338,3.007,7.338l-6,3.604
		c0,0-15.753-0.515-15.408-3.896S-302.351-240.249-302.351-240.249z"/>
	<path opacity="0.34" d="M-289.902-324.746c0,0,1.536,15.506,5.245,16.336c30.143,6.746,101.36,7.196,113.991,0
		s23.764-16.336,23.764-16.336s-101.225,6.487-107.612,3.451S-281.568-329.828-289.902-324.746z"/>
	<path fill="#FAE58E" d="M-283.143-348.875c0,0,25.849,21.878,44.662,22.544s76.471-10.245,76.471-10.245l7.009-4.544v19.824
		c0,0,3.562,8.609-5.874,9.424c-1.474,0.127-12.416-7.771-14.057-7.633c-41.389,3.47-133.521,9.8-141.95-1.792
		C-327.784-336.291-283.143-348.875-283.143-348.875z"/>
	<path d="M-217.167-164.998c4.181-4.446,11.651-10.314,16.826-6.907s7.478,8.407,7.826,12.407s-5.461,9.111-7.826,5.5
		c-3.492-5.333-2.692-0.34-8.259,0.58s-6.067-5.08-6.067-5.08s1,5.852-2.5,5.176S-220.839-161.093-217.167-164.998z"/>
	<path d="M-331.466-172.924c5.259-2.737,9.978-5.518,13.332,1.019c3.801,7.407,7.134,14.074,7.134,14.074s-5.596,2.833-9.167,0.833
		s-3.027-6.098-3.027-6.098s-0.334,9.437-3.725,6.168c-3.081-2.97-2.582-6.168-2.582-6.168s-1.022,8.933-4.125,7.142
		C-337.167-157.998-338.648-169.186-331.466-172.924z"/>
</g>
<g id="Layer_2">
	<path d="M-395.905-37.498c4.181-4.446,11.651-10.314,16.826-6.907s7.478,8.407,7.826,12.407s-5.461,9.111-7.826,5.5
		c-3.492-5.333-2.692-0.34-8.259,0.58s-6.067-5.08-6.067-5.08s1,5.852-2.5,5.176S-399.577-33.593-395.905-37.498z"/>
	<path d="M-352.349-42.45c5.259-2.737,9.978-5.518,13.332,1.019c3.801,7.407,7.134,14.074,7.134,14.074s-5.596,2.833-9.167,0.833
		s-3.027-6.098-3.027-6.098s-0.334,9.437-3.725,6.168c-3.081-2.97-2.582-6.168-2.582-6.168s-1.022,8.933-4.125,7.142
		C-358.05-27.524-359.531-38.712-352.349-42.45z"/>
	<path fill="#42210B" d="M-282.936-42.552c-2.599,6.226-15.237,11.447-21.935,13.861c-4.601,1.66,1.219,7.433,1.219,7.433
		l14.605-2.396l4.847-4.541l7.262,2.556l4.605-0.756l2.495-5.403l-4.954-9.592L-282.936-42.552z"/>
	<path fill="#CC3A00" d="M-304.362-27.9c-1.661,1.12,0.04,2.75,1.333,2s0.211-2,0.211-2H-304.362z"/>
	<path fill="#42210B" d="M-224.545-39.291c3.429-0.371,14.115,0.243,14.115,0.243s6.103,6.521,12.37,8.769
		c6.266,2.247,10.101,3.169,10.101,3.169s-2.828,3.375-10.204,2.818c-7.377-0.553-18.896-2.464-18.896-2.464l-2.935-3.474
		l-2.235,5.523l-6.133-0.105c0,0-2.716-6.597-2.637-7.395s0.897-7.372,0.897-7.372L-224.545-39.291z"/>
	<path fill="#CC3A00" d="M-188.927-27.9c-1.661,1.12,0.04,2.75,1.333,2s0.211-2,0.211-2H-188.927z"/>
	<path d="M-148.292-51.458c-6.977,0.59-12.63-0.676-15.815,7.827s-4.712,13.503,7.051,17.503s24.264,4.5,25.264-6
		S-138.499-52.288-148.292-51.458z"/>
	<path fill="#767F26" d="M-155.976-38.379c0,0,12.67-1.635,16.177,1.308c3.507,2.943,3.007,7.339,3.007,7.339l-6,3.604
		c0,0-15.753-0.515-15.408-3.896S-155.976-38.379-155.976-38.379z"/>
	<path d="M-104.071-52.228c-6.169,1.714-20.646,21.416-6.823,24.958s37.823,4.542,35.323-7.958S-95.071-54.728-104.071-52.228z"/>
	<path fill="#767F26" d="M-106.096-38.771c3.381-2.5,9-2.209,14-1.104s9.5,10.035,9.5,10.035s-16.114,1.552-23.275-0.448
		S-106.096-38.771-106.096-38.771z"/>
	<g>
		<path fill="#66806C" d="M-346.334,30.669c15.362,3.002,105.673-13.178,110.673,8.822s0.327,101.586-28.673,106.586
			s-99,23.592-130.799-12.408C-409.708,117.169-406.255,18.958-346.334,30.669z"/>
		<pattern  id="SVGID_4_" xlink:href="#USGS_19_Land_Inundation" patternTransform="matrix(1 0 0 1 -63.667 50.667)">
		</pattern>
		<path fill="url(#SVGID_4_)" d="M-346.334,30.669c15.362,3.002,105.673-13.178,110.673,8.822s0.327,101.586-28.673,106.586
			s-99,23.592-130.799-12.408C-409.708,117.169-406.255,18.958-346.334,30.669z"/>
	</g>
	<path opacity="0.59" fill="#CC3A00" d="M-378.834,38.669c-6,6.5-31.74,76-10.62,88.5s96.12,17.849,115.12,4.5
		c20.35-14.297,3.393-28.783,17.326-60.783c22.537-51.761-8.826-15.717-28.326-18.717S-378.834,38.669-378.834,38.669z"/>
	<path opacity="0.46" d="M-381.801,55.669c0,0,14.467,20.717,26.467,25.608s59,7.421,67,0.906s31.326-25.608,31.326-25.608
		l-45.139,5.094L-381.801,55.669z"/>
	<radialGradient id="SVGID_5_" cx="-107.1499" cy="82.3594" r="76.1025" gradientUnits="userSpaceOnUse">
		<stop  offset="0.0056" style="stop-color:#F8E5D0"/>
		<stop  offset="0.5056" style="stop-color:#F5DBBC"/>
		<stop  offset="1" style="stop-color:#EDC292"/>
	</radialGradient>
	<path fill="url(#SVGID_5_)" d="M-111.811,15.704c-8.322,3.57-52,24-57,36s-35,59-15,74s76,31,90,22s83-34.392,68-64.695
		C-40.811,52.704-89.245,6.024-111.811,15.704z"/>
	<linearGradient id="SVGID_6_" gradientUnits="userSpaceOnUse" x1="-178.5015" y1="138.1816" x2="-159.8101" y2="138.1816">
		<stop  offset="0.0056" style="stop-color:#FFFDE3"/>
		<stop  offset="0.4494" style="stop-color:#FFFAC9"/>
		<stop  offset="1" style="stop-color:#FFF694"/>
	</linearGradient>
	<path fill="url(#SVGID_6_)" d="M-171.907,125.108c0,0-9.621,20.813-5.621,25.204s12.89-7.991,12.89-7.991
		S-149.907,127.108-171.907,125.108z"/>
	<linearGradient id="SVGID_7_" gradientUnits="userSpaceOnUse" x1="-126.627" y1="151.8594" x2="-110.7559" y2="151.8594">
		<stop  offset="0.0056" style="stop-color:#FFFDE3"/>
		<stop  offset="0.4494" style="stop-color:#FFFAC9"/>
		<stop  offset="1" style="stop-color:#FFF694"/>
	</linearGradient>
	<path fill="url(#SVGID_7_)" d="M-125.756,139.921c0,0-2.667,14.305,1.333,22.305s13.667-17.153,13.667-17.153
		S-110.756,141.77-125.756,139.921z"/>
	<path fill="#00341C" d="M267.29,24.604c0,0,38.451-18.915,57.023-14.643c18.574,4.272,53.598,25.983,53.598,25.983
		s-6.32,9.63-25.984,8.129c-19.664-1.5-50.674-1.45-58.445-7.343S267.29,24.604,267.29,24.604z"/>
	<path fill="#FFFFFF" d="M295.144,15.951c0,0,17.408-3.97,23.777-4c13.666-0.065,59.703,23.539,54.666,24.468
		c-11.336,2.089-12.52,0.467-24.094,0c-11.572-0.468-28.104-5.727-38.572-9.636c-10.471-3.909-29.668-5.13-29.668-5.13
		L295.144,15.951z"/>
	<g>
		<g>
			<g>
				<path fill="#2083C4" d="M230.634,36.039c-0.291,0.157,0.221,0.077-0.174,0.143C230.474,36.1,230.515,36.025,230.634,36.039z"/>
				<path fill="#2083C4" d="M316.188,20.706c-1.07,0.418-2.428-0.137-3.586,0.144c-0.135,0.017,0.041-0.25-0.264-0.195
					c-1.121,0.345-2.863,0.072-4.223-0.168l0.08-0.072c-0.258-0.048-0.572,0.189-0.846,0.159c-0.002-0.047,0.086-0.067,0.023-0.132
					c-0.068,0.143-0.496,0.071-0.609,0.178c-0.109-0.054-0.1-0.167-0.242-0.228l-0.154,0.163c-0.428,0.387-1.059-0.019-1.646,0.206
					c0.027-0.039,0.086-0.07,0.037-0.104c-0.947,0.267-2.139,0.265-3.199,0.388c0.039-0.058,0.074-0.163,0.008-0.225
					c-0.045,0.169-0.371,0.233-0.654,0.283c-0.137-0.167-0.479,0.188-0.818,0.111l0.025-0.04c-0.236,0.197-0.371-0.084-0.559,0.146
					l-0.166-0.127c-0.092,0.252-0.365-0.106-0.561,0.03l0.01,0.05c-0.189,0.071-0.297-0.046-0.473,0.006l-0.02-0.027
					c-0.412,0.089-0.666-0.033-0.643,0.157c-0.156-0.145,0.4-0.094,0.156-0.304c-1.361,0.298-2.779,0.382-4.16,0.496
					c-0.164-0.062-0.266-0.074-0.309-0.144c-0.135,0.053-0.516,0.089-0.633,0.199c0.047-0.009-0.098-0.089-0.172-0.091
					c-0.258-0.047-0.254,0.238-0.537,0.181c0.104-0.063,0.135-0.128,0.092-0.195c-0.221,0.174-0.537,0.182-0.811,0.259
					c0.039-0.037,0.105-0.063,0.088-0.122c-0.285,0.2-0.559,0.021-0.813,0.155l0.088-0.12c-0.445-0.09-0.102,0.243-0.482,0.202
					c0.086-0.044,0.049-0.084,0.061-0.13c-0.324,0.231-0.889,0.235-1.227,0.346l0.01-0.048c-0.371,0.071-0.771,0.057-1.174,0.194
					c-0.154-0.03,0.018-0.274-0.375-0.186c0.041,0.22-0.662,0.173-0.398,0.395c-0.342,0.006-0.891-0.014-1.105,0.092
					c0.141-0.105-0.201-0.248,0.078-0.304l-0.23-0.105c0.02-0.095,0.223,0,0.141-0.104c-0.141,0.029-0.539,0.174-0.67,0.156
					c-0.244,0.172-0.449,0.458-0.867,0.546c0.186-0.114-0.146-0.228-0.018-0.284l-0.529,0.505c-0.141,0.03-0.057-0.17-0.252-0.083
					c0.02,0.056-0.064,0.105-0.119,0.161c-0.057-0.019-0.576,0.137-0.668-0.072c-0.076-0.075,0.223-0.076,0.055-0.132
					c-0.26,0.038-0.26,0.114-0.52,0.154l-0.01-0.028c-0.176-0.009-0.488,0.171-0.285,0.261c0.119-0.012-0.064-0.123,0.121-0.088
					c-0.102,0.146-0.396,0.229-0.656,0.271c0.084-0.048,0.064-0.104,0.09-0.171c-0.322,0.226-0.682,0.337-1.059,0.47
					c0.01,0.104,0.115-0.21,0.182-0.165c-0.521-0.063-0.996,0.365-1.443,0.223c0.064-0.029,0.061,0.141,0.051,0.112
					c-0.242,0.025-0.256-0.126-0.402-0.046c-0.029-0.085-0.191,0.059-0.348,0.111c-0.072,0.078-0.049-0.036,0.09-0.067
					c-0.213,0.11-1.082,0.403-1.621,0.366c0.021,0.056-0.279,0.267-0.398,0.281l0.023-0.143c-0.123-0.063-0.396,0.081-0.438-0.031
					c-0.223,0.208,0.953-0.311,0.633-0.124c-0.109-0.097-0.441,0.299-0.4,0.102c-0.236,0.047-0.439,0.239-0.689,0.153
					c0.068,0.01,0.158-0.222-0.031-0.178c-0.336,0.083-0.086,0.081-0.352,0.174l-0.162,0.086c0.012,0.134-0.307,0.035-0.154,0.16
					c-0.063-0.102-0.479,0.16-0.484-0.064l0.016-0.181c-0.145,0.04-0.205,0.227-0.307,0.324l-0.064-0.068
					c0.025,0.267-0.354,0.045-0.488,0.28c-0.324-0.032-0.779,0.141-0.955,0.005c-0.221,0.125-0.416,0.26-0.695,0.255l0.123-0.115
					c-0.184-0.045-0.211,0.032-0.357,0.104c0.027-0.045-0.367-0.092-0.572-0.144c-0.219,0.126-0.109,0.251-0.115,0.342
					c-0.266-0.215-0.625,0.303-0.939,0.123c0.072-0.052,0.314-0.197,0.107-0.222c-0.268-0.214-0.393,0.278-0.762,0.227l0.129,0.196
					c-0.182-0.101-0.48,0.229-0.49,0.004c-0.1,0.101-0.42,0.013-0.338,0.213c-0.604-0.063-1.35,0.396-1.775,0.101
					c-0.074,0.053-0.283,0.062-0.219,0.159c0.16,0.087,0.17-0.124,0.236-0.057c-0.07,0.022-0.074,0.083-0.076,0.114
					c-0.186-0.01-0.326,0.006-0.199-0.204c-0.418-0.042-0.322,0.443-0.836,0.471c0.002-0.091-0.043-0.114-0.184-0.069l-0.242,0.209
					c-0.328,0.036-0.227-0.156-0.268-0.3c-0.166,0.063-0.377,0.103-0.43,0.228l-0.25-0.137c0.182,0.098-0.121,0.12-0.193,0.175
					l0.072-0.054c-0.045-0.056-0.234,0.029-0.33,0.071c0.045,0.085,0.254,0.074,0.371,0.074l-0.311,0.204
					c0.006-0.151-0.303-0.036-0.441-0.02c-0.162,0.006-0.146,0.169-0.191,0.176c-0.021-0.073-0.258,0.047-0.16-0.086
					c0.047-0.036,0.137,0.044,0.211-0.043c-0.115-0.03-0.135-0.162-0.326-0.018c-0.143,0.108,0.107,0.271-0.217,0.253l0.123-0.181
					l-0.303-0.007l0.018,0.133l-0.045-0.055c-0.053,0.157-0.424,0.145-0.453,0.313c-0.141,0.048-0.324-0.019-0.465-0.002
					l0.023-0.018c-0.186-0.037-0.396,0.065-0.518,0.187l0.002-0.03c-0.096,0.011-0.305,0.086-0.402,0.19
					c-0.254-0.041-0.195-0.471-0.412-0.244c-0.232,0.063-0.309,0.329-0.193,0.389c-0.443,0.017-0.869,0.347-1.309,0.242
					c-0.049,0.067-0.002,0.091-0.119,0.152c-0.631,0.099-1.264,0.482-1.818,0.356c0.164-0.101-0.023-0.133-0.045-0.205
					c-0.117,0.154-0.209-0.074-0.211,0.138c0.045,0.113,0.045,0.174,0.23,0.176c-0.35,0.159-0.91,0.304-1.143,0.248
					c0.117,0.027,0.047,0.084-0.023,0.14c-0.023-0.193-0.301-0.15-0.488-0.031v0.121l-0.164-0.082
					c-0.068,0.057-0.023,0.26-0.256,0.207l-0.092-0.105c-0.188,0.15-0.443,0.39-0.697,0.355l-0.232-0.114
					c-0.094,0.045-0.232,0.189-0.047,0.19c-0.418,0.007-0.674,0.063-0.838-0.046c-0.58,0.527-1.551,0.82-2.34,1.018v-0.091
					c-0.232-0.02-0.068,0.179-0.23,0.161c0.045-0.1-0.211-0.13-0.074-0.275c-0.326-0.003-0.346,0.257-0.529,0.351
					c0.002,0.119,0.137-0.115,0.139,0.036c-0.021,0.049-0.439,0.031-0.438,0.212c-0.095-0.044-0.072-0.185-0.051-0.264l-0.16,0.135
					c-0.281-0.131,0.41-0.498,0.105-0.671l-0.162,0.074c-0.213-0.129,0.391-0.326-0.053-0.265c-0.16,0.138-0.246,0.427-0.061,0.453
					c-0.371,0.159-0.063,0.451-0.478,0.559c-0.142-0.065,0.323-0.121,0.203-0.235c-0.233-0.078-0.366,0.19-0.554,0.193
					c0.211,0.007,0.098,0.224-0.017,0.291c-0.232-0.018,0.089-0.198-0.212-0.128c-0.021,0.11-0.271,0.264-0.016,0.262
					c-0.043,0.25-0.326,0.03-0.438,0.247c-0.143-0.126,0.199-0.446-0.149-0.427c0.096,0.133-0.341,0.319-0.104,0.488
					c-0.139-0.004-0.188-0.117-0.122-0.235c-0.21-0.038-0.361,0.4-0.509,0.126l-0.018,0.17l-0.281-0.098
					c-0.161,0.046-0.454,0.363-0.51,0.13c-0.043,0.039-0.412,0.141-0.223,0.255c0.256,0.027,0.227-0.194,0.418-0.02
					c-0.215-0.125-0.321,0.123-0.435,0.222l-0.048-0.082c-0.068,0.059-0.254,0.094-0.273,0.204c0.045-0.068-0.006-0.119-0.074-0.122
					l-0.041,0.16c-0.297,0.164-0.147-0.214-0.444-0.08l0.202-0.176c-0.045,0.038-0.188-0.056-0.324,0.031l-0.102,0.431
					c-0.156,0.107-0.121-0.114-0.252,0.065l0.178-0.218c0.021-0.052-0.215-0.155-0.445-0.079c-0.135,0.09-0.311,0.339-0.055,0.332
					c-0.116,0.039-0.303,0.016-0.238-0.103c-0.25,0.126,0.076,0.121-0.127,0.269c-0.119-0.053-0.445-0.077-0.658-0.141l0.173-0.279
					l-0.159,0.047c0.153-0.228-0.143-0.092-0.082-0.301c-0.117,0.007-0.229,0.107-0.319,0.186c0.403,0.177-0.233,0.49-0.062,0.713
					c-0.41,0.206-0.467-0.528-0.79,0.013c0.095,0.042-0.056,0.303,0.192,0.142c-0.276,0.06-0.1,0.312-0.449,0.311
					c0.199-0.18-0.334-0.174-0.045-0.435c0.004,0.091,0.209,0.002,0.254-0.038c-0.143-0.061-0.06-0.262-0.334-0.172
					c-0.16,0.078-0.389,0.158-0.313,0.278c0.055,0.143,0.251-0.099,0.191,0.083c-0.318,0.158-0.445-0.043-0.5,0.258
					c0.205-0.089,0.306,0.043,0.334,0.144l-0.225,0.14l0.016-0.111c-0.416,0.059-0.059,0.211-0.447,0.31l-0.241-0.132
					c0.037-0.192,0.577-0.107,0.423-0.351c-0.252,0.069-0.289,0.23-0.545,0.238l0.156-0.109c-0.092,0.02-0.295-0.303-0.58,0.021
					c-0.154,0.142-0.016,0.11,0.012,0.211c-0.386,0.163-0.471,0.304-0.721,0.404c-0.012-0.211-0.457,0.133-0.242-0.159
					c0.168,0.069,0.737-0.133,0.816-0.365c-0.221-0.181,0.322-0.071,0.33-0.332c-0.32,0.101-0.379-0.131-0.479-0.261l-0.202,0.15
					c0.009,0.151,0.124,0.111,0.178,0.252c-0.367,0.081-0.684,0.273-0.834,0.475c-0.141-0.029-0.15-0.181-0.015-0.241
					c-0.409,0.182-0.864,0.318-1.28,0.414c0.337,0.138-0.428,0.206-0.186,0.334c0.231-0.022,0.471,0.075,0.387,0.218
					c-0.139,0.031-0.029-0.102-0.102-0.13c-0.128,0.182-0.334-0.107-0.434,0.145c0.359-0.205-0.021-0.301-0.012-0.503
					c-0.242,0.195-0.031-0.13-0.307-0.035c-0.242,0.192-0.554,0.39-0.848,0.536c-0.443-0.032-0.977,0.339-1.316,0.471
					c-0.211-0.024-0.162-0.268-0.369-0.232c-0.228,0.087,0.248,0.154-0.124,0.186l0.019-0.052c-0.086,0.083-0.672,0.088-0.666,0.412
					l0.025-0.254l-0.154,0.117c-0.028-0.07-0.125-0.106-0.039-0.19c-0.264-0.072-0.43,0.185-0.654,0.274l0.193,0.074
					c-0.352,0.241-0.656,0.215-1.016,0.399l-0.035-0.129l-0.194,0.159c0.009-0.143-0.226-0.141-0.304,0.005l0.463-0.525
					c0.189,0.013-0.119,0.217,0.028,0.302c0.126,0.075,0.46-0.09,0.472-0.23c-0.139,0.036-0.135,0.065-0.221,0.149
					c-0.109-0.156,0.096-0.226,0.152-0.379c-0.067,0.033-0.187,0.018-0.181,0.078c0.105-0.136,0.237-0.202,0.466-0.29
					c-0.13,0.125,0.123,0.076,0.084,0.147c-0.039-0.159,0.162-0.287,0.461-0.349c0.266,0.103,0.488-0.31,0.836-0.378
					c-0.078,0.203-0.203,0.389-0.379,0.523c0.234,0.003,0.228-0.087,0.462-0.083c0.058-0.151,0.065-0.354,0.308-0.522l0.057,0.109
					c0.223-0.146,0.161-0.316,0.483-0.395c0.554-0.132,1.101-0.325,1.513-0.453l0.055,0.109c0.143-0.324,0.725-0.351,0.992-0.564
					c0.557-0.069,1.094-0.493,1.428-0.384c0.888-0.399,1.666-0.748,2.635-1.016l-0.105,0.221c0.131-0.18,0.143,0.061,0.302-0.019
					c-0.236-0.072,0.177-0.251,0.261-0.393c0.469-0.005,0.971-0.319,1.313-0.558l0.051,0.112c0.314-0.338,0.83-0.295,1.318-0.403
					c0.069,0.031,0.189,0.114,0.328,0.059c0.201-0.268,0.34-0.296,0.685-0.529c0.277-0.085,0.742-0.176,1.046-0.188
					c0.969-0.572,2.086-0.725,3.132-1.195l0.118,0.115c0.975-0.595,2.352-0.7,3.219-1.093l-0.023,0.26
					c0.303-0.006,0.631-0.238,0.512-0.386c0.305-0.006,0.682-0.309,0.914-0.163c0.303-0.036,0.328-0.208,0.563-0.302
					c0.609-0.063,0.82-0.14,1.359-0.328l-0.141,0.021c-0.047,0.067-0.025,0.169,0.115,0.148c0.189-0.119,0.773-0.133,0.496-0.362
					c0.629,0.007,1.34-0.488,1.971-0.408c-0.068-0.064,0.074-0.115,0.121-0.183c0.518-0.132,1.102-0.109,1.482-0.344
					c0.092,0.019-0.098,0.165,0.115,0.12c0.117-0.061-0.023-0.102,0.121-0.184c0.807-0.35,1.742-0.253,2.496-0.472
					c1.326-0.479,2.773-0.7,4.074-1.02l-0.002,0.061c0.391-0.319,1.078,0.007,1.357-0.396c0.117,0.033,0.402-0.057,0.35,0.07
					c0.318-0.228,1.01-0.057,1.475-0.357l-0.121,0.057c0.537,0.021,0.953-0.245,1.518-0.231c-0.049,0.035-0.146,0.072-0.15,0.133
					c0.23,0.07,0.447-0.338,0.615-0.082c0.119-0.025,0.059-0.155-0.014-0.134c1.205-0.116,2.434-0.545,3.66-0.817
					c0.916,0.012,0.137,0.459,0.799,0.129c0.066,0.044,0.023-0.113,0.043-0.057c0.258-0.126,0.475,0.236,0.637,0.059
					c-0.107-0.158,0.109-0.118,0.096-0.223c0.561,0.018,0.695,0.146,1.102-0.05l-0.018,0.095c0.461-0.334,1.064-0.289,1.441-0.65
					c2.762-0.504,5.408-1.032,8.127-1.391c2.695-0.271,5.328-0.662,8.086-0.716c0.66,0.189,0.707,0.172,1.406,0.028
					c-0.025,0.04-0.068,0.052-0.02,0.085c0.021-0.198,0.496-0.048,0.551-0.239c1.02-0.023,1.953-0.132,2.998-0.195
					c-0.164,0.031-0.238,0.196-0.043,0.172l0.199-0.138l0.035,0.054c0.135-0.033,0.275-0.136,0.135-0.194
					c2.627-0.285,5.229,0.057,7.805,0.004c0.611,0.093,1.482,0.032,2.15,0.003c1.969,0.271,3.727,0.604,5.736,0.503
					C317.308,20.131,317.017,20.627,316.188,20.706z"/>
				<path fill="#2083C4" d="M230.993,35.878c0.101,0.066,0.333,0.035,0.211,0.223C231.149,36.022,231.003,35.969,230.993,35.878z"/>
				<path fill="#2083C4" d="M237.048,34.755c-0.002-0.03,0.096,0.009,0.119,0.018c-0.068,0.031-0.107,0.133-0.182,0.104
					C237.056,34.845,237.029,34.805,237.048,34.755z"/>
				<path fill="#2083C4" d="M238.533,34.308c0.005,0.089-0.286,0.263-0.467,0.336L238.533,34.308z"/>
				<path fill="#2083C4" d="M240.017,34.191c0.141,0.031,0.121,0.08-0.039,0.131C239.952,34.282,239.997,34.243,240.017,34.191z"/>
				<path fill="#2083C4" d="M240.05,33.97c0.113-0.04,0.186-0.01,0.258,0.02C240.279,33.919,240.059,34.122,240.05,33.97z"/>
				<path fill="#2083C4" d="M243.107,33.245c0.069-0.029,0.202-0.147,0.299-0.075C243.312,33.128,243.091,33.386,243.107,33.245z"/>
				<path fill="#2083C4" d="M244.455,32.682l0.114-0.039c0.095,0.013,0.027,0.101-0.041,0.131L244.455,32.682z"/>
				<polygon fill="#2083C4" points="270.024,25.704 269.878,25.778 269.884,25.688 				"/>
				<path fill="#2083C4" d="M281.46,23.637c0.146-0.079,0.119,0.064,0.146,0.073C281.468,23.741,281.644,23.595,281.46,23.637z"/>
				<polygon fill="#2083C4" points="287.61,22.342 287.563,22.351 287.556,22.17 				"/>
			</g>
		</g>
	</g>
	<g>
		<g>
			<g>
				<path fill="#B94743" d="M351.96,24.637c6.039,5.763,10.648,10.742,10.291,11.116s-5.547-3.997-11.586-9.759"/>
			</g>
		</g>
	</g>
	<g>
		<g>
			<g>
				<path fill="#B94743" d="M336.929,20.948c7.254,5.625,12.883,10.52,12.564,10.929c-0.316,0.409-6.459-3.822-13.713-9.446"/>
			</g>
		</g>
	</g>
	<g>
		<g>
			<g>
				<path fill="#B94743" d="M323.687,19.969c6.311,4.503,11.188,8.498,10.887,8.919s-5.664-2.891-11.977-7.394"/>
			</g>
		</g>
	</g>
	<g>
		<g>
			<g>
				<path fill="#B94743" d="M309.095,19.873c7.297,3.203,13.047,6.188,12.84,6.661c-0.209,0.474-6.297-1.74-13.594-4.944"/>
			</g>
		</g>
	</g>
	<g>
		<g>
			<g>
				<path fill="#B94743" d="M295.353,20.739c5.309,1.221,9.521,2.62,9.404,3.125c-0.115,0.505-4.516-0.076-9.824-1.297"/>
			</g>
		</g>
	</g>
	<path fill="#FAE58E" d="M32.49,117.407c16.553-3.428,54.458-21.436,88.777-16.113c34.319,5.324,71.652,9.324,94.986,21.324
		c23.334,12,22.667,13.333,3.334,16c-19.334,2.666-31.334,6.666-21.334,11.332c10,4.668,32.302,11.213-3.333,6.002
		c-33.642-4.921-51.267-8-101.279-2.002C47.677,159.464-29.273,130.196,32.49,117.407z"/>
	<path fill="#B94743" d="M27.119,187.284c-4.412-44.297,50.368-71.391,95.467-117c45.099-45.609,112.446-43.516,112.446-43.516
		l25.406-4.907c0,0-5.756,34.104-31.419,54.753c-26.413,21.252-46.153,44.829-46.91,68.243
		c-1.403,43.427,17.477,68.082,17.477,68.082S29.821,214.411,27.119,187.284z"/>
	<path opacity="0.2" fill="#FFFFFF" d="M49.073,191.58c-6.667-5.332-12.619-4.666-9.643-21.332
		c2.976-16.668,16.65-32.668,26.813-42.001s64.953-34.933,55.664-42.165c-7.659-5.965,9-18,28.438-30.502
		c33.127-21.304,100.318-24.395,100.318-24.395s-8.186,8.395-21.555,21.062s-41.956,1.001-57.289,10.335
		c-15.333,9.333-58.057,45.928-73.413,55.257c-19.551,11.877-38.222,31.909-37.5,45.243s22.611,33.832,11.722,34.498
		C61.74,198.248,49.073,191.58,49.073,191.58z"/>
	<path opacity="0.34" d="M55.351,141.536c0,0,1.536,15.506,5.245,16.336c30.143,6.746,101.36,7.196,113.991,0
		s23.764-16.336,23.764-16.336s-101.225,6.486-107.612,3.451C84.351,141.95,63.685,136.454,55.351,141.536z"/>
	<path fill="#FAE58E" d="M62.111,117.407c0,0,25.849,21.878,44.662,22.545c18.813,0.666,76.471-10.245,76.471-10.245l7.009-4.544
		v19.824c0,0,3.562,8.608-5.874,9.424c-1.474,0.127-12.416-7.771-14.057-7.633c-41.389,3.471-133.521,9.801-141.95-1.791
		C17.469,129.991,62.111,117.407,62.111,117.407z"/>
	<path opacity="0.41" d="M-354.318,212.581c15.904-0.979,70.069-7.982,84.119-7.628c9.486,0.239,51.696,18.507,127.214,8.724
		c26.998-3.497,91.693,12.263,93.642,13.237c6,3-170.125,2.751-194.831,1.428c-37.335-2-31.757,8.031-67.5,6.572
		C-345.927,233.516-375.035,213.855-354.318,212.581z"/>
</g>
</svg>
