<?xml version="1.0" encoding="utf-8"?>
<!-- Generator: Adobe Illustrator 14.0.0, SVG Export Plug-In . SVG Version: 6.00 Build 43363)  -->
<!DOCTYPE svg PUBLIC "-//W3C//DTD SVG 1.1//EN" "http://www.w3.org/Graphics/SVG/1.1/DTD/svg11.dtd">
<svg version="1.1" id="Calque_1" xmlns="http://www.w3.org/2000/svg" xmlns:xlink="http://www.w3.org/1999/xlink" x="0px" y="0px"
	 width="23px" height="23px" viewBox="0 0 23 23" enable-background="new 0 0 23 23" xml:space="preserve">
<g>
	<g>
		<path d="M11.534,21.333c-5.422,0-9.833-4.41-9.833-9.832c0-5.422,4.411-9.834,9.833-9.834c5.423,0,9.834,4.412,9.834,9.834
			C21.368,16.923,16.957,21.333,11.534,21.333L11.534,21.333z M11.534,2.667c-4.871,0-8.833,3.963-8.833,8.834
			s3.962,8.832,8.833,8.832c4.871,0,8.834-3.961,8.834-8.832S16.405,2.667,11.534,2.667L11.534,2.667z"/>
		<path d="M11.534,18.226c-3.706,0-6.72-3.018-6.72-6.725c0-3.709,3.015-6.726,6.72-6.726c3.706,0,6.722,3.017,6.722,6.726
			C18.256,15.208,15.24,18.226,11.534,18.226L11.534,18.226z M11.534,5.775c-3.154,0-5.72,2.569-5.72,5.726
			c0,3.156,2.566,5.725,5.72,5.725c3.155,0,5.722-2.568,5.722-5.725C17.256,8.344,14.689,5.775,11.534,5.775L11.534,5.775z"/>
		<path d="M11.534,15.108c-1.992,0-3.612-1.619-3.612-3.607c0-1.99,1.621-3.609,3.612-3.609c1.992,0,3.613,1.619,3.613,3.609
			C15.147,13.489,13.526,15.108,11.534,15.108L11.534,15.108z M11.534,8.892c-1.44,0-2.612,1.17-2.612,2.609
			c0,1.438,1.172,2.607,2.612,2.607s2.613-1.17,2.613-2.607C14.147,10.063,12.975,8.892,11.534,8.892L11.534,8.892z"/>
	</g>
	<g>
		<polygon points="12.034,22.767 11.034,22.767 11.034,11.567 12.034,11.567 12.034,22.767 		"/>
		<polygon points="22.802,12.001 11.601,12.001 11.601,11.001 22.802,11.001 22.802,12.001 		"/>
		<polygon points="12.034,11.435 11.034,11.435 11.034,0.233 12.034,0.233 12.034,11.435 		"/>
		<polygon points="11.467,12.001 0.268,12.001 0.268,11.001 11.467,11.001 11.467,12.001 		"/>
	</g>
</g>
</svg>
