<?xml version="1.0" encoding="utf-8"?>
<!-- Generator: Adobe Illustrator 14.0.0, SVG Export Plug-In . SVG Version: 6.00 Build 43363)  -->
<!DOCTYPE svg PUBLIC "-//W3C//DTD SVG 1.1//EN" "http://www.w3.org/Graphics/SVG/1.1/DTD/svg11.dtd">
<svg version="1.1" id="Calque_1" xmlns="http://www.w3.org/2000/svg" xmlns:xlink="http://www.w3.org/1999/xlink" x="0px" y="0px"
	 width="23px" height="23px" viewBox="0 0 23 23" enable-background="new 0 0 23 23" xml:space="preserve">
<g>
	<g>
		<path fill="#FFFFFF" d="M11.534,21.333c-5.422,0-9.833-4.41-9.833-9.832s4.411-9.834,9.833-9.834c5.423,0,9.833,4.412,9.833,9.834
			S16.957,21.333,11.534,21.333L11.534,21.333z M11.534,2.667c-4.871,0-8.833,3.963-8.833,8.834s3.962,8.832,8.833,8.832
			s8.833-3.961,8.833-8.832S16.404,2.667,11.534,2.667L11.534,2.667z"/>
		<path fill="#FFFFFF" d="M11.534,18.227c-3.706,0-6.72-3.019-6.72-6.726c0-3.709,3.015-6.726,6.72-6.726
			c3.707,0,6.722,3.017,6.722,6.726C18.256,15.208,15.24,18.227,11.534,18.227L11.534,18.227z M11.534,5.775
			c-3.154,0-5.72,2.569-5.72,5.726c0,3.155,2.566,5.726,5.72,5.726c3.156,0,5.722-2.568,5.722-5.726
			C17.256,8.344,14.689,5.775,11.534,5.775L11.534,5.775z"/>
		<path fill="#FFFFFF" d="M11.534,15.107c-1.992,0-3.611-1.619-3.611-3.606c0-1.99,1.621-3.609,3.611-3.609
			c1.992,0,3.613,1.619,3.613,3.609C15.146,13.488,13.525,15.107,11.534,15.107L11.534,15.107z M11.534,8.892
			c-1.439,0-2.611,1.17-2.611,2.609c0,1.438,1.172,2.606,2.611,2.606c1.441,0,2.613-1.17,2.613-2.606
			C14.146,10.063,12.975,8.892,11.534,8.892L11.534,8.892z"/>
	</g>
	<g>
		<polygon fill="#FFFFFF" points="12.033,22.768 11.034,22.768 11.034,11.567 12.033,11.567 		"/>
		<polygon fill="#FFFFFF" points="22.803,12.001 11.601,12.001 11.601,11.001 22.803,11.001 		"/>
		<polygon fill="#FFFFFF" points="12.033,11.435 11.034,11.435 11.034,0.233 12.033,0.233 		"/>
		<polygon fill="#FFFFFF" points="11.467,12.001 0.268,12.001 0.268,11.001 11.467,11.001 		"/>
	</g>
</g>
</svg>
