<?xml version="1.0" encoding="utf-8"?>
<!-- Generator: Adobe Illustrator 14.0.0, SVG Export Plug-In . SVG Version: 6.00 Build 43363)  -->
<!DOCTYPE svg PUBLIC "-//W3C//DTD SVG 1.1//EN" "http://www.w3.org/Graphics/SVG/1.1/DTD/svg11.dtd">
<svg version="1.1" id="Calque_1" xmlns="http://www.w3.org/2000/svg" xmlns:xlink="http://www.w3.org/1999/xlink" x="0px" y="0px"
	 width="155.5px" height="163px" viewBox="0 0 155.5 163" enable-background="new 0 0 155.5 163" xml:space="preserve">
<linearGradient id="SVGID_1_" gradientUnits="userSpaceOnUse" x1="64.0938" y1="110.7637" x2="88.5781" y2="110.7637">
	<stop  offset="0" style="stop-color:#4F3122"/>
	<stop  offset="1" style="stop-color:#2C1A10"/>
</linearGradient>
<path fill="url(#SVGID_1_)" d="M64.5,159.5c15.32-17.317,10.628-34.267,4.777-54.953c-2.569-9.085-13.192-44.022,6.391-43.718
	c15.661,0.244,12.878,26.048,12.449,35.692c-0.751,16.905,1.833,35.078-0.698,51.77C85.734,159.406,78.63,161.429,68.5,160.5"/>
<path opacity="0.6" d="M148.725,76.058c-0.118,0.086-0.26,0.161-0.443,0.223c-0.732,0.25-1.525-0.017-2.269,0.122
	c-1.658,0.314-3.015,1.66-4.596,2.213c-1.284,0.448-3,0.385-4.34,0.551c-5.143,0.634-10.283,1.115-15.438,1.224
	c-4.801,0.102-9.594,0.101-14.396,0.286c-5.706,0.217-11.412,0.535-17.117,0.735c-5.646,0.198-11.289,0.311-16.935,0.5
	c-5.746,0.193-11.493,0.456-17.238,0.671c-5.229,0.197-10.458,0.337-15.687,0.503c-4.669,0.149-9.34,0.342-14.01,0.524
	c-3.619,0.142-7.238,0.253-10.856,0.36c-2.46,0.073-4.919,0.159-7.379,0.271c-0.851,0.038-1.699,0.056-2.548,0.086
	c-0.035,0.001,0.167-7.058,0.153-7.444c-0.041-1.173-0.288-2.304,0.987-2.959c0.426-0.22,0.797-0.51,1.21-0.751
	c0.473-0.274,0.995-0.43,1.507-0.599c1.157-0.381,2.335-0.696,3.521-0.94c0.729-0.151,1.393-0.395,2.132-0.382
	c-1.62,0.206-3.362,0.001-4.926-0.344c-0.837-0.187-1.819-0.478-2.46-1.041c-0.341-0.301-0.59-0.957-0.81-1.357
	c-0.251-0.457-0.479-0.929-0.664-1.419c-0.379-1.01-0.549-2.084-0.568-3.179C5.515,61.462,6.012,59,6.102,56.547
	c0.092-2.511-0.106-5.004-0.104-7.51c0.001-1.159-0.25-2.916,0.196-4.005c0.397-0.97,1.605-1.593,2.558-1.757
	c1.198-0.206,2.45-0.094,3.628-0.399c1.581-0.408,2.881-1.621,4.438-2.045c0.649-0.176,1.349-0.265,2.013-0.367
	c0.208-0.806,0.52-0.923,1.298-1.26c0.435-0.188,1.278-0.438,1.499-0.875c-0.849-0.063-1.269,0.524-1.946,0.879
	c-0.44,0.23-1,0.316-1.458,0.501c-0.944,0.382-1.784,0.767-2.792,0.846c-0.865,0.068-1.772-0.142-2.68,0.071
	c-1.332,0.311-2.471,1.077-3.829,1.309c-0.586,0.101-2.382,0.62-2.868,0.17c-0.382-0.354,0.211-1.225,0.275-1.725
	c0.26-2.047-0.025-4.276-0.02-6.333c0.006-2.262,0.111-4.525,0.184-6.789c0.064-1.978,0.062-3.951,0.064-5.926
	c0.002-1.571,0.045-3.143,0.1-4.715c0.2-5.695,9.889-4.232,13.58-4.196c4.385,0.042,8.695-0.719,13.148-0.458
	c4.008,0.234,7.976,0.136,12.017-0.058c3.926-0.188,6.752-2.875,10.474-3.457c3.416-0.534,7.798,0.711,11.25,0.878
	c4.11,0.199,8.235,0.217,12.364,0.118c8.756-0.209,17.52-0.867,26.278-1.237c5.841-0.247,11.735,0.174,17.532-0.191
	c5.521-0.349,10.944-2.254,16.484-1.921c2.306,0.138,4.713-0.147,7.02-0.103c1.289,0.024,4.464,0.121,5.24,1.236
	c0.75,1.076,0.115,4.983,0.117,6.336c0.003,1.627-0.892,2.543-2.361,2.911c-1.298,0.324-2.353,1.295-3.667,1.625
	c-2.02,0.508-4.025,1.381-6.056,1.745c-1.571,0.281-3.047,1.116-4.615,1.516c-1.38,0.354-2.896,0.14-4.304,0.325
	c-1.62,0.213-3.337,0.634-4.961,0.558c0.623-0.508,1.81,0.05,2.499,0.092c0.736,0.045,1.513-0.097,2.25-0.152
	c2.615-0.196,5.267-0.141,7.804-0.875c0.855-0.247,1.703-0.626,2.586-0.753c0.755-0.108,1.414,0.099,2.138,0.099
	c0.983,0,2.175-0.083,3.148-0.292c1.181-0.253,4.803-1.96,5.382-0.534c0.366,0.905-0.132,2.485-0.128,3.472
	c0.005,1.147,0.005,2.279-0.024,3.428c-0.146,5.753-0.182,11.504-0.327,17.258c-0.145,5.689-0.225,11.376-0.369,17.066
	c-0.118,4.644,1.161,9.618-1.666,13.938C149.203,75.43,149.083,75.796,148.725,76.058z"/>
<linearGradient id="SVGID_2_" gradientUnits="userSpaceOnUse" x1="3.3486" y1="42.2314" x2="149.3589" y2="42.2314" gradientTransform="matrix(1 -0.0351 -0.0175 1.0006 0.7197 2.657)">
	<stop  offset="0" style="stop-color:#5B3928"/>
	<stop  offset="1" style="stop-color:#41281B"/>
</linearGradient>
<path fill="url(#SVGID_2_)" d="M146.225,73.558c-0.118,0.086-0.26,0.161-0.443,0.223c-0.732,0.25-1.525-0.017-2.269,0.122
	c-1.658,0.314-3.015,1.66-4.596,2.213c-1.284,0.448-3,0.385-4.34,0.551c-5.143,0.634-10.283,1.115-15.438,1.224
	c-4.801,0.102-9.594,0.101-14.396,0.286c-5.706,0.217-11.412,0.535-17.117,0.735c-5.646,0.198-11.289,0.311-16.935,0.5
	c-5.746,0.193-11.493,0.456-17.238,0.671c-5.229,0.197-10.458,0.337-15.687,0.503c-4.669,0.149-9.34,0.342-14.01,0.524
	c-3.619,0.142-7.238,0.253-10.856,0.36c-2.46,0.073-4.919,0.159-7.379,0.271c-0.851,0.038-1.699,0.056-2.548,0.086
	c-0.035,0.001,0.167-7.058,0.153-7.444c-0.041-1.173-0.288-2.304,0.987-2.959c0.426-0.22,0.797-0.51,1.21-0.751
	c0.473-0.274,0.995-0.43,1.507-0.599c1.157-0.381,2.335-0.696,3.521-0.94c0.729-0.151,1.393-0.395,2.132-0.382
	c-1.62,0.206-3.362,0.001-4.926-0.344c-0.837-0.187-1.819-0.478-2.46-1.041c-0.341-0.301-0.59-0.957-0.81-1.357
	c-0.251-0.457-0.479-0.929-0.664-1.419c-0.379-1.01-0.549-2.084-0.568-3.179c-0.042-2.448,0.456-4.911,0.546-7.363
	c0.092-2.511-0.106-5.004-0.104-7.51c0.001-1.159-0.25-2.916,0.196-4.005c0.397-0.97,1.605-1.593,2.558-1.757
	c1.198-0.206,2.45-0.094,3.628-0.399c1.581-0.408,2.881-1.621,4.438-2.045c0.649-0.176,1.349-0.265,2.013-0.367
	c0.208-0.806,0.52-0.923,1.298-1.26c0.435-0.188,1.278-0.438,1.499-0.875c-0.849-0.063-1.269,0.524-1.946,0.879
	c-0.44,0.23-1,0.316-1.458,0.501c-0.944,0.382-1.784,0.767-2.792,0.846c-0.865,0.068-1.772-0.142-2.68,0.071
	c-1.332,0.311-2.471,1.077-3.829,1.309c-0.586,0.101-2.382,0.62-2.868,0.17c-0.382-0.354,0.211-1.225,0.275-1.725
	c0.26-2.047-0.025-4.276-0.02-6.333c0.006-2.262,0.111-4.525,0.184-6.789c0.064-1.978,0.062-3.951,0.064-5.926
	c0.002-1.571,0.045-3.143,0.1-4.715c0.2-5.695,9.889-4.232,13.58-4.196c4.385,0.042,8.695-0.719,13.148-0.458
	c4.008,0.234,7.976,0.136,12.017-0.058c3.926-0.188,6.752-2.875,10.474-3.457c3.416-0.534,7.798,0.711,11.25,0.878
	c4.11,0.199,8.235,0.217,12.364,0.118c8.756-0.209,17.52-0.867,26.278-1.237c5.841-0.247,11.735,0.174,17.532-0.191
	c5.521-0.349,10.944-2.254,16.484-1.921c2.306,0.138,4.713-0.147,7.02-0.103c1.289,0.024,4.464,0.121,5.24,1.236
	c0.75,1.076,0.115,4.983,0.117,6.336c0.003,1.627-0.892,2.543-2.361,2.911c-1.298,0.324-2.353,1.295-3.667,1.625
	c-2.02,0.508-4.025,1.381-6.056,1.745c-1.571,0.281-3.047,1.116-4.615,1.516c-1.38,0.354-2.896,0.14-4.304,0.325
	c-1.62,0.213-3.337,0.634-4.961,0.558c0.623-0.508,1.81,0.05,2.499,0.092c0.736,0.045,1.513-0.097,2.25-0.152
	c2.615-0.196,5.267-0.141,7.804-0.875c0.855-0.247,1.703-0.626,2.586-0.753c0.755-0.108,1.414,0.099,2.138,0.099
	c0.983,0,2.175-0.083,3.148-0.292c1.181-0.253,4.803-1.96,5.382-0.534c0.366,0.905-0.132,2.485-0.128,3.472
	c0.005,1.147,0.005,2.279-0.024,3.428c-0.146,5.753-0.182,11.504-0.327,17.258c-0.145,5.689-0.225,11.376-0.369,17.066
	c-0.118,4.644,1.161,9.618-1.666,13.938C146.703,72.93,146.583,73.296,146.225,73.558z"/>
<g>
	<g>
		<path stroke="#000000" stroke-width="0.25" d="M12.31,22.875l4.529,3.879l-3.005,1.757l1.726,0.153l-2.753-0.112l1.932-6.495
			L12.31,22.875z"/>
		<path stroke="#000000" stroke-width="0.25" d="M17.119,24.959l4.688,1.27l-4.545,0.592l1.922,1.199l-0.771,0.298l-0.898-1.774
			l-0.482,0.661l-1.38,1.29l1.115-1.222l0.876-0.745l-0.149-1.328l-1.802-1.218l1.152-0.014l0.593-3.085l1.005,2.317l-1.179,1.901
			l1.179-0.713L17.119,24.959z M20.053,24.624l-4.543,0.438l1.985-3.122l0.099,2.29l-0.255,0.41l-1.939,2.34l0.845,0.962
			l1.298-1.021l1.083,0.917l0.599,0.409L20.053,24.624z"/>
		<path stroke="#000000" stroke-width="0.25" d="M20.609,25.149l2.62-3.016l-2.852,1.3l2.256,1.365l-0.862,0.106l-2.143-0.084
			l0.607,1.381l1.75,2.432l-1.179-0.611l0.927-4.486L20.609,25.149z"/>
		<path stroke="#000000" stroke-width="0.25" d="M25.546,23.464l-0.031,4.287l-3.314-0.98l2.344,0.347l-0.009,0.197l2.009,0.647
			l-0.472-1.312l-1.521-1.259l1.573,1.456l-1.68-0.549l0.134,0.349l1.598,1.093l-1.041-0.3l-0.494,3.023l-0.973-2.304l1.144-1.916
			l-1.163,0.723l-1.856-0.643l1.333-1.512l0.48-0.75l-0.23-1.171l1.05-0.871l-0.025,3.157l1.585-1.375l1.871-0.207L25.546,23.464z
			 M26.217,26.503l-3.9-2.092l4.35-1.238l-2.127,0.839l-0.209-0.123l-1.978,0.537l1.03,1.221L26.217,26.503z"/>
		<path stroke="#000000" stroke-width="0.25" d="M27.783,24.991l2.91-2.422l-0.786,2.072l-0.521-2.177l1.005,0.78l1.47,1.192
			l-0.423-0.575l0.992-1.589l-0.955,1.236l-0.889,0.672l0.279,3.025l-0.14,0.811l0.897-3.478l-2.87-0.204l1.936-0.727l-2.404-0.555
			l1.246,1.504l1.727,3.751l-1.989-0.498l0.408-3.114l-1.065-0.853l0.07,0.643l-1.993-2.355l1.513,1.779l-1.825,0.503l0.445,2.939
			l-0.812,0.958l0.842-5.433L27.783,24.991z"/>
		<path stroke="#000000" stroke-width="0.25" d="M35.087,23.455l2.123,0.923l-1.893-3.97l-0.691,0.949L35.087,23.455z M33.9,23.238
			l4.474,5.223l-1.958-1.295l-2.219-4.526L33.9,23.238z"/>
		<path stroke="#000000" stroke-width="0.25" d="M37.665,24.666l2.773-2.668l-0.737,2.32l-0.494-2.196l0.645,0.403l-1.542,0.933
			l0.704,0.386l1.878,2.184l-1.645,0.753l-0.523-0.788l0.413-0.004l-0.592,1.829l-1.024-0.694l2.056,3.032l-2.998-1.686l2.245-5.323
			L37.665,24.666z M40.928,23.973l-4.585,0.229l2.021-2.991l0.092,2.292l-0.258,0.487l-1.939,2.148l0.837,1.05l1.328-0.997
			l1.114,0.838l0.534,0.43L40.928,23.973z"/>
		<path stroke="#000000" stroke-width="0.25" d="M43.444,21.747l-1.25,4.637l2.487-2.681l-2.34-0.361l0.005-0.178l-1.755-1.06
			l0.253,1.418l1.885,0.165l-0.997,1.178l0.482,1.322l0.288-0.082l1.848-0.177l-1.012,0.657l1.04,2.824l-1.905-1.757l-0.174-2.315
			l-0.65,1.232l-1.869-0.56l1.002,0.159l1.157,0.313l0.404-0.442l0.583,0.206l-0.485,2.841l0.296-2.366l1.922-0.469l-0.875-1.637
			l-2.539,1.427l-0.438-1.456l-1.376-0.749l3.393,0.175l-2.172-3.205l1.616,0.93l1.075,0.055l0.232,1.015l1.15,0.085l-1.98,1.166
			L43.444,21.747z"/>
		<path stroke="#000000" stroke-width="0.25" d="M45.992,22.797l4.482,5.233l-3.448-2.688l-0.675,1.671l-0.184,0.339l-0.622-1.788
			l0.027,0.722l-1.457,1.098l1.371-0.852l0.911-0.775l-0.299-2.791l0.208-0.858l-0.897,3.625l2.836,0.016l-1.917,0.767l2.413,0.537
			l-1.278-1.375l-1.788-3.308L45.992,22.797z"/>
		<path stroke="#000000" stroke-width="0.25" d="M49.65,24.228l2.911-2.419l-0.788,2.07l-0.521-2.178l1.005,0.78l1.471,1.191
			l-0.424-0.574l0.992-1.589l-0.954,1.236l-0.889,0.672l0.279,3.025l-0.141,0.811l0.896-3.478l-2.871-0.209l1.938-0.722
			l-2.404-0.554l1.246,1.503l1.727,3.751l-1.989-0.498l0.408-3.114l-1.065-0.853l0.067,0.644l-1.995-2.352l1.517,1.774l-1.825,0.503
			l0.445,2.939l-0.812,0.958l0.842-5.433L49.65,24.228z"/>
		<path stroke="#000000" stroke-width="0.25" d="M57.695,21.134l4.549,6.357l-3.523-2.575l-0.604,1.803l-0.288,0.239l-0.592-1.803
			l0.13,0.744l-1.659,0.772L57.2,25.66l0.931-2.426l-0.147-0.35l-1.452-1.144l0.816,0.661l1.336-2.667l-0.42,2.371l1.98-2.68
			L57.695,21.134z M60.561,23.084l-4.477,0.713l1.904-3.271l0.087,2.291l-0.249,0.285l-1.939,2.539l0.868,0.95l1.273-1.083
			l1.097,0.914l0.625,0.274L60.561,23.084z"/>
		<path stroke="#000000" stroke-width="0.25" d="M61.763,23.4l4.688,1.27l-4.545,0.594l1.922,1.197l-0.771,0.298l-0.898-1.774
			l-0.482,0.661l-1.381,1.289l1.115-1.223l0.876-0.743l-0.149-1.328l-1.802-1.219l1.152-0.014l0.593-3.085l1.005,2.317l-1.178,1.903
			l1.178-0.717L61.763,23.4z M64.697,23.064l-4.543,0.438l1.986-3.122l0.099,2.29l-0.255,0.411l-1.939,2.34l0.846,0.963l1.3-1.023
			l1.081,0.917l0.599,0.409L64.697,23.064z"/>
		<path stroke="#000000" stroke-width="0.25" d="M63.98,20.93l4.541,6.358l-1.961-1.067l-2.25-5.778L63.98,20.93z"/>
		<path stroke="#000000" stroke-width="0.25" d="M68.045,23.181l4.688,1.27l-4.545,0.592l1.921,1.199l-0.771,0.298l-0.898-1.774
			l-0.483,0.66l-1.38,1.29l1.115-1.222l0.876-0.744l-0.149-1.328l-1.802-1.219l1.151-0.014l0.593-3.085l1.005,2.317l-1.177,1.904
			l1.178-0.716L68.045,23.181z M70.979,22.845l-4.543,0.438l1.991-3.122l0.093,2.29l-0.255,0.41l-1.939,2.34l0.845,0.963
			l1.299-1.021l1.083,0.917l0.599,0.409L70.979,22.845z"/>
		<path stroke="#000000" stroke-width="0.25" d="M71.533,23.371l2.619-3.018l-2.849,1.303l2.256,1.364l-0.862,0.106l-2.143-0.087
			l0.606,1.385l1.75,2.432l-1.178-0.611l0.927-4.487L71.533,23.371z"/>
		<path stroke="#000000" stroke-width="0.25" d="M77.77,20.548l-1.25,4.637l2.487-2.681l-2.34-0.361l0.006-0.178l-1.756-1.06
			l0.253,1.418l1.885,0.165l-0.996,1.178l0.481,1.322l0.288-0.082l1.847-0.178l-1.011,0.656l1.04,2.824l-1.906-1.757l-0.174-2.314
			l-0.649,1.233l-1.87-0.561l1.002,0.159l1.157,0.313l0.404-0.442l0.583,0.206l-0.485,2.841l0.295-2.365l1.922-0.47l-0.875-1.637
			l-2.539,1.428l-0.438-1.456l-1.377-0.749l3.393,0.177l-2.172-3.206l1.615,0.93l1.076,0.055l0.231,1.015l1.15,0.083l-1.98,1.167
			L77.77,20.548z"/>
		<path stroke="#000000" stroke-width="0.25" d="M79.521,21.904l2.123,0.922l-1.894-3.969l-0.691,0.95L79.521,21.904z
			 M78.333,21.686l4.474,5.222l-1.958-1.294l-2.219-4.526L78.333,21.686z"/>
		<path stroke="#000000" stroke-width="0.25" d="M81.736,22.268l3.125-2.359l-3.566,2.104l2.05-0.052l-0.629-0.089l-1.939,2.773
			l1.085,1.414l1.956-0.992l-1.379,0.458l0.064-1.294l-0.427,0.153l-0.841,1.698l0.606-0.678l-2.941-0.843l2.19-2.627l1.81-0.88
			l-1.285,0.403l-1.331-0.696l0.476-0.276L81.736,22.268z"/>
		<path stroke="#000000" stroke-width="0.25" d="M85.468,20.716l-1.117,4.53l2.564-2.733l-2.162-1.021l0.768-0.509l1.154,1.65
			l0.457-0.663l1.8-0.479l-1.501,1.82l-0.678,1.658l0.544-0.68l-0.67,1.295l-0.519-0.222l-0.097,2.959l-0.86-2.401l1.964-1.04
			l-1.397-0.426l-1.406-1.39l1.772,0.45l1.369-0.468l-0.896-0.787l-0.57-0.147l0.477-2.883l-0.292,2.434l1.802-0.508L85.468,20.716z
			 M88.976,22.875l-0.289,1.848l-4.466-0.198l2.351,0.422l-0.001,0.203l1.939,0.743l-0.872-0.404L88.976,22.875z"/>
		<path stroke="#000000" stroke-width="0.25" d="M89.865,22.823l2.91-2.422l-0.786,2.073l-0.521-2.177l1.005,0.78l1.47,1.191
			l-0.424-0.574l0.992-1.589l-0.955,1.236l-0.889,0.672l0.279,3.025l-0.14,0.811l0.896-3.478l-2.87-0.205l1.937-0.727l-2.404-0.555
			l1.246,1.504l1.727,3.751l-1.989-0.498l0.408-3.114l-1.065-0.853l0.069,0.643l-1.993-2.355l1.513,1.779l-1.825,0.503l0.445,2.939
			l-0.812,0.958l0.842-5.433L89.865,22.823z"/>
		<path stroke="#000000" stroke-width="0.25" d="M97.886,20.938l-0.031,4.287l-3.314-0.98l2.344,0.346l-0.01,0.197l2.01,0.645
			l-0.472-1.309l-1.521-1.259l1.573,1.455l-1.68-0.549l0.134,0.347l1.599,1.095l-1.042-0.3l-0.492,3.023l-0.975-2.305l1.142-1.918
			l-1.16,0.725l-1.856-0.643l1.333-1.512l0.479-0.751l-0.23-1.17l1.05-0.871l-0.024,3.157l1.583-1.375l1.872-0.206L97.886,20.938z
			 M98.558,23.978l-3.9-2.092l4.348-1.243l-2.126,0.844l-0.208-0.123l-1.978,0.538l1.03,1.221L98.558,23.978z"/>
		<path stroke="#000000" stroke-width="0.25" d="M99.873,21.635l3.125-2.359l-3.566,2.104l2.05-0.052l-0.629-0.089l-1.939,2.773
			L100,25.426l1.956-0.993l-1.379,0.458l0.064-1.294l-0.426,0.153l-0.842,1.698l0.606-0.678l-2.941-0.843l2.19-2.627l1.811-0.879
			l-1.286,0.402l-1.332-0.695l0.476-0.277L99.873,21.635z"/>
		<path stroke="#000000" stroke-width="0.25" d="M101.533,26.197l3.442-1.451l-4.5,0.021l1.742,1.39l-0.734,0.108l1.865,0.076
			l-0.982-1.969l-1.508,1.218l-0.326-1.312L101.533,26.197z"/>
		<path stroke="#000000" stroke-width="0.25" d="M107.099,19.884l-1.558,4.457l2.926-2.881l-2.348-0.325l0.021-0.199l-1.938-0.72
			l0.469,1.261l1.878,2.445l-1.42,0.85l1.126,1.58l1.768-1.414l-1.802-1.171l0.529-0.001l1.676-2.824l-0.566,3.097l-2.212-0.621
			l0.935,0.977l-0.448,1.908l-0.89-1.472l-0.025-0.547l-1.141-0.873l-0.6-1.473l3.208-0.131l-1.559-1.332l1.024,1.544l0.155-0.305
			l2.233-1.134L107.099,19.884z"/>
		<path stroke="#000000" stroke-width="0.25" d="M109.65,21.728l4.688,1.27l-4.544,0.591l1.921,1.2l-0.771,0.298l-0.898-1.774
			l-0.483,0.661l-1.379,1.29l1.114-1.223l0.876-0.744l-0.149-1.328l-1.802-1.219l1.152-0.014l0.594-3.085l1.004,2.317l-1.178,1.904
			l1.177-0.716L109.65,21.728z M112.584,21.392l-4.543,0.438l1.985-3.122l0.099,2.29l-0.255,0.41l-1.939,2.34l0.846,0.964l1.3-1.023
			l1.082,0.917l0.599,0.409L112.584,21.392z"/>
		<path stroke="#000000" stroke-width="0.25" d="M113.448,22.012l2.881-2.416l-0.816,2.053l-0.525-2.174l0.673,0.397l-1.545,0.953
			l0.712,0.488l1.827,3.885l-1.296-0.587l1.014-3.201l-0.26-1.156l-1.848,0.632l-0.87-0.3l2.837,0.927l-2.193,3.521l0.572-0.634
			l-1.342-4.229L113.448,22.012z"/>
		<path stroke="#000000" stroke-width="0.25" d="M119.284,19.098l-1.25,4.637l2.487-2.681l-2.339-0.361l0.005-0.178l-1.756-1.06
			l0.253,1.418l1.885,0.165l-0.996,1.178l0.481,1.321l0.288-0.081l1.848-0.178l-1.011,0.656l1.04,2.824l-1.905-1.757l-0.175-2.314
			l-0.649,1.232l-1.87-0.56l1.002,0.159l1.157,0.313l0.404-0.442l0.583,0.206l-0.485,2.841l0.296-2.366l1.922-0.469l-0.872-1.635
			l-2.542,1.425l-0.438-1.456l-1.377-0.749l3.392,0.178l-2.171-3.208l1.615,0.93l1.076,0.055l0.231,1.015l1.15,0.083l-1.98,1.167
			L119.284,19.098z"/>
		<path stroke="#000000" stroke-width="0.25" d="M123.164,20.056l-0.032,4.287l-3.314-0.98l2.344,0.346l-0.009,0.197l2.012,0.641
			l-0.475-1.305l-1.52-1.259l1.573,1.456l-1.68-0.549l0.134,0.347l1.598,1.095l-1.041-0.3l-0.492,3.023l-0.975-2.305l1.144-1.916
			l-1.163,0.723l-1.856-0.643l1.333-1.512l0.48-0.75l-0.23-1.171l1.049-0.871l-0.024,3.157l1.584-1.375l1.872-0.206L123.164,20.056z
			 M123.834,23.096l-3.899-2.093l4.348-1.243l-2.126,0.845l-0.209-0.123l-1.978,0.538l1.03,1.221L123.834,23.096z"/>
		<path stroke="#000000" stroke-width="0.25" d="M125.15,20.752l3.126-2.358l-3.568,2.103l2.051-0.051l-0.629-0.089l-1.939,2.773
			l1.085,1.414l1.956-0.992l-1.379,0.458l0.064-1.294l-0.427,0.153l-0.841,1.698l0.606-0.678l-2.941-0.843l2.19-2.627l1.81-0.88
			l-1.285,0.403l-1.331-0.696l0.476-0.276L125.15,20.752z"/>
		<path stroke="#000000" stroke-width="0.25" d="M129.69,19.828l-0.031,4.287l-3.314-0.98l2.344,0.346l-0.009,0.197l2.01,0.645
			l-0.472-1.309l-1.521-1.259l1.573,1.456l-1.68-0.549l0.134,0.35l1.598,1.093l-1.041-0.3l-0.494,3.023l-0.973-2.304l1.144-1.916
			l-1.163,0.723l-1.856-0.643l1.333-1.512l0.48-0.75l-0.23-1.171l1.049-0.871l-0.025,3.157l1.585-1.375l1.871-0.206L129.69,19.828z
			 M130.362,22.867l-3.9-2.092l4.35-1.238l-2.127,0.839l-0.209-0.123l-1.978,0.538l1.03,1.221L130.362,22.867z"/>
		<path stroke="#000000" stroke-width="0.25" d="M131.678,20.524l3.126-2.357l-3.568,2.102l2.051-0.051l-0.629-0.089l-1.939,2.773
			l1.085,1.414l1.956-0.993l-1.379,0.458l0.064-1.294l-0.427,0.153l-0.841,1.698l0.607-0.678l-2.941-0.843l2.19-2.627l1.81-0.88
			l-1.285,0.404l-1.331-0.696l0.476-0.276L131.678,20.524z"/>
		<path stroke="#000000" stroke-width="0.25" d="M134.886,19.693l4.482,5.233l-3.448-2.688l-0.675,1.671l-0.184,0.339l-0.622-1.788
			l0.029,0.723l-1.458,1.098l1.37-0.854l0.911-0.775l-0.299-2.791l0.208-0.858l-0.897,3.625l2.835,0.014l-1.917,0.769l2.413,0.537
			l-1.278-1.376l-1.788-3.308L134.886,19.693z"/>
		<path stroke="#000000" stroke-width="0.25" d="M138.322,21.038l2.621-3.015l-2.852,1.3l2.256,1.365l-0.862,0.106l-2.143-0.084
			l0.607,1.381l1.75,2.432l-1.178-0.611l0.927-4.487L138.322,21.038z"/>
		<path stroke="#000000" stroke-width="0.25" d="M23.168,32.054l-1.25,4.637l2.487-2.681l-2.34-0.362l0.006-0.178l-1.756-1.06
			l0.253,1.418l1.885,0.165l-0.996,1.178l0.481,1.322l0.288-0.082l1.848-0.178l-1.011,0.655l1.04,2.825l-1.905-1.757l-0.175-2.314
			l-0.649,1.232l-1.87-0.56l1.002,0.159l1.157,0.313l0.404-0.442l0.583,0.206l-0.485,2.841l0.296-2.366l1.921-0.469L23.51,34.92
			l-2.542,1.425l-0.438-1.456l-1.377-0.749l3.392,0.178l-2.171-3.208l1.615,0.93l1.076,0.055l0.231,1.015l1.15,0.083l-1.98,1.167
			L23.168,32.054z"/>
		<path stroke="#000000" stroke-width="0.25" d="M24.827,32.433l-1.116,4.53l2.564-2.733l-2.162-1.021l0.768-0.509l1.155,1.65
			l0.458-0.662l1.8-0.48l-1.501,1.82l-0.678,1.658l0.544-0.68l-0.67,1.295l-0.518-0.223l-0.098,2.96l-0.86-2.4l1.964-1.04
			l-1.397-0.426l-1.406-1.39l1.772,0.451l1.369-0.467l-0.895-0.788l-0.57-0.147l0.477-2.883l-0.292,2.434l1.802-0.508L24.827,32.433
			z M28.335,34.592l-0.29,1.85l-4.465-0.201l2.35,0.422l0,0.203l1.939,0.743l-0.872-0.404L28.335,34.592z"/>
		<path stroke="#000000" stroke-width="0.25" d="M29.692,31.711l4.549,6.357l-3.523-2.575l-0.604,1.803l-0.288,0.239l-0.59-1.802
			l0.127,0.742l-1.657,0.773l1.492-1.012l0.931-2.426l-0.147-0.351l-1.452-1.144l0.816,0.661l1.333-2.668l-0.417,2.372l1.98-2.68
			L29.692,31.711z M32.557,33.661l-4.477,0.713l1.91-3.272l0.082,2.291l-0.249,0.285l-1.939,2.539l0.868,0.949l1.273-1.083
			l1.096,0.915l0.625,0.273L32.557,33.661z"/>
		<path stroke="#000000" stroke-width="0.25" d="M33.107,33.124l2.123,0.923l-1.893-3.97l-0.691,0.949L33.107,33.124z M31.92,32.907
			l4.474,5.223l-1.958-1.295l-2.219-4.526L31.92,32.907z"/>
		<path stroke="#000000" stroke-width="0.25" d="M35.684,34.334l2.772-2.672l-0.736,2.325l-0.493-2.197l0.644,0.403l-1.542,0.932
			l0.704,0.386l1.878,2.184l-1.645,0.753l-0.521-0.789l0.409-0.001l-0.59,1.828l-1.024-0.695l2.056,3.033l-2.998-1.686l2.245-5.323
			L35.684,34.334z M38.948,33.641l-4.586,0.227l2.027-2.988l0.086,2.292l-0.258,0.486l-1.939,2.148l0.836,1.049l1.328-0.996
			l1.115,0.838l0.534,0.43L38.948,33.641z"/>
		<path stroke="#000000" stroke-width="0.25" d="M41.464,31.416l-1.25,4.637l2.487-2.681l-2.34-0.361l0.005-0.179l-1.758-1.056
			l0.255,1.415l1.885,0.165l-0.996,1.179l0.482,1.322l0.289-0.081l1.847-0.179l-1.011,0.656l1.039,2.825l-1.904-1.758l-0.174-2.314
			l-0.65,1.231l-1.87-0.559l1.002,0.159l1.158,0.312l0.403-0.442l0.583,0.206l-0.49,2.841l0.301-2.366l1.922-0.47l-0.877-1.64
			l-2.537,1.43l-0.438-1.455l-1.377-0.749l3.393,0.177l-2.172-3.207l1.616,0.93l1.077,0.055l0.231,1.015l1.15,0.084l-1.98,1.167
			L41.464,31.416z"/>
		<path stroke="#000000" stroke-width="0.25" d="M45.274,31.643L43.718,36.1l2.925-2.882l-2.348-0.325l0.021-0.2l-1.937-0.723
			l0.468,1.264l1.878,2.445l-1.419,0.851l1.121,1.58l1.772-1.413l-1.801-1.173l0.529-0.001l1.676-2.823l-0.566,3.097l-2.212-0.621
			l0.935,0.977l-0.449,1.908l-0.889-1.472l-0.025-0.546l-1.141-0.874l-0.6-1.473l3.208-0.131l-1.559-1.333l1.025,1.545l0.153-0.306
			l2.234-1.133L45.274,31.643z"/>
		<path stroke="#000000" stroke-width="0.25" d="M47.173,32.633l2.123,0.923l-1.893-3.97l-0.691,0.949L47.173,32.633z
			 M45.986,32.416l4.474,5.223l-1.958-1.295l-2.219-4.526L45.986,32.416z"/>
		<path stroke="#000000" stroke-width="0.25" d="M49.726,33.837l2.882-2.412l-0.82,2.051L51.265,31.3l0.673,0.397l-1.544,0.955
			l0.712,0.486l1.827,3.885l-1.296-0.586l1.014-3.201l-0.259-1.155l-1.849,0.63l-0.869-0.297l2.838,0.925l-2.193,3.521l0.572-0.634
			l-1.342-4.229L49.726,33.837z"/>
		<path stroke="#000000" stroke-width="0.25" d="M54.359,32.23l4.546,3.205l-4.533,0.724l1.976,0.979l-0.806,0.279l-1.086-1.764
			l-0.566,0.627l-1.269-0.498l1.641,1.498l0.427,1.271l1.696-1.168l-1.704-1.274l0.843-0.703l-0.117,2.639l-1.386-1.882l0.457-2.161
			l-0.701,1.228l-1.853-0.484l1.333-1.883l0.462-0.582l0.186-1.092l0.907-0.418l1.756,2.821l-1.665-2.254L54.359,32.23z
			 M57.146,32.873l-4.536,0.499l1.986-3.128l0.084,2.308l-0.26,0.338l-1.939,1.742l0.838,0.926l1.299-1.02l1.12,0.841l0.367,0.542
			L57.146,32.873z"/>
		<path stroke="#000000" stroke-width="0.25" d="M61.234,31.818l-0.032,4.287l-3.314-0.98l2.344,0.346l-0.009,0.197l2.01,0.645
			l-0.472-1.309l-1.521-1.259l1.573,1.456l-1.68-0.549l0.134,0.347l1.598,1.095l-1.041-0.3l-0.494,3.023l-0.973-2.304l1.143-1.917
			l-1.162,0.724l-1.856-0.643l1.333-1.512l0.48-0.75l-0.23-1.171l1.049-0.871l-0.023,3.157l1.583-1.375l1.872-0.206L61.234,31.818z
			 M61.904,34.858l-3.899-2.093l4.348-1.243l-2.126,0.845l-0.209-0.123l-1.978,0.538l1.03,1.221L61.904,34.858z"/>
		<path stroke="#000000" stroke-width="0.25" d="M61.976,30.6l4.541,6.358l-1.961-1.067l-2.25-5.778L61.976,30.6z"/>
		<path stroke="#000000" stroke-width="0.25" d="M65.388,31.997l2.123,0.923l-1.893-3.97l-0.691,0.949L65.388,31.997z
			 M64.201,31.779l4.474,5.223l-1.958-1.295l-2.219-4.526L64.201,31.779z"/>
		<path stroke="#000000" stroke-width="0.25" d="M67.604,32.361l3.126-2.358l-3.568,2.102l2.051-0.051l-0.629-0.089l-1.939,2.773
			l1.085,1.414l1.956-0.993l-1.379,0.458l0.063-1.293l-0.426,0.153l-0.842,1.698l0.607-0.678l-2.941-0.843l2.19-2.627l1.81-0.88
			l-1.285,0.403l-1.331-0.696l0.476-0.276L67.604,32.361z"/>
		<path stroke="#000000" stroke-width="0.25" d="M70.069,33.021l2.619-3.017l-2.849,1.303l2.256,1.365l-0.863,0.105L69.09,32.69
			l0.606,1.384l1.75,2.432l-1.178-0.61l0.927-4.487L70.069,33.021z"/>
		<path stroke="#000000" stroke-width="0.25" d="M72.126,36.823l3.442-1.451l-4.5,0.019l1.741,1.392l-0.735,0.108l1.865,0.077
			l-0.982-1.97l-1.507,1.219l-0.326-1.312L72.126,36.823z"/>
		<path stroke="#000000" stroke-width="0.25" d="M77.648,30.152l-1.25,4.637l2.487-2.681l-2.34-0.362l0.006-0.178l-1.756-1.06
			l0.253,1.418l1.885,0.165l-0.996,1.179l0.482,1.322l0.289-0.081l1.847-0.179l-1.011,0.656l1.04,2.824l-1.905-1.757l-0.175-2.315
			l-0.649,1.232l-1.87-0.56l1.002,0.159l1.157,0.313l0.404-0.442l0.583,0.205l-0.484,2.842l0.296-2.366l1.921-0.47l-0.872-1.634
			l-2.541,1.425l-0.438-1.456l-1.377-0.749l3.393,0.177l-2.171-3.207l1.615,0.93l1.076,0.055l0.231,1.015l1.15,0.083l-1.98,1.167
			L77.648,30.152z"/>
		<path stroke="#000000" stroke-width="0.25" d="M81.527,31.109l-0.031,4.287l-3.314-0.979l2.344,0.346l-0.009,0.197l2.012,0.641
			l-0.475-1.305l-1.521-1.259l1.574,1.455l-1.68-0.549l0.134,0.348l1.598,1.095l-1.041-0.3l-0.492,3.023l-0.975-2.305l1.143-1.917
			l-1.162,0.724l-1.856-0.643l1.333-1.512l0.479-0.751l-0.23-1.171l1.05-0.871l-0.025,3.157l1.584-1.375l1.872-0.207L81.527,31.109z
			 M82.198,34.149l-3.9-2.093l4.348-1.243l-2.126,0.844l-0.209-0.123l-1.978,0.538l1.03,1.221L82.198,34.149z"/>
		<path stroke="#000000" stroke-width="0.25" d="M84.23,29.807l4.549,6.357l-3.523-2.575l-0.604,1.803l-0.287,0.239l-0.593-1.803
			l0.129,0.743l-1.657,0.773l1.492-1.012l0.931-2.426l-0.147-0.35l-1.453-1.144l0.816,0.661l1.336-2.667l-0.421,2.371l1.98-2.68
			L84.23,29.807z M87.096,31.757l-4.479,0.71l1.907-3.269l0.087,2.291l-0.249,0.284l-1.939,2.539l0.867,0.948l1.275-1.081
			l1.096,0.912l0.624,0.277L87.096,31.757z"/>
		<path stroke="#000000" stroke-width="0.25" d="M89.797,29.613l4.549,6.358l-3.524-2.575l-0.604,1.802l-0.287,0.239l-0.593-1.803
			l0.13,0.743L87.81,35.15l1.492-1.012l0.931-2.426l-0.147-0.35l-1.452-1.145l0.816,0.661l1.336-2.667l-0.421,2.371l1.981-2.679
			L89.797,29.613z M92.662,31.563l-4.479,0.71l1.906-3.269l0.087,2.291l-0.249,0.284l-1.939,2.539l0.868,0.95l1.274-1.083
			l1.096,0.912l0.623,0.277L92.662,31.563z"/>
		<path stroke="#000000" stroke-width="0.25" d="M93.212,31.025l2.123,0.923l-1.893-3.97l-0.691,0.949L93.212,31.025z
			 M92.025,30.808l4.474,5.223l-1.958-1.295l-2.219-4.526L92.025,30.808z"/>
		<path stroke="#000000" stroke-width="0.25" d="M95.311,29.972l-1.116,4.53l2.564-2.733l-2.162-1.021l0.768-0.509l1.155,1.65
			l0.457-0.663l1.801-0.479l-1.501,1.82l-0.678,1.658l0.544-0.68l-0.67,1.295l-0.519-0.222l-0.098,2.96l-0.86-2.401l1.964-1.04
			l-1.397-0.426l-1.406-1.39l1.772,0.451l1.369-0.469l-0.896-0.787l-0.57-0.147l0.477-2.883l-0.292,2.434l1.802-0.508L95.311,29.972
			z M98.819,32.13l-0.291,1.852l-4.464-0.202l2.35,0.421l0,0.204l1.939,0.743l-0.872-0.404L98.819,32.13z"/>
		<path stroke="#000000" stroke-width="0.25" d="M99.708,32.079l2.91-2.422l-0.785,2.072l-0.521-2.177l1.005,0.78l1.469,1.192
			l-0.423-0.575l0.993-1.589l-0.955,1.236l-0.889,0.672l0.279,3.025l-0.14,0.811l0.896-3.478l-2.87-0.205l1.936-0.727l-2.405-0.549
			l1.248,1.498l1.727,3.752l-1.99-0.499l0.408-3.114l-1.065-0.853l0.07,0.644l-1.993-2.355l1.513,1.779l-1.825,0.503l0.445,2.939
			l-0.812,0.958l0.842-5.433L99.708,32.079z"/>
		<path stroke="#000000" stroke-width="0.25" d="M107.374,31.824l2.882-2.412l-0.82,2.051l-0.522-2.176l0.674,0.396l-1.545,0.955
			l0.712,0.486l1.827,3.885l-1.296-0.586l1.014-3.201l-0.259-1.155l-1.849,0.63l-0.869-0.3l2.837,0.927l-2.193,3.521l0.572-0.634
			l-1.342-4.229L107.374,31.824z"/>
		<path stroke="#000000" stroke-width="0.25" d="M111.85,31.25l4.688,1.27l-4.545,0.592l1.921,1.199l-0.771,0.298l-0.898-1.774
			l-0.482,0.661l-1.38,1.29l1.114-1.223l0.876-0.744l-0.149-1.328l-1.802-1.219l1.152-0.014l0.593-3.085l1.005,2.317l-1.18,1.901
			l1.18-0.713L111.85,31.25z M114.783,30.915l-4.543,0.438l1.985-3.122l0.099,2.29l-0.255,0.411l-1.939,2.34l0.846,0.963
			l1.298-1.022l1.083,0.917l0.599,0.409L114.783,30.915z"/>
		<path stroke="#000000" stroke-width="0.25" d="M115.647,31.535l2.881-2.416l-0.817,2.054l-0.524-2.175l0.673,0.396l-1.544,0.956
			l0.712,0.485l1.827,3.885l-1.296-0.586l1.014-3.201l-0.259-1.154l-1.849,0.63l-0.87-0.299l2.837,0.927l-2.193,3.521l0.572-0.634
			l-1.342-4.229L115.647,31.535z"/>
		<path stroke="#000000" stroke-width="0.25" d="M120.266,29.803l4.482,5.233l-3.448-2.688l-0.675,1.671l-0.184,0.339l-0.622-1.788
			l0.027,0.723l-1.457,1.098l1.37-0.853l0.911-0.775l-0.299-2.791l0.208-0.858l-0.897,3.625l2.835,0.017l-1.917,0.767l2.415,0.53
			l-1.281-1.369l-1.788-3.308L120.266,29.803z"/>
		<path stroke="#000000" stroke-width="0.25" d="M123.925,31.234l2.909-2.423l-0.787,2.074l-0.52-2.178l1.005,0.78l1.47,1.192
			l-0.423-0.575l0.992-1.588l-0.955,1.235l-0.889,0.672l0.279,3.025l-0.14,0.811l0.897-3.478l-2.87-0.205l1.936-0.727l-2.404-0.554
			l1.246,1.503l1.727,3.751l-1.989-0.498l0.408-3.114l-1.065-0.853l0.068,0.644l-1.991-2.355l1.513,1.778l-1.825,0.503l0.445,2.939
			l-0.812,0.958l0.842-5.433L123.925,31.234z"/>
		<path stroke="#000000" stroke-width="0.25" d="M130.278,29.362l4.146,3.481l-4.633,0.479l1.98,1.138l-0.648,0.188l-1.023-1.805
			l-0.1,1.017l-1.406-0.057l1.43,1.02l1.65-1.062l-0.281-0.881l-2.801-3.995l1.076,0.317l1.033,0.916l0.291-1.273L130.278,29.362z"
			/>
		<path stroke="#000000" stroke-width="0.25" d="M21.409,42.809l-0.032,4.287l-3.314-0.98l2.344,0.347l-0.009,0.197l2.01,0.646
			l-0.472-1.311l-1.52-1.259l1.573,1.456l-1.68-0.549l0.134,0.347l1.598,1.096L21,46.785l-0.494,3.023l-0.973-2.304l1.143-1.917
			l-1.162,0.724l-1.856-0.643l1.333-1.512l0.479-0.75l-0.23-1.171l1.05-0.872l-0.025,3.157l1.584-1.375l1.872-0.206L21.409,42.809z
			 M22.079,45.849l-3.9-2.093l4.348-1.243l-2.126,0.845l-0.209-0.123l-1.978,0.538l1.03,1.221L22.079,45.849z"/>
		<path stroke="#000000" stroke-width="0.25" d="M23.371,43.064l2.123,0.923l-1.893-3.97l-0.691,0.949L23.371,43.064z
			 M22.184,42.847l4.474,5.223l-1.958-1.295l-2.219-4.526L22.184,42.847z"/>
		<path stroke="#000000" stroke-width="0.25" d="M25.614,44.174l2.619-3.018l-2.849,1.303l2.256,1.365l-0.862,0.106l-2.143-0.087
			l0.606,1.384l1.75,2.432l-1.178-0.611l0.927-4.487L25.614,44.174z"/>
		<path stroke="#000000" stroke-width="0.25" d="M28.7,44.16l2.91-2.422l-0.789,2.074l-0.519-2.179l1.005,0.78l1.471,1.191
			l-0.424-0.573l0.991-1.59l-0.954,1.236l-0.889,0.673l0.279,3.025l-0.14,0.811l0.897-3.478l-2.87-0.205l1.936-0.727l-2.404-0.553
			l1.246,1.502l1.727,3.751l-1.989-0.498l0.408-3.114l-1.065-0.853l0.067,0.644l-1.99-2.355l1.513,1.779l-1.825,0.502l0.445,2.939
			l-0.812,0.958l0.842-5.433L28.7,44.16z"/>
		<path stroke="#000000" stroke-width="0.25" d="M35.247,43.526l4.688,1.27l-4.545,0.592l1.921,1.199l-0.771,0.298l-0.898-1.774
			l-0.482,0.661l-1.381,1.289l1.115-1.222l0.876-0.744l-0.149-1.328l-1.802-1.219l1.152-0.014l0.594-3.085l1.004,2.317l-1.178,1.904
			l1.177-0.716L35.247,43.526z M38.18,43.19l-4.543,0.438l1.991-3.122l0.093,2.291l-0.255,0.41l-1.939,2.34l0.845,0.963l1.3-1.022
			l1.082,0.916l0.598,0.41L38.18,43.19z"/>
		<path stroke="#000000" stroke-width="0.25" d="M39.424,40.972l4.549,6.357l-3.523-2.575l-0.604,1.803l-0.287,0.239l-0.59-1.802
			l0.127,0.742l-1.657,0.773l1.492-1.012l0.931-2.426l-0.147-0.351l-1.453-1.144l0.816,0.661l1.333-2.668l-0.418,2.372l1.98-2.68
			L39.424,40.972z M42.289,42.922l-4.476,0.717l1.909-3.275l0.082,2.292l-0.249,0.284l-1.939,2.539l0.868,0.949l1.273-1.083
			l1.096,0.915l0.625,0.273L42.289,42.922z"/>
		<path stroke="#000000" stroke-width="0.25" d="M44.274,42.776l3.126-2.357l-3.568,2.102l2.051-0.051l-0.629-0.089l-1.939,2.773
			l1.085,1.414l1.956-0.992l-1.379,0.458l0.064-1.294l-0.427,0.153l-0.841,1.698l0.607-0.678l-2.941-0.843l2.19-2.627l1.81-0.88
			l-1.285,0.403l-1.331-0.696l0.476-0.276L44.274,42.776z"/>
		<path stroke="#000000" stroke-width="0.25" d="M48.814,41.852l-0.031,4.287l-3.314-0.98l2.344,0.347l-0.009,0.197l2.01,0.645
			l-0.472-1.309l-1.521-1.259l1.573,1.456l-1.68-0.549l0.134,0.349l1.599,1.093l-1.041-0.3l-0.494,3.023l-0.973-2.304l1.144-1.916
			l-1.162,0.723l-1.856-0.643l1.333-1.512l0.479-0.75l-0.23-1.171l1.049-0.871l-0.025,3.157l1.585-1.375l1.871-0.206L48.814,41.852z
			 M49.485,44.891l-3.9-2.092l4.348-1.243l-2.125,0.845l-0.209-0.123l-1.978,0.538l1.03,1.221L49.485,44.891z"/>
		<path stroke="#000000" stroke-width="0.25" d="M51.051,43.379l2.91-2.422l-0.787,2.073l-0.519-2.178l1.004,0.78l1.47,1.192
			l-0.423-0.575l0.992-1.589l-0.954,1.236l-0.889,0.672l0.279,3.025l-0.14,0.811l0.897-3.478l-2.87-0.204l1.936-0.727l-2.404-0.555
			l1.246,1.504l1.727,3.751l-1.989-0.498l0.408-3.114l-1.065-0.853l0.068,0.643l-1.991-2.355l1.513,1.779l-1.825,0.503l0.445,2.939
			l-0.812,0.958l0.842-5.433L51.051,43.379z"/>
		<path stroke="#000000" stroke-width="0.25" d="M57.331,43.179l2.772-2.672l-0.736,2.325l-0.493-2.197l0.644,0.403l-1.542,0.932
			l0.704,0.386l1.878,2.184l-1.645,0.753l-0.523-0.788l0.411-0.002l-0.59,1.828l-1.024-0.694l2.056,3.033l-2.998-1.686l2.245-5.323
			L57.331,43.179z M60.594,42.486l-4.586,0.227l2.027-2.988l0.086,2.292l-0.258,0.486l-1.939,2.148l0.836,1.049l1.328-0.996
			l1.115,0.838l0.534,0.43L60.594,42.486z"/>
		<path stroke="#000000" stroke-width="0.25" d="M61.75,42.601l4.688,1.27l-4.545,0.594l1.922,1.197l-0.771,0.298l-0.898-1.774
			l-0.483,0.661l-1.381,1.289l1.115-1.222l0.876-0.744l-0.149-1.328l-1.802-1.219l1.151-0.013l0.593-3.085l1.005,2.317l-1.178,1.903
			l1.178-0.717L61.75,42.601z M64.684,42.265l-4.543,0.438l1.986-3.122l0.098,2.29l-0.255,0.41l-1.939,2.34l0.845,0.962l1.299-1.021
			l1.083,0.917l0.599,0.409L64.684,42.265z"/>
		<path stroke="#000000" stroke-width="0.25" d="M65.239,42.791l2.618-3.018l-2.849,1.303l2.256,1.364l-0.863,0.106l-2.142-0.087
			l0.606,1.384l1.75,2.432l-1.178-0.61l0.927-4.487L65.239,42.791z"/>
		<path stroke="#000000" stroke-width="0.25" d="M69.46,41.455l2.123,0.923l-1.893-3.97l-0.691,0.949L69.46,41.455z M68.273,41.238
			l4.474,5.223l-1.958-1.295l-2.219-4.526L68.273,41.238z"/>
		<path stroke="#000000" stroke-width="0.25" d="M72.013,42.66l2.88-2.417l-0.819,2.056l-0.521-2.176l0.673,0.397l-1.545,0.955
			l0.712,0.486l1.827,3.885l-1.296-0.586l1.014-3.201l-0.259-1.155l-1.849,0.63l-0.869-0.299l2.837,0.927l-2.193,3.521l0.572-0.634
			l-1.342-4.229L72.013,42.66z"/>
		<path stroke="#000000" stroke-width="0.25" d="M76.202,40.567l3.648,6.058l-2.391-2.09l-2.842-4.16l1.641-0.023l-1.477,4.034
			l3.33-2.21l-1.33-1.26L76.202,40.567z"/>
		<path stroke="#000000" stroke-width="0.25" d="M79.332,41.11l2.123,0.923l-1.893-3.97l-0.691,0.949L79.332,41.11z M78.145,40.893
			l4.474,5.223l-1.958-1.295l-2.219-4.526L78.145,40.893z"/>
		<path stroke="#000000" stroke-width="0.25" d="M82.264,39.477l4.549,6.357l-3.523-2.575l-0.605,1.803l-0.288,0.239l-0.592-1.803
			l0.13,0.743l-1.658,0.772l1.492-1.012l0.931-2.426l-0.147-0.35l-1.452-1.144l0.815,0.661l1.334-2.668l-0.418,2.371l1.98-2.68
			L82.264,39.477z M85.129,41.426l-4.477,0.713l1.91-3.272l0.082,2.291l-0.249,0.285l-1.939,2.539l0.868,0.95l1.273-1.083
			l1.096,0.915l0.625,0.273L85.129,41.426z"/>
		<path stroke="#000000" stroke-width="0.25" d="M86.475,40.584l4.482,5.233l-3.448-2.688L86.834,44.8l-0.184,0.338l-0.622-1.788
			l0.029,0.723l-1.459,1.097l1.371-0.853l0.911-0.775l-0.299-2.791l0.208-0.858l-0.897,3.625l2.835,0.014l-1.917,0.769l2.414,0.535
			l-1.279-1.374l-1.788-3.308L86.475,40.584z"/>
		<path stroke="#000000" stroke-width="0.25" d="M90.22,42.023l2.881-2.416l-0.816,2.053l-0.525-2.174l0.673,0.397l-1.545,0.953
			l0.712,0.488l1.827,3.885l-1.296-0.586l1.014-3.201l-0.259-1.155l-1.849,0.63l-0.869-0.299l2.837,0.927l-2.193,3.521l0.572-0.634
			l-1.342-4.229L90.22,42.023z"/>
		<path stroke="#000000" stroke-width="0.25" d="M94.067,41.038l3.126-2.357l-3.568,2.102l2.051-0.051l-0.629-0.089l-1.939,2.773
			l1.085,1.414l1.956-0.993l-1.379,0.458L94.835,43l-0.427,0.153l-0.841,1.698l0.607-0.678l-2.941-0.843l2.19-2.627l1.81-0.88
			l-1.285,0.403l-1.331-0.696l0.476-0.276L94.067,41.038z"/>
		<path stroke="#000000" stroke-width="0.25" d="M98.686,40.157l4.482,5.232l-3.448-2.688l-0.675,1.67l-0.184,0.339l-0.622-1.788
			l0.029,0.723l-1.458,1.098l1.37-0.853l0.911-0.775l-0.299-2.791l0.208-0.858l-0.897,3.625l2.835,0.014l-1.917,0.769l2.413,0.537
			l-1.278-1.376l-1.788-3.308L98.686,40.157z"/>
		<path stroke="#000000" stroke-width="0.25" d="M102.094,40.757l3.126-2.358l-3.568,2.103l2.051-0.051l-0.629-0.089l-1.939,2.773
			l1.085,1.414l1.956-0.993l-1.379,0.458l0.064-1.294l-0.427,0.153l-0.841,1.698l0.607-0.678l-2.941-0.843l2.19-2.627l1.81-0.88
			l-1.285,0.403l-1.331-0.696l0.476-0.276L102.094,40.757z"/>
		<path stroke="#000000" stroke-width="0.25" d="M104.697,38.709l4.541,6.358L107.277,44l-2.25-5.778L104.697,38.709z"/>
		<path stroke="#000000" stroke-width="0.25" d="M108.017,39.128l-1.116,4.53l2.564-2.733l-2.162-1.021l0.768-0.509l1.155,1.65
			l0.458-0.663l1.799-0.48l-1.501,1.82l-0.678,1.658l0.544-0.68l-0.67,1.295l-0.519-0.222l-0.098,2.96l-0.86-2.401l1.964-1.04
			l-1.397-0.426l-1.407-1.389l1.773,0.451l1.369-0.468l-0.895-0.788l-0.57-0.147l0.471-2.884l-0.287,2.434l1.802-0.508
			L108.017,39.128z M111.524,41.287l-0.29,1.851l-4.465-0.201l2.35,0.422l0,0.203l1.941,0.74l-0.873-0.401L111.524,41.287z"/>
		<path stroke="#000000" stroke-width="0.25" d="M111.535,39.592l3.942-0.404l-1.052,1.75l-0.419-2.229l0.571,0.31l-1.225,1.384
			l0.514-0.576l1.891,0.57l-1.596,2.336l-0.942,0.361l0.41-0.392l0.394,1.845l-0.235-0.956l0.858,1.833l-1.679-1.131l0.74-0.512
			l-1.337-5.789L111.535,39.592z M115.793,40.523l-4.549,0.418l1.97-3.145l0.1,2.285l-0.255,0.458l-1.939,2.234l0.845,1.015
			l1.312-1.012l1.113,0.84l0.546,0.354L115.793,40.523z"/>
		<path stroke="#000000" stroke-width="0.25" d="M116.95,40.673l4.688,1.27l-4.544,0.591l1.921,1.2l-0.771,0.298l-0.898-1.774
			l-0.483,0.661l-1.379,1.29l1.114-1.223l0.876-0.744l-0.149-1.328l-1.802-1.219l1.152-0.014l0.594-3.085l1.004,2.317l-1.177,1.904
			l1.177-0.716L116.95,40.673z M119.883,40.337l-4.543,0.438l1.985-3.122l0.099,2.29l-0.255,0.41l-1.939,2.34l0.846,0.964l1.3-1.023
			l1.082,0.917l0.598,0.409L119.883,40.337z"/>
		<path stroke="#000000" stroke-width="0.25" d="M120.438,40.863l2.618-3.018l-2.849,1.303l2.256,1.364l-0.862,0.106l-2.143-0.087
			l0.606,1.384l1.75,2.432l-1.178-0.61l0.927-4.487L120.438,40.863z"/>
		<path stroke="#000000" stroke-width="0.25" d="M125.376,39.178l-0.031,4.287l-3.314-0.979l2.344,0.346l-0.009,0.197l2.01,0.645
			l-0.472-1.309l-1.521-1.259l1.574,1.455l-1.68-0.549l0.134,0.348l1.598,1.095l-1.041-0.3l-0.492,3.023l-0.975-2.305l1.142-1.918
			l-1.161,0.725l-1.856-0.643l1.333-1.512l0.48-0.751l-0.23-1.171l1.05-0.871l-0.025,3.157l1.584-1.375l1.872-0.207L125.376,39.178z
			 M126.047,42.219l-3.899-2.093l4.348-1.243l-2.126,0.844l-0.209-0.123l-1.978,0.538l1.03,1.221L126.047,42.219z"/>
		<path stroke="#000000" stroke-width="0.25" d="M130.876,38.986l-0.031,4.287l-3.314-0.98l2.344,0.347l-0.01,0.197l2.01,0.646
			l-0.472-1.311l-1.521-1.259l1.573,1.455l-1.68-0.549l0.134,0.347l1.598,1.095l-1.041-0.301l-0.494,3.024L129,43.682l1.143-1.918
			l-1.162,0.724l-1.856-0.643l1.333-1.512l0.48-0.75l-0.23-1.171l1.049-0.871l-0.022,3.158l1.582-1.375l1.872-0.207L130.876,38.986z
			 M131.548,42.025l-3.9-2.092l4.348-1.243l-2.126,0.845l-0.209-0.123l-1.978,0.538l1.03,1.221L131.548,42.025z"/>
		<path stroke="#000000" stroke-width="0.25" d="M132.863,39.683l3.126-2.358l-3.567,2.104l2.051-0.051l-0.629-0.09l-1.939,2.773
			l1.085,1.414l1.956-0.993l-1.379,0.458l0.064-1.293l-0.426,0.153l-0.841,1.698l0.606-0.679l-2.941-0.843l2.19-2.627l1.811-0.879
			l-1.285,0.402l-1.333-0.695l0.476-0.277L132.863,39.683z"/>
		<path stroke="#000000" stroke-width="0.25" d="M15.549,51.406l4.549,6.357l-3.523-2.575l-0.604,1.803l-0.287,0.239l-0.593-1.803
			l0.129,0.742l-1.657,0.774l1.492-1.012l0.931-2.426l-0.147-0.35l-1.452-1.145l0.815,0.661l1.337-2.667l-0.421,2.371l1.98-2.68
			L15.549,51.406z M18.414,53.355l-4.476,0.716l1.902-3.275l0.088,2.291l-0.249,0.284l-1.939,2.539l0.867,0.948l1.275-1.081
			l1.095,0.914l0.625,0.274L18.414,53.355z"/>
		<path stroke="#000000" stroke-width="0.25" d="M19.617,53.671l4.688,1.27l-4.544,0.591l1.921,1.2l-0.771,0.298l-0.898-1.774
			l-0.482,0.661l-1.38,1.29l1.114-1.222l0.877-0.745l-0.149-1.328l-1.802-1.219l1.152-0.014l0.594-3.085l1.004,2.317l-1.179,1.902
			l1.178-0.715L19.617,53.671z M22.551,53.336l-4.543,0.438l1.985-3.122l0.099,2.29l-0.255,0.411l-1.939,2.34l0.844,0.961
			l1.301-1.021l1.082,0.917l0.599,0.409L22.551,53.336z"/>
		<path stroke="#000000" stroke-width="0.25" d="M21.833,51.202l4.541,6.358l-1.961-1.068l-2.25-5.778L21.833,51.202z"/>
		<path stroke="#000000" stroke-width="0.25" d="M25.898,53.452l4.688,1.27l-4.544,0.591l1.921,1.199l-0.771,0.298l-0.898-1.774
			l-0.482,0.661l-1.38,1.289l1.115-1.223l0.876-0.744l-0.149-1.328l-1.802-1.218l1.151-0.014l0.595-3.085l1.003,2.317l-1.179,1.901
			l1.179-0.714L25.898,53.452z M28.832,53.117l-4.543,0.438l1.985-3.122l0.1,2.29l-0.255,0.411l-1.939,2.34l0.846,0.963l1.297-1.022
			l1.083,0.917l0.599,0.409L28.832,53.117z"/>
		<path stroke="#000000" stroke-width="0.25" d="M29.388,53.643l2.621-3.016l-2.852,1.3l2.256,1.365l-0.862,0.106l-2.143-0.084
			l0.607,1.381l1.75,2.432l-1.178-0.61l0.927-4.487L29.388,53.643z"/>
		<path stroke="#000000" stroke-width="0.25" d="M34.327,51.958l-0.032,4.287l-3.314-0.98l2.344,0.347l-0.009,0.197l2.009,0.647
			l-0.472-1.312l-1.52-1.259l1.573,1.456l-1.68-0.549l0.134,0.348l1.598,1.095l-1.041-0.3l-0.494,3.023l-0.973-2.304l1.144-1.916
			l-1.163,0.723l-1.856-0.643l1.333-1.512l0.479-0.75l-0.23-1.171l1.05-0.871l-0.024,3.158l1.583-1.375l1.872-0.206L34.327,51.958z
			 M34.997,54.997l-3.9-2.092l4.35-1.238l-2.128,0.839l-0.209-0.123l-1.978,0.537l1.03,1.221L34.997,54.997z"/>
		<path stroke="#000000" stroke-width="0.25" d="M37.974,53.436l2.909-2.423l-0.787,2.074l-0.52-2.178l1.005,0.78l1.469,1.192
			l-0.423-0.575l0.993-1.588l-0.955,1.236l-0.889,0.672l0.279,3.025l-0.14,0.811l0.897-3.478l-2.87-0.205l1.936-0.727l-2.404-0.554
			l1.246,1.503l1.727,3.751l-1.989-0.498l0.408-3.114l-1.065-0.853l0.067,0.644l-1.991-2.355l1.513,1.778l-1.825,0.503l0.445,2.939
			l-0.812,0.958l0.842-5.433L37.974,53.436z"/>
		<path stroke="#000000" stroke-width="0.25" d="M43.775,50.971l-1.119,4.53l2.565-2.733l-2.162-1.021l0.768-0.509l1.154,1.65
			l0.458-0.662l1.799-0.48l-1.501,1.82l-0.678,1.658l0.544-0.68l-0.67,1.295l-0.518-0.223l-0.098,2.96l-0.86-2.4l1.964-1.04
			l-1.397-0.426l-1.406-1.39l1.772,0.451l1.369-0.467l-0.895-0.788l-0.57-0.147l0.477-2.883l-0.292,2.434l1.803-0.507L43.775,50.971
			z M47.282,53.13l-0.29,1.85l-4.465-0.201l2.35,0.422l-0.001,0.203l1.939,0.743l-0.872-0.404L47.282,53.13z"/>
		<path stroke="#000000" stroke-width="0.25" d="M48.708,51.628l4.546,3.205l-4.533,0.724l1.976,0.979l-0.806,0.279l-1.086-1.764
			l-0.566,0.627l-1.269-0.498l1.642,1.498l0.427,1.271l1.696-1.168l-1.704-1.274l0.843-0.704l-0.115,2.639l-1.387-1.882l0.457-2.161
			l-0.701,1.228l-1.853-0.484l1.333-1.883l0.462-0.582l0.186-1.092l0.906-0.419l1.757,2.822l-1.665-2.254L48.708,51.628z
			 M51.496,52.271l-4.536,0.499l1.986-3.128l0.084,2.308l-0.26,0.338l-1.939,1.742l0.838,0.928l1.299-1.022l1.12,0.841l0.367,0.542
			L51.496,52.271z"/>
		<path stroke="#000000" stroke-width="0.25" d="M52.406,52.944l2.881-2.417l-0.817,2.055l-0.523-2.175l0.673,0.396l-1.544,0.955
			l0.712,0.486l1.827,3.885l-1.296-0.586l1.014-3.201l-0.259-1.155l-1.849,0.63l-0.87-0.299l2.838,0.927L53,55.966l0.572-0.635
			l-1.342-4.229L52.406,52.944z"/>
		<path stroke="#000000" stroke-width="0.25" d="M56.138,50.54l-1.116,4.53l2.564-2.733l-2.162-1.021l0.768-0.509l1.155,1.65
			l0.458-0.663l1.8-0.479l-1.501,1.82l-0.678,1.658l0.544-0.68l-0.67,1.295l-0.519-0.223l-0.098,2.96l-0.86-2.4l1.964-1.04
			l-1.397-0.426l-1.407-1.389l1.773,0.451l1.369-0.468l-0.895-0.787l-0.57-0.147l0.477-2.884l-0.292,2.434l1.802-0.509L56.138,50.54
			z M59.646,52.699l-0.29,1.85l-4.465-0.201l2.35,0.422l0,0.203l1.939,0.743l-0.872-0.404L59.646,52.699z"/>
		<path stroke="#000000" stroke-width="0.25" d="M61.579,50.35l-1.116,4.53l2.564-2.733l-2.162-1.021l0.768-0.509l1.155,1.65
			l0.458-0.663l1.799-0.48l-1.501,1.821l-0.678,1.658l0.544-0.681l-0.67,1.295l-0.519-0.222l-0.098,2.96l-0.86-2.401l1.964-1.04
			l-1.397-0.426l-1.407-1.389l1.773,0.45l1.369-0.468l-0.895-0.788l-0.57-0.147l0.471-2.884l-0.287,2.434l1.802-0.508L61.579,50.35z
			 M65.086,52.508l-0.29,1.851l-4.465-0.201l2.35,0.422l0,0.203l1.939,0.743l-0.872-0.405L65.086,52.508z"/>
		<path stroke="#000000" stroke-width="0.25" d="M64.482,49.713l4.541,6.358l-1.961-1.068l-2.25-5.778L64.482,49.713z"/>
		<path stroke="#000000" stroke-width="0.25" d="M67.894,51.109l2.123,0.923l-1.893-3.97l-0.691,0.949L67.894,51.109z
			 M66.707,50.892l4.474,5.223l-1.958-1.295l-2.219-4.526L66.707,50.892z"/>
		<path stroke="#000000" stroke-width="0.25" d="M70.821,50.642l4.533,5.967l-2.735-2.278l-1.423,0.592l-0.195,0.405l-0.548-1.833
			l0.081,0.742l-1.676,0.716l1.474-1.135l0.931-2.285l-0.139-0.339l-1.482-1.104l0.802,0.655l1.517-2.564l-0.572,2.362l-0.234-2.691
			L70.821,50.642z M73.68,51.531l-4.534,0.52l1.962-3.184l0.105,2.29l-0.256,0.39l-1.939,2.309l0.846,1.014l1.306-1.022l1.094,0.873
			l0.582,0.381L73.68,51.531z"/>
		<path stroke="#000000" stroke-width="0.25" d="M75.025,50.583l4.482,5.233l-3.447-2.688l-0.676,1.671L75.2,55.138l-0.622-1.788
			l0.029,0.723l-1.458,1.098l1.37-0.852l0.911-0.776l-0.299-2.791l0.208-0.858l-0.897,3.625l2.837,0.021l-1.919,0.763l2.413,0.537
			l-1.278-1.376l-1.788-3.308L75.025,50.583z"/>
		<path stroke="#000000" stroke-width="0.25" d="M78.87,50.358l4.146,3.481l-4.633,0.479l1.98,1.138l-0.648,0.188l-1.024-1.805
			l-0.099,1.017l-1.406-0.057l1.429,1.019l1.651-1.062l-0.281-0.882l-2.802-3.995l1.076,0.318l1.033,0.916l0.291-1.273L78.87,50.358
			z"/>
		<path stroke="#000000" stroke-width="0.25" d="M81.903,49.64l-1.116,4.53l2.564-2.733l-2.162-1.021l0.768-0.509l1.155,1.65
			l0.458-0.662l1.8-0.48l-1.502,1.82l-0.678,1.658l0.544-0.68l-0.67,1.295l-0.518-0.223l-0.098,2.96l-0.86-2.4l1.965-1.04
			l-1.397-0.426l-1.406-1.39l1.772,0.451l1.369-0.469l-0.896-0.786l-0.571-0.149l0.478-2.881l-0.292,2.434l1.802-0.508L81.903,49.64
			z M85.411,51.8l-0.29,1.849l-4.465-0.201l2.35,0.422l0,0.203l1.941,0.737l-0.875-0.398L85.411,51.8z"/>
		<path stroke="#000000" stroke-width="0.25" d="M86.301,51.748l2.91-2.422l-0.786,2.072l-0.521-2.177l1.005,0.78l1.47,1.192
			l-0.423-0.575l0.992-1.589l-0.954,1.236l-0.889,0.673l0.279,3.025l-0.14,0.811l0.897-3.478l-2.87-0.203l1.936-0.728l-2.404-0.555
			l1.246,1.504l1.727,3.751l-1.989-0.498l0.408-3.114l-1.065-0.853l0.068,0.644l-1.991-2.355l1.513,1.779l-1.825,0.503l0.445,2.939
			l-0.812,0.958l0.842-5.433L86.301,51.748z"/>
		<path stroke="#000000" stroke-width="0.25" d="M95.732,49.813L95.7,54.101l-3.314-0.98l2.344,0.346l-0.009,0.197l2.01,0.645
			L96.259,53l-1.521-1.259l1.573,1.455l-1.68-0.549l0.134,0.347l1.598,1.095l-1.041-0.3l-0.492,3.023l-0.975-2.305l1.142-1.918
			l-1.16,0.725l-1.856-0.643l1.333-1.512l0.48-0.751l-0.23-1.171l1.049-0.871l-0.024,3.157l1.584-1.375l1.872-0.206L95.732,49.813z
			 M96.402,52.854l-3.899-2.093l4.348-1.243l-2.126,0.844l-0.209-0.123l-1.978,0.538l1.03,1.221L96.402,52.854z"/>
		<path stroke="#000000" stroke-width="0.25" d="M97.747,51.255l2.618-3.018l-2.849,1.303l2.256,1.365l-0.862,0.106l-2.143-0.087
			l0.606,1.384l1.75,2.432l-1.178-0.611l0.927-4.486L97.747,51.255z"/>
		<path stroke="#000000" stroke-width="0.25" d="M100.466,48.992l-1.116,4.53l2.564-2.733l-2.162-1.021l0.768-0.509l1.154,1.65
			l0.458-0.662l1.799-0.48l-1.501,1.821l-0.678,1.658l0.544-0.681l-0.67,1.295l-0.519-0.222l-0.098,2.959l-0.86-2.401l1.965-1.04
			l-1.397-0.426l-1.408-1.389l1.773,0.45l1.369-0.468l-0.895-0.788l-0.57-0.147l0.471-2.884l-0.287,2.434l1.802-0.508
			L100.466,48.992z M103.974,51.152l-0.29,1.849L99.219,52.8l2.35,0.422l0,0.203l1.94,0.74l-0.874-0.401L103.974,51.152z"/>
		<path stroke="#000000" stroke-width="0.25" d="M104.614,50.269l3.126-2.358l-3.568,2.103l2.051-0.051l-0.629-0.089l-1.939,2.773
			l1.085,1.414l1.956-0.993l-1.379,0.458l0.063-1.293l-0.425,0.153l-0.842,1.698l0.606-0.678l-2.941-0.843l2.19-2.627l1.811-0.879
			l-1.286,0.402l-1.332-0.695l0.476-0.277L104.614,50.269z"/>
		<path stroke="#000000" stroke-width="0.25" d="M106.273,54.831l3.442-1.451l-4.5,0.021l1.741,1.39l-0.734,0.108l1.865,0.077
			l-0.981-1.97l-1.508,1.218l-0.326-1.312L106.273,54.831z"/>
		<path stroke="#000000" stroke-width="0.25" d="M111.794,48.16l-1.25,4.637l2.487-2.681l-2.34-0.361l0.005-0.178l-1.756-1.06
			l0.253,1.418l1.885,0.165l-0.996,1.179l0.482,1.322l0.289-0.081l1.847-0.179l-1.011,0.656l1.04,2.824l-1.905-1.757l-0.175-2.315
			l-0.649,1.232l-1.87-0.56l1.002,0.159l1.157,0.313l0.404-0.442l0.583,0.206l-0.49,2.841l0.301-2.366l1.922-0.47l-0.877-1.639
			l-2.537,1.429l-0.438-1.455l-1.377-0.749l3.393,0.177l-2.172-3.207l1.615,0.93l1.076,0.055l0.231,1.015l1.15,0.083l-1.98,1.167
			L111.794,48.16z"/>
		<path stroke="#000000" stroke-width="0.25" d="M115.673,49.117l-0.03,4.287l-3.314-0.979l2.343,0.346l-0.009,0.197l2.01,0.645
			l-0.472-1.31l-1.521-1.259l1.573,1.456l-1.68-0.549l0.134,0.348l1.598,1.095l-1.042-0.3l-0.492,3.024l-0.975-2.305l1.142-1.918
			l-1.16,0.726l-1.856-0.644l1.333-1.512l0.48-0.75l-0.23-1.171l1.05-0.871l-0.024,3.157l1.583-1.375l1.871-0.207L115.673,49.117z
			 M116.345,52.156l-3.9-2.092l4.348-1.243l-2.126,0.844l-0.209-0.123l-1.978,0.538l1.03,1.221L116.345,52.156z"/>
		<path stroke="#000000" stroke-width="0.25" d="M118.377,47.815l4.549,6.357l-3.523-2.575l-0.604,1.803l-0.288,0.239l-0.592-1.803
			l0.129,0.742l-1.657,0.774l1.492-1.012l0.931-2.426l-0.147-0.35l-1.452-1.145l0.815,0.661l1.337-2.667l-0.421,2.371l1.98-2.68
			L118.377,47.815z M121.242,49.765l-4.476,0.716l1.903-3.275l0.087,2.291l-0.249,0.284l-1.939,2.539l0.868,0.95l1.274-1.083
			l1.095,0.914l0.625,0.274L121.242,49.765z"/>
		<path stroke="#000000" stroke-width="0.25" d="M123.943,47.621l4.549,6.357l-3.523-2.575l-0.604,1.803l-0.288,0.239l-0.592-1.803
			l0.129,0.742l-1.657,0.773l1.492-1.012l0.931-2.426l-0.147-0.35l-1.452-1.144l0.815,0.661l1.337-2.667l-0.421,2.371l1.98-2.68
			L123.943,47.621z M126.809,49.57l-4.477,0.713l1.904-3.271l0.087,2.291l-0.249,0.285l-1.939,2.539l0.868,0.95l1.273-1.083
			l1.097,0.914l0.625,0.274L126.809,49.57z"/>
		<path stroke="#000000" stroke-width="0.25" d="M127.358,49.033l2.123,0.923l-1.893-3.97l-0.691,0.949L127.358,49.033z
			 M126.171,48.815l4.474,5.223l-1.958-1.295l-2.219-4.526L126.171,48.815z"/>
		<path stroke="#000000" stroke-width="0.25" d="M129.458,47.979l-1.116,4.53l2.564-2.733l-2.162-1.021l0.768-0.509l1.154,1.65
			l0.457-0.663l1.8-0.479l-1.501,1.82l-0.678,1.658l0.544-0.68l-0.67,1.295l-0.518-0.222l-0.098,2.96l-0.86-2.401l1.965-1.04
			l-1.397-0.426l-1.407-1.39l1.772,0.451l1.369-0.468l-0.895-0.788l-0.57-0.147l0.477-2.883l-0.292,2.434l1.802-0.508
			L129.458,47.979z M132.966,50.138l-0.29,1.85l-4.465-0.201l2.35,0.422l-0.001,0.203l1.939,0.743l-0.872-0.404L132.966,50.138z"/>
		<path stroke="#000000" stroke-width="0.25" d="M133.855,50.087l2.91-2.422l-0.788,2.074l-0.518-2.179l1.005,0.78l1.47,1.191
			l-0.424-0.574l0.992-1.589l-0.955,1.235l-0.889,0.674l0.279,3.025l-0.14,0.811l0.896-3.478l-2.87-0.204l1.937-0.727l-2.404-0.555
			l1.246,1.504l1.727,3.751l-1.989-0.498l0.408-3.114l-1.065-0.853l0.067,0.643l-1.991-2.355l1.513,1.779l-1.825,0.503l0.445,2.939
			l-0.812,0.958l0.842-5.433L133.855,50.087z"/>
		<path stroke="#000000" stroke-width="0.25" d="M62.528,60.245l3.648,6.058l-2.391-2.09l-2.842-4.161l1.641-0.022l-1.477,4.034
			l3.33-2.21l-1.33-1.26L62.528,60.245z"/>
		<path stroke="#000000" stroke-width="0.25" d="M66.311,61.642l4.688,1.27l-4.545,0.592l1.921,1.199L67.604,65l-0.898-1.774
			l-0.483,0.66l-1.379,1.29l1.114-1.223l0.876-0.744l-0.149-1.328l-1.802-1.219l1.151-0.014l0.593-3.085l1.005,2.317l-1.178,1.903
			l1.179-0.715L66.311,61.642z M69.244,61.306l-4.543,0.438l1.991-3.122l0.093,2.29l-0.255,0.41l-1.939,2.34l0.845,0.962
			l1.299-1.021l1.083,0.917l0.599,0.409L69.244,61.306z"/>
		<path stroke="#000000" stroke-width="0.25" d="M68.527,59.172l4.541,6.358l-1.961-1.068l-2.25-5.778L68.527,59.172z"/>
		<path stroke="#000000" stroke-width="0.25" d="M72.734,60.264l4.482,5.232l-3.448-2.688l-0.675,1.671l-0.184,0.339l-0.622-1.788
			l0.029,0.723l-1.458,1.098l1.37-0.853l0.911-0.775l-0.299-2.791l0.208-0.858L72.15,63.2l2.835,0.014l-1.917,0.769l2.413,0.537
			l-1.278-1.376l-1.788-3.308L72.734,60.264z"/>
		<path stroke="#000000" stroke-width="0.25" d="M76.504,61.71l2.772-2.672l-0.736,2.325l-0.493-2.197l0.644,0.404l-1.542,0.932
			l0.704,0.386l1.878,2.184l-1.645,0.753l-0.523-0.788l0.413-0.003l-0.592,1.829l-1.024-0.694l2.056,3.032l-2.998-1.686l2.245-5.323
			L76.504,61.71z M79.768,61.017l-4.586,0.226l2.027-2.988l0.086,2.293l-0.258,0.486l-1.939,2.148l0.837,1.05l1.327-0.997
			l1.115,0.839l0.535,0.429L79.768,61.017z"/>
		<path stroke="#000000" stroke-width="0.25" d="M80.295,60.719l3.126-2.358l-3.568,2.103l2.051-0.051l-0.629-0.089l-1.939,2.773
			l1.085,1.414l1.956-0.992l-1.379,0.458l0.064-1.294l-0.427,0.153l-0.841,1.698l0.606-0.678l-2.941-0.843l2.19-2.627l1.81-0.88
			l-1.285,0.403l-1.331-0.696l0.476-0.276L80.295,60.719z"/>
		<path stroke="#000000" stroke-width="0.25" d="M83.504,59.888l4.482,5.232l-3.448-2.688l-0.675,1.67l-0.184,0.339l-0.62-1.788
			l0.025,0.723l-1.456,1.098l1.37-0.853l0.911-0.775l-0.299-2.791l0.208-0.858l-0.897,3.625l2.836,0.017l-1.917,0.767l2.413,0.537
			l-1.278-1.375l-1.788-3.308L83.504,59.888z"/>
		<path stroke="#000000" stroke-width="0.25" d="M86.796,59.07L85.68,63.6l2.564-2.733l-2.162-1.021l0.768-0.509l1.155,1.65
			l0.457-0.662l1.8-0.479l-1.501,1.82l-0.678,1.658l0.544-0.68l-0.67,1.295l-0.518-0.223l-0.101,2.96l-0.858-2.401l1.965-1.04
			l-1.397-0.426l-1.407-1.39l1.772,0.45l1.369-0.467l-0.895-0.788l-0.57-0.147l0.477-2.883l-0.292,2.434l1.802-0.508L86.796,59.07z
			 M90.304,61.23l-0.291,1.85l-4.464-0.202l2.351,0.422l-0.001,0.203l1.939,0.743l-0.872-0.404L90.304,61.23z"/>
		<path stroke="#000000" stroke-width="0.25" d="M89.677,64.479l3.443,1.354l-1.494-3.023l-1.404,0.357L89.677,64.479z"/>
	</g>
</g>
</svg>
