<?xml version="1.0" encoding="utf-8"?>
<!-- Generator: Adobe Illustrator 14.0.0, SVG Export Plug-In . SVG Version: 6.00 Build 43363)  -->
<!DOCTYPE svg PUBLIC "-//W3C//DTD SVG 1.1//EN" "http://www.w3.org/Graphics/SVG/1.1/DTD/svg11.dtd">
<svg version="1.1" id="Calque_1" xmlns="http://www.w3.org/2000/svg" xmlns:xlink="http://www.w3.org/1999/xlink" x="0px" y="0px"
	 width="76.565px" height="54.574px" viewBox="0 0 76.565 54.574" enable-background="new 0 0 76.565 54.574" xml:space="preserve">
<g>
	
		<radialGradient id="SVGID_1_" cx="-261.2466" cy="30.4033" r="5.0783" gradientTransform="matrix(0.2451 0.9695 -0.9695 0.2451 104.3418 285.8806)" gradientUnits="userSpaceOnUse">
		<stop  offset="0.0056" style="stop-color:#F8E5D1"/>
		<stop  offset="0.5056" style="stop-color:#E7E7E7"/>
		<stop  offset="1" style="stop-color:#C0C0C0"/>
	</radialGradient>
	<path fill="url(#SVGID_1_)" stroke="#000000" stroke-width="0.1" d="M11.909,34.883c0.378,1.017,1.015,4.321,1.015,4.321
		s-1.519,2.364-1.72,4.444c-0.202,2.086-0.188,3.325-0.188,3.325s-1.248-0.601-1.644-2.895c-0.401-2.288-0.708-5.947-0.708-5.947
		L9.5,36.969l-1.857-0.255l-0.439-1.878c0,0,1.8-1.336,2.051-1.371c0.252-0.041,2.316-0.299,2.316-0.299L11.909,34.883z"/>
	
		<radialGradient id="SVGID_2_" cx="-275.4331" cy="30.5791" r="4.7253" gradientTransform="matrix(0.2451 0.9695 -0.9695 0.2451 104.3418 285.8806)" gradientUnits="userSpaceOnUse">
		<stop  offset="0.0056" style="stop-color:#F8E5D1"/>
		<stop  offset="0.5056" style="stop-color:#E7E7E7"/>
		<stop  offset="1" style="stop-color:#C0C0C0"/>
	</radialGradient>
	<path fill="url(#SVGID_2_)" stroke="#000000" stroke-width="0.1" d="M10.825,27.131c-2.098-0.313-4.661-3.763-5.915-5.618
		c-0.86-1.274-2.169,0.943-2.169,0.943l1.856,4.269l1.758,1.124l-0.22,2.414l0.586,1.345l1.84,0.343l2.54-2.25L10.825,27.131z"/>
	
		<radialGradient id="SVGID_3_" cx="-268.0073" cy="20.7168" r="8.6559" gradientTransform="matrix(0.2451 0.9695 -0.9695 0.2451 104.3418 285.8806)" gradientUnits="userSpaceOnUse">
		<stop  offset="0.0056" style="stop-color:#F8E5D1"/>
		<stop  offset="0.5056" style="stop-color:#E7E7E7"/>
		<stop  offset="1" style="stop-color:#C0C0C0"/>
	</radialGradient>
	<path fill="url(#SVGID_3_)" stroke="#000000" stroke-width="0.1" d="M20.046,20.274c-2.14,1.23-1.484,1.277-2.146,2.711
		c-1.291,2.793-1.947,0.082-3.705,0.177c-2.609,0.146-3.706,3.419-2.209,5.383c1.422,1.863,4.017,1.069,4.261,2.558
		c0.161,0.967-1.749,0.434-2.571,2.528c-1.103,2.813-0.306,3.961,0.642,5.068c1.039,1.213,1.816,0.97,2.823,0.53
		c1.393-0.612,0.781-2.915,2.511-2.991c1.276-0.059,1.74,3.439,3.558,4.034c1.701,0.557,2.959-1.063,2.751-3.75
		c-0.139-1.77-4.528-4.813-4.947-6.466c-0.693-2.742,1.062-3.936,1.478-5.89C22.941,22.042,23.379,18.359,20.046,20.274z
		 M17.421,35.891c-0.863,1.881-3.375,0.322-2.175-1.198C16.749,32.785,18.294,33.989,17.421,35.891z M15.611,26.19
		c0.381,0.757,0.671,2.142-0.308,2.326c-0.962,0.182-1.68-0.58-1.91-1.459c-0.214-0.825-0.918-1.822,0.36-2.101
		C14.43,24.808,15.311,25.591,15.611,26.19z"/>
	
		<radialGradient id="SVGID_4_" cx="-268.0063" cy="9.2192" r="9.3389" gradientTransform="matrix(0.2451 0.9695 -0.9695 0.2451 104.3418 285.8806)" gradientUnits="userSpaceOnUse">
		<stop  offset="0.0056" style="stop-color:#F8E5D1"/>
		<stop  offset="0.5056" style="stop-color:#E7E7E7"/>
		<stop  offset="1" style="stop-color:#C0C0C0"/>
	</radialGradient>
	<path fill="url(#SVGID_4_)" stroke="#000000" stroke-width="0.1" d="M41.931,24.354c-7.434,0.628-16.182,0.88-23.169,3.803
		c-4.292,1.796-0.113,4.187,2.609,4.559c4.458,0.618,8.402-1.761,12.649-2.613c3.848-0.771,8.641-0.428,7.952-5.594"/>
	
		<radialGradient id="SVGID_5_" cx="-273.6313" cy="11.3984" r="5.7469" gradientTransform="matrix(0.2451 0.9695 -0.9695 0.2451 104.3418 285.8806)" gradientUnits="userSpaceOnUse">
		<stop  offset="0.0056" style="stop-color:#F8E5D1"/>
		<stop  offset="0.5056" style="stop-color:#E7E7E7"/>
		<stop  offset="1" style="stop-color:#C0C0C0"/>
	</radialGradient>
	<path fill="url(#SVGID_5_)" stroke="#000000" stroke-width="0.1" d="M31.822,27.5c2.014-2.285-0.875-3.479-1.969-6.271
		c-0.409-1.046-0.486-2.071-1.585-2.651c-1.244-0.655-2.713-1.137-4.025-0.839c-4.995,1.126-3.155,10.453-1.893,11.042
		c1.219,0.565,0.625-4.991,2.815-7.031c2.196-2.048,2.919,3.681,3.732,5.249C29.626,28.408,30.378,29.141,31.822,27.5z"/>
	
		<radialGradient id="SVGID_6_" cx="-262.3638" cy="11.7139" r="5.6339" gradientTransform="matrix(0.2451 0.9695 -0.9695 0.2451 104.3418 285.8806)" gradientUnits="userSpaceOnUse">
		<stop  offset="0.0056" style="stop-color:#F8E5D1"/>
		<stop  offset="0.5056" style="stop-color:#E7E7E7"/>
		<stop  offset="1" style="stop-color:#C0C0C0"/>
	</radialGradient>
	<path fill="url(#SVGID_6_)" stroke="#000000" stroke-width="0.1" d="M31.843,28.493c2.855,1.052,0.785,2.461,1.154,5.438
		c0.136,1.113-0.539,2.555-1.23,3.583c-0.784,1.166-1.847,2.294-3.146,2.657c-4.929,1.38-6.926-8.804-6.095-9.923
		c0.804-1.075,1.925,4.131,4.822,4.884c2.906,0.762,2.19-3.038,2.161-4.805C29.481,28.739,29.791,27.737,31.843,28.493z"/>
	
		<radialGradient id="SVGID_7_" cx="-274.4106" cy="7.7656" r="6.1915" gradientTransform="matrix(0.2451 0.9695 -0.9695 0.2451 104.3418 285.8806)" gradientUnits="userSpaceOnUse">
		<stop  offset="0.0056" style="stop-color:#F8E5D1"/>
		<stop  offset="0.5056" style="stop-color:#E7E7E7"/>
		<stop  offset="1" style="stop-color:#C0C0C0"/>
	</radialGradient>
	<path fill="url(#SVGID_7_)" stroke="#000000" stroke-width="0.1" d="M35.542,26.255c2.127-2.473-0.955-3.792-2.134-6.839
		c-0.442-1.141-0.532-2.254-1.705-2.89c-1.327-0.722-2.896-1.257-4.291-0.943c-5.307,1.195-3.292,11.354-1.942,12.003
		c1.301,0.624,0.633-5.423,2.952-7.63c2.322-2.215,3.129,4.021,4.003,5.736C33.211,27.228,34.012,28.03,35.542,26.255z"/>
	
		<radialGradient id="SVGID_8_" cx="-261.2212" cy="9.2349" r="6.0614" gradientTransform="matrix(0.2451 0.9695 -0.9695 0.2451 104.3418 285.8806)" gradientUnits="userSpaceOnUse">
		<stop  offset="0.0056" style="stop-color:#F8E5D1"/>
		<stop  offset="0.5056" style="stop-color:#E7E7E7"/>
		<stop  offset="1" style="stop-color:#C0C0C0"/>
	</radialGradient>
	<path fill="url(#SVGID_8_)" stroke="#000000" stroke-width="0.1" d="M34.69,28.496c3.047,1.163,0.854,2.684,1.261,5.921
		c0.157,1.219-0.555,2.777-1.285,3.894c-0.826,1.266-1.951,2.481-3.328,2.868c-5.235,1.471-7.428-9.621-6.549-10.834
		c0.848-1.166,2.07,4.509,5.162,5.347c3.095,0.844,2.31-3.296,2.265-5.215C32.18,28.745,32.502,27.658,34.69,28.496z"/>
	
		<radialGradient id="SVGID_9_" cx="-274.1362" cy="3.4912" r="6.191" gradientTransform="matrix(0.2451 0.9695 -0.9695 0.2451 104.3418 285.8806)" gradientUnits="userSpaceOnUse">
		<stop  offset="0.0056" style="stop-color:#F8E5D1"/>
		<stop  offset="0.5056" style="stop-color:#E7E7E7"/>
		<stop  offset="1" style="stop-color:#C0C0C0"/>
	</radialGradient>
	<path fill="url(#SVGID_9_)" stroke="#000000" stroke-width="0.1" d="M39.753,25.473c2.126-2.473-0.958-3.794-2.134-6.839
		c-0.442-1.138-0.536-2.253-1.705-2.892c-1.33-0.722-2.897-1.255-4.293-0.94c-5.304,1.194-3.289,11.353-1.939,12
		c1.301,0.625,0.63-5.423,2.952-7.629c2.322-2.216,3.127,4.024,4.002,5.733C37.421,26.445,38.222,27.248,39.753,25.473z"/>
	
		<radialGradient id="SVGID_10_" cx="-260.9478" cy="4.9609" r="6.0607" gradientTransform="matrix(0.2451 0.9695 -0.9695 0.2451 104.3418 285.8806)" gradientUnits="userSpaceOnUse">
		<stop  offset="0.0056" style="stop-color:#F8E5D1"/>
		<stop  offset="0.5056" style="stop-color:#E7E7E7"/>
		<stop  offset="1" style="stop-color:#C0C0C0"/>
	</radialGradient>
	<path fill="url(#SVGID_10_)" stroke="#000000" stroke-width="0.1" d="M38.902,27.714c3.047,1.163,0.853,2.684,1.261,5.921
		c0.154,1.216-0.555,2.777-1.285,3.894c-0.826,1.266-1.951,2.481-3.328,2.865c-5.235,1.474-7.428-9.615-6.551-10.828
		c0.85-1.169,2.071,4.506,5.164,5.344c3.092,0.844,2.31-3.296,2.266-5.218C36.39,27.966,36.713,26.879,38.902,27.714z"/>
	
		<radialGradient id="SVGID_11_" cx="-803.2402" cy="-61.1421" r="23.9228" gradientTransform="matrix(0.2451 0.9695 -0.9695 0.2451 190.9326 819.9743)" gradientUnits="userSpaceOnUse">
		<stop  offset="0.0056" style="stop-color:#F8E5D1"/>
		<stop  offset="0.5056" style="stop-color:#E7E7E7"/>
		<stop  offset="1" style="stop-color:#C0C0C0"/>
	</radialGradient>
	<path fill="url(#SVGID_11_)" stroke="#000000" stroke-width="0.1" d="M73.252,19.657c-1.726-2.26-11.32-13.998-15.363-14.596
		c-4.04-0.602-20.679-6.123-23.708,1.129c-3.031,7.251-3.592,25.551,0.23,29.125c3.823,3.571,16.881,22.646,24.958,15.738
		C67.449,44.149,77.946,25.789,73.252,19.657z"/>
	
		<linearGradient id="SVGID_12_" gradientUnits="userSpaceOnUse" x1="-825.6699" y1="-43.5957" x2="-819.7939" y2="-43.5957" gradientTransform="matrix(0.2451 0.9695 -0.9695 0.2451 190.9326 819.9743)">
		<stop  offset="0.0056" style="stop-color:#FEFBE5"/>
		<stop  offset="0.4494" style="stop-color:#FEF8CB"/>
		<stop  offset="1" style="stop-color:#FDF298"/>
	</linearGradient>
	<path fill="url(#SVGID_12_)" stroke="#000000" stroke-width="0.1" d="M35.281,9.774c0,0-7.087-1.329-8.117,0.227
		c-1.03,1.559,3.431,3.312,3.431,3.312S36.365,16.632,35.281,9.774z"/>
	
		<linearGradient id="SVGID_13_" gradientUnits="userSpaceOnUse" x1="-809.3623" y1="-39.2939" x2="-804.3706" y2="-39.2939" gradientTransform="matrix(0.2451 0.9695 -0.9695 0.2451 190.9326 819.9743)">
		<stop  offset="0.0056" style="stop-color:#FEFBE5"/>
		<stop  offset="0.4494" style="stop-color:#FEF8CB"/>
		<stop  offset="1" style="stop-color:#FDF298"/>
	</linearGradient>
	<path fill="url(#SVGID_13_)" stroke="#000000" stroke-width="0.1" d="M34.32,24.982c0,0-4.564,0.287-6.694,2.125
		c-2.13,1.834,6.281,2.845,6.281,2.845S34.915,29.694,34.32,24.982z"/>
	<path stroke="#000000" stroke-width="0.1" d="M50.395,25.438c-0.996-1.748-8.118-4.641-8.133-0.157
		c-0.015,4.487,1.531,11.878,5.147,10.153C51.028,33.708,51.854,27.989,50.395,25.438z"/>
	<path stroke="#000000" stroke-width="0.1" d="M49.698,11.995c-0.718-2.083-0.765-3.901-3.604-4.216
		c-2.836-0.316-4.477-0.397-4.791,3.497c-0.313,3.895,0.498,7.742,3.774,7.239C48.359,18.009,50.706,14.916,49.698,11.995z"/>
	
		<radialGradient id="SVGID_14_" cx="-251.0933" cy="14.2813" r="3.7766" gradientTransform="matrix(0.2451 0.9695 -0.9695 0.2451 104.3418 285.8806)" gradientUnits="userSpaceOnUse">
		<stop  offset="0.0056" style="stop-color:#F8E5D1"/>
		<stop  offset="0.5056" style="stop-color:#E7E7E7"/>
		<stop  offset="1" style="stop-color:#C0C0C0"/>
	</radialGradient>
	<path fill="url(#SVGID_14_)" stroke="#000000" stroke-width="0.1" d="M28.75,42.421c1.676,0.935,4.042,2.757,3.4,4.6
		c-0.637,1.837-1.985,2.924-3.177,3.34c-1.191,0.413-3.198-0.964-2.279-1.963c1.356-1.474-0.105-0.847-0.813-2.473
		c-0.709-1.626,1.083-2.238,1.083-2.238s-1.708,0.753-1.772-0.366C25.129,42.204,27.277,41.604,28.75,42.421z"/>
	
		<radialGradient id="SVGID_15_" cx="-288.063" cy="13.3457" r="3.6218" gradientTransform="matrix(0.2451 0.9695 -0.9695 0.2451 104.3418 285.8806)" gradientUnits="userSpaceOnUse">
		<stop  offset="0.0056" style="stop-color:#F8E5D1"/>
		<stop  offset="0.5056" style="stop-color:#E7E7E7"/>
		<stop  offset="1" style="stop-color:#C0C0C0"/>
	</radialGradient>
	<path fill="url(#SVGID_15_)" stroke="#000000" stroke-width="0.1" d="M22.358,6.975c1.239,1.395,2.451,2.618,0.716,4.143
		c-1.964,1.729-3.74,3.259-3.74,3.259s-1.293-1.487-0.959-2.729C18.708,10.404,20,10.254,20,10.254s-2.903,0.627-2.168-0.659
		c0.669-1.169,1.682-1.264,1.682-1.264s-2.802,0.378-2.493-0.705C17.369,6.389,20.665,5.076,22.358,6.975z"/>
</g>
</svg>
