<?xml version="1.0" encoding="utf-8"?>
<!-- Generator: Adobe Illustrator 14.0.0, SVG Export Plug-In . SVG Version: 6.00 Build 43363)  -->
<!DOCTYPE svg PUBLIC "-//W3C//DTD SVG 1.1//EN" "http://www.w3.org/Graphics/SVG/1.1/DTD/svg11.dtd">
<svg version="1.1" id="Calque_1" xmlns="http://www.w3.org/2000/svg" xmlns:xlink="http://www.w3.org/1999/xlink" x="0px" y="0px"
	 width="3000px" height="2500px" viewBox="0 0 3000 2500" enable-background="new 0 0 3000 2500" xml:space="preserve">
<pattern  y="2500" width="72" height="72" patternUnits="userSpaceOnUse" id="SVGID_1_" viewBox="17.32 -73.151 72 72" overflow="visible">
	<g>
		<polygon fill="none" points="17.32,-1.15 89.32,-1.15 89.32,-73.15 17.32,-73.15 		"/>
		<g>
			<polygon fill="none" points="17.32,-73.152 89.32,-73.152 89.32,-1.152 17.32,-1.152 			"/>
			<g>
				<polygon fill="none" points="17.32,-1.15 17.32,-73.15 89.32,-73.15 89.32,-1.15 				"/>
				<line fill="none" stroke="#272525" stroke-width="0.3" stroke-dasharray="2,2" x1="16.32" y1="-2.15" x2="89.76" y2="-2.15"/>
				<line fill="none" stroke="#272525" stroke-width="0.3" stroke-dasharray="2,2" x1="16.32" y1="-6.15" x2="89.76" y2="-6.15"/>
				<line fill="none" stroke="#272525" stroke-width="0.3" stroke-dasharray="2,2" x1="16.32" y1="-10.15" x2="89.76" y2="-10.15"/>
				<line fill="none" stroke="#272525" stroke-width="0.3" stroke-dasharray="2,2" x1="16.32" y1="-14.15" x2="89.76" y2="-14.15"/>
				<line fill="none" stroke="#272525" stroke-width="0.3" stroke-dasharray="2,2" x1="16.32" y1="-18.15" x2="89.76" y2="-18.15"/>
				<line fill="none" stroke="#272525" stroke-width="0.3" stroke-dasharray="2,2" x1="16.32" y1="-22.15" x2="89.76" y2="-22.15"/>
				<line fill="none" stroke="#272525" stroke-width="0.3" stroke-dasharray="2,2" x1="16.32" y1="-26.15" x2="89.76" y2="-26.15"/>
				<line fill="none" stroke="#272525" stroke-width="0.3" stroke-dasharray="2,2" x1="16.32" y1="-30.15" x2="89.76" y2="-30.15"/>
				<line fill="none" stroke="#272525" stroke-width="0.3" stroke-dasharray="2,2" x1="16.32" y1="-34.15" x2="89.76" y2="-34.15"/>
				<line fill="none" stroke="#272525" stroke-width="0.3" stroke-dasharray="2,2" x1="16.32" y1="-38.15" x2="89.76" y2="-38.15"/>
				<line fill="none" stroke="#272525" stroke-width="0.3" stroke-dasharray="2,2" x1="16.32" y1="-42.15" x2="89.76" y2="-42.15"/>
				<line fill="none" stroke="#272525" stroke-width="0.3" stroke-dasharray="2,2" x1="16.32" y1="-46.15" x2="89.76" y2="-46.15"/>
				<line fill="none" stroke="#272525" stroke-width="0.3" stroke-dasharray="2,2" x1="16.32" y1="-50.15" x2="89.76" y2="-50.15"/>
				<line fill="none" stroke="#272525" stroke-width="0.3" stroke-dasharray="2,2" x1="16.32" y1="-54.15" x2="89.76" y2="-54.15"/>
				<line fill="none" stroke="#272525" stroke-width="0.3" stroke-dasharray="2,2" x1="16.32" y1="-58.15" x2="89.76" y2="-58.15"/>
				<line fill="none" stroke="#272525" stroke-width="0.3" stroke-dasharray="2,2" x1="16.32" y1="-62.15" x2="89.76" y2="-62.15"/>
				<line fill="none" stroke="#272525" stroke-width="0.3" stroke-dasharray="2,2" x1="16.32" y1="-66.15" x2="89.76" y2="-66.15"/>
				<line fill="none" stroke="#272525" stroke-width="0.3" stroke-dasharray="2,2" x1="16.32" y1="-70.15" x2="89.76" y2="-70.15"/>
				<line fill="none" stroke="#272525" stroke-width="0.3" stroke-dasharray="2,2" x1="16.32" y1="-74.15" x2="89.76" y2="-74.15"/>
				<line fill="none" stroke="#272525" stroke-width="0.3" stroke-dasharray="2,2" x1="18.36" y1="-0.15" x2="91.8" y2="-0.15"/>
				<line fill="none" stroke="#272525" stroke-width="0.3" stroke-dasharray="2,2" x1="18.36" y1="-4.15" x2="91.8" y2="-4.15"/>
				<line fill="none" stroke="#272525" stroke-width="0.3" stroke-dasharray="2,2" x1="18.36" y1="-8.15" x2="91.8" y2="-8.15"/>
				<line fill="none" stroke="#272525" stroke-width="0.3" stroke-dasharray="2,2" x1="18.36" y1="-12.15" x2="91.8" y2="-12.15"/>
				<line fill="none" stroke="#272525" stroke-width="0.3" stroke-dasharray="2,2" x1="18.36" y1="-16.15" x2="91.8" y2="-16.15"/>
				<line fill="none" stroke="#272525" stroke-width="0.3" stroke-dasharray="2,2" x1="18.36" y1="-20.15" x2="91.8" y2="-20.15"/>
				<line fill="none" stroke="#272525" stroke-width="0.3" stroke-dasharray="2,2" x1="18.36" y1="-24.15" x2="91.8" y2="-24.15"/>
				<line fill="none" stroke="#272525" stroke-width="0.3" stroke-dasharray="2,2" x1="18.36" y1="-28.15" x2="91.8" y2="-28.15"/>
				<line fill="none" stroke="#272525" stroke-width="0.3" stroke-dasharray="2,2" x1="18.36" y1="-32.15" x2="91.8" y2="-32.15"/>
				<line fill="none" stroke="#272525" stroke-width="0.3" stroke-dasharray="2,2" x1="18.36" y1="-36.15" x2="91.8" y2="-36.15"/>
				<line fill="none" stroke="#272525" stroke-width="0.3" stroke-dasharray="2,2" x1="18.36" y1="-40.15" x2="91.8" y2="-40.15"/>
				<line fill="none" stroke="#272525" stroke-width="0.3" stroke-dasharray="2,2" x1="18.36" y1="-44.15" x2="91.8" y2="-44.15"/>
				<line fill="none" stroke="#272525" stroke-width="0.3" stroke-dasharray="2,2" x1="18.36" y1="-48.15" x2="91.8" y2="-48.15"/>
				<line fill="none" stroke="#272525" stroke-width="0.3" stroke-dasharray="2,2" x1="18.36" y1="-52.15" x2="91.8" y2="-52.15"/>
				<line fill="none" stroke="#272525" stroke-width="0.3" stroke-dasharray="2,2" x1="18.36" y1="-56.15" x2="91.8" y2="-56.15"/>
				<line fill="none" stroke="#272525" stroke-width="0.3" stroke-dasharray="2,2" x1="18.36" y1="-60.15" x2="91.8" y2="-60.15"/>
				<line fill="none" stroke="#272525" stroke-width="0.3" stroke-dasharray="2,2" x1="18.36" y1="-64.15" x2="91.8" y2="-64.15"/>
				<line fill="none" stroke="#272525" stroke-width="0.3" stroke-dasharray="2,2" x1="18.36" y1="-68.15" x2="91.8" y2="-68.15"/>
				<line fill="none" stroke="#272525" stroke-width="0.3" stroke-dasharray="2,2" x1="18.36" y1="-72.15" x2="91.8" y2="-72.15"/>
				<line fill="none" stroke="#272525" stroke-width="0.3" stroke-dasharray="2,2" x1="0" y1="-68.15" x2="10.2" y2="-68.15"/>
			</g>
		</g>
	</g>
</pattern>
<g display="none">
	<path display="inline" opacity="0.41" enable-background="new    " d="M1122.314,1527.716c4.771-0.294,21.021-2.395,25.235-2.289
		c2.846,0.072,15.509,5.553,38.164,2.617c8.1-1.049,27.508,3.68,28.093,3.972c1.801,0.899-51.037,0.825-58.449,0.429
		c-11.2-0.601-9.527,2.409-20.25,1.971C1124.832,1533.996,1116.099,1528.098,1122.314,1527.716z"/>
	<path display="inline" fill="#02341D" d="M1195.336,1427.611c0,0,11.534-5.675,17.106-4.393c5.572,1.281,16.079,7.795,16.079,7.795
		s-1.896,2.889-7.795,2.438s-15.202-0.436-17.533-2.203C1200.862,1429.482,1195.336,1427.611,1195.336,1427.611z"/>
	<path display="inline" fill="#412311" d="M1142.662,1524.433c1.028-0.111,4.234,0.072,4.234,0.072s1.831,1.956,3.711,2.631
		c1.88,0.674,3.03,0.95,3.03,0.95s-0.849,1.013-3.062,0.846c-2.213-0.166-5.668-0.739-5.668-0.739l-0.881-1.042l-0.671,1.657
		l-1.84-0.032c0,0-0.814-1.979-0.791-2.218c0.024-0.24,0.27-2.212,0.27-2.212L1142.662,1524.433z"/>
	<path display="inline" fill="#277E2C" d="M1203.086,1425.039c0,0,5.223-1.191,7.133-1.2c4.1-0.02,17.911,7.062,16.4,7.341
		c-3.401,0.626-3.757,0.14-7.229,0c-3.472-0.141-8.432-1.719-11.571-2.891c-3.142-1.173-8.9-1.54-8.9-1.54L1203.086,1425.039z"/>
	<g display="inline">
		<g>
			<g>
				<path fill="#2583C1" d="M1184.375,1431.027c-0.143,0.069,0.096,0.012-0.089,0.057
					C1184.299,1431.057,1184.322,1431.03,1184.375,1431.027z"/>
				<path fill="#2583C1" d="M1225.564,1429.76c-0.5-0.151-1.032-0.57-1.583-0.699c-0.063-0.02,0.044-0.063-0.098-0.103
					c-0.535-0.111-1.31-0.44-1.914-0.713l0.044-0.008c-0.114-0.055-0.282-0.023-0.406-0.069c0.003-0.014,0.046-0.008,0.022-0.034
					c-0.044,0.032-0.236-0.045-0.299-0.029c-0.046-0.03-0.032-0.062-0.093-0.098l-0.086,0.027c-0.231,0.052-0.491-0.142-0.786-0.146
					c0.017-0.008,0.046-0.01,0.026-0.025c-0.464-0.04-1.021-0.186-1.531-0.253c0.023-0.013,0.048-0.04,0.022-0.064
					c-0.035,0.045-0.193,0.026-0.331,0.01c-0.051-0.063-0.24,0.001-0.394-0.059l0.016-0.009c-0.126,0.029-0.168-0.064-0.275-0.015
					l-0.067-0.053c-0.064,0.063-0.164-0.066-0.269-0.045l0.001,0.016c-0.095,0.003-0.137-0.042-0.224-0.044l-0.007-0.01
					c-0.202-0.014-0.312-0.073-0.316-0.016c-0.063-0.057,0.197,0.012,0.098-0.073c-0.664-0.058-1.343-0.149-2.007-0.238
					c-0.072-0.032-0.119-0.046-0.134-0.07c-0.067,0.003-0.251-0.022-0.315,0c0.023,0.002-0.039-0.036-0.073-0.043
					c-0.119-0.033-0.141,0.05-0.27,0.011c0.055-0.01,0.075-0.026,0.059-0.05c-0.118,0.033-0.269,0.011-0.405,0.012
					c0.021-0.008,0.056-0.011,0.052-0.029c-0.152,0.036-0.267-0.038-0.398-0.019l0.052-0.028c-0.203-0.062-0.068,0.063-0.244,0.021
					c0.043-0.006,0.029-0.021,0.039-0.033c-0.174,0.043-0.442-0.004-0.61-0.001l0.009-0.013c-0.182-0.012-0.37-0.049-0.572-0.035
					c-0.072-0.021,0.03-0.079-0.163-0.082c0.001,0.067-0.329,0.003-0.222,0.087c-0.164-0.022-0.422-0.067-0.533-0.053
					c0.076-0.02-0.074-0.087,0.063-0.082l-0.101-0.049c0.017-0.026,0.105,0.018,0.075-0.02c-0.068-0.002-0.271,0.01-0.331-0.006
					c-0.13,0.031-0.252,0.099-0.458,0.092c0.099-0.019-0.05-0.077,0.016-0.084l-0.294,0.106c-0.068-0.001-0.012-0.054-0.111-0.041
					c0.004,0.018-0.04,0.027-0.07,0.04c-0.025-0.009-0.285,0.003-0.312-0.063c-0.029-0.027,0.112-0.009,0.037-0.036
					c-0.126-0.006-0.133,0.018-0.259,0.013l-0.002-0.009c-0.083-0.014-0.247,0.017-0.158,0.058c0.058,0.004-0.021-0.041,0.064-0.019
					c-0.06,0.036-0.206,0.039-0.333,0.034c0.043-0.008,0.039-0.025,0.057-0.044c-0.171,0.042-0.352,0.061-0.541,0.077
					c-0.004,0.031,0.072-0.056,0.1-0.039c-0.243-0.047-0.502,0.054-0.704-0.014c0.033-0.005,0.018,0.045,0.016,0.036
					c-0.117-0.006-0.111-0.052-0.188-0.035c-0.007-0.026-0.096,0.01-0.174,0.019c-0.041,0.02-0.021-0.013,0.048-0.016
					c-0.109,0.022-0.547,0.068-0.8,0.032c0.006,0.018-0.153,0.065-0.212,0.064l0.021-0.041c-0.054-0.025-0.193,0.01-0.205-0.026
					c-0.123,0.052,0.477-0.054,0.31-0.011c-0.044-0.035-0.231,0.069-0.197,0.013c-0.116,0.006-0.228,0.056-0.341,0.021
					c0.032,0.006,0.094-0.061-0.001-0.054c-0.166,0.013-0.047,0.021-0.181,0.039l-0.084,0.02c-0.004,0.04-0.148,0-0.085,0.043
					c-0.021-0.033-0.239,0.028-0.226-0.038l0.021-0.054c-0.072,0.007-0.115,0.06-0.17,0.085c-0.011-0.005-0.029-0.015-0.026-0.023
					c-0.008,0.079-0.172,0.003-0.253,0.069c-0.151-0.019-0.382,0.02-0.455-0.025c-0.114,0.031-0.218,0.065-0.35,0.057
					c0.024-0.009,0.062-0.014,0.067-0.031c-0.084-0.02-0.104,0.004-0.178,0.021c0.016-0.014-0.169-0.034-0.263-0.055
					c-0.113,0.033-0.069,0.073-0.08,0.101c-0.11-0.07-0.319,0.077-0.456,0.016c0.039-0.014,0.164-0.052,0.067-0.063
					c-0.112-0.07-0.207,0.074-0.379,0.051l0.047,0.062c-0.079-0.035-0.244,0.061-0.232-0.007c-0.055,0.029-0.201-0.002-0.177,0.061
					c-0.282-0.026-0.669,0.101-0.852,0.004c-0.038,0.015-0.139,0.017-0.114,0.047c0.069,0.027,0.089-0.037,0.116-0.016
					c-0.035,0.006-0.041,0.024-0.044,0.033c-0.088-0.003-0.156,0-0.081-0.063c-0.195-0.016-0.185,0.132-0.431,0.137
					c0.009-0.027-0.012-0.035-0.082-0.022l-0.129,0.062c-0.158,0.009-0.098-0.049-0.106-0.093c-0.083,0.018-0.187,0.028-0.221,0.066
					l-0.109-0.043c0.08,0.029-0.064,0.036-0.103,0.053l0.037-0.017c-0.018-0.017-0.113,0.009-0.162,0.021
					c0.016,0.025,0.116,0.023,0.172,0.023c-0.04,0.025-0.108,0.03-0.161,0.062c0.013-0.046-0.142-0.012-0.208-0.007
					c-0.078,0.001-0.081,0.051-0.104,0.053c-0.005-0.022-0.125,0.014-0.07-0.026c0.025-0.011,0.063,0.014,0.104-0.013
					c-0.053-0.01-0.053-0.05-0.153-0.006c-0.075,0.032,0.032,0.083-0.121,0.076c0.038-0.017,0.043-0.035,0.071-0.055l-0.144-0.003
					l-0.001,0.04c-0.02-0.007-0.007-0.012-0.017-0.017c-0.036,0.048-0.212,0.043-0.236,0.095c-0.069,0.016-0.152-0.004-0.22,0.002
					l0.012-0.006c-0.085-0.01-0.192,0.022-0.257,0.061l0.002-0.01c-0.046,0.004-0.15,0.027-0.203,0.06
					c-0.118-0.012-0.063-0.144-0.18-0.074c-0.114,0.02-0.168,0.102-0.117,0.119c-0.212,0.006-0.435,0.113-0.636,0.085
					c-0.027,0.021-0.007,0.028-0.066,0.048c-0.306,0.036-0.631,0.159-0.884,0.129c0.084-0.033-0.002-0.04-0.008-0.063
					c-0.065,0.05-0.094-0.02-0.108,0.046c0.014,0.034,0.011,0.053,0.098,0.051c-0.177,0.054-0.45,0.105-0.556,0.092
					c0.053,0.007,0.017,0.024-0.021,0.044c0.002-0.06-0.133-0.043-0.229-0.001l-0.008,0.037l-0.072-0.022
					c-0.036,0.02-0.027,0.081-0.133,0.069l-0.037-0.031c-0.098,0.05-0.234,0.128-0.353,0.121l-0.103-0.031
					c-0.047,0.016-0.121,0.063-0.033,0.06c-0.199,0.009-0.322,0.034-0.394,0.004c-0.306,0.179-0.783,0.286-1.167,0.37l0.006-0.028
					c-0.108,0-0.043,0.058-0.118,0.057c0.027-0.032-0.091-0.034-0.018-0.084c-0.153,0.008-0.179,0.089-0.271,0.123
					c-0.007,0.038,0.072-0.039,0.063,0.008c-0.014,0.016-0.209,0.021-0.22,0.078c-0.042-0.011-0.022-0.056-0.008-0.081l-0.083,0.047
					c-0.124-0.033,0.224-0.167,0.092-0.213l-0.081,0.028c-0.092-0.034,0.205-0.113-0.008-0.081
					c-0.084,0.047-0.143,0.141-0.057,0.143c-0.184,0.061-0.058,0.144-0.26,0.188c-0.062-0.017,0.159-0.047,0.11-0.079
					c-0.105-0.018-0.184,0.07-0.271,0.076c0.098-0.004,0.031,0.067-0.026,0.091c-0.108,0.002,0.055-0.064-0.093-0.033
					c-0.016,0.035-0.144,0.09-0.023,0.082c-0.035,0.079-0.155,0.019-0.221,0.09c-0.059-0.035,0.121-0.146-0.044-0.129
					c0.037,0.038-0.181,0.112-0.079,0.157c-0.065,0.003-0.081-0.031-0.043-0.07c-0.097-0.005-0.194,0.138-0.246,0.057l-0.019,0.054
					l-0.127-0.021c-0.078,0.02-0.235,0.128-0.247,0.057c-0.022,0.014-0.202,0.058-0.12,0.087c0.119,0,0.119-0.068,0.197-0.02
					c-0.093-0.032-0.158,0.048-0.218,0.083l-0.018-0.023c-0.035,0.021-0.124,0.038-0.141,0.074c0.025-0.023,0.005-0.037-0.026-0.036
					l-0.03,0.052c-0.148,0.063-0.056-0.062-0.203-0.009l0.106-0.063c-0.023,0.014-0.085-0.01-0.153,0.022l-0.075,0.139
					c-0.08,0.039-0.049-0.031-0.122,0.029l0.097-0.074c0.014-0.018-0.091-0.042-0.203-0.01c-0.069,0.032-0.167,0.118-0.047,0.105
					c-0.056,0.017-0.143,0.017-0.105-0.022c-0.125,0.049,0.028,0.034-0.075,0.089c-0.053-0.012-0.204-0.007-0.299-0.019l0.098-0.095
					l-0.077,0.021c0.086-0.078-0.062-0.023-0.02-0.092c-0.056,0.008-0.113,0.043-0.161,0.071c0.179,0.04-0.14,0.163-0.072,0.227
					c-0.205,0.081-0.186-0.147-0.369,0.036c0.041,0.01-0.045,0.099,0.08,0.037c-0.132,0.03-0.065,0.103-0.229,0.116
					c0.104-0.064-0.146-0.041,0.006-0.135c-0.004,0.028,0.098-0.009,0.12-0.022c-0.062-0.014-0.011-0.08-0.145-0.041
					c-0.079,0.031-0.191,0.065-0.163,0.101c0.017,0.043,0.123-0.041,0.084,0.019c-0.158,0.063-0.205,0.005-0.249,0.102
					c0.101-0.036,0.14,0.001,0.146,0.031l-0.113,0.054l0.015-0.036c-0.197,0.036-0.041,0.069-0.229,0.118l-0.104-0.031
					c0.029-0.063,0.275-0.061,0.218-0.131c-0.121,0.034-0.148,0.087-0.268,0.101l0.08-0.042c-0.044,0.011-0.119-0.082-0.272,0.032
					c-0.081,0.051-0.015,0.035-0.007,0.066c-0.19,0.067-0.238,0.115-0.36,0.159c0.007-0.066-0.222,0.063-0.104-0.039
					c0.074,0.014,0.352-0.076,0.402-0.152c-0.092-0.048,0.155-0.036,0.175-0.119c-0.155,0.046-0.169-0.024-0.207-0.062l-0.104,0.056
					c-0.006,0.048,0.051,0.03,0.067,0.072c-0.177,0.041-0.335,0.118-0.417,0.188c-0.064-0.003-0.06-0.05,0.008-0.076
					c-0.201,0.078-0.423,0.141-0.621,0.191c0.147,0.028-0.211,0.087-0.107,0.116c0.109-0.019,0.215,0.001,0.167,0.05
					c-0.066,0.018-0.007-0.03-0.039-0.036c-0.07,0.064-0.148-0.018-0.211,0.067c0.18-0.083,0.009-0.096,0.026-0.16
					c-0.125,0.074-0.006-0.039-0.14,0.004c-0.125,0.072-0.281,0.151-0.427,0.213c-0.204,0.012-0.474,0.159-0.64,0.219
					c-0.096,0.003-0.058-0.078-0.155-0.056c-0.111,0.039,0.104,0.036-0.069,0.065l0.012-0.018c-0.045,0.031-0.315,0.065-0.333,0.169
					l0.027-0.083l-0.078,0.046c-0.009-0.021-0.052-0.027-0.007-0.06c-0.117-0.009-0.209,0.084-0.318,0.125l0.084,0.013
					c-0.177,0.098-0.315,0.106-0.492,0.187l-0.009-0.039l-0.1,0.063c0.014-0.047-0.094-0.033-0.14,0.019l0.246-0.196
					c0.086-0.007-0.068,0.077-0.006,0.096c0.054,0.017,0.218-0.056,0.231-0.102c-0.066,0.02-0.066,0.029-0.11,0.062
					c-0.041-0.044,0.058-0.078,0.093-0.131c-0.032,0.015-0.086,0.016-0.088,0.035c0.058-0.05,0.122-0.079,0.232-0.119
					c-0.067,0.047,0.053,0.018,0.03,0.043c-0.008-0.05,0.093-0.102,0.234-0.138c0.116,0.019,0.245-0.126,0.409-0.167
					c-0.049,0.07-0.117,0.137-0.207,0.189c0.107-0.012,0.11-0.04,0.219-0.052c0.036-0.053,0.051-0.118,0.175-0.185l0.019,0.032
					c0.112-0.058,0.094-0.109,0.249-0.151c0.264-0.071,0.53-0.159,0.729-0.221l0.019,0.032c0.086-0.109,0.357-0.146,0.495-0.228
					c0.263-0.048,0.539-0.207,0.688-0.188c0.438-0.165,0.821-0.311,1.29-0.434l-0.063,0.074c0.072-0.063,0.063,0.013,0.143-0.019
					c-0.106-0.013,0.098-0.086,0.146-0.135c0.219-0.021,0.474-0.139,0.647-0.227l0.018,0.033c0.167-0.12,0.406-0.123,0.642-0.175
					c0.03,0.007,0.082,0.028,0.149,0.006c0.111-0.091,0.178-0.105,0.354-0.19c0.136-0.036,0.359-0.079,0.503-0.092
					c0.489-0.215,1.025-0.291,1.546-0.467l0.048,0.032c0.496-0.213,1.153-0.273,1.586-0.416l-0.027,0.081
					c0.144-0.01,0.313-0.086,0.267-0.13c0.145-0.007,0.342-0.106,0.443-0.066c0.145-0.016,0.168-0.069,0.284-0.104
					c0.292-0.032,0.396-0.056,0.665-0.121l-0.068,0.008c-0.026,0.021-0.023,0.053,0.044,0.045c0.098-0.04,0.375-0.052,0.258-0.119
					c0.298-0.008,0.668-0.164,0.961-0.146c-0.027-0.02,0.043-0.036,0.069-0.058c0.254-0.047,0.529-0.044,0.726-0.114
					c0.043,0.005-0.058,0.05,0.046,0.036c0.061-0.02-0.004-0.031,0.07-0.057c0.406-0.111,0.843-0.087,1.218-0.148
					c0.662-0.144,1.366-0.203,2.008-0.281l-0.005,0.019c0.209-0.089,0.514,0.017,0.676-0.102c0.052,0.011,0.195-0.013,0.16,0.025
					c0.168-0.063,0.486,0.005,0.729-0.076l-0.062,0.015c0.255,0.02,0.472-0.057,0.74-0.035c-0.026,0.009-0.075,0.018-0.081,0.035
					c0.105,0.027,0.238-0.088,0.3-0.007c0.059-0.004,0.04-0.045,0.004-0.04c0.583-0.007,1.202-0.085,1.809-0.123
					c0.436,0.038,0.029,0.141,0.37,0.071c0.029,0.017,0.02-0.032,0.025-0.015c0.132-0.024,0.208,0.093,0.299,0.048
					c-0.038-0.052,0.061-0.03,0.063-0.062c0.266,0.031,0.318,0.077,0.529,0.035l-0.017,0.027c0.246-0.077,0.531-0.027,0.74-0.114
					c1.361,0.001,2.659,0.069,3.978,0.155c1.299,0.14,2.576,0.242,3.885,0.478c0.296,0.121,0.319,0.123,0.661,0.149
					c-0.016,0.009-0.037,0.009-0.017,0.023c0.026-0.056,0.238,0.033,0.28-0.017c0.483,0.085,0.932,0.149,1.429,0.254
					c-0.08-0.01-0.129,0.029-0.035,0.044l0.104-0.018l0.013,0.02c0.066,0.004,0.142-0.011,0.079-0.042
					c1.261,0.198,2.453,0.614,3.645,0.992c0.277,0.107,0.682,0.239,0.99,0.339c0.874,0.438,1.619,0.802,2.487,1.397
					C1226.117,1429.925,1225.917,1429.941,1225.564,1429.76z"/>
				<path fill="#2583C1" d="M1184.55,1430.954c0.043,0.015,0.15-0.009,0.082,0.059
					C1184.613,1430.991,1184.549,1430.982,1184.55,1430.954z"/>
				<path fill="#2583C1" d="M1187.417,1430.269c0.001-0.01,0.044-0.002,0.054,0c-0.033,0.013-0.058,0.047-0.09,0.041
					C1187.415,1430.297,1187.406,1430.285,1187.417,1430.269z"/>
				<path fill="#2583C1" d="M1188.135,1430.056c-0.003,0.028-0.149,0.097-0.238,0.128L1188.135,1430.056z"/>
				<path fill="#2583C1" d="M1188.833,1429.952c0.063,0.004,0.051,0.02-0.026,0.043
					C1188.796,1429.983,1188.82,1429.969,1188.833,1429.952z"/>
				<path fill="#2583C1" d="M1188.862,1429.881c0.056-0.019,0.088-0.012,0.119-0.006
					C1188.971,1429.854,1188.857,1429.928,1188.862,1429.881z"/>
				<path fill="#2583C1" d="M1190.333,1429.523c0.035-0.012,0.104-0.054,0.145-0.035
					C1190.435,1429.479,1190.317,1429.568,1190.333,1429.523z"/>
				<path fill="#2583C1" d="M1190.999,1429.295l0.056-0.016c0.044,0,0.006,0.03-0.027,0.042L1190.999,1429.295z"/>
				<polygon fill="#2583C1" points="1203.535,1426.843 1203.46,1426.861 1203.469,1426.835 				"/>
				<path fill="#2583C1" d="M1209.132,1426.666c0.075-0.014,0.051,0.026,0.063,0.031
					C1209.127,1426.696,1209.221,1426.666,1209.132,1426.666z"/>
				<polygon fill="#2583C1" points="1212.159,1426.726 1212.135,1426.724 1212.148,1426.671 				"/>
			</g>
		</g>
	</g>
	<g display="inline">
		<g>
			<g>
				<path fill="#B94843" d="M1220.737,1427.621c1.813,1.729,3.194,3.223,3.088,3.335c-0.107,0.112-1.664-1.199-3.476-2.928"/>
			</g>
		</g>
	</g>
	<g display="inline">
		<g>
			<g>
				<path fill="#B94843" d="M1216.227,1426.515c2.177,1.688,3.865,3.156,3.77,3.278c-0.095,0.123-1.938-1.146-4.114-2.834"/>
			</g>
		</g>
	</g>
	<g display="inline">
		<g>
			<g>
				<path fill="#B94843" d="M1212.255,1426.221c1.894,1.351,3.356,2.55,3.267,2.676c-0.091,0.126-1.7-0.867-3.594-2.218"/>
			</g>
		</g>
	</g>
	<g display="inline">
		<g>
			<g>
				<path fill="#B94843" d="M1207.877,1426.192c2.189,0.961,3.915,1.855,3.853,1.998s-1.89-0.522-4.079-1.483"/>
			</g>
		</g>
	</g>
	<g display="inline">
		<g>
			<g>
				<path fill="#B94843" d="M1203.755,1426.452c1.592,0.366,2.856,0.786,2.821,0.938c-0.034,0.151-1.355-0.023-2.947-0.39"/>
			</g>
		</g>
	</g>
	<path display="inline" fill="#412311" d="M1134.464,1523.62c-0.78,1.868-4.571,3.434-6.581,4.158
		c-1.38,0.498,0.366,2.229,0.366,2.229l4.381-0.719l1.454-1.362l2.179,0.767l1.382-0.227l0.748-1.62l-1.485-2.878L1134.464,1523.62z
		"/>
	<g display="inline">
		<path fill="#67806C" d="M1133.925,1489.315c4.608,0.9,31.701-3.953,33.201,2.646s0.099,30.477-8.602,31.977
			s-29.7,7.077-39.24-3.723C1114.913,1515.266,1115.949,1485.803,1133.925,1489.315z"/>
		<pattern  id="SVGID_2_" xlink:href="#SVGID_1_" patternTransform="matrix(0.3 0 0 0.3 -4685.8433 -1038.4717)">
		</pattern>
		<path fill="url(#SVGID_2_)" d="M1133.925,1489.315c4.608,0.9,31.701-3.953,33.201,2.646s0.099,30.477-8.602,31.977
			s-29.7,7.077-39.24-3.723C1114.913,1515.266,1115.949,1485.803,1133.925,1489.315z"/>
	</g>
	<path display="inline" opacity="0.59" fill="#CB3C1B" enable-background="new    " d="M1124.175,1491.716
		c-1.801,1.95-9.522,22.8-3.187,26.55s28.836,5.354,34.536,1.35c6.105-4.289,1.018-8.635,5.198-18.234
		c6.761-15.528-2.648-4.715-8.498-5.615C1146.375,1494.865,1124.175,1491.716,1124.175,1491.716z"/>
	<path display="inline" opacity="0.46" enable-background="new    " d="M1123.285,1496.815c0,0,4.34,6.215,7.94,7.682
		c3.6,1.468,17.7,2.227,20.1,0.272c2.4-1.954,9.398-7.683,9.398-7.683l-13.542,1.528L1123.285,1496.815z"/>
	
		<radialGradient id="SVGID_3_" cx="-473.7563" cy="2389.5" r="22.8309" gradientTransform="matrix(1 0 0 1 1618.0801 -905.3887)" gradientUnits="userSpaceOnUse">
		<stop  offset="0.0056" style="stop-color:#F8E5D1"/>
		<stop  offset="0.5056" style="stop-color:#F5DBBC"/>
		<stop  offset="1" style="stop-color:#EDC292"/>
	</radialGradient>
	<path display="inline" fill="url(#SVGID_3_)" d="M1142.925,1464.115c-2.497,1.071-15.601,7.2-17.101,10.801
		c-1.499,3.6-10.499,17.699-4.499,22.199c5.999,4.5,22.799,9.301,26.999,6.601s24.9-10.318,20.4-19.409
		S1149.695,1461.211,1142.925,1464.115z"/>
	<path display="inline" fill="#FAE58E" d="M1124.896,1455.452c4.966-1.028,16.337-6.431,26.633-4.834
		c10.296,1.598,21.496,2.797,28.496,6.397c7,3.6,6.8,4,1,4.8c-5.801,0.8-9.399,2-6.399,3.4c3,1.399,9.69,3.363-1,1.8
		c-10.093-1.476-15.381-2.4-30.384-0.601C1129.453,1468.069,1106.367,1459.289,1124.896,1455.452z"/>
	<path display="inline" fill="#B94843" d="M1123.285,1476.416c-1.323-13.289,15.11-21.418,28.641-35.101
		c13.529-13.683,33.732-13.055,33.732-13.055l7.622-1.472c0,0-1.726,10.23-9.425,16.426c-7.924,6.375-13.846,13.448-14.073,20.473
		c-0.421,13.028,5.243,20.425,5.243,20.425S1124.095,1484.554,1123.285,1476.416z"/>
	
		<linearGradient id="SVGID_4_" gradientUnits="userSpaceOnUse" x1="-495.1626" y1="2406.2471" x2="-489.5552" y2="2406.2471" gradientTransform="matrix(1 0 0 1 1618.0801 -905.3887)">
		<stop  offset="0.0056" style="stop-color:#FEFBE5"/>
		<stop  offset="0.4494" style="stop-color:#FEF8CB"/>
		<stop  offset="1" style="stop-color:#FDF298"/>
	</linearGradient>
	<path display="inline" fill="url(#SVGID_4_)" d="M1124.896,1496.937c0,0-2.887,6.244-1.687,7.561
		c1.2,1.318,3.867-2.396,3.867-2.396S1131.496,1497.536,1124.896,1496.937z"/>
	
		<linearGradient id="SVGID_5_" gradientUnits="userSpaceOnUse" x1="-479.5996" y1="2410.3496" x2="-474.8384" y2="2410.3496" gradientTransform="matrix(1 0 0 1 1618.0801 -905.3887)">
		<stop  offset="0.0056" style="stop-color:#FEFBE5"/>
		<stop  offset="0.4494" style="stop-color:#FEF8CB"/>
		<stop  offset="1" style="stop-color:#FDF298"/>
	</linearGradient>
	<path display="inline" fill="url(#SVGID_5_)" d="M1138.742,1501.38c0,0-0.8,4.292,0.399,6.691c1.2,2.4,4.101-5.145,4.101-5.145
		S1143.242,1501.935,1138.742,1501.38z"/>
	<path display="inline" opacity="0.2" fill="#FFFFFF" enable-background="new    " d="M1130.825,1477.016
		c-2-1.601-3.785-1.4-2.893-6.4s4.995-9.8,8.044-12.6s19.486-10.48,16.699-12.65c-2.298-1.789,2.7-5.399,8.531-9.15
		c9.938-6.391,30.096-7.318,30.096-7.318s-2.456,2.519-6.467,6.319c-4.011,3.8-12.587,0.3-17.187,3.1
		c-4.601,2.8-17.417,13.778-22.024,16.577c-5.865,3.563-11.467,9.573-11.25,13.573s6.783,10.149,3.517,10.35
		C1134.625,1479.015,1130.825,1477.016,1130.825,1477.016z"/>
	<path display="inline" fill="#CB3C1B" d="M1153.411,1527.716c-0.498,0.336,0.012,0.825,0.4,0.6c0.388-0.225,0.063-0.6,0.063-0.6
		H1153.411z"/>
	<path display="inline" fill="#CB3C1B" d="M1127.829,1528.044c-0.499,0.336,0.012,0.825,0.399,0.6c0.388-0.225,0.063-0.6,0.063-0.6
		H1127.829z"/>
	<path display="inline" d="M1142.925,1486.615c-1.851,0.515-6.194,6.425-2.047,7.487c4.146,1.063,11.347,1.363,10.597-2.387
		S1145.625,1485.865,1142.925,1486.615z"/>
	<path display="inline" d="M1130.325,1484.116c-2.093,0.178-3.789-0.202-4.744,2.349c-0.956,2.551-1.413,4.051,2.115,5.251
		c3.529,1.2,7.279,1.35,7.579-1.8C1135.575,1486.766,1133.263,1483.867,1130.325,1484.116z"/>
	<path display="inline" fill="#767F25" d="M1142.318,1490.652c1.014-0.75,2.699-0.662,4.199-0.331s2.851,3.011,2.851,3.011
		s-4.834,0.465-6.982-0.135C1140.237,1492.597,1142.318,1490.652,1142.318,1490.652z"/>
	<path display="inline" fill="#767F25" d="M1128.02,1488.04c0,0,3.801-0.491,4.853,0.393c1.053,0.883,0.902,2.201,0.902,2.201
		l-1.8,1.081c0,0-4.726-0.154-4.623-1.169C1127.457,1489.532,1128.02,1488.04,1128.02,1488.04z"/>
	<path display="inline" opacity="0.34" enable-background="new    " d="M1131.754,1462.691c0,0,0.461,4.651,1.573,4.9
		c9.043,2.024,30.408,2.159,34.197,0c3.79-2.159,7.13-4.9,7.13-4.9s-30.368,1.945-32.284,1.035
		C1140.455,1462.815,1134.254,1461.167,1131.754,1462.691z"/>
	<path display="inline" fill="#FAE58E" d="M1133.782,1455.452c0,0,7.755,6.563,13.399,6.764c5.644,0.199,22.94-3.073,22.94-3.073
		l2.104-1.363v5.947c0,0,1.068,2.582-1.763,2.827c-0.442,0.038-3.725-2.332-4.217-2.29c-12.417,1.041-40.057,2.939-42.586-0.538
		C1120.39,1459.228,1133.782,1455.452,1133.782,1455.452z"/>
	<path display="inline" d="M1153.575,1510.615c1.255-1.333,3.495-3.094,5.048-2.071c1.553,1.021,2.244,2.521,2.349,3.722
		c0.104,1.2-1.639,2.733-2.349,1.65c-1.048-1.601-0.808-0.103-2.478,0.174c-1.67,0.275-1.82-1.524-1.82-1.524s0.3,1.756-0.75,1.553
		C1152.525,1513.916,1152.473,1511.786,1153.575,1510.615z"/>
	<path display="inline" d="M1119.285,1508.238c1.578-0.821,2.994-1.656,4,0.306c1.141,2.222,2.141,4.222,2.141,4.222
		s-1.68,0.85-2.75,0.25c-1.072-0.6-0.908-1.83-0.908-1.83s-0.101,2.832-1.117,1.851c-0.925-0.891-0.775-1.851-0.775-1.851
		s-0.307,2.681-1.237,2.144C1117.576,1512.716,1117.13,1509.359,1119.285,1508.238z"/>
</g>
<g>
	<path fill="#10252E" d="M-22,468c219.231-95.031,525.667,70.102,680.823,219.832c102.377,98.797,138.831,214.406,119.313,353.757
		c-14.026,100.149-30.331,198.732-0.678,297.811c10.346,34.568,27.499,66.513,37.673,101.088
		c12.054,40.962,12.26,87.809,34.34,125.344c21.771,37.011,18.573,42.439,18.423,80.509c-0.069,17.342,8.182,28.131,4.817,47.289
		c-4.808,27.367-22.53,44.797-17.714,75.063c5.748,36.134,22.061,54.528,47.844,70.264c39.658,24.202,96,26.207,138.385,47.365
		c16.511,8.242,29.101,16.896,43.299,28.094c3.971,3.132,4.221,21.078,4.221,21.078c36.594,17.457,152.777-36.94,180.188-66.149
		c6.972-7.43,0.61-17.621,7.924-25.686c12.486-13.77,32.457-22.089,46.002-35.776c112.721-113.905,241.882-39.806,379.742-30.361
		c54.272,3.718,105.769,2.484,159.394-3.611c56.502-6.423,113.609-11.267,170.359-4.956c44.416,4.939,86.789,11.122,131.68,8.754
		c41.701-2.199,82.703-5.548,124.424-1.788c26.261,2.366,49.322,4.306,70.783-13.732c19.401-16.307,33.146-41.822,27.665-67.483
		c-5.788-27.098-24.205-48.313-26.925-76.876c-2.309-24.245,12.973-62.155-3.609-81.788c-13.556-16.05-38.741-16.489-56.875-24.668
		c-11.443-5.161-21.773-13.341-34.122-12.228c-15.836,1.428-31.36,9.512-48.523,10.108c-29.864,1.038-63.504,9.185-92.863,1.019
		c-8.953-2.49-15.708-7.007-25.342-5.822c-13.56,1.667-27.254,10.34-39.25,16.408c-14.815,7.495-28.025,17.377-43,24.573
		c-14.513,6.975-30.702,10.799-46.199,15.5c-21.694,6.581-45.996,8.376-68.666,8.02c-19.631-0.309-39.935-2.357-59.305-5.818
		c-12.034-2.15-28.882-6.847-36.26-17.768c-6.257-9.262-3.377-22.14-3.313-32.587c0.099-16.184-1.933-42.216-6.614-57.461
		c-6.258-20.379-35.251-36.87-34.002-60.468c1.241-23.457,34.244-37.407,52.986-42.944c62.07-18.338,127.877-20.563,188.619-44.217
		c34.71-13.516,78.888-35.313,94.936-71.398c8.73-19.628,6.446-41.181,8.193-62.02c2.293-27.362,11.92-50.669,31.732-70.092
		c29.85-29.261,68.969-45.105,107.895-58.316c13.98-4.745,42.657-5.145,47.947-20.587c3.182-9.286-2.913-25.254-3.96-34.716
		c-1.323-11.956-1.058-23.546-0.853-35.523c1.859-108.497,82.178-187.109,159.646-253.298
		c107.146-91.545,237.83-189.162,377.29-222.285c162.708-38.646,259.481,75.628,317.054,214.773
		c106.652,257.763,136.893,551.979,179.125,825.436c41.877,271.151,103.31,553.709,98.894,829.221
		c-3.075,191.852-88.541,294.8-281.755,315.229c-314.524,33.256-646.467-29.94-959.452-57.013
		c-395.884-34.243-792.624-55.813-1190.103-49.454c-151.553,2.425-302.924,9.726-454.426,13.765
		c-102.117,2.722-208.691,7.433-309.17-14.782C46.935,2516.895-15.842,2362.425-46.98,2196.16
		c-49.137-262.368-46.442-537.146-42.861-803.03c3.06-227.15,12.616-455.069,40.516-680.666C-40.537,641.4-29.473,570.672-18,500
		L-22,468z"/>
	<path fill="#10252E" d="M1564.317,1597.496c72.9,2.194-111.656,6.617-107.959-44.213c3.324-45.691,142.589-49.696,186.172-34.091
		c35.615,12.753,47.449,50.223,11.591,75.313C1630.177,1611.259,1535.901,1596.641,1564.317,1597.496z"/>
	<path fill="#10252E" d="M940.618,1116.598c-2.576,76.669,130.151,81.08,207.896,86.671c42.698,3.071,61.496-9.418,93.657-31.818
		c20.348-14.172,47.771-28.105,32.141-56.867c-13.156-24.209-39.547-44.252-68.229-43.148c-12.864,0.496-22.216,7.957-34.327,11.166
		c-17.847,4.729-36.142,0.985-54.199,0.991c-14.396,0.005-28.347-0.144-42.473-1.487c-14.941-1.421-30.919-4.227-45.201-5.298
		c-17.02-1.278-31.958,10.968-47.303,16.234C969.32,1097.591,941.021,1104.574,940.618,1116.598z"/>
</g>
<g>
	<path fill="#24112E" d="M1832.688,1567.667c47.055,3.096,71.748,1.424,144.477-1.188c24.348-0.875,41.338-33.857,18.672-51.957
		c-32.002-25.561-94.967-19.582-132.322-15.641C1823.441,1503.114,1815.859,1566.56,1832.688,1567.667z"/>
	<path d="M1962.826,1546.948c1.689,4.592,1.471,9.473,1.793,14.27c0.109,1.652-4.221,4.797-5.965,5.52
		c-8.256,3.406-86.213,2.861-95.246,1.773c-2.318-0.279-5.904-1.338-5.934-4.039c-0.023-2.084-0.121-4.18-0.121-6.26
		c0.008-4.012,0.492-8.354,2.588-11.852c4.951-8.256,17.061-13.432,25.564-16.77c15.189-5.963,31.326-4.982,46.881-0.887
		C1942.658,1531.405,1958.67,1535.661,1962.826,1546.948z"/>
	
		<radialGradient id="SVGID_6_" cx="1805.9561" cy="1465.4414" r="36.3723" gradientTransform="matrix(1.2205 0 0 0.566 -294.0183 693.0383)" gradientUnits="userSpaceOnUse">
		<stop  offset="0" style="stop-color:#4B4B4D"/>
		<stop  offset="1" style="stop-color:#000000;stop-opacity:0"/>
	</radialGradient>
	<path fill="url(#SVGID_6_)" d="M1970.514,1522.487c0-14.732-27.025-26.664-60.365-26.664c-33.332,0-60.361,11.932-60.361,26.664
		c0,14.742,27.029,26.674,60.361,26.674C1943.488,1549.161,1970.514,1537.229,1970.514,1522.487z"/>
	<path fill="#10252E" d="M1832.688,1567.667c5.93,0.393,11.855,0.734,17.789,0.992c5.076,0.227,2.951-6.664,2.75-10.008
		c-0.227-3.811,4.961-16.383,6.107-19.637c2.559-7.275,23.844-12.395,30.184-13.641c11.004-2.16,28.229-5.156,38.871-1.496
		c8.82,3.031,24.666,7.6,31.975,13.416c4.619,3.672,4.539,23.234,6.73,24.525c2.674,1.572,5.564,2.777,8.627,3.305
		c5.941,1.027,12.037-0.572,17.008-3.898c9.072-6.066,15.498-18.533,13.58-29.523c-1.08-6.17-5.57-13.266-10.473-17.18
		c-32.002-25.561-94.967-19.582-132.322-15.641C1823.441,1503.114,1815.859,1566.56,1832.688,1567.667z"/>
	<g>
		
			<radialGradient id="SVGID_7_" cx="1910.2871" cy="1542.9131" r="53.4215" gradientTransform="matrix(-4.371139e-008 -1 2 -8.742278e-008 -1175.5391 3453.2002)" gradientUnits="userSpaceOnUse">
			<stop  offset="0" style="stop-color:#22404C"/>
			<stop  offset="0.0727" style="stop-color:#213F4B"/>
			<stop  offset="0.1699" style="stop-color:#1E3B46"/>
			<stop  offset="0.2811" style="stop-color:#19333D"/>
			<stop  offset="0.4025" style="stop-color:#112730"/>
			<stop  offset="0.531" style="stop-color:#05151C"/>
			<stop  offset="0.5697" style="stop-color:#020E15"/>
		</radialGradient>
		<path fill="url(#SVGID_7_)" d="M1867.488,1568.792c0,0-9.984-1.619-10.014-4.32c-0.023-2.084-0.121-4.18-0.121-6.26
			c0.008-4.012,0.492-8.354,2.588-11.852c4.951-8.256,17.061-13.432,25.564-16.77c15.189-5.963,31.326-4.982,46.881-0.887
			c10.271,2.701,26.283,6.957,30.439,18.244c1.689,4.592,1.471,9.473,1.793,14.27c0.109,1.652-4.221,4.797-5.965,5.52
			c0.918-0.379,5.033,1.838,6.086,2.107c3.436,0.887,8.449,1.682,9.949-2.361c0.709-1.904,0.807-3.83,1.777-5.66
			c0.963-1.818,3.816-4.498,4.084-6.49c0.148-1.129-1.838-2.008-2.523-2.564c-2.012-1.631-1.932-3.168,0.145-4.922
			c-0.613-1.752-3.387-2.66-4.535-4.195c-0.834-1.117-1.141-2.436-1.963-3.418c-0.645-0.773-1.273-0.359-1.152-1.887
			c0.084-1.031,0.936-1.689,1.229-2.678c-1.604-0.729-4.229-1.141-4.68-3.123c-1.072,0.242-4.543,1.096-5.377,0.291
			c-1.08-1.041,0.604-3.811,0.41-5.104c-1.83,0.318-2.039-1.395-2.418-2.754c-1,0.258-1.354-0.541-2.104-0.516
			c-1.902,0.064-4.039,2.619-5.99,2.096c-1.652-0.443-1.609-2.365-3.379-1.898c-1.814,0.475-2.918,2.504-4.949,2.557
			c-4.225,0.107-0.682-5.656-5.209-5c-0.686,0.098-1.225,0.279-1.846,0.617c-0.781,0.436-2.104,2.475-3,2.5
			c-1.543,0.039-2.717-3.092-3.096-4.334c-1.406,0.113-2.699,1.607-4.086,1.406c-1.848-0.266-2.25-3.195-3.338-4.467
			c-0.855,0.359-1.83,0.727-2.697,1.162c-0.012-0.971,0.037-1.955-0.027-2.932c-0.803,0.852-5.459,2.621-6.596,2.27
			c-1.039-0.322-0.674-1.184-1.564-1.648c-2.641-1.375-7.264,5.232-9.393,2.129c-1.035,0.549-3.168,3.387-4.426,2.979
			c-0.725-0.238-0.918-1.555-1.254-2.244c-0.955,1.148-2.93,3.563-4.539,3.703c-2.02,0.182-2.873-3.043-3.453-4.654
			c-2.217,0.627-4.551,2.313-6.047,3.9c-1.617,1.719-2.709,0.969-2.414-1.338c-1.67,2.535-6.402,4.422-9.373,4.568
			c-1.512,0.076-3.281-0.518-4.459-0.041c-1.895,0.77-2.119,2.311-4.563,1.857c-2.451-0.451-2.391-1.967-3.789-3.494
			c-2.104,1.709-8.51,13.814-10.158,4.834c-0.037,1.301-0.266,2.578-0.746,3.789c-0.736,1.857-0.818,2.672-0.811,4.889
			c0,1.85,0.219,6.535-0.676,8.18c-0.203-0.166-0.348-0.258-0.525-0.459c1.041,1.645,2.371,4.57,0.654,6.287
			c-1.102,1.092-2.5,0.379-4.092,0.15c-0.311,1.063,0.023,4.357-1.727,4.07c0.932,0.682,2.318,1.443,2.834,2.535
			c0.67,1.412,0.613,3.648-1.426,3.205c0.807,1.561,2.164,2.77,2.971,4.301c0.576,1.102,0.664,2.258,0.947,3.475
			c0.857,3.701,12.73,1.705,12.73,1.705L1867.488,1568.792z"/>
	</g>
	<g opacity="0.5">
		<linearGradient id="SVGID_8_" gradientUnits="userSpaceOnUse" x1="1958.4238" y1="1518.5713" x2="1954.0459" y2="1514.1934">
			<stop  offset="0" style="stop-color:#10252E"/>
			<stop  offset="1" style="stop-color:#010C13"/>
		</linearGradient>
		<circle fill="url(#SVGID_8_)" cx="1956.234" cy="1516.382" r="3.096"/>
		<linearGradient id="SVGID_9_" gradientUnits="userSpaceOnUse" x1="1860.7314" y1="1520.873" x2="1857.9348" y2="1518.0764">
			<stop  offset="0" style="stop-color:#10252E"/>
			<stop  offset="1" style="stop-color:#010C13"/>
		</linearGradient>
		<path fill="url(#SVGID_9_)" d="M1861.313,1519.474c0,1.092-0.887,1.979-1.979,1.979c-1.094,0-1.98-0.887-1.98-1.979
			c0-1.09,0.887-1.977,1.98-1.977C1860.426,1517.497,1861.313,1518.384,1861.313,1519.474z"/>
		<linearGradient id="SVGID_10_" gradientUnits="userSpaceOnUse" x1="1879.0654" y1="1511.0537" x2="1877.2411" y2="1509.2294">
			<stop  offset="0" style="stop-color:#10252E"/>
			<stop  offset="1" style="stop-color:#010C13"/>
		</linearGradient>
		<path fill="url(#SVGID_10_)" d="M1879.443,1510.142c0,0.713-0.58,1.289-1.289,1.289c-0.713,0-1.291-0.576-1.291-1.289
			c0-0.715,0.578-1.291,1.291-1.291C1878.863,1508.851,1879.443,1509.427,1879.443,1510.142z"/>
		<linearGradient id="SVGID_11_" gradientUnits="userSpaceOnUse" x1="1903.9775" y1="1507.8438" x2="1899.1113" y2="1502.9775">
			<stop  offset="0" style="stop-color:#10252E"/>
			<stop  offset="1" style="stop-color:#010C13"/>
		</linearGradient>
		<circle fill="url(#SVGID_11_)" cx="1901.544" cy="1505.409" r="3.44"/>
		<linearGradient id="SVGID_12_" gradientUnits="userSpaceOnUse" x1="1870.5293" y1="1520.4922" x2="1868.5841" y2="1518.547">
			<stop  offset="0" style="stop-color:#10252E"/>
			<stop  offset="1" style="stop-color:#010C13"/>
		</linearGradient>
		<path fill="url(#SVGID_12_)" d="M1870.93,1519.517c0,0.762-0.611,1.379-1.373,1.379s-1.375-0.617-1.375-1.379
			c0-0.758,0.613-1.373,1.375-1.373S1870.93,1518.759,1870.93,1519.517z"/>
		<linearGradient id="SVGID_13_" gradientUnits="userSpaceOnUse" x1="1929.1152" y1="1518.9248" x2="1926.2565" y2="1516.066">
			<stop  offset="0" style="stop-color:#10252E"/>
			<stop  offset="1" style="stop-color:#010C13"/>
		</linearGradient>
		<path fill="url(#SVGID_13_)" d="M1929.707,1517.493c0,1.117-0.906,2.023-2.02,2.023c-1.121,0-2.023-0.906-2.023-2.023
			c0-1.111,0.902-2.02,2.023-2.02C1928.801,1515.474,1929.707,1516.382,1929.707,1517.493z"/>
		<linearGradient id="SVGID_14_" gradientUnits="userSpaceOnUse" x1="1916.2979" y1="1512.9082" x2="1914.4735" y2="1511.0839">
			<stop  offset="0" style="stop-color:#10252E"/>
			<stop  offset="1" style="stop-color:#010C13"/>
		</linearGradient>
		<path fill="url(#SVGID_14_)" d="M1916.674,1511.995c0,0.713-0.576,1.291-1.289,1.291c-0.709,0-1.291-0.578-1.291-1.291
			s0.582-1.289,1.291-1.289C1916.098,1510.706,1916.674,1511.282,1916.674,1511.995z"/>
		<linearGradient id="SVGID_15_" gradientUnits="userSpaceOnUse" x1="1952.6484" y1="1520.7041" x2="1950.2778" y2="1518.3335">
			<stop  offset="0" style="stop-color:#10252E"/>
			<stop  offset="1" style="stop-color:#010C13"/>
		</linearGradient>
		<path fill="url(#SVGID_15_)" d="M1953.139,1519.517c0,0.928-0.75,1.678-1.676,1.678c-0.924,0-1.678-0.75-1.678-1.678
			c0-0.922,0.754-1.676,1.678-1.676C1952.389,1517.841,1953.139,1518.595,1953.139,1519.517z"/>
		<linearGradient id="SVGID_16_" gradientUnits="userSpaceOnUse" x1="1988.1973" y1="1531.916" x2="1986.1913" y2="1529.91">
			<stop  offset="0" style="stop-color:#10252E"/>
			<stop  offset="1" style="stop-color:#010C13"/>
		</linearGradient>
		<circle fill="url(#SVGID_16_)" cx="1987.192" cy="1530.913" r="1.419"/>
		<linearGradient id="SVGID_17_" gradientUnits="userSpaceOnUse" x1="1946.1523" y1="1514.0732" x2="1943.964" y2="1511.8849">
			<stop  offset="0" style="stop-color:#10252E"/>
			<stop  offset="1" style="stop-color:#010C13"/>
		</linearGradient>
		<circle fill="url(#SVGID_17_)" cx="1945.058" cy="1512.979" r="1.548"/>
		<linearGradient id="SVGID_18_" gradientUnits="userSpaceOnUse" x1="1888.0195" y1="1516.5693" x2="1885.8312" y2="1514.381">
			<stop  offset="0" style="stop-color:#10252E"/>
			<stop  offset="1" style="stop-color:#010C13"/>
		</linearGradient>
		<circle fill="url(#SVGID_18_)" cx="1886.925" cy="1515.474" r="1.548"/>
		<linearGradient id="SVGID_19_" gradientUnits="userSpaceOnUse" x1="1835.6045" y1="1558.3242" x2="1834.0211" y2="1556.7408">
			<stop  offset="0" style="stop-color:#10252E"/>
			<stop  offset="1" style="stop-color:#010C13"/>
		</linearGradient>
		<circle fill="url(#SVGID_19_)" cx="1834.813" cy="1557.53" r="1.121"/>
		<linearGradient id="SVGID_20_" gradientUnits="userSpaceOnUse" x1="1838.3369" y1="1544.373" x2="1835.4174" y2="1541.4535">
			<stop  offset="0" style="stop-color:#10252E"/>
			<stop  offset="1" style="stop-color:#010C13"/>
		</linearGradient>
		<circle fill="url(#SVGID_20_)" cx="1836.876" cy="1542.913" r="2.063"/>
		<linearGradient id="SVGID_21_" gradientUnits="userSpaceOnUse" x1="1974.0371" y1="1534.4375" x2="1971.1176" y2="1531.5179">
			<stop  offset="0" style="stop-color:#10252E"/>
			<stop  offset="1" style="stop-color:#010C13"/>
		</linearGradient>
		<circle fill="url(#SVGID_21_)" cx="1972.577" cy="1532.978" r="2.063"/>
		<linearGradient id="SVGID_22_" gradientUnits="userSpaceOnUse" x1="1983.6416" y1="1548.6367" x2="1981.088" y2="1546.0831">
			<stop  offset="0" style="stop-color:#10252E"/>
			<stop  offset="1" style="stop-color:#010C13"/>
		</linearGradient>
		<circle fill="url(#SVGID_22_)" cx="1982.364" cy="1547.36" r="1.806"/>
		<linearGradient id="SVGID_23_" gradientUnits="userSpaceOnUse" x1="2001.2832" y1="1542.6357" x2="1999.9436" y2="1541.2961">
			<stop  offset="0" style="stop-color:#10252E"/>
			<stop  offset="1" style="stop-color:#010C13"/>
		</linearGradient>
		<circle fill="url(#SVGID_23_)" cx="2000.613" cy="1541.966" r="0.947"/>
		<linearGradient id="SVGID_24_" gradientUnits="userSpaceOnUse" x1="1844.252" y1="1517.6934" x2="1842.915" y2="1516.3564">
			<stop  offset="0" style="stop-color:#10252E"/>
			<stop  offset="1" style="stop-color:#010C13"/>
		</linearGradient>
		<path fill="url(#SVGID_24_)" d="M1844.527,1517.026c0,0.52-0.42,0.943-0.943,0.943s-0.947-0.424-0.947-0.943
			c0-0.523,0.424-0.947,0.947-0.947S1844.527,1516.503,1844.527,1517.026z"/>
		<linearGradient id="SVGID_25_" gradientUnits="userSpaceOnUse" x1="1921.6484" y1="1500.6172" x2="1920.3115" y2="1499.2803">
			<stop  offset="0" style="stop-color:#10252E"/>
			<stop  offset="1" style="stop-color:#010C13"/>
		</linearGradient>
		<path fill="url(#SVGID_25_)" d="M1921.924,1499.95c0,0.52-0.42,0.943-0.943,0.943c-0.525,0-0.943-0.424-0.943-0.943
			c0-0.523,0.418-0.947,0.943-0.947C1921.504,1499.003,1921.924,1499.427,1921.924,1499.95z"/>
		<linearGradient id="SVGID_26_" gradientUnits="userSpaceOnUse" x1="1866.9658" y1="1502.7764" x2="1866.2974" y2="1502.1079">
			<stop  offset="0" style="stop-color:#10252E"/>
			<stop  offset="1" style="stop-color:#010C13"/>
		</linearGradient>
		<path fill="url(#SVGID_26_)" d="M1867.105,1502.442c0,0.262-0.215,0.471-0.473,0.471c-0.262,0-0.475-0.209-0.475-0.471
			s0.213-0.473,0.475-0.473C1866.891,1501.97,1867.105,1502.181,1867.105,1502.442z"/>
		<linearGradient id="SVGID_27_" gradientUnits="userSpaceOnUse" x1="1994.1953" y1="1556.1875" x2="1993.1001" y2="1555.0923">
			<stop  offset="0" style="stop-color:#10252E"/>
			<stop  offset="1" style="stop-color:#010C13"/>
		</linearGradient>
		<circle fill="url(#SVGID_27_)" cx="1993.647" cy="1555.64" r="0.774"/>
		<linearGradient id="SVGID_28_" gradientUnits="userSpaceOnUse" x1="1990.3057" y1="1523.1445" x2="1988.9032" y2="1521.7421">
			<stop  offset="0" style="stop-color:#10252E"/>
			<stop  offset="1" style="stop-color:#010C13"/>
		</linearGradient>
		<path fill="url(#SVGID_28_)" d="M1990.596,1522.444c0,0.543-0.443,0.99-0.992,0.99s-0.992-0.447-0.992-0.99
			c0-0.549,0.443-0.992,0.992-0.992S1990.596,1521.896,1990.596,1522.444z"/>
		<linearGradient id="SVGID_29_" gradientUnits="userSpaceOnUse" x1="1833.4023" y1="1530.623" x2="1831.9999" y2="1529.2206">
			<stop  offset="0" style="stop-color:#10252E"/>
			<stop  offset="1" style="stop-color:#010C13"/>
		</linearGradient>
		<circle fill="url(#SVGID_29_)" cx="1832.7" cy="1529.921" r="0.991"/>
		<linearGradient id="SVGID_30_" gradientUnits="userSpaceOnUse" x1="1961.0938" y1="1521.626" x2="1959.6346" y2="1520.1669">
			<stop  offset="0" style="stop-color:#10252E"/>
			<stop  offset="1" style="stop-color:#010C13"/>
		</linearGradient>
		<circle fill="url(#SVGID_30_)" cx="1960.362" cy="1520.896" r="1.032"/>
		<linearGradient id="SVGID_31_" gradientUnits="userSpaceOnUse" x1="1990.2598" y1="1516.127" x2="1988.9547" y2="1514.8219">
			<stop  offset="0" style="stop-color:#10252E"/>
			<stop  offset="1" style="stop-color:#010C13"/>
		</linearGradient>
		<path fill="url(#SVGID_31_)" d="M1990.531,1515.474c0,0.508-0.416,0.924-0.928,0.924c-0.508,0-0.918-0.416-0.918-0.924
			s0.41-0.922,0.918-0.922C1990.115,1514.552,1990.531,1514.966,1990.531,1515.474z"/>
		<linearGradient id="SVGID_32_" gradientUnits="userSpaceOnUse" x1="1878.4268" y1="1500.6123" x2="1877.8792" y2="1500.0647">
			<stop  offset="0" style="stop-color:#10252E"/>
			<stop  offset="1" style="stop-color:#010C13"/>
		</linearGradient>
		<path fill="url(#SVGID_32_)" d="M1878.541,1500.337c0,0.215-0.178,0.389-0.387,0.389c-0.219,0-0.387-0.174-0.387-0.389
			c0-0.213,0.168-0.387,0.387-0.387C1878.363,1499.95,1878.541,1500.124,1878.541,1500.337z"/>
		<linearGradient id="SVGID_33_" gradientUnits="userSpaceOnUse" x1="1942.2607" y1="1501.7295" x2="1941.1075" y2="1500.5763">
			<stop  offset="0" style="stop-color:#10252E"/>
			<stop  offset="1" style="stop-color:#010C13"/>
		</linearGradient>
		<path fill="url(#SVGID_33_)" d="M1942.498,1501.151c0,0.451-0.363,0.818-0.814,0.818s-0.814-0.367-0.814-0.818
			c0-0.447,0.363-0.814,0.814-0.814S1942.498,1500.704,1942.498,1501.151z"/>
		<linearGradient id="SVGID_34_" gradientUnits="userSpaceOnUse" x1="1977.9326" y1="1509.2168" x2="1977.202" y2="1508.4862">
			<stop  offset="0" style="stop-color:#10252E"/>
			<stop  offset="1" style="stop-color:#010C13"/>
		</linearGradient>
		<circle fill="url(#SVGID_34_)" cx="1977.567" cy="1508.851" r="0.517"/>
	</g>
	<g>
		<g>
			<g>
				
					<radialGradient id="SVGID_35_" cx="1910.7002" cy="1544.1523" r="57.8549" gradientTransform="matrix(-4.371139e-008 -1 2 -8.742278e-008 -1177.6045 3454.8525)" gradientUnits="userSpaceOnUse">
					<stop  offset="0" style="stop-color:#22404C"/>
					<stop  offset="0.0727" style="stop-color:#213F4B"/>
					<stop  offset="0.1699" style="stop-color:#1E3B46"/>
					<stop  offset="0.2811" style="stop-color:#19333D"/>
					<stop  offset="0.4025" style="stop-color:#112730"/>
					<stop  offset="0.531" style="stop-color:#05151C"/>
					<stop  offset="0.5697" style="stop-color:#020E15"/>
				</radialGradient>
				<polygon fill="url(#SVGID_35_)" points="1865.708,1563.018 1867.833,1563.134 1867.31,1562.576 1866.068,1565.368 
					1864.33,1569.893 1864.608,1565.77 1862.003,1572.882 1861.762,1570.836 1862.852,1564.765 1863.183,1561.92 1862.145,1563.139 
					1859.666,1567.474 1857.201,1570.579 1860.445,1563.395 1856.399,1567.663 1858.249,1564.784 1856.098,1564.486 
					1855.024,1563.822 1852.038,1563.206 1857.937,1562.373 1854.59,1561.768 1863.458,1560.841 1861.008,1560.223 
					1861.078,1559.54 1859.463,1558.884 1852.005,1558.212 1861.742,1557.573 1855.008,1556.69 1864.121,1556.394 
					1862.884,1555.729 1860.573,1554.898 1854.141,1553.485 1856.712,1553.035 1857.48,1552.408 1853.573,1550.859 
					1853.707,1549.997 1852.326,1548.696 1857.348,1549.295 1854.64,1547.485 1863.863,1550.324 1857.514,1546.816 
					1862.597,1548.588 1856.99,1544.595 1856.686,1543.362 1859.27,1544.114 1865.51,1547.888 1866.769,1548.218 1864.299,1545.396 
					1859.608,1540.185 1859.892,1539.281 1863.685,1542.002 1867.482,1545.059 1863.76,1539.909 1864.709,1539.875 
					1862.01,1535.347 1867.148,1540.624 1869.282,1542.325 1868.681,1540.374 1864.075,1532.51 1868.998,1538.371 
					1868.482,1536.263 1866.8,1532.18 1870.633,1536.94 1871.748,1537.414 1869.471,1532.03 1869.537,1530.558 1875.167,1539.236 
					1876.106,1539.575 1876.1,1538.095 1875.764,1535.924 1875.578,1533.947 1874.679,1530.423 1876.385,1532.271 
					1880.267,1538.902 1880.908,1538.677 1881.512,1538.327 1876.704,1525.698 1880.528,1532.608 1883.248,1537.147 
					1883.31,1535.521 1882.114,1530.796 1882.949,1530.936 1883.866,1531.272 1884.378,1530.623 1886.021,1532.824 
					1886.721,1532.691 1885.566,1527.707 1886.147,1527.122 1888.434,1531.371 1890.199,1534.448 1888.832,1528.127 
					1891.431,1534.056 1889.914,1526.662 1892.812,1534.204 1890.961,1524.872 1892.415,1527.485 1892.843,1526.188 
					1893.362,1525.191 1893.871,1523.999 1896.604,1533.494 1895.182,1522.853 1896.729,1527.035 1898.033,1530.418 
					1898.048,1526.209 1898.407,1523.66 1900.07,1530.391 1900.453,1527.992 1901.305,1529.33 1901.573,1525.193 1902.299,1525.127 
					1903.157,1526.705 1903.988,1528.454 1904.725,1529.149 1905.535,1531.749 1905.689,1518.633 1906.534,1520.115 
					1907.298,1520.035 1908.146,1528.865 1908.844,1524.41 1909.605,1521.81 1910.22,1528.634 1910.915,1528.452 1911.586,1528.986 
					1912.549,1523.472 1913.536,1519.339 1913.901,1525.441 1914.103,1532.405 1915.447,1524.352 1916.543,1520.504 
					1916.2,1531.402 1917.313,1527.474 1918.334,1524.892 1919.049,1525.059 1919.029,1530.664 1919.572,1531.706 
					1920.113,1532.748 1922.08,1524.584 1922.482,1526.665 1922.971,1528.075 1924.538,1523.422 1924.682,1526.689 
					1924.642,1530.654 1926.414,1525.434 1927.202,1525.251 1927.756,1526.175 1929.575,1521.428 1929.878,1523.495 
					1928.386,1533.031 1929.348,1532.008 1929.611,1533.818 1933.046,1523.238 1931.59,1531.718 1934.455,1523.68 
					1933.134,1531.496 1932.958,1534.922 1935.677,1527.572 1934.832,1533.392 1938.266,1523.672 1936.908,1531.211 
					1936.35,1535.691 1940.308,1524.719 1940.287,1527.368 1940.338,1529.724 1939.47,1534.899 1940.283,1534.641 
					1941.465,1533.284 1941.785,1534.519 1944.909,1527.713 1943.275,1534.499 1946.157,1528.743 1944.375,1535.529 
					1944.094,1538.104 1948.682,1528.636 1949.658,1528.358 1946.024,1538.633 1946.013,1540.209 1948.652,1536.101 
					1950.984,1532.93 1947.643,1541.167 1949.767,1538.445 1953.693,1532.725 1955.578,1531.026 1954.152,1535.016 
					1954.359,1536.104 1951.362,1541.957 1955.185,1537.517 1954.293,1539.96 1958.567,1535.513 1958.531,1536.866 
					1957.223,1539.601 1960.57,1537.021 1955.057,1543.846 1954.698,1544.953 1954.504,1545.831 1955.398,1545.722 
					1961.273,1541.859 1956.029,1546.479 1960.088,1544.446 1964.502,1542.627 1956.611,1547.782 1965.703,1543.99 
					1967.704,1544.117 1962.976,1546.893 1958.921,1548.982 1958.08,1549.823 1962.021,1549.382 1960.131,1550.492 
					1969.936,1549.271 1963.618,1551.187 1965.27,1551.683 1957.813,1553.303 1964.747,1553.233 1965.158,1553.935 
					1962.078,1554.882 1967.165,1555.282 1967.488,1556.012 1957.461,1557.201 1960.39,1557.785 1967.326,1558.212 
					1957.877,1559.351 1960.914,1559.953 1967.916,1560.308 1970.268,1560.846 1967.217,1563.126 1968.254,1565.444 
					1963.232,1562.633 1958.98,1559.25 1963.859,1565.317 1957.902,1559.282 1959.074,1561.574 1959.874,1563.667 
					1962.844,1569.297 1957.309,1561.864 1960.756,1569.189 1961.404,1573.153 1958.354,1571.741 1960.208,1566.469 
					1958.961,1571.83 1960,1570.822 1963.533,1564.376 1960.09,1574.022 1962.381,1570.645 1965.819,1564.342 1965.041,1567.678 
					1965.283,1569.617 1966.277,1568.393 1967.998,1562.558 1967.833,1567.113 1968.715,1564.307 1969.12,1564.976 
					1969.661,1572.103 1970.063,1566.664 1971.182,1570.29 1970.058,1563.771 1972.423,1569.127 1973.007,1568.702 
					1969.357,1563.748 1973.365,1567.226 1978.752,1569.464 1973.726,1566.125 1972.795,1565.129 1979.248,1566.135 
					1969.326,1562.897 1971.163,1562.545 1971.698,1561.789 1980.284,1563.676 1981.825,1563.894 1978.072,1561.677 
					1970.993,1556.359 1981.763,1562.97 1980.307,1561.129 1977.225,1557.867 1981.011,1559.909 1980.393,1558.503 
					1977.722,1555.714 1982.687,1558.096 1975.869,1553.453 1983.515,1556.162 1984.309,1554.835 1985.451,1550.468 
					1983.526,1548.9 1977.05,1555.84 1977.112,1554.592 1979.285,1550.218 1977.56,1551.177 1974.615,1552.296 1981.361,1548.527 
					1983.448,1549.78 1981.461,1550.618 1972.701,1544.641 1979.5,1549.2 1972.378,1544.949 1980.787,1544.188 1978.786,1544.31 
					1979.576,1541.898 1974.866,1546.86 1978.165,1540.934 1977.758,1540.384 1975.199,1542.887 1973.195,1544.111 
					1978.747,1538.844 1970.32,1543.631 1974.473,1540.489 1975.121,1539.279 1970.778,1540.68 1973.588,1537.636 
					1973.242,1535.051 1967.933,1538.783 1966.391,1537.015 1968.183,1535.535 1975.93,1539.021 1972.497,1535.928 
					1974.607,1533.484 1970.913,1534.82 1969.022,1537.909 1967.984,1538.242 1970.396,1530.707 1969.355,1531.709 
					1968.878,1531.662 1966.931,1532.465 1967.673,1530.904 1965.042,1525.538 1967.036,1538.337 1965.044,1531.907 
					1964.732,1534.762 1963.344,1527.861 1962.962,1535.553 1961.633,1535.507 1966.481,1526.884 1958.103,1531.761 
					1964.874,1530.827 1957.537,1528.729 1956.563,1527.473 1967.806,1529.833 1961.611,1527.399 1961.551,1527.714 
					1961.186,1528.188 1958.347,1529.615 1959.112,1526.65 1962.295,1524.559 1965.811,1523.092 1959.021,1525.613 
					1960.314,1519.106 1955.394,1529.016 1957.404,1518.1 1957.179,1524.593 1958.6,1528.981 1953.893,1521.16 1953.587,1522.201 
					1955.558,1527.139 1954.441,1526.866 1951.504,1520.621 1952.769,1532.434 1951.014,1527.705 1947.632,1530.475 
					1952.182,1523.188 1949.287,1524.938 1947.581,1526.475 1949.553,1517.961 1946.983,1519.011 1944.669,1518.006 
					1949.551,1528.182 1942.496,1519.558 1943.477,1522.026 1944.077,1523.771 1945.388,1527.445 1944.387,1527.76 
					1943.415,1531.828 1941.446,1532.674 1942.661,1524.567 1942.809,1524.42 1935.96,1526.672 1947.304,1522.972 
					1942.853,1523.188 1935.875,1523.87 1938.454,1523.048 1940.017,1521.62 1939.728,1520.288 1938.71,1525.384 1937.118,1514.664 
					1938.413,1525.162 1939.193,1527.364 1934.147,1518.093 1937.351,1523.957 1930.875,1518.643 1933.441,1521.92 
					1933.695,1523.007 1936.088,1527.418 1933.06,1518.552 1932.279,1524.628 1930.085,1525.564 1927.748,1525.845 
					1934.544,1520.705 1930.641,1522.069 1927.111,1522.745 1931.023,1520.415 1926.878,1525.801 1929.359,1520.04 
					1928.178,1519.364 1928.013,1520.658 1927.92,1522.203 1927.688,1525.631 1926.155,1520.519 1926.5,1519.269 1922.038,1523.144 
					1921.988,1521.588 1922.829,1520.083 1925.123,1518.192 1923.775,1518.005 1921.322,1518.549 1922.319,1518.676 
					1923.828,1521.704 1921.495,1517.89 1917.802,1511.414 1921.31,1515.964 1916.372,1517.342 1924.795,1516.666 
					1914.852,1515.997 1923.902,1510.885 1919.402,1515.599 1916.504,1511.346 1919.314,1518.924 1919.313,1521.093 
					1916.646,1516.286 1917.037,1519.761 1916.782,1521.969 1915.568,1521.093 1913.761,1514.473 1911.665,1522.962 
					1915.362,1515.039 1911.227,1516.981 1912.674,1514.122 1911.161,1515.27 1911.189,1519.108 1907.804,1510.907 
					1912.21,1522.154 1911.736,1521.99 1904.506,1511.334 1908.628,1519.271 1908.448,1520.373 1904.21,1514.567 1907.447,1522.227 
					1906.926,1524.363 1904.529,1521.1 1904.86,1512.559 1905.264,1515.276 1904.358,1513.291 1904.704,1521.676 1904.653,1522.321 
					1904.41,1523.032 1904.328,1524.145 1898.823,1518.904 1897.344,1517.538 1900.314,1525.838 1896.564,1525.237 
					1897.014,1520.808 1893.93,1521.189 1891.109,1521.277 1896.597,1523.109 1899.987,1522.395 1900.912,1524.372 
					1891.054,1516.303 1897.176,1523.458 1892.692,1519.56 1896.144,1525.731 1895.369,1527.871 1891.773,1517.591 
					1892.168,1520.265 1886.87,1527.1 1893.128,1519.301 1892.872,1519.221 1895.482,1517.553 1894.641,1517.555 1888.654,1519.199 
					1886.372,1519.242 1887.295,1520.98 1888.03,1517.877 1887.355,1518.156 1888.065,1521.07 1882.679,1513.186 1888.567,1523.938 
					1881.792,1515.455 1883.318,1518.902 1885.014,1522.053 1884.228,1522.154 1879.486,1518.579 1884.294,1524.944 
					1880.709,1520.086 1878.493,1525.673 1874.768,1523.382 1886.311,1520.944 1880.022,1520.538 1881.861,1522.581 
					1880.458,1522.527 1877.862,1520.62 1882.035,1527.729 1873.988,1516.63 1874.668,1518.628 1877.59,1525.792 1874.556,1520.876 
					1876.679,1528.093 1875.622,1527.761 1873.628,1524.03 1872.983,1524.353 1872.625,1526.286 1871.581,1524.506 
					1870.744,1521.582 1870.047,1526.674 1869.149,1527.159 1869.02,1521.401 1867.619,1531.026 1866.997,1522.852 
					1865.077,1521.408 1865.196,1524.135 1863.665,1523.575 1866.633,1528.569 1861.06,1521.028 1862.844,1524.471 
					1862.545,1529.384 1861,1531.45 1861.668,1524.953 1857.217,1531.2 1864.043,1521.762 1853.632,1528.858 1863.23,1521.761 
					1863.673,1520.077 1856.756,1528.765 1859.192,1525.078 1856.854,1523.994 1852.932,1521.921 1853.775,1523.504 
					1860.507,1529.435 1851.979,1523.925 1855.554,1527.537 1852.466,1526.028 1859.412,1532.609 1852.908,1528.164 
					1851.155,1527.477 1851.938,1529.13 1848.561,1526.149 1847.911,1525.418 1850.818,1530.982 1850.376,1534.873 
					1848.803,1532.438 1844.032,1534.625 1847.885,1530.385 1841.882,1531.521 1849.059,1528.464 1847.175,1522.749 
					1848.652,1528.834 1849.048,1529.732 1853.751,1531.694 1844.873,1530.255 1843.061,1530.14 1851.93,1534.214 
					1842.662,1531.975 1841.719,1532.9 1841.243,1533.995 1848.079,1535.31 1846.521,1535.953 1852.177,1536.657 1850.83,1537.357 
					1851.498,1538.106 1848.216,1538.909 1845.254,1539.658 1840.468,1540.271 1848.957,1541.29 1843.146,1541.692 
					1844.474,1542.469 1849.407,1544.002 1844.162,1543.634 1845.455,1541.938 1845.058,1547.62 1847.621,1543.902 
					1850.575,1543.516 1843.027,1547.628 1843.138,1548.049 1844.857,1548.129 1839.871,1548.492 1850.198,1550.262 
					1851.728,1553.131 1846.646,1551.495 1844.209,1548.809 1844.251,1547.343 1843.946,1550.444 1841.963,1556.655 
					1841.583,1555.045 1841.018,1549.348 1836.751,1551.009 1835.949,1551.704 1844.773,1553.34 1841.021,1553.523 
					1836.419,1551.925 1844.002,1560.382 1843.353,1557.628 1837.537,1559.888 1841.094,1556.027 1840.662,1557.667 
					1841.438,1557.635 1847.008,1555.462 1841.837,1558.474 1843.235,1558.896 1845.337,1560.15 1843.306,1560.757 
					1842.202,1560.803 1844.435,1563.963 1847.21,1557.832 1843.906,1560.672 1843.257,1562.046 1845.958,1560.884 
					1843.556,1563.707 1838.883,1567.63 1842.413,1565.978 1847.408,1564.604 1846.998,1565.756 1838.989,1568.218 
					1849.972,1566.776 1843.199,1568.91 1847.313,1567.846 1842.476,1574.58 1845.317,1573.05 1848.506,1566.699 1847.765,1571.984 
					1848.313,1573.899 1848.953,1576.428 1850.236,1570.74 1851.1,1565.332 1851.673,1573.271 1852.541,1577.419 1852.826,1564.049 
					1854.085,1574.7 1854.056,1564.484 1855.025,1568.112 1856.152,1572.143 1857.016,1573.08 1857.322,1569.832 1857.426,1565.754 
					1858.784,1569.962 1859.314,1568.501 1859.501,1564.596 1861.186,1571.31 1861.489,1568.225 1861.643,1564.072 
					1862.296,1563.476 1863.295,1565.316 1864.103,1565.836 1865.766,1572.37 1865.772,1567.168 1863.573,1569.066 				"/>
			</g>
		</g>
	</g>
</g>
<g>
	<path fill="#FFFFFF" stroke="#000000" d="M3132.604,687.586c-7.905-5.886-15.284-19.79-21.935-27.464
		c-14.344-16.555-33.883-31.355-43.105-51.165c-15.067-32.362-58.563-51.921-87.901-70.327c-13.007-8.16-24.809-18.712-39.46-23.794
		c-16.15-5.602-28.658-7.907-44.502-0.998c-24.178,10.544-48.022,8.252-73.707,10.739c-34.141,3.306-59.509,21.204-88.969,36.582
		c-22.487,11.738-44.04,28.051-60.916,47.223c-8.723,9.908-10.763,22.689-18.433,33.131c-10.638,14.479-27.549,19.055-44.389,21.915
		c-15.629,2.654-19.106,3.333-15.989,19.347c3.919,20.126,5.214,43.19-14.049,53.581c-20.648,11.138-38.184,26.412-52.751,44.806
		c-11.872,14.991-17.343,33.739-28.672,49.147c-10.241,13.928-22.946,12.348-38.231,17.511
		c-21.157,7.146-41.939,16.881-62.086,26.489c-7.566,3.608-17.342,6.286-24.281,10.955c-6.387,4.296-8.461,12.291-13.39,17.863
		c-9.212,10.416-21.239,18.191-30.509,28.739c-4.128,4.698-7.137,8.828-12.944,11.35c-8.174,3.549-26.853,9.819-26.853,9.819
		c1.859-108.497,82.178-187.109,159.646-253.298c107.146-91.545,237.83-189.162,377.29-222.285
		c162.708-38.646,259.481,75.628,317.054,214.773L3132.604,687.586z"/>
	<path fill="#FFFFFF" stroke="#000000" d="M2287.551,1032.103c-2.365,8.746-20.179,27.274-26.603,15.02
		c-3.858,13.927-23.243,22.647-36.345,25.391c-10.19,2.133-12.288,2.158-20.284,5.974c-9.996,4.771-34.207,28.072-44.262,20.891
		c-5.517,7.366-23.642,19.906-20.663,2.103c1.394-8.327,25.123-20.456,31.956-24.812c22.91-14.604,49.449-24.12,75.048-32.808
		c13.98-4.745,42.657-5.145,47.947-20.587"/>
	<path fill="#FFFFFF" stroke="#000000" d="M2003.643,1305.687c16.326-6.357,33.988-13.877,49.013-22.902
		c15.712-9.438,24.832-24.848,39.241-35.386c12.193-8.919,22.045-9.241,17.368,8.398c-5.202,19.619-23.755,21.652-35.617,33.485
		c-5.915,5.901-12.761,17.274-20.451,20.684c-8.367,3.709-11.275-1.915-16.608-0.537c-10.603,2.739-19.1,13.028-29.781,16.966
		c-20.346,7.501-36.324,23.649-56.464,29.725c-0.335-4.121-3.527-8.123-4.313-10.589c-10.904,24.766-39.467,4.539-56.616,7.421
		c-9.679,1.627-22.399,18.037-29.636,1.935c-9.987,19.636-26.016,19.521-38.811,33.508c-4.783,5.229-6.006,12.812-9.982,18.352
		c-4.95,6.896-15.538,12.031-13.939,21.771c0.061-0.449,0.08-0.901,0.059-1.356c-3.601,8.248-15.873,18.716-25.301,19.08
		c0.377,4.486-0.813,9.397-0.12,13.99c-0.94,1.117-7.073,5.84-8.845,6.764c-1.528-25.396-10.416-61.163,2.184-84.463
		c9.759-18.046,31.162-27.062,50.001-32.627C1877.094,1331.565,1942.9,1329.34,2003.643,1305.687z"/>
	<path fill="#FFFFFF" stroke="#000000" d="M2354.667,1779.501c-18.146-2.947-22.889-3.29-37,2.833
		c-7.914,3.434-18.75-5.744-27.302-2.058c-9.51,4.099-12.121,8.718-22.324,10.694c-11.911,2.307-23.451-4.317-32.517-4.254
		c-19.34,0.137-40.672,6.622-60.739,7.574c-15.549,0.738-28.455,9.146-44.617,15.406c-21.953,8.506-37.078,3.353-58.68,4.1
		c-16.959,0.586-30.529,4.024-43.215,13.979c-14.229,11.168-6.216,14.704-27.185,9.553c-18.41-4.522-35.429-16.374-54.273-20.901
		c-5.25-1.261-8.46-7.415-14.25-6.888c-4.423,0.402-6.303,9.578-10.712,9.758c-10.463,0.426-6.058-1.45-13.729-4.165
		c-16.114-5.703-31.28-13.46-47.615-19.881c-15.88,9.992-25.143,30.297-37.096,44.595c-1.47,0.237-2.321-0.862-4.078-0.576
		c-1.215,12.468-10.429,47.498-19.839,53.664c-10.211,6.691-29.744-2.324-41.325-5.191c-27.158-6.724-62.97-11.161-84.49-31.35
		c-5.37-5.038-12.555-21.745-18.677-22.784c-7.241-1.229-11.206,11.5-17.681,9.623c-9.699-2.811-9.423-21.755-8.181-29.717
		c-13.012,26.528-29.56,4.026-42.551-4.494c-17.938-11.766-32.329,0.668-52.02-5.775c-15.385-5.035-16.638-11.223-31.346-12.257
		c-20.667-1.453-32.817,17.863-52.6,16.876c-17.818-0.89-19.355-11.507-34.323,5.427c-9.688,10.96-16.649,20.634-27.361,31.261
		c-27.174,26.962-8.194,95.645-40.046,111.98c-9.817,5.034-14.952,0.521-24.238,1.276c-5.964,0.484-12.324,3.438-17.994,3.689
		c-40.088,1.772-63.433-12.119-81.604-44.104c-16.277,28.332-49.886,35.165-78.982,42.874c-13.196,3.496-30.741,5.547-41.92,13.844
		c-15.469,11.479-8.243,17.797-32.391,13.144c-2.417-0.466-19.063-2.855-21.201-3.997c-7.399-3.95-3.596-5.472-9.446-10.952
		c-24.647-23.09-5.86-39.045-8.52-69.336c-15.189,23.725-27.15,16.585-33.975-11.957c-17.883-0.054-39.251-4.8-41.071,18.943
		c0.724,1.111-4.142-4.165-2.659-3.199c-0.306,3.772-1.402,18.591-7.59,24.282c-1.344-14.26-26.258-58.999-42.086-68.786
		c-12.527-7.746-21.869,0.721-27.776-16.087c-5.673,18.465-19.307,30.291-38.542,33.351c-43.747,6.957-17.054-20.735-12.84-42.155
		c4.843-24.618-14.757-30.107-17.858-49.217c-4.314-26.586,35.398-32.14,47.708-16.396c7.929,10.142,7.973,27.842,16.729,39.34
		c8.124,10.667,18.854,18.943,30.209,25.871c39.657,24.197,95.994,26.204,138.376,47.36c16.511,8.242,29.101,16.896,43.299,28.094
		c3.971,3.132,4.221,21.078,4.221,21.078c36.594,17.457,152.777-36.94,180.188-66.149c6.972-7.43,0.61-17.621,7.924-25.686
		c12.486-13.77,32.457-22.089,46.002-35.776c112.721-113.905,241.882-39.806,379.742-30.361
		c54.272,3.718,105.769,2.484,159.394-3.611c56.502-6.423,113.609-11.267,170.359-4.956c44.416,4.939,86.789,11.122,131.68,8.754
		c41.701-2.199,82.703-5.548,124.424-1.788c26.261,2.366,49.322,4.306,70.783-13.732"/>
	<path fill="#FFFFFF" stroke="#000000" d="M662,688c-7.472,0.66-16.091,9.436-23.674,3.946c-3.14,8.298-16.366,8.643-25.07,9.01
		c-21.09,0.89-23.854-21.581-36.032-34.069c-5.008-5.136-11.418-10.864-17.236-17.287c-10.637-11.742-28.858-15.361-41.073-27.587
		c-15.046,18.176-23.333-7.798-31.715-16.927c-1.649,18.444-1.382,35.253-14.014,50.238c-9.984-15.908-24.061-30.854-36.771-44.515
		c-16.909-18.172-38.179-31.444-41.675-58.264c-1.417,9.031-9.4,11.33-17.522,8.422c-14.791-5.294-20.64-24.677-28.066-36.764
		c-9.118,18.613-20.875-11.5-22.582-17.02c-6.988,1.372-16.64,5.771-24.342,1.894c-7.281-3.666-6.831-12.271-14.309-16.082
		c-16.285,11.962-42.325-14.829-57.714,1.928c-3.469-4.157-1.99-9.451-5.429-14.145c-11.987,13.27-21.818,17.835-28.144,35.389
		c-2.284,6.337-6.378,26.7-16.159,26.172c-10.392-0.561-9.427-21.382-9.498-28.138c-1.46,19.991-7.639,45.899-24.264,58.579
		c-8.506,6.487-7.182,7.368-19.091,5.364c-15.258-2.567-21.947-11.741-32.537-23.396c-12.979-14.286-15.245-22.696-20.679-40.27
		c-2.802-9.062-5.063-21.214-10.389-29.354c-6.794,9.507-19.167,12.395-26.268,21.919c-4.993,6.699-7.708,15.469-14.236,21.089
		c-12.004,10.335-31.531,5.445-35.832-10.44C-16.901,500.782-19.771,483.83-22,466c219.231-95.031,525.667,70.102,680.823,219.832"
		/>
	<path fill="#FFFFFF" stroke="#000000" d="M1642,1515c-5.032,1.345-10.787,7.863-16.133,10.906
		c-6.336,3.607-7.021,2.763-13.734,2.546c-8.527-0.275-16.023-1.743-23.89-3.314c-3.131-0.625-4.637-2.309-8.02-2.532
		c-1.187-0.079-2.045,3.544-4.495,3.384c-4.938-0.323-7.342-3.426-9.803-7.815c-11.592,7.69-26.123-0.938-36.503,8.715
		c-3.663,3.406-3.881,7.345-9.663,10.274c-4.329,2.194-9.725,3.183-14.651,6.106c-10.218,6.064-33.39,25.666-45.243,10.738
		c-20.976-26.415,60.139-40.577,72.008-42.251c34.791-4.907,76.891-6.655,110.657,5.436"/>
	<path fill="#FFFFFF" stroke="#000000" d="M1206.083,1069.436c-12.864,0.496-22.216,7.957-34.327,11.166
		c-17.847,4.729-36.142,0.985-54.199,0.991c-14.396,0.005-28.347-0.144-42.473-1.487c-14.941-1.421-30.919-4.227-45.201-5.298
		c-17.02-1.278-31.958,10.968-47.306,16.235c-10.2,3.5-31.804,6.798-38.417,16.081c-4.011,5.631-3.16,9.767,3.877,12.3
		c8.139,2.931,16.828-4.075,21.888-9.594c5.604,2.445,10.24,0.697,15.633-1.267c9.476-3.449,5.8-6.042,18.473-3.668
		c17.319,3.245,38.65,1.145,55.739-3.852c3.386,8.623,1.744,17.984,10.954,23.089c7.494,4.154,22.728,4.817,30.501,1.166
		c2.959-1.39,5.065-4.652,7.864-6.257c6.969-3.996,15.375-4.782,22.981-7.188c8.953-2.832,17.841-4.575,21.674-13.943
		c6.403,3.862,9.913,9.641,17.233,8.08c6.23-1.328,9.151-8.367,16.338-9.074c5.46-0.538,10.756,3.343,16.837,1.6
		c7.196-2.063,8.62-6.275,16.543-4.943c6.973,1.173,9.466,6.449,14.862,8.511c7.092,2.711,18.79-5.365,23.064-2.319
		c2.854,2.034,0.686,8.289,2.719,11.023c2.331,3.131,7.984,4.861,11.319,6.588c4.545-11.433-15.006-27.157-22.975-33.153
		C1237.159,1074.795,1221.958,1068.824,1206.083,1069.436z"/>
</g>
</svg>
